<?xml version="1.0" encoding="utf-8"?>
<!-- Generator: Adobe Illustrator 18.1.1, SVG Export Plug-In . SVG Version: 6.00 Build 0)  -->
<!DOCTYPE svg PUBLIC "-//W3C//DTD SVG 1.1//EN" "http://www.w3.org/Graphics/SVG/1.1/DTD/svg11.dtd">
<svg version="1.1" id="Layer_1" xmlns="http://www.w3.org/2000/svg" xmlns:xlink="http://www.w3.org/1999/xlink" x="0px" y="0px"
	 width="159.9px" height="52.2px" viewBox="-399.1 418 159.9 52.2" enable-background="new -399.1 418 159.9 52.2"
	 xml:space="preserve">
<g id="model-title_2_">
	<g>
		<path fill="#F2F2F2" d="M-391.5,427.3c0.9,0,1.6,0.1,2.4,0.3c0.7,0.2,1.3,0.5,1.9,0.9c0.5,0.4,0.9,0.9,1.2,1.6
			c0.3,0.7,0.4,1.5,0.4,2.5c0,1.1-0.3,2.1-0.8,2.9c-0.5,0.8-1.3,1.3-2.3,1.6l0,0c1.2,0.2,2.1,0.6,2.8,1.5c0.7,0.8,1,1.9,1,3.3
			c0,0.8-0.1,1.6-0.3,2.3c-0.2,0.7-0.6,1.4-1.1,1.9c-0.5,0.6-1.2,1-2,1.3c-0.8,0.3-1.8,0.5-3.1,0.5h-7.2v-20.8H-391.5z
			 M-393.1,435.8c1.2,0,2-0.2,2.5-0.6c0.5-0.4,0.8-1.1,0.8-2.1s-0.2-1.7-0.7-2.1s-1.2-0.6-2.3-0.6h-1.5v5.4
			C-394.3,435.8-393.1,435.8-393.1,435.8z M-392.7,445c1,0,1.8-0.2,2.4-0.7c0.6-0.4,0.9-1.3,0.9-2.5c0-0.6-0.1-1.1-0.2-1.5
			c-0.2-0.4-0.4-0.7-0.7-1c-0.3-0.2-0.6-0.4-1-0.5s-0.8-0.1-1.3-0.1h-1.7v6.2h1.6V445z"/>
		<path fill="#F2F2F2" d="M-373.1,427.3l5.5,20.9h-4.4l-1-4.4h-5.4l-1,4.4h-4.4l5.5-20.9C-378.3,427.3-373.1,427.3-373.1,427.3z
			 M-373.6,440.3l-2-9.4h-0.1l-2,9.4H-373.6z"/>
		<path fill="#F2F2F2" d="M-362.7,442.2c0,0.5,0,0.9,0.1,1.3s0.2,0.7,0.4,1c0.2,0.3,0.5,0.5,0.9,0.6c0.4,0.2,0.8,0.2,1.3,0.2
			c0.6,0,1.2-0.2,1.7-0.6s0.8-1.1,0.8-1.9c0-0.5-0.1-0.9-0.2-1.2c-0.1-0.3-0.3-0.6-0.6-0.9c-0.3-0.3-0.7-0.5-1.1-0.7
			c-0.5-0.2-1.1-0.4-1.8-0.7c-0.9-0.3-1.7-0.6-2.4-1c-0.7-0.4-1.2-0.8-1.7-1.3s-0.8-1.1-1-1.7c-0.2-0.6-0.3-1.4-0.3-2.2
			c0-2,0.6-3.6,1.7-4.6s2.7-1.5,4.7-1.5c0.9,0,1.8,0.1,2.6,0.3c0.8,0.2,1.5,0.5,2,1c0.6,0.5,1,1,1.3,1.7c0.3,0.7,0.5,1.6,0.5,2.5
			v0.6h-4c0-1-0.2-1.7-0.5-2.3c-0.3-0.5-0.9-0.8-1.7-0.8c-0.5,0-0.9,0.1-1.2,0.2c-0.3,0.1-0.6,0.3-0.7,0.5c-0.2,0.2-0.3,0.5-0.4,0.8
			s-0.1,0.6-0.1,0.9c0,0.6,0.1,1.2,0.4,1.6c0.3,0.4,0.9,0.8,1.7,1.2l3.2,1.4c0.8,0.3,1.4,0.7,1.9,1.1s0.9,0.8,1.2,1.2
			s0.5,0.9,0.6,1.4s0.2,1.1,0.2,1.7c0,2.2-0.6,3.8-1.9,4.8c-1.3,1-3,1.5-5.3,1.5c-2.4,0-4-0.5-5.1-1.5c-1-1-1.5-2.5-1.5-4.4v-0.8
			h4.2v0.6H-362.7z"/>
		<path fill="#F2F2F2" d="M-339.2,430.7h-7.5v4.9h7.1v3.4h-7.1v5.6h7.8v3.4h-12v-20.9h11.7V430.7z"/>
	</g>
	<g>
		<path fill="#F2F2F2" d="M-327.7,427.3l3,14.7h0.1l3-14.7h6.2v20.9h-3.8v-16.6h-0.1l-3.7,16.6h-3.2l-3.8-16.6h-0.1v16.6h-3.8v-20.9
			H-327.7z"/>
		<path fill="#F2F2F2" d="M-312.7,433.3c0.1-1.3,0.5-2.5,1-3.4s1.2-1.7,2.1-2.2c0.9-0.5,2.2-0.8,3.7-0.8c1.5,0,2.8,0.3,3.7,0.8
			c0.9,0.5,1.6,1.3,2.1,2.2s0.8,2.1,1,3.4c0.2,1.3,0.2,2.8,0.2,4.3c0,1.6-0.1,3-0.2,4.4c-0.1,1.3-0.5,2.4-1,3.4
			c-0.5,1-1.2,1.7-2.1,2.2c-0.9,0.5-2.2,0.8-3.7,0.8c-1.5,0-2.8-0.3-3.7-0.8c-0.9-0.5-1.6-1.2-2.1-2.2c-0.5-1-0.8-2.1-1-3.4
			c-0.1-1.3-0.2-2.8-0.2-4.4C-312.9,436.2-312.8,434.6-312.7,433.3z M-308.6,441.3c0.1,1,0.2,1.8,0.4,2.4c0.2,0.6,0.5,1.1,0.9,1.3
			c0.4,0.2,0.9,0.4,1.5,0.4s1.1-0.1,1.5-0.4c0.4-0.3,0.7-0.7,0.9-1.3c0.2-0.6,0.3-1.4,0.4-2.4c0.1-1,0.1-2.2,0.1-3.6
			c0-1.4,0-2.6-0.1-3.5c-0.1-1-0.2-1.8-0.4-2.4c-0.2-0.6-0.5-1.1-0.9-1.3c-0.4-0.3-0.9-0.4-1.5-0.4s-1.1,0.1-1.5,0.4
			c-0.4,0.3-0.7,0.7-0.9,1.3c-0.2,0.6-0.3,1.4-0.4,2.4s-0.1,2.1-0.1,3.5C-308.7,439.1-308.7,440.3-308.6,441.3z"/>
		<path fill="#F2F2F2" d="M-289.1,427.3c1.4,0,2.6,0.2,3.5,0.7c0.9,0.5,1.6,1.2,2.1,2c0.5,0.9,0.8,1.9,1,3.2
			c0.2,1.2,0.3,2.6,0.3,4.1c0,1.8-0.1,3.4-0.3,4.7c-0.2,1.3-0.6,2.5-1.1,3.3c-0.5,0.9-1.3,1.5-2.2,1.9c-0.9,0.4-2.1,0.6-3.5,0.6
			h-6.7v-20.7H-289.1z M-289.9,445c0.7,0,1.3-0.1,1.8-0.4c0.4-0.3,0.8-0.7,1.1-1.2c0.3-0.6,0.4-1.3,0.5-2.3c0.1-0.9,0.1-2.1,0.1-3.5
			c0-1.2,0-2.2-0.1-3.1c-0.1-0.9-0.2-1.6-0.5-2.2c-0.2-0.6-0.6-1-1.1-1.3c-0.5-0.3-1.1-0.4-1.9-0.4h-1.7v14.7h1.8V445z"/>
		<path fill="#F2F2F2" d="M-267.7,430.7h-7.5v4.9h7.1v3.4h-7.1v5.6h7.8v3.4h-12v-20.9h11.7L-267.7,430.7L-267.7,430.7z"/>
		<path fill="#F2F2F2" d="M-265.3,427.3h4.2v17.4h7.5v3.4h-11.7V427.3L-265.3,427.3z"/>
		<path fill="#F2F2F2" d="M-248.4,442.2c0,0.5,0,0.9,0.1,1.3c0.1,0.4,0.2,0.7,0.4,1c0.2,0.3,0.5,0.5,0.9,0.6
			c0.4,0.2,0.8,0.2,1.3,0.2c0.6,0,1.2-0.2,1.7-0.6s0.8-1.1,0.8-1.9c0-0.5-0.1-0.9-0.2-1.2c-0.1-0.3-0.3-0.6-0.6-0.9
			c-0.3-0.3-0.7-0.5-1.1-0.7c-0.5-0.2-1.1-0.4-1.8-0.7c-0.9-0.3-1.7-0.6-2.4-1c-0.7-0.4-1.2-0.8-1.7-1.3s-0.8-1.1-1-1.7
			c-0.2-0.6-0.3-1.4-0.3-2.2c0-2,0.6-3.6,1.7-4.6s2.7-1.5,4.7-1.5c0.9,0,1.8,0.1,2.6,0.3s1.5,0.5,2,1c0.6,0.5,1,1,1.3,1.7
			c0.3,0.7,0.5,1.6,0.5,2.5v0.6h-4c0-1-0.2-1.7-0.5-2.3c-0.3-0.5-0.9-0.8-1.7-0.8c-0.5,0-0.9,0.1-1.2,0.2c-0.3,0.1-0.6,0.3-0.7,0.5
			c-0.2,0.2-0.3,0.5-0.4,0.8c-0.1,0.3-0.1,0.6-0.1,0.9c0,0.6,0.1,1.2,0.4,1.6c0.3,0.4,0.9,0.8,1.7,1.2l3.2,1.4
			c0.8,0.3,1.4,0.7,1.9,1.1c0.5,0.4,0.9,0.8,1.2,1.2s0.5,0.9,0.6,1.4c0.1,0.5,0.2,1.1,0.2,1.7c0,2.2-0.6,3.8-1.9,4.8
			c-1.3,1-3,1.5-5.3,1.5c-2.4,0-4-0.5-5.1-1.5c-1-1-1.5-2.5-1.5-4.4v-0.8h4.2v0.6H-248.4z"/>
	</g>
	<line fill="none" stroke="#F2F2F2" stroke-miterlimit="10" x1="-398.6" y1="450" x2="-238.8" y2="450"/>
	<g enable-background="new    ">
		<path fill="#F2F2F2" d="M-351.6,417.8c0.4,0,0.8,0.1,1.1,0.2c0.3,0.1,0.5,0.3,0.7,0.6c0.2,0.2,0.3,0.5,0.4,0.8
			c0.1,0.3,0.1,0.6,0.1,0.9c0,0.4-0.1,0.8-0.2,1.2c-0.1,0.3-0.3,0.6-0.6,0.8c-0.2,0.2-0.5,0.4-0.9,0.5c-0.3,0.1-0.7,0.2-1.1,0.2
			h-0.9v3.4h-1.7v-8.6H-351.6z M-352.1,421.7c0.3,0,0.6-0.1,0.8-0.3c0.2-0.2,0.3-0.5,0.3-1c0-0.4-0.1-0.8-0.3-1
			c-0.2-0.2-0.5-0.3-0.9-0.3h-0.7v2.6H-352.1z"/>
		<path fill="#F2F2F2" d="M-345.2,417.8c0.7,0,1.3,0.2,1.7,0.5c0.4,0.4,0.6,0.9,0.6,1.7c0,0.6-0.1,1-0.3,1.4
			c-0.2,0.4-0.6,0.6-1.1,0.7v0c0.4,0.1,0.7,0.2,0.9,0.4c0.2,0.2,0.3,0.6,0.4,1c0,0.2,0,0.3,0,0.5c0,0.2,0,0.4,0,0.6
			c0,0.5,0,0.8,0.1,1c0,0.2,0.2,0.4,0.3,0.5v0.1h-1.9c-0.1-0.1-0.1-0.3-0.2-0.4s0-0.3,0-0.5l0-1.6c0-0.3-0.1-0.6-0.3-0.8
			s-0.4-0.3-0.8-0.3h-0.9v3.6h-1.7v-8.6H-345.2z M-345.9,421.5c0.4,0,0.7-0.1,1-0.3c0.2-0.2,0.3-0.5,0.3-1c0-0.8-0.4-1.2-1.2-1.2
			h-0.8v2.5H-345.9z"/>
		<path fill="#F2F2F2" d="M-336.9,419.2h-3.1v2h2.9v1.4h-2.9v2.3h3.2v1.4h-4.9v-8.6h4.8V419.2z"/>
		<path fill="#F2F2F2" d="M-332.6,423.6h-3.4v-1.4h3.4V423.6z"/>
		<path fill="#F2F2F2" d="M-328.6,417.8c0.6,0,1.1,0.1,1.5,0.3c0.4,0.2,0.7,0.5,0.9,0.8c0.2,0.4,0.3,0.8,0.4,1.3
			c0.1,0.5,0.1,1.1,0.1,1.7c0,0.8,0,1.4-0.1,2c-0.1,0.6-0.2,1-0.5,1.4c-0.2,0.4-0.5,0.6-0.9,0.8s-0.9,0.3-1.4,0.3h-2.7v-8.6H-328.6z
			 M-328.9,425.1c0.3,0,0.5-0.1,0.7-0.2c0.2-0.1,0.3-0.3,0.4-0.5c0.1-0.2,0.2-0.6,0.2-0.9c0-0.4,0.1-0.9,0.1-1.5c0-0.5,0-0.9,0-1.3
			c0-0.4-0.1-0.7-0.2-0.9s-0.2-0.4-0.4-0.6c-0.2-0.1-0.5-0.2-0.8-0.2h-0.7v6H-328.9z"/>
		<path fill="#F2F2F2" d="M-319.8,419.2h-3.1v2h2.9v1.4h-2.9v2.3h3.2v1.4h-4.9v-8.6h4.8V419.2z"/>
		<path fill="#F2F2F2" d="M-317.4,423.9c0,0.2,0,0.4,0,0.5s0.1,0.3,0.2,0.4c0.1,0.1,0.2,0.2,0.4,0.3c0.1,0.1,0.3,0.1,0.6,0.1
			c0.3,0,0.5-0.1,0.7-0.3c0.2-0.2,0.3-0.4,0.3-0.8c0-0.2,0-0.4-0.1-0.5c-0.1-0.1-0.1-0.3-0.3-0.4c-0.1-0.1-0.3-0.2-0.5-0.3
			c-0.2-0.1-0.4-0.2-0.7-0.3c-0.4-0.1-0.7-0.3-1-0.4c-0.3-0.2-0.5-0.3-0.7-0.5c-0.2-0.2-0.3-0.4-0.4-0.7c-0.1-0.3-0.1-0.6-0.1-0.9
			c0-0.8,0.2-1.5,0.7-1.9c0.5-0.4,1.1-0.6,1.9-0.6c0.4,0,0.7,0,1.1,0.1c0.3,0.1,0.6,0.2,0.8,0.4c0.2,0.2,0.4,0.4,0.6,0.7
			c0.1,0.3,0.2,0.6,0.2,1.1v0.2h-1.7c0-0.4-0.1-0.7-0.2-0.9c-0.1-0.2-0.4-0.3-0.7-0.3c-0.2,0-0.4,0-0.5,0.1s-0.2,0.1-0.3,0.2
			c-0.1,0.1-0.1,0.2-0.2,0.3s0,0.2,0,0.4c0,0.3,0.1,0.5,0.2,0.7c0.1,0.2,0.4,0.3,0.7,0.5l1.3,0.6c0.3,0.1,0.6,0.3,0.8,0.4
			c0.2,0.2,0.4,0.3,0.5,0.5c0.1,0.2,0.2,0.4,0.3,0.6c0,0.2,0.1,0.5,0.1,0.7c0,0.9-0.3,1.6-0.8,2c-0.5,0.4-1.3,0.6-2.2,0.6
			c-1,0-1.7-0.2-2.1-0.6s-0.6-1-0.6-1.8v-0.3h1.7V423.9z"/>
		<path fill="#F2F2F2" d="M-312.5,417.8h1.7v8.6h-1.7V417.8z"/>
		<path fill="#F2F2F2" d="M-305.8,419.8c0-0.2-0.1-0.3-0.2-0.5c-0.1-0.1-0.2-0.3-0.3-0.3s-0.3-0.1-0.5-0.1c-0.4,0-0.7,0.2-0.9,0.7
			c-0.2,0.5-0.3,1.2-0.3,2.3c0,0.5,0,1,0,1.4c0,0.4,0.1,0.8,0.2,1.1s0.2,0.5,0.4,0.7c0.2,0.2,0.4,0.2,0.6,0.2c0.1,0,0.2,0,0.3-0.1
			c0.1-0.1,0.2-0.1,0.3-0.3c0.1-0.1,0.2-0.3,0.3-0.4s0.1-0.4,0.1-0.6V423h-1.1v-1.3h2.8v4.6h-1.3v-0.8h0c-0.2,0.3-0.5,0.6-0.8,0.7
			s-0.6,0.2-1,0.2c-0.5,0-1-0.1-1.3-0.3c-0.3-0.2-0.6-0.5-0.8-0.9c-0.2-0.4-0.3-0.9-0.4-1.4c-0.1-0.6-0.1-1.2-0.1-2
			c0-0.7,0-1.4,0.1-1.9c0.1-0.5,0.2-1,0.5-1.4c0.2-0.4,0.5-0.6,0.9-0.8c0.4-0.2,0.8-0.3,1.4-0.3c0.9,0,1.6,0.2,2,0.7s0.6,1.1,0.6,2
			h-1.7C-305.7,420.2-305.7,420-305.8,419.8z"/>
		<path fill="#F2F2F2" d="M-298.8,423.7L-298.8,423.7l0-5.9h1.6v8.6h-2l-2.1-6h0v6h-1.6v-8.6h2L-298.8,423.7z"/>
		<path fill="#F2F2F2" d="M-291.2,419.2h-3.1v2h2.9v1.4h-2.9v2.3h3.2v1.4h-4.9v-8.6h4.8V419.2z"/>
		<path fill="#F2F2F2" d="M-287.3,417.8c0.6,0,1.1,0.1,1.5,0.3c0.4,0.2,0.7,0.5,0.9,0.8c0.2,0.4,0.3,0.8,0.4,1.3
			c0.1,0.5,0.1,1.1,0.1,1.7c0,0.8,0,1.4-0.1,2c-0.1,0.6-0.2,1-0.5,1.4c-0.2,0.4-0.5,0.6-0.9,0.8s-0.9,0.3-1.4,0.3h-2.7v-8.6H-287.3z
			 M-287.6,425.1c0.3,0,0.5-0.1,0.7-0.2c0.2-0.1,0.3-0.3,0.4-0.5c0.1-0.2,0.2-0.6,0.2-0.9c0-0.4,0.1-0.9,0.1-1.5c0-0.5,0-0.9,0-1.3
			c0-0.4-0.1-0.7-0.2-0.9c-0.1-0.2-0.2-0.4-0.4-0.6s-0.5-0.2-0.8-0.2h-0.7v6H-287.6z"/>
	</g>
</g>
<g>
	<path fill="#FFFFFF" d="M-389.1,452c1.6,0,2.8,0.4,3.7,1.2s1.3,1.8,1.3,3.2c0,1-0.2,1.9-0.7,2.6c-0.5,0.8-1.2,1.3-2.2,1.5v0
		c0.5,0.1,0.9,0.2,1.2,0.5s0.5,0.5,0.7,0.8c0.2,0.3,0.3,0.6,0.4,1s0.1,0.8,0.2,1.2c0,0.4,0.1,0.8,0.1,1.2c0,0.4,0.1,0.8,0.1,1.2
		s0.1,0.8,0.3,1.1c0.1,0.4,0.3,0.7,0.5,1h-2.4c-0.2-0.2-0.3-0.4-0.3-0.7c-0.1-0.3-0.1-0.6-0.1-1c0-0.4,0-0.8,0-1.2
		c0-0.4-0.1-0.8-0.1-1.2c-0.1-0.4-0.1-0.8-0.2-1.1c-0.1-0.4-0.2-0.7-0.4-0.9s-0.5-0.5-0.8-0.6s-0.8-0.2-1.3-0.2h-5.4v7h-2.2V452
		H-389.1z M-388.6,459.5c0.5-0.1,0.9-0.2,1.2-0.5c0.3-0.2,0.6-0.5,0.8-0.9c0.2-0.4,0.3-0.9,0.3-1.5c0-0.8-0.2-1.5-0.7-2
		c-0.5-0.5-1.2-0.8-2.2-0.8h-5.4v5.7h4.6C-389.6,459.6-389.1,459.6-388.6,459.5z"/>
	<path fill="#FFFFFF" d="M-369.7,452v1.8h-9.2v5.2h8.6v1.8h-8.6v5.7h9.3v1.8h-11.4V452H-369.7z"/>
	<path fill="#FFFFFF" d="M-364.6,452l8.7,13.4h0V452h2.1v16.5h-2.4l-8.6-13.2h0v13.2h-2.1V452H-364.6z"/>
	<path fill="#FFFFFF" d="M-352,453.8V452h13.2v1.8h-5.5v14.6h-2.2v-14.6H-352z"/>
	<path fill="#FFFFFF" d="M-332.3,452l6.4,16.5h-2.4l-1.8-5h-7l-1.8,5h-2.2l6.4-16.5H-332.3z M-330.7,461.7l-2.7-7.7h0l-2.8,7.7
		H-330.7z"/>
	<path fill="#FFFFFF" d="M-322,452v14.6h8.7v1.8h-10.9V452H-322z"/>
	<path fill="#FFFFFF" d="M-293.5,467.3c-1.1,1.1-2.7,1.6-4.8,1.6c-2.1,0-3.8-0.5-5-1.5s-1.8-2.6-1.8-4.8V452h2.2v10.5
		c0,1.5,0.4,2.6,1.2,3.4s1.9,1.1,3.4,1.1c1.4,0,2.5-0.4,3.2-1.1c0.7-0.8,1.1-1.9,1.1-3.4V452h2.2v10.5
		C-291.8,464.6-292.4,466.2-293.5,467.3z"/>
	<path fill="#FFFFFF" d="M-286,452l8.7,13.4h0V452h2.1v16.5h-2.4l-8.6-13.2h0v13.2h-2.1V452H-286z"/>
	<path fill="#FFFFFF" d="M-269.3,452v16.5h-2.2V452H-269.3z"/>
	<path fill="#FFFFFF" d="M-267.4,453.8V452h13.2v1.8h-5.5v14.6h-2.2v-14.6H-267.4z"/>
	<path fill="#FFFFFF" d="M-244.1,454.3c-0.7-0.5-1.7-0.8-2.8-0.8c-0.5,0-0.9,0-1.4,0.1c-0.4,0.1-0.8,0.2-1.2,0.5
		c-0.3,0.2-0.6,0.5-0.8,0.9c-0.2,0.4-0.3,0.8-0.3,1.4c0,0.5,0.2,0.9,0.5,1.2s0.7,0.6,1.2,0.8s1.1,0.4,1.7,0.5s1.3,0.3,1.9,0.4
		c0.7,0.2,1.3,0.3,1.9,0.5c0.6,0.2,1.2,0.5,1.7,0.8c0.5,0.4,0.9,0.8,1.2,1.3c0.3,0.5,0.5,1.2,0.5,2c0,0.9-0.2,1.6-0.6,2.3
		s-0.9,1.1-1.5,1.5s-1.3,0.7-2.1,0.9s-1.5,0.3-2.3,0.3c-0.9,0-1.8-0.1-2.6-0.3c-0.8-0.2-1.5-0.6-2.2-1.1c-0.6-0.5-1.1-1.1-1.5-1.8
		c-0.4-0.7-0.5-1.6-0.5-2.6h2.1c0,0.7,0.1,1.3,0.4,1.8c0.3,0.5,0.6,0.9,1.1,1.2s1,0.6,1.5,0.7c0.6,0.2,1.2,0.2,1.8,0.2
		c0.5,0,1,0,1.5-0.1c0.5-0.1,1-0.2,1.4-0.5c0.4-0.2,0.7-0.5,1-0.9s0.4-0.9,0.4-1.5c0-0.6-0.2-1-0.5-1.4c-0.3-0.4-0.7-0.6-1.2-0.9
		c-0.5-0.2-1.1-0.4-1.7-0.5s-1.3-0.3-1.9-0.4c-0.7-0.1-1.3-0.3-1.9-0.5s-1.2-0.4-1.7-0.8c-0.5-0.3-0.9-0.7-1.2-1.2
		c-0.3-0.5-0.4-1.1-0.4-1.9c0-0.8,0.2-1.6,0.5-2.2c0.3-0.6,0.8-1.1,1.3-1.5s1.2-0.7,1.9-0.9s1.5-0.3,2.2-0.3c0.8,0,1.6,0.1,2.4,0.3
		c0.7,0.2,1.4,0.5,1.9,0.9c0.5,0.4,1,1,1.3,1.6c0.3,0.7,0.5,1.4,0.5,2.3h-2.1C-243,455.6-243.4,454.8-244.1,454.3z"/>
</g>
</svg>
