<?xml version="1.0" encoding="utf-8"?>
<!-- Generator: Adobe Illustrator 18.1.1, SVG Export Plug-In . SVG Version: 6.00 Build 0)  -->
<!DOCTYPE svg PUBLIC "-//W3C//DTD SVG 1.1//EN" "http://www.w3.org/Graphics/SVG/1.1/DTD/svg11.dtd">
<svg version="1.1" xmlns="http://www.w3.org/2000/svg" xmlns:xlink="http://www.w3.org/1999/xlink" x="0px" y="0px" width="217.5px"
	 height="72.5px" viewBox="0 0 217.5 72.5" enable-background="new 0 0 217.5 72.5" xml:space="preserve">
<g id="landing1">
	<g id="Main_Body">
	</g>
	<g id="info_icons">
		<g>
			<path fill="#727272" d="M55.6,7.8c-0.4-0.8-1.1-1.1-2.2-1.1c-0.6,0-1.1,0.2-1.4,0.5c-0.4,0.3-0.7,0.8-0.9,1.5
				c-0.2,0.7-0.4,1.6-0.4,2.7c-0.1,1.1-0.1,2.5-0.1,4.1c0,1.7,0.1,3.1,0.2,4.2c0.1,1.1,0.3,1.9,0.5,2.5c0.2,0.6,0.6,1,0.9,1.2
				c0.4,0.2,0.8,0.3,1.3,0.3c0.4,0,0.8-0.1,1.1-0.2c0.4-0.1,0.7-0.4,0.9-0.8c0.3-0.4,0.5-1,0.6-1.8c0.1-0.8,0.2-1.8,0.2-3H61
				c0,1.2-0.1,2.4-0.3,3.5s-0.5,2.1-1.1,2.9c-0.5,0.8-1.3,1.5-2.2,2c-0.9,0.5-2.2,0.7-3.7,0.7c-1.7,0-3.1-0.3-4.1-0.8
				c-1-0.6-1.8-1.4-2.4-2.4s-0.9-2.3-1.1-3.7c-0.2-1.5-0.2-3.1-0.2-4.8c0-1.7,0.1-3.3,0.2-4.8c0.2-1.5,0.5-2.7,1.1-3.8
				s1.3-1.9,2.4-2.4s2.4-0.9,4.1-0.9c1.6,0,2.9,0.3,3.9,0.8c0.9,0.5,1.7,1.2,2.1,2c0.5,0.8,0.8,1.7,0.9,2.7c0.1,0.9,0.2,1.8,0.2,2.7
				h-4.6C56.2,9.8,56,8.5,55.6,7.8z"/>
			<path fill="#727272" d="M63.3,14c0.2-1.1,0.6-2.1,1.2-2.8s1.2-1.3,2.1-1.7c0.9-0.4,1.9-0.6,3.2-0.6c1.3,0,2.4,0.2,3.3,0.5
				c0.9,0.4,1.6,0.9,2.1,1.7c0.5,0.8,0.9,1.7,1.1,2.8c0.2,1.1,0.3,2.5,0.3,4c0,1.5-0.1,2.8-0.4,3.9s-0.6,2.1-1.2,2.8
				c-0.5,0.8-1.2,1.3-2.1,1.7c-0.9,0.4-1.9,0.5-3.2,0.5c-1.3,0-2.4-0.1-3.3-0.5c-0.9-0.4-1.6-0.9-2.1-1.7c-0.5-0.8-0.9-1.7-1.1-2.8
				c-0.2-1.1-0.3-2.5-0.3-4C63,16.5,63.1,15.2,63.3,14z M67.4,20.4c0,0.7,0.1,1.4,0.3,1.9c0.2,0.5,0.4,0.9,0.7,1.2
				c0.3,0.3,0.7,0.4,1.3,0.4c0.9,0,1.5-0.5,1.9-1.4c0.3-0.9,0.5-2.5,0.5-4.6c0-2.2-0.2-3.7-0.5-4.6c-0.3-0.9-1-1.4-1.9-1.4
				c-0.5,0-1,0.1-1.3,0.4c-0.3,0.3-0.6,0.7-0.7,1.2c-0.2,0.5-0.3,1.2-0.3,1.9c0,0.7-0.1,1.6-0.1,2.4C67.4,18.8,67.4,19.6,67.4,20.4z
				"/>
			<path fill="#727272" d="M83.1,9.3v2h0.1c0.5-0.9,1.1-1.5,1.8-1.9c0.7-0.4,1.6-0.6,2.6-0.6c1.4,0,2.5,0.4,3.2,1.2
				c0.8,0.8,1.1,2,1.1,3.7v12.8h-4.4V14.7c0-0.9-0.1-1.5-0.4-1.9c-0.3-0.4-0.8-0.5-1.4-0.5c-1.6,0-2.3,1-2.3,2.8v11.4h-4.4V9.3H83.1
				z"/>
			<path fill="#727272" d="M93.6,12.3v-3h2.2v-2c0-0.8,0.1-1.4,0.3-2c0.2-0.5,0.5-1,0.9-1.3c0.4-0.3,0.9-0.5,1.5-0.7
				c0.6-0.1,1.2-0.2,1.9-0.2c0.8,0,1.6,0,2.4,0.1v3.1c-0.1,0-0.3,0-0.4,0H102c-0.6,0-1.1,0.1-1.3,0.3c-0.3,0.2-0.4,0.6-0.4,1.1v1.5
				h2.6v3h-2.6v14.2h-4.4V12.3H93.6z"/>
			<path fill="#727272" d="M108.9,3.4v3.8h-4.4V3.4H108.9z M108.9,9.3v17.2h-4.4V9.3H108.9z"/>
			<path fill="#727272" d="M124.9,25.7c0,2.2-0.5,3.9-1.6,5c-1.1,1.1-2.9,1.7-5.5,1.7c-1.9,0-3.3-0.4-4.3-1.2s-1.5-1.9-1.5-3.4h4.2
				c0,0.6,0.2,1,0.7,1.3c0.2,0.1,0.4,0.3,0.7,0.4c0.2,0.1,0.5,0.1,0.8,0.1c0.9,0,1.5-0.3,1.9-0.9c0.4-0.6,0.5-1.3,0.5-2.1v-2.3h-0.1
				c-0.4,0.6-1,1.2-1.6,1.5c-0.7,0.4-1.3,0.6-2,0.6c-1.7,0-3.1-0.7-4-2c-0.9-1.3-1.3-3.6-1.3-6.7c0-1,0.1-2,0.2-3.1s0.4-2,0.7-2.8
				c0.4-0.8,0.9-1.5,1.6-2.1c0.7-0.5,1.7-0.8,2.9-0.8c0.6,0,1.3,0.2,1.9,0.5c0.7,0.3,1.2,1,1.6,1.9h0.1V9.3h4.2V25.7z M116.2,20.2
				c0.1,0.5,0.2,1,0.3,1.4s0.4,0.7,0.7,1c0.3,0.2,0.7,0.4,1.1,0.4c0.5,0,0.9-0.1,1.2-0.4c0.3-0.2,0.6-0.6,0.7-1
				c0.2-0.4,0.3-0.9,0.4-1.6c0.1-0.6,0.1-1.3,0.1-2c0-2.1-0.2-3.6-0.5-4.4c-0.3-0.9-0.9-1.3-1.8-1.3c-0.5,0-0.9,0.1-1.2,0.3
				c-0.3,0.2-0.5,0.6-0.7,1c-0.2,0.5-0.3,1.1-0.3,1.9c-0.1,0.8-0.1,1.8-0.1,2.9C116.1,19.1,116.1,19.7,116.2,20.2z"/>
			<path fill="#727272" d="M136.8,24.5c-0.5,0.9-1.1,1.5-1.8,1.8c-0.7,0.4-1.6,0.5-2.6,0.5c-1.4,0-2.5-0.4-3.2-1.1s-1.1-2-1.1-3.7
				V9.3h4.4v11.9c0,0.9,0.1,1.5,0.4,1.9c0.3,0.4,0.8,0.5,1.4,0.5c1.6,0,2.3-0.9,2.3-2.8V9.3h4.4v17.2h-4.2L136.8,24.5L136.8,24.5z"
				/>
			<path fill="#727272" d="M148.3,9.3v2.3h0.1c0.4-0.8,1-1.5,1.6-2c0.6-0.5,1.4-0.8,2.3-0.8c0.1,0,0.3,0,0.4,0c0.1,0,0.3,0,0.4,0
				v4.2c-0.2,0-0.5,0-0.7,0c-0.2,0-0.5,0-0.7,0c-0.4,0-0.8,0.1-1.2,0.2c-0.4,0.1-0.7,0.3-1.1,0.5c-0.3,0.2-0.6,0.6-0.8,1
				c-0.2,0.4-0.3,0.9-0.3,1.5v10.3H144V9.3H148.3z"/>
			<path fill="#727272" d="M158.5,20c0,0.5,0,1,0.1,1.5c0.1,0.5,0.2,0.9,0.4,1.3c0.2,0.4,0.4,0.7,0.7,0.9c0.3,0.2,0.6,0.3,1,0.3
				c0.7,0,1.3-0.3,1.6-0.8c0.3-0.5,0.6-1.3,0.7-2.4h4c-0.1,2-0.6,3.5-1.6,4.6c-1,1-2.5,1.6-4.6,1.6c-1.6,0-2.8-0.3-3.7-0.8
				s-1.6-1.2-2-2.1s-0.7-1.9-0.8-2.9c-0.1-1.1-0.1-2.2-0.1-3.3c0-1.2,0.1-2.3,0.2-3.3c0.2-1.1,0.5-2,1-2.8c0.5-0.8,1.2-1.5,2.1-2
				s2.1-0.7,3.6-0.7c1.3,0,2.3,0.2,3.2,0.6c0.8,0.4,1.5,1,1.9,1.8c0.5,0.8,0.8,1.7,1,2.8c0.2,1.1,0.3,2.3,0.3,3.6v1h-8.7V20z
				 M162.9,14.2c-0.1-0.5-0.2-0.9-0.3-1.3c-0.2-0.4-0.4-0.6-0.7-0.8s-0.7-0.3-1.1-0.3c-0.4,0-0.8,0.1-1.1,0.3
				c-0.3,0.2-0.5,0.5-0.7,0.8c-0.2,0.3-0.3,0.7-0.4,1.1c-0.1,0.4-0.1,0.8-0.1,1.2V16h4.5C163,15.3,162.9,14.7,162.9,14.2z"/>
			<path fill="#727272" d="M10.8,42.1l3.3,16.1h0.1l3.3-16.1h6.8V65h-4.2V46.7H20L15.9,65h-3.6L8.3,46.7H8.2V65H4V42.1H10.8z"/>
			<path fill="#727272" d="M28.6,67.3c0.8,0,1.4-0.2,1.7-0.6c0.4-0.4,0.6-1,0.6-1.7l-4.8-17.2h4.6l2.6,11.9h0.1l2.2-11.9H40
				l-4.2,16.1c-0.4,1.4-0.8,2.6-1.1,3.5c-0.4,0.9-0.8,1.6-1.2,2c-0.5,0.5-1.1,0.8-1.7,0.9s-1.5,0.2-2.5,0.2h-1.8v-3.3
				C27.8,67.3,28.2,67.3,28.6,67.3z"/>
			<path fill="#727272" d="M53.2,58.5c0,0.5,0,1,0.1,1.5c0.1,0.4,0.2,0.8,0.5,1.1c0.2,0.3,0.5,0.5,0.9,0.7c0.4,0.2,0.9,0.3,1.5,0.3
				c0.7,0,1.3-0.2,1.9-0.7c0.6-0.5,0.8-1.2,0.8-2.1c0-0.5-0.1-1-0.2-1.3c-0.1-0.4-0.4-0.7-0.7-1s-0.7-0.6-1.3-0.8
				c-0.5-0.2-1.2-0.5-1.9-0.8c-1-0.3-1.9-0.7-2.7-1.1c-0.7-0.4-1.4-0.9-1.9-1.4c-0.5-0.5-0.9-1.2-1.1-1.9c-0.2-0.7-0.4-1.5-0.4-2.5
				c0-2.3,0.6-3.9,1.9-5.1c1.3-1.1,3-1.7,5.2-1.7c1,0,2,0.1,2.8,0.3c0.9,0.2,1.6,0.6,2.2,1.1c0.6,0.5,1.1,1.1,1.5,1.9
				c0.4,0.8,0.5,1.7,0.5,2.8v0.6h-4.4c0-1.1-0.2-1.9-0.6-2.5c-0.4-0.6-1-0.9-1.9-0.9c-0.5,0-0.9,0.1-1.3,0.2
				c-0.3,0.1-0.6,0.3-0.8,0.6c-0.2,0.2-0.3,0.5-0.4,0.8c-0.1,0.3-0.1,0.7-0.1,1c0,0.7,0.1,1.3,0.4,1.8c0.3,0.5,0.9,0.9,1.9,1.3
				l3.6,1.5c0.9,0.4,1.6,0.8,2.1,1.2s1,0.9,1.3,1.3c0.3,0.5,0.6,1,0.7,1.6c0.1,0.6,0.2,1.2,0.2,1.9c0,2.4-0.7,4.2-2.1,5.3
				c-1.4,1.1-3.3,1.6-5.8,1.6c-2.6,0-4.5-0.6-5.6-1.7c-1.1-1.1-1.7-2.8-1.7-4.9v-0.9h4.6V58.5z"/>
			<path fill="#727272" d="M65.7,52.4c0.2-1.1,0.6-2.1,1.2-2.8s1.2-1.3,2.1-1.7c0.9-0.4,1.9-0.6,3.2-0.6c1.3,0,2.4,0.2,3.3,0.5
				c0.9,0.4,1.6,0.9,2.1,1.7c0.5,0.8,0.9,1.7,1.1,2.8c0.2,1.1,0.3,2.5,0.3,4c0,1.5-0.1,2.8-0.4,3.9s-0.6,2.1-1.2,2.8
				c-0.5,0.8-1.2,1.3-2.1,1.7c-0.9,0.4-1.9,0.5-3.2,0.5c-1.3,0-2.4-0.1-3.3-0.5c-0.9-0.4-1.6-0.9-2.1-1.7c-0.5-0.8-0.9-1.7-1.1-2.8
				c-0.2-1.1-0.3-2.5-0.3-4C65.4,54.9,65.5,53.6,65.7,52.4z M69.8,58.8c0,0.7,0.1,1.4,0.3,1.9c0.2,0.5,0.4,0.9,0.7,1.2
				c0.3,0.3,0.7,0.4,1.3,0.4c0.9,0,1.5-0.5,1.9-1.4c0.3-0.9,0.5-2.5,0.5-4.6c0-2.2-0.2-3.7-0.5-4.6c-0.3-0.9-1-1.4-1.9-1.4
				c-0.5,0-1,0.1-1.3,0.4c-0.3,0.3-0.6,0.7-0.7,1.2c-0.2,0.5-0.3,1.2-0.3,1.9c0,0.7-0.1,1.6-0.1,2.4C69.8,57.2,69.8,58,69.8,58.8z"
				/>
			<path fill="#727272" d="M85.9,42.1V65h-4.4V42.1H85.9z"/>
			<path fill="#727272" d="M93.6,42.1V65h-4.4V42.1H93.6z"/>
			<path fill="#727272" d="M96.6,52.6c0-1,0.2-1.8,0.5-2.5c0.3-0.7,0.8-1.2,1.3-1.6s1.2-0.7,1.9-0.9c0.7-0.2,1.5-0.3,2.4-0.3
				c1.3,0,2.4,0.1,3.2,0.4c0.8,0.3,1.4,0.6,1.9,1.1c0.4,0.5,0.8,1,0.9,1.7c0.2,0.7,0.2,1.4,0.2,2.1v9.1c0,0.8,0,1.4,0.1,1.9
				c0.1,0.4,0.2,0.9,0.4,1.4h-4.2c-0.1-0.3-0.3-0.6-0.3-0.9c-0.1-0.3-0.1-0.6-0.2-0.9h-0.1c-0.5,0.9-1.1,1.5-1.8,1.7
				s-1.5,0.4-2.6,0.4c-0.8,0-1.4-0.1-2-0.4c-0.5-0.3-1-0.6-1.3-1.1c-0.3-0.5-0.6-1-0.7-1.6c-0.1-0.6-0.2-1.2-0.2-1.7
				c0-0.8,0.1-1.5,0.3-2.1c0.2-0.6,0.4-1.1,0.8-1.5s0.8-0.8,1.3-1c0.5-0.3,1.2-0.5,2-0.7l2.5-0.7c0.7-0.2,1.1-0.4,1.4-0.7
				c0.3-0.3,0.4-0.7,0.4-1.3c0-0.7-0.2-1.2-0.5-1.6c-0.3-0.4-0.8-0.6-1.6-0.6c-0.7,0-1.2,0.2-1.5,0.6s-0.5,0.9-0.5,1.6V53h-4V52.6z
				 M103.7,56.9c-0.3,0.1-0.7,0.2-0.9,0.3c-0.9,0.2-1.5,0.5-1.9,1c-0.4,0.4-0.6,1.1-0.6,1.8c0,0.7,0.1,1.2,0.4,1.7
				c0.3,0.5,0.7,0.7,1.3,0.7c0.3,0,0.6,0,0.9-0.1c0.3-0.1,0.6-0.2,0.9-0.5c0.3-0.2,0.5-0.5,0.7-0.8c0.2-0.3,0.3-0.7,0.3-1.2v-3.4
				C104.4,56.6,104.1,56.8,103.7,56.9z"/>
			<path fill="#727272" d="M116.3,47.7V50h0.1c0.4-0.8,1-1.5,1.6-2c0.6-0.5,1.4-0.8,2.3-0.8c0.1,0,0.3,0,0.4,0c0.1,0,0.3,0,0.4,0
				v4.2c-0.2,0-0.5,0-0.7,0c-0.2,0-0.5,0-0.7,0c-0.4,0-0.8,0.1-1.2,0.2c-0.4,0.1-0.7,0.3-1.1,0.5c-0.3,0.2-0.6,0.6-0.8,1
				c-0.2,0.4-0.3,0.9-0.3,1.5V65h-4.4V47.7H116.3z"/>
			<path fill="#727272" d="M125.9,59.9c0,0.7,0.2,1.3,0.6,1.8c0.4,0.5,1,0.7,1.7,0.7c0.7,0,1.2-0.2,1.6-0.5c0.4-0.3,0.6-0.9,0.6-1.5
				c0-0.6-0.2-1-0.5-1.3s-0.7-0.5-1.1-0.7l-3.1-1.1c-1.2-0.4-2.1-1-2.8-1.8c-0.6-0.8-0.9-1.8-0.9-3c0-0.7,0.1-1.4,0.4-2
				c0.2-0.6,0.6-1.2,1.1-1.6c0.5-0.5,1.2-0.8,2-1.1c0.8-0.3,1.8-0.4,2.9-0.4c2,0,3.5,0.4,4.4,1.3s1.4,2.1,1.4,3.6v0.7h-4
				c0-0.9-0.1-1.6-0.4-2s-0.8-0.6-1.5-0.6c-0.6,0-1,0.2-1.5,0.5c-0.4,0.3-0.6,0.8-0.6,1.4c0,0.4,0.1,0.8,0.4,1.2
				c0.3,0.3,0.8,0.6,1.5,0.9l2.7,0.9c1.4,0.5,2.4,1.1,2.9,1.8c0.6,0.8,0.9,1.8,0.9,3.1c0,0.9-0.2,1.7-0.5,2.4
				c-0.3,0.7-0.8,1.2-1.3,1.7c-0.6,0.4-1.2,0.8-2,1c-0.8,0.2-1.6,0.3-2.6,0.3c-1.2,0-2.3-0.1-3.1-0.4s-1.5-0.6-2-1.1
				c-0.5-0.5-0.8-1-1-1.7c-0.2-0.7-0.3-1.4-0.3-2.3v-0.6h4V59.9z"/>
			<path fill="#727272" d="M149.3,42.1v8.7h5.4v-8.7h4.6V65h-4.6V54.8h-5.4V65h-4.6V42.1H149.3z"/>
			<path fill="#727272" d="M162.2,52.4c0.2-1.1,0.6-2.1,1.2-2.8s1.2-1.3,2.1-1.7c0.9-0.4,1.9-0.6,3.2-0.6c1.3,0,2.4,0.2,3.3,0.5
				c0.9,0.4,1.6,0.9,2.1,1.7c0.5,0.8,0.9,1.7,1.1,2.8c0.2,1.1,0.3,2.5,0.3,4c0,1.5-0.1,2.8-0.4,3.9s-0.6,2.1-1.2,2.8
				c-0.5,0.8-1.2,1.3-2.1,1.7c-0.9,0.4-1.9,0.5-3.2,0.5c-1.3,0-2.4-0.1-3.3-0.5c-0.9-0.4-1.6-0.9-2.1-1.7c-0.5-0.8-0.9-1.7-1.1-2.8
				c-0.2-1.1-0.3-2.5-0.3-4C161.8,54.9,161.9,53.6,162.2,52.4z M166.3,58.8c0,0.7,0.1,1.4,0.3,1.9c0.2,0.5,0.4,0.9,0.7,1.2
				c0.3,0.3,0.7,0.4,1.3,0.4c0.9,0,1.5-0.5,1.9-1.4c0.3-0.9,0.5-2.5,0.5-4.6c0-2.2-0.2-3.7-0.5-4.6c-0.3-0.9-1-1.4-1.9-1.4
				c-0.5,0-1,0.1-1.3,0.4c-0.3,0.3-0.6,0.7-0.7,1.2c-0.2,0.5-0.3,1.2-0.3,1.9c0,0.7-0.1,1.6-0.1,2.4C166.2,57.2,166.3,58,166.3,58.8
				z"/>
			<path fill="#727272" d="M182,47.7v1.8h0.1c0.6-0.8,1.2-1.4,1.9-1.7c0.7-0.3,1.5-0.5,2.5-0.5c1,0,1.9,0.2,2.6,0.7
				c0.7,0.5,1.2,1.2,1.4,2h0.1c0.3-0.9,0.9-1.6,1.6-2.1c0.8-0.5,1.7-0.7,2.7-0.7c1.5,0,2.6,0.4,3.2,1.3c0.7,0.9,1,2.2,1,3.8V65h-4.4
				v-12c0-0.7-0.1-1.3-0.4-1.7c-0.3-0.4-0.7-0.6-1.3-0.6c-0.7,0-1.3,0.2-1.7,0.7c-0.4,0.5-0.6,1.2-0.6,2.2V65h-4.4v-12
				c0-0.7-0.1-1.3-0.4-1.7c-0.3-0.4-0.7-0.6-1.3-0.6c-0.7,0-1.3,0.2-1.7,0.7c-0.4,0.5-0.6,1.2-0.6,2.2V65h-4.4V47.7H182z"/>
			<path fill="#727272" d="M205.8,58.4c0,0.5,0,1,0.1,1.5c0.1,0.5,0.2,0.9,0.4,1.3c0.2,0.4,0.4,0.7,0.7,0.9c0.3,0.2,0.6,0.3,1,0.3
				c0.7,0,1.3-0.3,1.6-0.8c0.3-0.5,0.6-1.3,0.7-2.4h4c-0.1,2-0.6,3.5-1.6,4.6c-1,1-2.5,1.6-4.6,1.6c-1.6,0-2.8-0.3-3.7-0.8
				c-0.9-0.5-1.6-1.2-2-2.1s-0.7-1.9-0.8-2.9c-0.1-1.1-0.1-2.2-0.1-3.3c0-1.2,0.1-2.3,0.2-3.3c0.2-1.1,0.5-2,1-2.8
				c0.5-0.8,1.2-1.5,2.1-2s2.1-0.7,3.6-0.7c1.3,0,2.3,0.2,3.2,0.6c0.8,0.4,1.5,1,1.9,1.8c0.5,0.8,0.8,1.7,1,2.8
				c0.2,1.1,0.3,2.3,0.3,3.6v1h-8.7V58.4z M210.2,52.6c-0.1-0.5-0.2-0.9-0.3-1.3c-0.2-0.4-0.4-0.6-0.7-0.8s-0.7-0.3-1.1-0.3
				c-0.4,0-0.8,0.1-1.1,0.3c-0.3,0.2-0.5,0.5-0.7,0.8c-0.2,0.3-0.3,0.7-0.4,1.1c-0.1,0.4-0.1,0.8-0.1,1.2v0.7h4.5
				C210.3,53.7,210.2,53.2,210.2,52.6z"/>
		</g>
	</g>
</g>
<g id="nav-Modal" display="none">
	<g id="Main" display="inline">
	</g>
</g>
<g id="Dashboard" display="none">
	<g id="local_guides">
	</g>
</g>
<g id="Tree_Headers">
</g>
<g id="Dashboard_2" display="none">
</g>
<g id="Layer_2" display="none">
</g>
</svg>
