<?xml version="1.0" encoding="utf-8"?>
<!-- Generator: Adobe Illustrator 18.1.1, SVG Export Plug-In . SVG Version: 6.00 Build 0)  -->
<!DOCTYPE svg PUBLIC "-//W3C//DTD SVG 1.1//EN" "http://www.w3.org/Graphics/SVG/1.1/DTD/svg11.dtd">
<svg version="1.1" id="Layer_1" xmlns="http://www.w3.org/2000/svg" xmlns:xlink="http://www.w3.org/1999/xlink" x="0px" y="0px"
	 width="178px" height="42.2px" viewBox="286.8 260 178 42.2" enable-background="new 286.8 260 178 42.2" xml:space="preserve">
<g id="garages_4_">
	<g enable-background="new    ">
		<path fill="#F2F2F2" d="M294.5,260.2l2.6,12.6h0l2.6-12.6h5.3V278h-3.3v-14.2h0l-3.2,14.2h-2.8l-3.2-14.2h0V278h-3.3v-17.8H294.5z
			"/>
		<path fill="#F2F2F2" d="M307.4,265.3c0.1-1.1,0.4-2.1,0.8-2.9c0.4-0.8,1-1.5,1.8-1.9c0.8-0.5,1.9-0.7,3.2-0.7
			c1.3,0,2.4,0.2,3.2,0.7c0.8,0.5,1.4,1.1,1.8,1.9c0.4,0.8,0.7,1.8,0.8,2.9s0.2,2.4,0.2,3.7c0,1.4-0.1,2.6-0.2,3.8s-0.4,2.1-0.8,2.9
			c-0.4,0.8-1,1.4-1.8,1.9c-0.8,0.4-1.9,0.7-3.2,0.7c-1.4,0-2.4-0.2-3.2-0.7c-0.8-0.4-1.4-1.1-1.8-1.9c-0.4-0.8-0.7-1.8-0.8-2.9
			s-0.2-2.4-0.2-3.8C307.2,267.7,307.3,266.5,307.4,265.3z M310.9,272.1c0.1,0.8,0.2,1.5,0.4,2c0.2,0.5,0.4,0.9,0.8,1.2
			c0.3,0.2,0.8,0.4,1.3,0.4c0.5,0,1-0.1,1.3-0.4c0.3-0.2,0.6-0.6,0.8-1.2c0.2-0.5,0.3-1.2,0.4-2c0.1-0.8,0.1-1.9,0.1-3.1
			s0-2.2-0.1-3c-0.1-0.8-0.2-1.5-0.4-2.1c-0.2-0.5-0.4-0.9-0.8-1.2c-0.3-0.2-0.8-0.4-1.3-0.4c-0.5,0-1,0.1-1.3,0.4
			c-0.3,0.2-0.6,0.6-0.8,1.2c-0.2,0.5-0.3,1.2-0.4,2.1c-0.1,0.8-0.1,1.8-0.1,3S310.8,271.3,310.9,272.1z"/>
		<path fill="#F2F2F2" d="M327.6,260.2c1.2,0,2.3,0.2,3,0.6c0.8,0.4,1.4,1,1.8,1.8c0.4,0.8,0.7,1.7,0.9,2.7s0.2,2.3,0.2,3.6
			c0,1.6-0.1,2.9-0.3,4.1c-0.2,1.2-0.5,2.1-1,2.9c-0.5,0.8-1.1,1.3-1.9,1.7c-0.8,0.4-1.8,0.5-3,0.5h-5.7v-17.8H327.6z M326.9,275.3
			c0.6,0,1.1-0.1,1.5-0.3s0.7-0.6,0.9-1.1s0.4-1.2,0.5-2c0.1-0.8,0.1-1.8,0.1-3c0-1,0-1.9-0.1-2.7c-0.1-0.8-0.2-1.4-0.4-1.9
			c-0.2-0.5-0.5-0.9-0.9-1.2c-0.4-0.3-1-0.4-1.6-0.4h-1.5v12.5H326.9z"/>
		<path fill="#F2F2F2" d="M345.8,263.1h-6.4v4.2h6v3h-6v4.8h6.6v3h-10.2v-17.8h10V263.1z"/>
		<path fill="#F2F2F2" d="M347.9,260.2h3.6V275h6.4v3h-10V260.2z"/>
	</g>
</g>
<g enable-background="new    ">
	<path fill="#F2F2F2" d="M288.7,280.8h8.8c0.6,0,1.2,0.1,1.9,0.2c0.7,0.1,1.4,0.4,2,0.8c0.6,0.4,1.1,1,1.5,1.8
		c0.4,0.8,0.6,1.8,0.6,3c0,1.8-0.6,3.2-1.7,4.2c-1.1,1-2.7,1.5-4.8,1.5h-7.1v9.2h-1.3V280.8z M289.9,291.2h7.3
		c0.9,0,1.7-0.1,2.4-0.4s1.2-0.6,1.6-1.1c0.4-0.4,0.7-0.9,0.8-1.5s0.3-1.1,0.3-1.6c0-0.4-0.1-0.8-0.2-1.4c-0.1-0.5-0.3-1-0.7-1.5
		c-0.3-0.5-0.8-0.9-1.5-1.2c-0.6-0.3-1.5-0.5-2.5-0.5h-7.5V291.2z"/>
	<path fill="#F2F2F2" d="M324.6,291.1c0,1.5-0.2,2.9-0.7,4.2c-0.4,1.3-1.1,2.5-1.9,3.5s-1.9,1.7-3.1,2.3c-1.2,0.6-2.6,0.8-4.1,0.8
		s-2.9-0.3-4.2-0.8c-1.2-0.6-2.3-1.3-3.1-2.3s-1.5-2.1-1.9-3.5c-0.4-1.3-0.7-2.7-0.7-4.2c0-1.5,0.2-2.9,0.7-4.2
		c0.4-1.3,1.1-2.5,1.9-3.5c0.8-1,1.9-1.7,3.1-2.3c1.2-0.6,2.6-0.8,4.2-0.8s2.9,0.3,4.1,0.8c1.2,0.6,2.2,1.3,3.1,2.3
		c0.8,1,1.5,2.1,1.9,3.5C324.3,288.2,324.6,289.6,324.6,291.1z M306.1,291.1c0,1.3,0.2,2.6,0.6,3.8c0.4,1.2,0.9,2.2,1.7,3.1
		s1.6,1.6,2.7,2.1c1.1,0.5,2.3,0.8,3.6,0.8c1.4,0,2.6-0.3,3.6-0.8c1.1-0.5,1.9-1.2,2.7-2.1c0.7-0.9,1.3-1.9,1.7-3.1
		c0.4-1.2,0.6-2.4,0.6-3.8s-0.2-2.6-0.6-3.8c-0.4-1.2-0.9-2.2-1.7-3.1c-0.7-0.9-1.6-1.6-2.7-2.1c-1.1-0.5-2.3-0.8-3.6-0.8
		c-1.4,0-2.6,0.3-3.6,0.8c-1.1,0.5-2,1.2-2.7,2.1c-0.7,0.9-1.3,1.9-1.7,3.1C306.3,288.5,306.1,289.8,306.1,291.1z"/>
	<path fill="#F2F2F2" d="M346.1,291.1c0,1.5-0.2,2.9-0.7,4.2c-0.4,1.3-1.1,2.5-1.9,3.5c-0.8,1-1.9,1.7-3.1,2.3s-2.6,0.8-4.1,0.8
		s-2.9-0.3-4.2-0.8s-2.3-1.3-3.1-2.3c-0.8-1-1.5-2.1-1.9-3.5c-0.4-1.3-0.7-2.7-0.7-4.2c0-1.5,0.2-2.9,0.7-4.2
		c0.4-1.3,1.1-2.5,1.9-3.5c0.8-1,1.9-1.7,3.1-2.3c1.2-0.6,2.6-0.8,4.2-0.8s2.9,0.3,4.1,0.8c1.2,0.6,2.2,1.3,3.1,2.3
		c0.8,1,1.5,2.1,1.9,3.5C345.8,288.2,346.1,289.6,346.1,291.1z M327.6,291.1c0,1.3,0.2,2.6,0.6,3.8c0.4,1.2,0.9,2.2,1.7,3.1
		c0.7,0.9,1.6,1.6,2.7,2.1c1.1,0.5,2.3,0.8,3.6,0.8s2.6-0.3,3.6-0.8c1.1-0.5,1.9-1.2,2.7-2.1c0.7-0.9,1.3-1.9,1.7-3.1
		c0.4-1.2,0.6-2.4,0.6-3.8s-0.2-2.6-0.6-3.8c-0.4-1.2-0.9-2.2-1.7-3.1c-0.7-0.9-1.6-1.6-2.7-2.1c-1.1-0.5-2.3-0.8-3.6-0.8
		s-2.6,0.3-3.6,0.8c-1.1,0.5-2,1.2-2.7,2.1c-0.7,0.9-1.3,1.9-1.7,3.1C327.8,288.5,327.6,289.8,327.6,291.1z"/>
	<path fill="#F2F2F2" d="M348.8,280.8h1.3v19.6h11.7v1.1h-13V280.8z"/>
	<path fill="#F2F2F2" d="M371.3,280.8h1.3v9.4h13.2v-9.4h1.3v20.7h-1.3v-10.2h-13.2v10.2h-1.3V280.8z"/>
	<path fill="#F2F2F2" d="M409.5,291.1c0,1.5-0.2,2.9-0.7,4.2c-0.4,1.3-1.1,2.5-1.9,3.5s-1.9,1.7-3.1,2.3c-1.2,0.6-2.6,0.8-4.1,0.8
		s-2.9-0.3-4.2-0.8c-1.2-0.6-2.3-1.3-3.1-2.3s-1.5-2.1-1.9-3.5c-0.4-1.3-0.7-2.7-0.7-4.2c0-1.5,0.2-2.9,0.7-4.2
		c0.4-1.3,1.1-2.5,1.9-3.5c0.8-1,1.9-1.7,3.1-2.3c1.2-0.6,2.6-0.8,4.2-0.8s2.9,0.3,4.1,0.8c1.2,0.6,2.2,1.3,3.1,2.3
		c0.8,1,1.5,2.1,1.9,3.5C409.3,288.2,409.5,289.6,409.5,291.1z M391.1,291.1c0,1.3,0.2,2.6,0.6,3.8c0.4,1.2,0.9,2.2,1.7,3.1
		s1.6,1.6,2.7,2.1c1.1,0.5,2.3,0.8,3.6,0.8c1.4,0,2.6-0.3,3.6-0.8c1.1-0.5,1.9-1.2,2.7-2.1c0.7-0.9,1.3-1.9,1.7-3.1
		c0.4-1.2,0.6-2.4,0.6-3.8s-0.2-2.6-0.6-3.8c-0.4-1.2-0.9-2.2-1.7-3.1c-0.7-0.9-1.6-1.6-2.7-2.1c-1.1-0.5-2.3-0.8-3.6-0.8
		c-1.4,0-2.6,0.3-3.6,0.8c-1.1,0.5-2,1.2-2.7,2.1c-0.7,0.9-1.3,1.9-1.7,3.1C391.3,288.5,391.1,289.8,391.1,291.1z"/>
	<path fill="#F2F2F2" d="M413.5,280.8v12.4c0,0.4,0,0.9,0.1,1.4c0,0.5,0.1,1.1,0.3,1.7c0.2,0.6,0.4,1.1,0.7,1.7s0.7,1,1.1,1.5
		c0.5,0.4,1.1,0.8,1.8,1c0.7,0.3,1.6,0.4,2.6,0.4c1.3,0,2.3-0.2,3.2-0.5c0.9-0.4,1.6-0.9,2.1-1.5c0.5-0.7,0.9-1.5,1.1-2.4
		c0.2-0.9,0.3-2,0.3-3.2v-12.4h1.3v12.4c0,1.2-0.1,2.4-0.4,3.5s-0.7,2-1.3,2.8c-0.6,0.8-1.4,1.4-2.5,1.9s-2.3,0.7-3.9,0.7
		c-1.2,0-2.3-0.2-3.1-0.5c-0.9-0.3-1.6-0.7-2.2-1.2s-1-1.1-1.3-1.7s-0.6-1.3-0.8-1.9c-0.2-0.6-0.3-1.3-0.3-1.9
		c0-0.6-0.1-1.1-0.1-1.6v-12.4H413.5z"/>
	<path fill="#F2F2F2" d="M445.3,286.7c0-0.9-0.2-1.7-0.6-2.3c-0.3-0.7-0.8-1.2-1.4-1.7s-1.3-0.8-2.1-1c-0.8-0.2-1.7-0.3-2.6-0.3
		c-0.6,0-1.2,0.1-1.9,0.2c-0.7,0.1-1.3,0.4-1.9,0.7c-0.6,0.3-1,0.8-1.4,1.4s-0.6,1.3-0.6,2.1c0,0.8,0.2,1.5,0.6,2
		c0.4,0.5,0.9,0.9,1.6,1.3c0.7,0.3,1.4,0.6,2.3,0.8c0.9,0.2,1.7,0.4,2.6,0.6c0.9,0.2,1.8,0.4,2.6,0.6c0.8,0.2,1.6,0.6,2.3,1
		c0.7,0.4,1.2,1,1.6,1.6s0.6,1.5,0.6,2.5c0,1.1-0.2,2-0.7,2.7c-0.5,0.7-1,1.3-1.8,1.8c-0.7,0.5-1.5,0.8-2.3,1s-1.7,0.3-2.5,0.3
		c-1.2,0-2.4-0.1-3.4-0.4c-1.1-0.3-2-0.7-2.8-1.3c-0.8-0.6-1.4-1.3-1.9-2.3c-0.5-0.9-0.7-2.1-0.7-3.4h1.3c-0.1,1.1,0.1,2.1,0.5,2.9
		c0.4,0.8,0.9,1.4,1.6,1.9c0.7,0.5,1.5,0.9,2.4,1.1c0.9,0.2,1.9,0.3,2.9,0.3c0.6,0,1.3-0.1,2-0.2c0.7-0.2,1.4-0.4,1.9-0.8
		c0.6-0.4,1.1-0.9,1.5-1.5c0.4-0.6,0.6-1.4,0.6-2.3c0-0.9-0.2-1.6-0.6-2.1c-0.4-0.6-0.9-1-1.6-1.3c-0.7-0.3-1.4-0.6-2.3-0.8
		s-1.7-0.4-2.6-0.6c-0.9-0.2-1.7-0.4-2.6-0.6c-0.9-0.2-1.6-0.5-2.3-0.9s-1.2-0.9-1.6-1.5c-0.4-0.6-0.6-1.4-0.6-2.4
		c0-1,0.2-1.8,0.6-2.5c0.4-0.7,1-1.3,1.6-1.7s1.4-0.8,2.2-1c0.8-0.2,1.7-0.3,2.5-0.3c1.1,0,2.1,0.1,3,0.4c0.9,0.2,1.8,0.6,2.5,1.1
		c0.7,0.5,1.3,1.2,1.7,2c0.4,0.8,0.7,1.8,0.7,2.9H445.3z"/>
	<path fill="#F2F2F2" d="M450,280.8h13.9v1.1h-12.6v8.3h11.9v1.1h-11.9v9.1h12.8v1.1H450V280.8z"/>
</g>
</svg>
