<?xml version="1.0" encoding="utf-8"?>
<!-- Generator: Adobe Illustrator 18.1.1, SVG Export Plug-In . SVG Version: 6.00 Build 0)  -->
<!DOCTYPE svg PUBLIC "-//W3C//DTD SVG 1.1//EN" "http://www.w3.org/Graphics/SVG/1.1/DTD/svg11.dtd">
<svg version="1.1" id="Layer_1" xmlns="http://www.w3.org/2000/svg" xmlns:xlink="http://www.w3.org/1999/xlink" x="0px" y="0px"
	 width="278.7px" height="41.7px" viewBox="-359.2 260.3 278.7 41.7" enable-background="new -359.2 260.3 278.7 41.7"
	 xml:space="preserve">
<g id="garages_1_">
	<g enable-background="new    ">
		<path fill="#F2F2F2" d="M-352.7,260.6l2.5,12.6h0.1l2.6-12.6h5.3v17.8h-3.3v-14.2h0l-3.2,14.2h-2.8l-3.2-14.2h0v14.2h-3.3v-17.8
			H-352.7z"/>
		<path fill="#F2F2F2" d="M-339.8,265.8c0.1-1.1,0.4-2.1,0.8-2.9c0.4-0.8,1-1.5,1.8-1.9c0.8-0.5,1.9-0.7,3.2-0.7
			c1.3,0,2.4,0.2,3.2,0.7c0.8,0.5,1.4,1.1,1.8,1.9c0.4,0.8,0.7,1.8,0.8,2.9s0.2,2.4,0.2,3.7c0,1.4-0.1,2.6-0.2,3.8s-0.4,2.1-0.8,2.9
			c-0.4,0.8-1,1.4-1.8,1.9s-1.9,0.7-3.2,0.7c-1.4,0-2.4-0.2-3.2-0.7c-0.8-0.4-1.4-1.1-1.8-1.9c-0.4-0.8-0.7-1.8-0.8-2.9
			s-0.2-2.4-0.2-3.8C-340,268.2-339.9,267-339.8,265.8z M-336.3,272.6c0.1,0.8,0.2,1.5,0.3,2c0.2,0.5,0.4,0.9,0.8,1.2
			c0.3,0.2,0.8,0.4,1.3,0.4c0.5,0,1-0.1,1.3-0.4c0.3-0.2,0.6-0.6,0.8-1.2c0.2-0.5,0.3-1.2,0.4-2c0.1-0.8,0.1-1.9,0.1-3.1
			s0-2.2-0.1-3c-0.1-0.8-0.2-1.5-0.4-2.1c-0.2-0.5-0.4-0.9-0.8-1.2c-0.3-0.2-0.8-0.4-1.3-0.4c-0.5,0-1,0.1-1.3,0.4
			c-0.3,0.2-0.6,0.6-0.8,1.2c-0.2,0.5-0.3,1.2-0.3,2.1c-0.1,0.8-0.1,1.8-0.1,3S-336.3,271.8-336.3,272.6z"/>
		<path fill="#F2F2F2" d="M-319.6,260.6c1.2,0,2.3,0.2,3,0.6c0.8,0.4,1.4,1,1.8,1.8c0.4,0.8,0.7,1.7,0.9,2.7
			c0.1,1.1,0.2,2.3,0.2,3.6c0,1.6-0.1,2.9-0.3,4.1c-0.2,1.2-0.5,2.1-1,2.9s-1.1,1.3-1.9,1.7s-1.8,0.5-3,0.5h-5.7v-17.8H-319.6z
			 M-320.3,275.8c0.6,0,1.1-0.1,1.5-0.3s0.7-0.6,0.9-1.1c0.2-0.5,0.4-1.2,0.4-2c0.1-0.8,0.1-1.8,0.1-3c0-1,0-1.9-0.1-2.7
			c-0.1-0.8-0.2-1.4-0.4-1.9c-0.2-0.5-0.5-0.9-0.9-1.2c-0.4-0.3-1-0.4-1.6-0.4h-1.5v12.5H-320.3z"/>
		<path fill="#F2F2F2" d="M-301.4,263.6h-6.4v4.2h6v3h-6v4.8h6.6v3h-10.2v-17.8h10V263.6z"/>
		<path fill="#F2F2F2" d="M-299.3,260.6h3.6v14.9h6.4v3h-10V260.6z"/>
	</g>
</g>
<g>
	<path fill="#F2F2F2" d="M-343.9,286.2c0-0.9-0.2-1.7-0.6-2.3s-0.8-1.2-1.4-1.7c-0.6-0.4-1.3-0.8-2.1-1c-0.8-0.2-1.7-0.3-2.6-0.3
		c-0.6,0-1.2,0.1-1.9,0.2c-0.7,0.1-1.3,0.4-1.9,0.7s-1,0.8-1.4,1.4c-0.4,0.6-0.6,1.3-0.6,2.1c0,0.8,0.2,1.5,0.6,2
		c0.4,0.5,0.9,0.9,1.6,1.3c0.7,0.3,1.4,0.6,2.3,0.8c0.8,0.2,1.7,0.4,2.6,0.6c0.9,0.2,1.8,0.4,2.6,0.6c0.8,0.2,1.6,0.6,2.3,1
		s1.2,1,1.6,1.6c0.4,0.7,0.6,1.5,0.6,2.5c0,1.1-0.2,2-0.7,2.7c-0.5,0.7-1,1.3-1.8,1.8c-0.7,0.5-1.5,0.8-2.3,1
		c-0.9,0.2-1.7,0.3-2.5,0.3c-1.2,0-2.4-0.1-3.4-0.4c-1.1-0.3-2-0.7-2.8-1.3c-0.8-0.6-1.4-1.3-1.9-2.3s-0.7-2.1-0.7-3.4h1.3
		c-0.1,1.1,0.1,2.1,0.5,2.9c0.4,0.8,0.9,1.4,1.6,1.9c0.7,0.5,1.5,0.9,2.4,1.1c0.9,0.2,1.9,0.3,2.9,0.3c0.6,0,1.3-0.1,2-0.2
		c0.7-0.2,1.4-0.4,1.9-0.8c0.6-0.4,1.1-0.8,1.5-1.4c0.4-0.6,0.6-1.4,0.6-2.3c0-0.9-0.2-1.6-0.6-2.1c-0.4-0.6-0.9-1-1.6-1.3
		c-0.7-0.3-1.4-0.6-2.3-0.8c-0.8-0.2-1.7-0.4-2.6-0.6c-0.9-0.2-1.7-0.4-2.6-0.6c-0.9-0.2-1.6-0.5-2.3-0.9c-0.7-0.4-1.2-0.9-1.6-1.5
		c-0.4-0.6-0.6-1.4-0.6-2.4s0.2-1.8,0.6-2.5c0.4-0.7,1-1.3,1.6-1.7c0.7-0.4,1.4-0.8,2.2-1c0.8-0.2,1.7-0.3,2.5-0.3
		c1.1,0,2.1,0.1,3,0.4s1.8,0.6,2.5,1.1c0.7,0.5,1.3,1.2,1.7,2c0.4,0.8,0.7,1.8,0.7,2.9H-343.9z"/>
	<path fill="#F2F2F2" d="M-339.1,280.3h1.3V301h-1.3V280.3z"/>
	<path fill="#F2F2F2" d="M-334.2,280.3h1.6l13.1,19h0.1v-19h1.3V301h-1.5l-13.2-19.1h-0.1V301h-1.3V280.3z"/>
	<path fill="#F2F2F2" d="M-315.3,290.8c0-1.5,0.2-2.9,0.7-4.2c0.4-1.3,1.1-2.5,1.9-3.5c0.8-1,1.9-1.8,3.1-2.4
		c1.2-0.6,2.6-0.9,4.2-0.9c1.1,0,2.1,0.2,3,0.5c1,0.3,1.8,0.8,2.6,1.4c0.8,0.6,1.4,1.3,1.9,2.2c0.5,0.9,0.9,1.8,1,2.9h-1.2
		c-0.5-1.8-1.4-3.2-2.6-4.3c-1.3-1-2.8-1.5-4.8-1.5c-1.4,0-2.6,0.3-3.7,0.8c-1.1,0.5-2,1.3-2.7,2.2c-0.7,0.9-1.3,2-1.6,3.1
		c-0.4,1.2-0.6,2.4-0.6,3.7c0,1.3,0.2,2.6,0.5,3.7c0.4,1.2,0.9,2.2,1.6,3.1c0.7,0.9,1.6,1.6,2.7,2.1c1.1,0.5,2.3,0.8,3.7,0.8
		c1.2,0,2.3-0.2,3.3-0.6s1.8-1,2.5-1.7c0.7-0.7,1.2-1.6,1.6-2.7c0.3-1,0.5-2.2,0.4-3.5h-7.6v-1.1h8.7V301h-1.1v-4.4h-0.1
		c-0.3,0.8-0.6,1.4-1.1,2c-0.5,0.6-1.1,1.1-1.8,1.5s-1.5,0.7-2.3,1s-1.7,0.3-2.6,0.3c-1.6,0-3-0.3-4.2-0.8s-2.2-1.3-3.1-2.3
		s-1.5-2.1-1.9-3.4C-315.1,293.6-315.3,292.3-315.3,290.8z"/>
	<path fill="#F2F2F2" d="M-293,280.3h1.3v19.6h11.7v1.1h-13V280.3z"/>
	<path fill="#F2F2F2" d="M-278.5,280.3h13.9v1.1h-12.6v8.3h11.9v1.1h-11.9v9.1h12.8v1.1h-14.1V280.3z"/>
	<path fill="#F2F2F2" d="M-254.2,280.3h13v1.1h-11.7v8.3h10.6v1.1h-10.6V301h-1.3V280.3z"/>
	<path fill="#F2F2F2" d="M-234.7,280.3h1.4l8.2,20.7h-1.4l-2.6-6.6h-9.9l-2.6,6.6h-1.4L-234.7,280.3z M-229.5,293.3l-4.4-11.7h-0.1
		l-4.6,11.7H-229.5z"/>
	<path fill="#F2F2F2" d="M-223.7,280.3h1.8l8.1,19.3h0.1l8-19.3h1.8V301h-1.3v-19.1h-0.1l-7.9,19.1h-1.3l-8-19.1h-0.1V301h-1.3
		V280.3z"/>
	<path fill="#F2F2F2" d="M-200.2,280.3h1.3V301h-1.3V280.3z"/>
	<path fill="#F2F2F2" d="M-195.3,280.3h1.3v19.6h11.7v1.1h-13V280.3z"/>
	<path fill="#F2F2F2" d="M-169.7,280.3h1.4l-8.3,12v8.7h-1.3v-8.7l-8.3-12h1.5l7.5,11L-169.7,280.3z"/>
	<path fill="#F2F2F2" d="M-159,280.3h1.3v9.4h13.2v-9.4h1.3V301h-1.3v-10.2h-13.2V301h-1.3V280.3z"/>
	<path fill="#F2F2F2" d="M-120.8,290.6c0,1.5-0.2,2.9-0.7,4.2s-1.1,2.5-1.9,3.5c-0.8,1-1.9,1.7-3.1,2.3s-2.6,0.8-4.1,0.8
		s-2.9-0.3-4.2-0.8c-1.2-0.6-2.3-1.3-3.1-2.3c-0.8-1-1.5-2.1-1.9-3.5c-0.4-1.3-0.7-2.7-0.7-4.2s0.2-2.9,0.7-4.2
		c0.4-1.3,1.1-2.5,1.9-3.5c0.8-1,1.9-1.7,3.1-2.3c1.2-0.6,2.6-0.8,4.2-0.8s2.9,0.3,4.1,0.8c1.2,0.6,2.2,1.3,3.1,2.3
		c0.8,1,1.5,2.1,1.9,3.5S-120.8,289.1-120.8,290.6z M-139.2,290.6c0,1.3,0.2,2.6,0.6,3.8c0.4,1.2,0.9,2.2,1.7,3.1
		c0.7,0.9,1.6,1.6,2.7,2.1s2.3,0.8,3.6,0.8s2.6-0.3,3.6-0.8c1.1-0.5,1.9-1.2,2.7-2.1c0.7-0.9,1.3-1.9,1.7-3.1
		c0.4-1.2,0.6-2.4,0.6-3.8s-0.2-2.6-0.6-3.8c-0.4-1.2-0.9-2.2-1.7-3.1s-1.6-1.6-2.7-2.1c-1.1-0.5-2.3-0.8-3.6-0.8s-2.6,0.3-3.6,0.8
		s-2,1.2-2.7,2.1c-0.7,0.9-1.3,1.9-1.7,3.1S-139.2,289.3-139.2,290.6z"/>
	<path fill="#F2F2F2" d="M-118.1,280.3h1.8l8.1,19.3h0.1l8-19.3h1.8V301h-1.3v-19.1h-0.1l-7.9,19.1h-1.3l-8-19.1h-0.1V301h-1.3
		V280.3z"/>
	<path fill="#F2F2F2" d="M-94.6,280.3h13.9v1.1h-12.6v8.3h11.9v1.1h-11.9v9.1h12.8v1.1h-14.1V280.3z"/>
</g>
</svg>
