<?xml version="1.0" encoding="utf-8"?>
<!-- Generator: Adobe Illustrator 18.1.1, SVG Export Plug-In . SVG Version: 6.00 Build 0)  -->
<!DOCTYPE svg PUBLIC "-//W3C//DTD SVG 1.1//EN" "http://www.w3.org/Graphics/SVG/1.1/DTD/svg11.dtd">
<svg version="1.1" id="Layer_1" xmlns="http://www.w3.org/2000/svg" xmlns:xlink="http://www.w3.org/1999/xlink" x="0px" y="0px"
	 width="185.8px" height="42.2px" viewBox="-260.5 260 185.8 42.2" enable-background="new -260.5 260 185.8 42.2"
	 xml:space="preserve">
<g id="landing1">
	<g id="Main_Body">
	</g>
	<g id="info_icons">
	</g>
</g>
<g id="nav-Modal" display="none">
	<g id="Main" display="inline">
	</g>
</g>
<g id="Dashboard">
	<g id="local_guides" display="none">
	</g>
</g>
<g id="Single">
</g>
<g id="Guest">
</g>
<g id="pool">
</g>
<g id="guest">
</g>
<g id="office">
</g>
<g id="garages">
	<g enable-background="new    ">
		<path fill="#F2F2F2" d="M-405.3,260.2l2.6,12.6h0l2.6-12.6h5.3V278h-3.3v-14.2h0l-3.2,14.2h-2.8l-3.2-14.2h0V278h-3.3v-17.8
			H-405.3z"/>
		<path fill="#F2F2F2" d="M-392.4,265.3c0.1-1.1,0.4-2.1,0.8-2.9c0.4-0.8,1-1.5,1.8-1.9c0.8-0.5,1.9-0.7,3.2-0.7
			c1.3,0,2.4,0.2,3.2,0.7c0.8,0.5,1.4,1.1,1.8,1.9c0.4,0.8,0.7,1.8,0.8,2.9s0.2,2.4,0.2,3.7c0,1.4-0.1,2.6-0.2,3.8s-0.4,2.1-0.8,2.9
			c-0.4,0.8-1,1.4-1.8,1.9c-0.8,0.4-1.9,0.7-3.2,0.7c-1.4,0-2.4-0.2-3.2-0.7c-0.8-0.4-1.4-1.1-1.8-1.9c-0.4-0.8-0.7-1.8-0.8-2.9
			s-0.2-2.4-0.2-3.8C-392.6,267.7-392.6,266.5-392.4,265.3z M-388.9,272.1c0.1,0.8,0.2,1.5,0.4,2c0.2,0.5,0.4,0.9,0.8,1.2
			c0.3,0.2,0.8,0.4,1.3,0.4c0.5,0,1-0.1,1.3-0.4c0.3-0.2,0.6-0.6,0.8-1.2c0.2-0.5,0.3-1.2,0.4-2c0.1-0.8,0.1-1.9,0.1-3.1
			s0-2.2-0.1-3c-0.1-0.8-0.2-1.5-0.4-2.1c-0.2-0.5-0.4-0.9-0.8-1.2c-0.3-0.2-0.8-0.4-1.3-0.4c-0.5,0-1,0.1-1.3,0.4
			c-0.3,0.2-0.6,0.6-0.8,1.2c-0.2,0.5-0.3,1.2-0.4,2.1c-0.1,0.8-0.1,1.8-0.1,3S-389,271.3-388.9,272.1z"/>
		<path fill="#F2F2F2" d="M-372.3,260.2c1.2,0,2.3,0.2,3,0.6c0.8,0.4,1.4,1,1.8,1.8c0.4,0.8,0.7,1.7,0.9,2.7s0.2,2.3,0.2,3.6
			c0,1.6-0.1,2.9-0.3,4.1c-0.2,1.2-0.5,2.1-1,2.9c-0.5,0.8-1.1,1.3-1.9,1.7c-0.8,0.4-1.8,0.5-3,0.5h-5.7v-17.8H-372.3z M-373,275.3
			c0.6,0,1.1-0.1,1.5-0.3s0.7-0.6,0.9-1.1s0.4-1.2,0.5-2c0.1-0.8,0.1-1.8,0.1-3c0-1,0-1.9-0.1-2.7c-0.1-0.8-0.2-1.4-0.4-1.9
			c-0.2-0.5-0.5-0.9-0.9-1.2c-0.4-0.3-1-0.4-1.6-0.4h-1.5v12.5H-373z"/>
		<path fill="#F2F2F2" d="M-354,263.1h-6.4v4.2h6v3h-6v4.8h6.6v3H-364v-17.8h10V263.1z"/>
		<path fill="#F2F2F2" d="M-352,260.2h3.6V275h6.4v3h-10V260.2z"/>
	</g>
	<g enable-background="new    ">
		<path fill="#F2F2F2" d="M-411.9,290.8c0-1.5,0.2-2.9,0.7-4.2c0.4-1.3,1.1-2.5,1.9-3.5c0.8-1,1.9-1.8,3.1-2.4
			c1.2-0.6,2.6-0.9,4.2-0.9c1.1,0,2.1,0.2,3,0.5c1,0.3,1.8,0.8,2.6,1.4c0.8,0.6,1.4,1.3,1.9,2.2c0.5,0.9,0.9,1.8,1,2.9h-1.2
			c-0.5-1.8-1.4-3.2-2.6-4.3c-1.3-1-2.8-1.5-4.8-1.5c-1.4,0-2.6,0.3-3.7,0.8c-1.1,0.5-2,1.3-2.7,2.2c-0.7,0.9-1.3,2-1.6,3.1
			c-0.4,1.2-0.6,2.4-0.6,3.7c0,1.3,0.2,2.6,0.5,3.7c0.4,1.2,0.9,2.2,1.6,3.1c0.7,0.9,1.6,1.6,2.7,2.1c1.1,0.5,2.3,0.8,3.7,0.8
			c1.2,0,2.3-0.2,3.3-0.6s1.8-1,2.5-1.7s1.2-1.6,1.6-2.7s0.5-2.2,0.4-3.5h-7.6v-1.1h8.7V301h-1.1v-4.4h-0.1c-0.3,0.8-0.6,1.4-1.1,2
			c-0.5,0.6-1.1,1.1-1.8,1.5c-0.7,0.4-1.4,0.7-2.3,1c-0.8,0.2-1.7,0.3-2.6,0.3c-1.6,0-3-0.3-4.2-0.8s-2.2-1.3-3.1-2.3
			c-0.8-1-1.5-2.1-1.9-3.4C-411.7,293.6-411.9,292.3-411.9,290.8z"/>
		<path fill="#F2F2F2" d="M-383.5,280.3h1.4l8.2,20.7h-1.4l-2.6-6.6h-9.9l-2.6,6.6h-1.4L-383.5,280.3z M-378.3,293.3l-4.4-11.7h-0.1
			l-4.6,11.7H-378.3z"/>
		<path fill="#F2F2F2" d="M-372.5,280.3h8.6c0.9,0,1.8,0.1,2.6,0.3c0.8,0.2,1.5,0.5,2.1,0.9c0.6,0.4,1.1,1,1.4,1.6
			c0.3,0.7,0.5,1.5,0.5,2.5c0,1.4-0.4,2.6-1.2,3.5c-0.8,1-1.9,1.6-3.3,1.8v0.1c0.9,0.1,1.7,0.4,2.2,0.8s1,0.9,1.2,1.4
			c0.3,0.6,0.4,1.2,0.5,1.9s0.1,1.4,0.1,2c0,0.4,0,0.8,0,1.2s0,0.7,0.1,1.1c0,0.3,0.1,0.7,0.2,0.9c0.1,0.3,0.2,0.5,0.4,0.7h-1.4
			c-0.3-0.5-0.4-1-0.4-1.7c0-0.6,0-1.3,0-2s0-1.4-0.1-2.1s-0.2-1.3-0.6-1.8c-0.3-0.5-0.8-1-1.5-1.3c-0.7-0.3-1.6-0.5-2.8-0.5h-7.4
			v9.4h-1.3V280.3z M-363.8,290.5c0.8,0,1.5-0.1,2.1-0.3c0.6-0.2,1.2-0.5,1.7-0.9c0.5-0.4,0.8-0.9,1.1-1.5c0.3-0.6,0.4-1.3,0.4-2.1
			c0-0.8-0.1-1.4-0.4-2s-0.7-1-1.2-1.3c-0.5-0.3-1-0.6-1.7-0.8c-0.6-0.2-1.3-0.2-2-0.2h-7.4v9.1H-363.8z"/>
		<path fill="#F2F2F2" d="M-348.1,280.3h1.4l8.2,20.7h-1.4l-2.6-6.6h-9.9l-2.6,6.6h-1.4L-348.1,280.3z M-342.9,293.3l-4.4-11.7h-0.1
			l-4.6,11.7H-342.9z"/>
		<path fill="#F2F2F2" d="M-338.3,290.8c0-1.5,0.2-2.9,0.7-4.2c0.4-1.3,1.1-2.5,1.9-3.5c0.8-1,1.9-1.8,3.1-2.4
			c1.2-0.6,2.6-0.9,4.2-0.9c1.1,0,2.1,0.2,3,0.5c1,0.3,1.8,0.8,2.6,1.4c0.8,0.6,1.4,1.3,1.9,2.2c0.5,0.9,0.9,1.8,1,2.9h-1.2
			c-0.5-1.8-1.4-3.2-2.6-4.3c-1.3-1-2.8-1.5-4.8-1.5c-1.4,0-2.6,0.3-3.7,0.8c-1.1,0.5-2,1.3-2.7,2.2c-0.7,0.9-1.3,2-1.6,3.1
			c-0.4,1.2-0.6,2.4-0.6,3.7c0,1.3,0.2,2.6,0.5,3.7c0.4,1.2,0.9,2.2,1.6,3.1c0.7,0.9,1.6,1.6,2.7,2.1c1.1,0.5,2.3,0.8,3.7,0.8
			c1.2,0,2.3-0.2,3.3-0.6c1-0.4,1.8-1,2.5-1.7s1.2-1.6,1.6-2.7s0.5-2.2,0.4-3.5h-7.6v-1.1h8.7V301h-1.1v-4.4h-0.1
			c-0.3,0.8-0.6,1.4-1.1,2c-0.5,0.6-1.1,1.1-1.8,1.5c-0.7,0.4-1.5,0.7-2.3,1c-0.8,0.2-1.7,0.3-2.6,0.3c-1.6,0-3-0.3-4.2-0.8
			c-1.2-0.6-2.2-1.3-3.1-2.3c-0.8-1-1.5-2.1-1.9-3.4C-338.1,293.6-338.3,292.3-338.3,290.8z"/>
		<path fill="#F2F2F2" d="M-316.1,280.3h13.9v1.1h-12.6v8.3h11.9v1.1h-11.9v9.1h12.8v1.1h-14.1V280.3z"/>
		<path fill="#F2F2F2" d="M-286.3,286.2c0-0.9-0.2-1.7-0.6-2.3c-0.3-0.7-0.8-1.2-1.4-1.7s-1.3-0.8-2.1-1c-0.8-0.2-1.7-0.3-2.6-0.3
			c-0.6,0-1.2,0.1-1.9,0.2c-0.7,0.1-1.3,0.4-1.9,0.7c-0.6,0.3-1,0.8-1.4,1.4s-0.6,1.3-0.6,2.1c0,0.8,0.2,1.5,0.6,2
			c0.4,0.5,0.9,0.9,1.6,1.3s1.4,0.6,2.3,0.8s1.7,0.4,2.6,0.6c0.9,0.2,1.8,0.4,2.6,0.6c0.8,0.2,1.6,0.6,2.3,1c0.7,0.4,1.2,1,1.6,1.6
			s0.6,1.5,0.6,2.5c0,1.1-0.2,2-0.7,2.7c-0.5,0.7-1,1.3-1.8,1.8c-0.7,0.5-1.5,0.8-2.3,1s-1.7,0.3-2.5,0.3c-1.2,0-2.4-0.1-3.4-0.4
			c-1.1-0.3-2-0.7-2.8-1.3c-0.8-0.6-1.4-1.3-1.9-2.3c-0.5-0.9-0.7-2.1-0.7-3.4h1.3c-0.1,1.1,0.1,2.1,0.5,2.9
			c0.4,0.8,0.9,1.4,1.6,1.9c0.7,0.5,1.5,0.9,2.4,1.1c0.9,0.2,1.9,0.3,2.9,0.3c0.6,0,1.3-0.1,2-0.2c0.7-0.2,1.4-0.4,1.9-0.8
			s1.1-0.9,1.5-1.5c0.4-0.6,0.6-1.4,0.6-2.3c0-0.9-0.2-1.6-0.6-2.1c-0.4-0.6-0.9-1-1.6-1.3c-0.7-0.3-1.4-0.6-2.3-0.8
			s-1.7-0.4-2.6-0.6c-0.9-0.2-1.7-0.4-2.6-0.6c-0.9-0.2-1.6-0.5-2.3-0.9s-1.2-0.9-1.6-1.5c-0.4-0.6-0.6-1.4-0.6-2.4
			c0-1,0.2-1.8,0.6-2.5c0.4-0.7,1-1.3,1.6-1.7c0.7-0.4,1.4-0.8,2.2-1c0.8-0.2,1.7-0.3,2.5-0.3c1.1,0,2.1,0.1,3,0.4
			c0.9,0.2,1.8,0.6,2.5,1.1c0.7,0.5,1.3,1.2,1.7,2c0.4,0.8,0.7,1.8,0.7,2.9H-286.3z"/>
	</g>
</g>
<g id="Tree_Headers">
</g>
<g id="Dashboard_2" display="none">
</g>
<g id="Layer_2" display="none">
</g>
<g id="garages_1_">
	<g enable-background="new    ">
		<path fill="#F2F2F2" d="M-252.8,260.2l2.5,12.6h0.1l2.6-12.6h5.3V278h-3.3v-14.2h0l-3.2,14.2h-2.8l-3.2-14.2h0V278h-3.3v-17.8
			H-252.8z"/>
		<path fill="#F2F2F2" d="M-239.9,265.3c0.1-1.1,0.4-2.1,0.8-2.9s1-1.5,1.8-1.9c0.8-0.5,1.9-0.7,3.2-0.7c1.3,0,2.4,0.2,3.2,0.7
			c0.8,0.5,1.4,1.1,1.8,1.9s0.7,1.8,0.8,2.9s0.2,2.4,0.2,3.7c0,1.4-0.1,2.6-0.2,3.8s-0.4,2.1-0.8,2.9s-1,1.4-1.8,1.9
			s-1.9,0.7-3.2,0.7c-1.4,0-2.4-0.2-3.2-0.7c-0.8-0.4-1.4-1.1-1.8-1.9s-0.7-1.8-0.8-2.9s-0.2-2.4-0.2-3.8
			C-240.1,267.7-240.1,266.5-239.9,265.3z M-236.4,272.1c0.1,0.8,0.2,1.5,0.3,2c0.2,0.5,0.4,0.9,0.8,1.2c0.3,0.2,0.8,0.4,1.3,0.4
			c0.5,0,1-0.1,1.3-0.4c0.3-0.2,0.6-0.6,0.8-1.2s0.3-1.2,0.4-2c0.1-0.8,0.1-1.9,0.1-3.1s0-2.2-0.1-3c-0.1-0.8-0.2-1.5-0.4-2.1
			c-0.2-0.5-0.4-0.9-0.8-1.2c-0.3-0.2-0.8-0.4-1.3-0.4c-0.5,0-1,0.1-1.3,0.4c-0.3,0.2-0.6,0.6-0.8,1.2c-0.2,0.5-0.3,1.2-0.3,2.1
			c-0.1,0.8-0.1,1.8-0.1,3S-236.5,271.3-236.4,272.1z"/>
		<path fill="#F2F2F2" d="M-219.8,260.2c1.2,0,2.3,0.2,3,0.6c0.8,0.4,1.4,1,1.8,1.8c0.4,0.8,0.7,1.7,0.9,2.7
			c0.1,1.1,0.2,2.3,0.2,3.6c0,1.6-0.1,2.9-0.3,4.1c-0.2,1.2-0.5,2.1-1,2.9s-1.1,1.3-1.9,1.7s-1.8,0.5-3,0.5h-5.7v-17.8H-219.8z
			 M-220.5,275.3c0.6,0,1.1-0.1,1.5-0.3s0.7-0.6,0.9-1.1c0.2-0.5,0.4-1.2,0.4-2c0.1-0.8,0.1-1.8,0.1-3c0-1,0-1.9-0.1-2.7
			c-0.1-0.8-0.2-1.4-0.4-1.9c-0.2-0.5-0.5-0.9-0.9-1.2c-0.4-0.3-1-0.4-1.6-0.4h-1.5v12.5H-220.5z"/>
		<path fill="#F2F2F2" d="M-201.5,263.1h-6.4v4.2h6v3h-6v4.8h6.6v3h-10.2v-17.8h10V263.1z"/>
		<path fill="#F2F2F2" d="M-199.5,260.2h3.6V275h6.4v3h-10V260.2z"/>
	</g>
	<g enable-background="new    ">
		<path fill="#F2F2F2" d="M-245.2,286.2c0-0.9-0.2-1.7-0.6-2.3c-0.3-0.7-0.8-1.2-1.4-1.7s-1.3-0.8-2.1-1c-0.8-0.2-1.7-0.3-2.6-0.3
			c-0.6,0-1.2,0.1-1.9,0.2c-0.7,0.1-1.3,0.4-1.9,0.7c-0.6,0.3-1,0.8-1.4,1.4s-0.6,1.3-0.6,2.1c0,0.8,0.2,1.5,0.6,2
			c0.4,0.5,0.9,0.9,1.6,1.3c0.7,0.3,1.4,0.6,2.3,0.8c0.8,0.2,1.7,0.4,2.6,0.6c0.9,0.2,1.8,0.4,2.6,0.6c0.8,0.2,1.6,0.6,2.3,1
			c0.7,0.4,1.2,1,1.6,1.6c0.4,0.7,0.6,1.5,0.6,2.5c0,1.1-0.2,2-0.7,2.7c-0.5,0.7-1,1.3-1.8,1.8c-0.7,0.5-1.5,0.8-2.3,1
			c-0.9,0.2-1.7,0.3-2.5,0.3c-1.2,0-2.4-0.1-3.4-0.4c-1.1-0.3-2-0.7-2.8-1.3c-0.8-0.6-1.4-1.3-1.9-2.3s-0.7-2.1-0.7-3.4h1.3
			c-0.1,1.1,0.1,2.1,0.5,2.9c0.4,0.8,0.9,1.4,1.6,1.9c0.7,0.5,1.5,0.9,2.4,1.1c0.9,0.2,1.9,0.3,2.9,0.3c0.6,0,1.3-0.1,2-0.2
			c0.7-0.2,1.4-0.4,1.9-0.8s1.1-0.9,1.5-1.5c0.4-0.6,0.6-1.4,0.6-2.3c0-0.9-0.2-1.6-0.6-2.1c-0.4-0.6-0.9-1-1.6-1.3
			c-0.7-0.3-1.4-0.6-2.3-0.8c-0.8-0.2-1.7-0.4-2.6-0.6c-0.9-0.2-1.7-0.4-2.6-0.6c-0.9-0.2-1.6-0.5-2.3-0.9c-0.7-0.4-1.2-0.9-1.6-1.5
			c-0.4-0.6-0.6-1.4-0.6-2.4c0-1,0.2-1.8,0.6-2.5c0.4-0.7,1-1.3,1.6-1.7s1.4-0.8,2.2-1c0.8-0.2,1.7-0.3,2.5-0.3c1.1,0,2.1,0.1,3,0.4
			c0.9,0.2,1.8,0.6,2.5,1.1c0.7,0.5,1.3,1.2,1.7,2c0.4,0.8,0.7,1.8,0.7,2.9H-245.2z"/>
		<path fill="#F2F2F2" d="M-240.4,280.3h1.3V301h-1.3V280.3z"/>
		<path fill="#F2F2F2" d="M-235.5,280.3h1.6l13.1,19h0.1v-19h1.3V301h-1.5l-13.2-19.1h-0.1V301h-1.3V280.3z"/>
		<path fill="#F2F2F2" d="M-216.6,290.8c0-1.5,0.2-2.9,0.7-4.2c0.4-1.3,1.1-2.5,1.9-3.5c0.8-1,1.9-1.8,3.1-2.4s2.6-0.9,4.2-0.9
			c1.1,0,2.1,0.2,3,0.5c1,0.3,1.8,0.8,2.6,1.4c0.8,0.6,1.4,1.3,1.9,2.2c0.5,0.9,0.9,1.8,1,2.9h-1.2c-0.5-1.8-1.4-3.2-2.6-4.3
			c-1.3-1-2.8-1.5-4.8-1.5c-1.4,0-2.6,0.3-3.7,0.8c-1.1,0.5-2,1.3-2.7,2.2c-0.7,0.9-1.3,2-1.6,3.1c-0.4,1.2-0.6,2.4-0.6,3.7
			c0,1.3,0.2,2.6,0.5,3.7c0.4,1.2,0.9,2.2,1.6,3.1c0.7,0.9,1.6,1.6,2.7,2.1c1.1,0.5,2.3,0.8,3.7,0.8c1.2,0,2.3-0.2,3.3-0.6
			s1.8-1,2.5-1.7c0.7-0.7,1.2-1.6,1.6-2.7c0.3-1,0.5-2.2,0.4-3.5h-7.6v-1.1h8.7V301h-1.1v-4.4h-0.1c-0.3,0.8-0.6,1.4-1.1,2
			c-0.5,0.6-1.1,1.1-1.8,1.5c-0.7,0.4-1.4,0.7-2.3,1c-0.8,0.2-1.7,0.3-2.6,0.3c-1.6,0-3-0.3-4.2-0.8s-2.2-1.3-3.1-2.3
			c-0.8-1-1.5-2.1-1.9-3.4C-216.4,293.6-216.6,292.3-216.6,290.8z"/>
		<path fill="#F2F2F2" d="M-194.3,280.3h1.3v19.6h11.7v1.1h-13V280.3z"/>
		<path fill="#F2F2F2" d="M-179.8,280.3h13.9v1.1h-12.6v8.3h11.9v1.1h-11.9v9.1h12.8v1.1h-14.1V280.3z"/>
		<path fill="#F2F2F2" d="M-155.5,280.3h1.3v9.4h13.2v-9.4h1.3V301h-1.3v-10.2h-13.2V301h-1.3V280.3z"/>
		<path fill="#F2F2F2" d="M-117.3,290.6c0,1.5-0.2,2.9-0.7,4.2s-1.1,2.5-1.9,3.5c-0.8,1-1.9,1.7-3.1,2.3c-1.2,0.6-2.6,0.8-4.1,0.8
			s-2.9-0.3-4.2-0.8c-1.2-0.6-2.3-1.3-3.1-2.3c-0.8-1-1.5-2.1-1.9-3.5c-0.4-1.3-0.7-2.7-0.7-4.2c0-1.5,0.2-2.9,0.7-4.2
			c0.4-1.3,1.1-2.5,1.9-3.5c0.8-1,1.9-1.7,3.1-2.3c1.2-0.6,2.6-0.8,4.2-0.8s2.9,0.3,4.1,0.8c1.2,0.6,2.2,1.3,3.1,2.3
			c0.8,1,1.5,2.1,1.9,3.5S-117.3,289.1-117.3,290.6z M-135.7,290.6c0,1.3,0.2,2.6,0.6,3.8c0.4,1.2,0.9,2.2,1.7,3.1
			c0.7,0.9,1.6,1.6,2.7,2.1c1.1,0.5,2.3,0.8,3.6,0.8c1.4,0,2.6-0.3,3.6-0.8c1.1-0.5,1.9-1.2,2.7-2.1s1.3-1.9,1.7-3.1
			c0.4-1.2,0.6-2.4,0.6-3.8s-0.2-2.6-0.6-3.8c-0.4-1.2-0.9-2.2-1.7-3.1c-0.7-0.9-1.6-1.6-2.7-2.1c-1.1-0.5-2.3-0.8-3.6-0.8
			c-1.4,0-2.6,0.3-3.6,0.8c-1.1,0.5-2,1.2-2.7,2.1c-0.7,0.9-1.3,1.9-1.7,3.1C-135.5,288.1-135.7,289.3-135.7,290.6z"/>
		<path fill="#F2F2F2" d="M-114.6,280.3h1.8l8.1,19.3h0.1l8-19.3h1.8V301h-1.3v-19.1h-0.1L-104,301h-1.3l-8-19.1h-0.1V301h-1.3
			V280.3z"/>
		<path fill="#F2F2F2" d="M-91.1,280.3h13.9v1.1h-12.6v8.3H-78v1.1h-11.9v9.1h12.8v1.1h-14.1V280.3z"/>
	</g>
</g>
<g id="Layer_2_1_" display="none">
</g>
</svg>
