<?xml version="1.0" encoding="utf-8"?>
<!-- Generator: Adobe Illustrator 18.1.1, SVG Export Plug-In . SVG Version: 6.00 Build 0)  -->
<!DOCTYPE svg PUBLIC "-//W3C//DTD SVG 1.1//EN" "http://www.w3.org/Graphics/SVG/1.1/DTD/svg11.dtd">
<svg version="1.1" id="Layer_1" xmlns="http://www.w3.org/2000/svg" xmlns:xlink="http://www.w3.org/1999/xlink" x="0px" y="0px"
	 width="201.3px" height="42.2px" viewBox="65.5 260 201.3 42.2" enable-background="new 65.5 260 201.3 42.2" xml:space="preserve"
	>
<g id="garages_3_">
	<g enable-background="new    ">
		<path fill="#F2F2F2" d="M73.2,260.2l2.6,12.6h0l2.6-12.6h5.3V278h-3.3v-14.2h0L77.1,278h-2.8l-3.2-14.2h0V278h-3.3v-17.8H73.2z"/>
		<path fill="#F2F2F2" d="M86.1,265.3c0.1-1.1,0.4-2.1,0.8-2.9c0.4-0.8,1-1.5,1.8-1.9c0.8-0.5,1.9-0.7,3.2-0.7
			c1.3,0,2.4,0.2,3.2,0.7c0.8,0.5,1.4,1.1,1.8,1.9c0.4,0.8,0.7,1.8,0.8,2.9s0.2,2.4,0.2,3.7c0,1.4-0.1,2.6-0.2,3.8s-0.4,2.1-0.8,2.9
			c-0.4,0.8-1,1.4-1.8,1.9c-0.8,0.4-1.9,0.7-3.2,0.7c-1.4,0-2.4-0.2-3.2-0.7c-0.8-0.4-1.4-1.1-1.8-1.9c-0.4-0.8-0.7-1.8-0.8-2.9
			s-0.2-2.4-0.2-3.8C85.9,267.7,85.9,266.5,86.1,265.3z M89.6,272.1c0.1,0.8,0.2,1.5,0.4,2c0.2,0.5,0.4,0.9,0.8,1.2
			c0.3,0.2,0.8,0.4,1.3,0.4c0.5,0,1-0.1,1.3-0.4c0.3-0.2,0.6-0.6,0.8-1.2c0.2-0.5,0.3-1.2,0.4-2c0.1-0.8,0.1-1.9,0.1-3.1
			s0-2.2-0.1-3c-0.1-0.8-0.2-1.5-0.4-2.1c-0.2-0.5-0.4-0.9-0.8-1.2c-0.3-0.2-0.8-0.4-1.3-0.4c-0.5,0-1,0.1-1.3,0.4
			c-0.3,0.2-0.6,0.6-0.8,1.2c-0.2,0.5-0.3,1.2-0.4,2.1c-0.1,0.8-0.1,1.8-0.1,3S89.5,271.3,89.6,272.1z"/>
		<path fill="#F2F2F2" d="M106.2,260.2c1.2,0,2.3,0.2,3,0.6c0.8,0.4,1.4,1,1.8,1.8c0.4,0.8,0.7,1.7,0.9,2.7s0.2,2.3,0.2,3.6
			c0,1.6-0.1,2.9-0.3,4.1c-0.2,1.2-0.5,2.1-1,2.9c-0.5,0.8-1.1,1.3-1.9,1.7c-0.8,0.4-1.8,0.5-3,0.5h-5.7v-17.8H106.2z M105.5,275.3
			c0.6,0,1.1-0.1,1.5-0.3s0.7-0.6,0.9-1.1s0.4-1.2,0.5-2c0.1-0.8,0.1-1.8,0.1-3c0-1,0-1.9-0.1-2.7c-0.1-0.8-0.2-1.4-0.4-1.9
			c-0.2-0.5-0.5-0.9-0.9-1.2c-0.4-0.3-1-0.4-1.6-0.4h-1.5v12.5H105.5z"/>
		<path fill="#F2F2F2" d="M124.5,263.1h-6.4v4.2h6v3h-6v4.8h6.6v3h-10.2v-17.8h10V263.1z"/>
		<path fill="#F2F2F2" d="M126.5,260.2h3.6V275h6.4v3h-10V260.2z"/>
	</g>
</g>
<g enable-background="new    ">
	<path fill="#F2F2F2" d="M86.8,290.6c0,1.5-0.2,2.9-0.7,4.2s-1.1,2.5-1.9,3.5c-0.8,1-1.9,1.7-3.1,2.3c-1.2,0.6-2.6,0.8-4.1,0.8
		s-2.9-0.3-4.2-0.8s-2.3-1.3-3.1-2.3c-0.8-1-1.5-2.1-1.9-3.5c-0.4-1.3-0.7-2.7-0.7-4.2c0-1.5,0.2-2.9,0.7-4.2
		c0.4-1.3,1.1-2.5,1.9-3.5c0.8-1,1.9-1.7,3.1-2.3c1.2-0.6,2.6-0.8,4.2-0.8s2.9,0.3,4.1,0.8c1.2,0.6,2.2,1.3,3.1,2.3
		c0.8,1,1.5,2.1,1.9,3.5S86.8,289.1,86.8,290.6z M68.3,290.6c0,1.3,0.2,2.6,0.6,3.8c0.4,1.2,0.9,2.2,1.7,3.1s1.6,1.6,2.7,2.1
		c1.1,0.5,2.3,0.8,3.6,0.8s2.6-0.3,3.6-0.8c1.1-0.5,1.9-1.2,2.7-2.1s1.3-1.9,1.7-3.1c0.4-1.2,0.6-2.4,0.6-3.8s-0.2-2.6-0.6-3.8
		c-0.4-1.2-0.9-2.2-1.7-3.1c-0.7-0.9-1.6-1.6-2.7-2.1c-1.1-0.5-2.3-0.8-3.6-0.8s-2.6,0.3-3.6,0.8c-1.1,0.5-2,1.2-2.7,2.1
		c-0.7,0.9-1.3,1.9-1.7,3.1C68.5,288.1,68.3,289.3,68.3,290.6z"/>
	<path fill="#F2F2F2" d="M89.5,280.3h13v1.1H90.8v8.3h10.6v1.1H90.8V301h-1.3V280.3z"/>
	<path fill="#F2F2F2" d="M104.4,280.3h13v1.1h-11.7v8.3h10.6v1.1h-10.6V301h-1.3V280.3z"/>
	<path fill="#F2F2F2" d="M119.3,280.3h1.3V301h-1.3V280.3z"/>
	<path fill="#F2F2F2" d="M123.4,290.6c0-1.5,0.2-2.9,0.7-4.2s1.1-2.5,1.9-3.5c0.8-1,1.9-1.7,3.1-2.3c1.2-0.6,2.6-0.8,4.2-0.8
		c1.2,0,2.3,0.2,3.2,0.5c0.9,0.3,1.6,0.7,2.2,1.2s1.1,1,1.5,1.6c0.4,0.6,0.7,1.1,0.9,1.6s0.3,0.9,0.4,1.3c0.1,0.4,0.1,0.6,0.1,0.6
		h-1.3c-0.1-0.9-0.4-1.6-0.8-2.3c-0.4-0.7-1-1.3-1.6-1.8c-0.6-0.5-1.3-0.9-2.1-1.1s-1.6-0.4-2.5-0.4c-1.4,0-2.6,0.3-3.6,0.8
		c-1.1,0.5-2,1.2-2.7,2.1c-0.7,0.9-1.3,1.9-1.7,3.1c-0.4,1.2-0.6,2.4-0.6,3.8s0.2,2.6,0.6,3.8c0.4,1.2,0.9,2.2,1.7,3.1
		c0.7,0.9,1.6,1.6,2.7,2.1c1.1,0.5,2.3,0.8,3.6,0.8c1,0,1.9-0.2,2.8-0.6c0.9-0.4,1.6-1,2.3-1.7c0.7-0.7,1.2-1.5,1.6-2.4
		c0.4-0.9,0.6-1.8,0.7-2.8h1.3c-0.1,1.2-0.4,2.4-0.9,3.4c-0.5,1-1.1,1.9-1.9,2.7c-0.8,0.8-1.6,1.4-2.7,1.8c-1,0.4-2.1,0.6-3.2,0.6
		c-1.5,0-2.9-0.3-4.2-0.8c-1.2-0.6-2.3-1.3-3.1-2.3c-0.8-1-1.5-2.1-1.9-3.5S123.4,292.2,123.4,290.6z"/>
	<path fill="#F2F2F2" d="M144.6,280.3h13.9v1.1h-12.6v8.3h11.9v1.1h-11.9v9.1h12.8v1.1h-14.1V280.3z"/>
	<path fill="#F2F2F2" d="M167.9,279.8h1.2l-9.2,21.7h-1.2L167.9,279.8z"/>
	<path fill="#F2F2F2" d="M184.1,286.2c0-0.9-0.2-1.7-0.6-2.3c-0.3-0.7-0.8-1.2-1.4-1.7s-1.3-0.8-2.1-1c-0.8-0.2-1.7-0.3-2.6-0.3
		c-0.6,0-1.2,0.1-1.9,0.2c-0.7,0.1-1.3,0.4-1.9,0.7c-0.6,0.3-1,0.8-1.4,1.4s-0.6,1.3-0.6,2.1c0,0.8,0.2,1.5,0.6,2
		c0.4,0.5,0.9,0.9,1.6,1.3s1.4,0.6,2.3,0.8c0.9,0.2,1.7,0.4,2.6,0.6c0.9,0.2,1.8,0.4,2.6,0.6c0.8,0.2,1.6,0.6,2.3,1
		c0.7,0.4,1.2,1,1.6,1.6s0.6,1.5,0.6,2.5c0,1.1-0.2,2-0.7,2.7c-0.5,0.7-1,1.3-1.8,1.8c-0.7,0.5-1.5,0.8-2.3,1
		c-0.9,0.2-1.7,0.3-2.5,0.3c-1.2,0-2.4-0.1-3.4-0.4c-1.1-0.3-2-0.7-2.8-1.3c-0.8-0.6-1.4-1.3-1.9-2.3c-0.5-0.9-0.7-2.1-0.7-3.4h1.3
		c-0.1,1.1,0.1,2.1,0.5,2.9c0.4,0.8,0.9,1.4,1.6,1.9c0.7,0.5,1.5,0.9,2.4,1.1c0.9,0.2,1.9,0.3,2.9,0.3c0.6,0,1.3-0.1,2-0.2
		c0.7-0.2,1.4-0.4,1.9-0.8c0.6-0.4,1.1-0.9,1.5-1.5c0.4-0.6,0.6-1.4,0.6-2.3c0-0.9-0.2-1.6-0.6-2.1c-0.4-0.6-0.9-1-1.6-1.3
		c-0.7-0.3-1.4-0.6-2.3-0.8c-0.8-0.2-1.7-0.4-2.6-0.6c-0.9-0.2-1.7-0.4-2.6-0.6c-0.9-0.2-1.6-0.5-2.3-0.9c-0.7-0.4-1.2-0.9-1.6-1.5
		c-0.4-0.6-0.6-1.4-0.6-2.4c0-1,0.2-1.8,0.6-2.5c0.4-0.7,1-1.3,1.6-1.7s1.4-0.8,2.2-1c0.8-0.2,1.7-0.3,2.5-0.3c1.1,0,2.1,0.1,3,0.4
		c0.9,0.2,1.8,0.6,2.5,1.1c0.7,0.5,1.3,1.2,1.7,2c0.4,0.8,0.7,1.8,0.7,2.9H184.1z"/>
	<path fill="#F2F2F2" d="M185.9,281.4v-1.1h15.9v1.1h-7.3V301h-1.3v-19.6H185.9z"/>
	<path fill="#F2F2F2" d="M204.5,280.3v12.4c0,0.4,0,0.9,0.1,1.4c0,0.5,0.1,1.1,0.3,1.7s0.4,1.1,0.7,1.7c0.3,0.6,0.7,1,1.1,1.5
		c0.5,0.4,1.1,0.8,1.8,1c0.7,0.3,1.6,0.4,2.6,0.4c1.3,0,2.3-0.2,3.2-0.5c0.9-0.4,1.6-0.9,2.1-1.5c0.5-0.7,0.9-1.5,1.1-2.4
		c0.2-0.9,0.3-2,0.3-3.2v-12.4h1.3v12.4c0,1.2-0.1,2.4-0.4,3.5c-0.3,1.1-0.7,2-1.3,2.8c-0.6,0.8-1.4,1.4-2.5,1.9s-2.3,0.7-3.9,0.7
		c-1.2,0-2.3-0.2-3.1-0.5c-0.9-0.3-1.6-0.7-2.2-1.2s-1-1.1-1.3-1.7c-0.3-0.6-0.6-1.3-0.8-1.9c-0.2-0.6-0.3-1.3-0.3-1.9
		c0-0.6-0.1-1.1-0.1-1.6v-12.4H204.5z"/>
	<path fill="#F2F2F2" d="M222.7,280.3h6.8c1.9,0,3.4,0.3,4.6,0.9s2.2,1.4,2.9,2.3s1.3,2.1,1.6,3.3s0.5,2.5,0.5,3.8
		c0,1.5-0.2,2.8-0.6,4.1s-1,2.4-1.8,3.3c-0.8,0.9-1.8,1.7-3,2.2c-1.2,0.5-2.6,0.8-4.3,0.8h-6.7V280.3z M229.6,299.9
		c1,0,1.9-0.2,2.9-0.5c1-0.3,1.9-0.8,2.7-1.5c0.8-0.7,1.4-1.7,1.9-2.8c0.5-1.2,0.7-2.7,0.7-4.5c0-1.4-0.1-2.6-0.4-3.6
		s-0.6-1.9-1.1-2.5c-0.5-0.7-1-1.2-1.6-1.6c-0.6-0.4-1.2-0.7-1.8-0.9c-0.6-0.2-1.3-0.4-1.9-0.4c-0.6-0.1-1.2-0.1-1.7-0.1H224v18.5
		H229.6z"/>
	<path fill="#F2F2F2" d="M242.1,280.3h1.3V301h-1.3V280.3z"/>
	<path fill="#F2F2F2" d="M265.7,290.6c0,1.5-0.2,2.9-0.7,4.2c-0.4,1.3-1.1,2.5-1.9,3.5c-0.8,1-1.9,1.7-3.1,2.3s-2.6,0.8-4.1,0.8
		s-2.9-0.3-4.2-0.8c-1.2-0.6-2.3-1.3-3.1-2.3c-0.8-1-1.5-2.1-1.9-3.5s-0.7-2.7-0.7-4.2c0-1.5,0.2-2.9,0.7-4.2s1.1-2.5,1.9-3.5
		c0.8-1,1.9-1.7,3.1-2.3c1.2-0.6,2.6-0.8,4.2-0.8s2.9,0.3,4.1,0.8c1.2,0.6,2.2,1.3,3.1,2.3c0.8,1,1.5,2.1,1.9,3.5
		C265.5,287.7,265.7,289.1,265.7,290.6z M247.3,290.6c0,1.3,0.2,2.6,0.6,3.8c0.4,1.2,0.9,2.2,1.7,3.1c0.7,0.9,1.6,1.6,2.7,2.1
		c1.1,0.5,2.3,0.8,3.6,0.8s2.6-0.3,3.6-0.8c1.1-0.5,1.9-1.2,2.7-2.1c0.7-0.9,1.3-1.9,1.7-3.1c0.4-1.2,0.6-2.4,0.6-3.8
		s-0.2-2.6-0.6-3.8c-0.4-1.2-0.9-2.2-1.7-3.1c-0.7-0.9-1.6-1.6-2.7-2.1c-1.1-0.5-2.3-0.8-3.6-0.8s-2.6,0.3-3.6,0.8
		c-1.1,0.5-2,1.2-2.7,2.1c-0.7,0.9-1.3,1.9-1.7,3.1C247.5,288.1,247.3,289.3,247.3,290.6z"/>
</g>
</svg>
