<?xml version="1.0" encoding="utf-8"?>
<!-- Generator: Adobe Illustrator 18.1.1, SVG Export Plug-In . SVG Version: 6.00 Build 0)  -->
<!DOCTYPE svg PUBLIC "-//W3C//DTD SVG 1.1//EN" "http://www.w3.org/Graphics/SVG/1.1/DTD/svg11.dtd">
<svg version="1.1" id="Layer_1" xmlns="http://www.w3.org/2000/svg" xmlns:xlink="http://www.w3.org/1999/xlink" x="0px" y="0px"
	 width="272.5px" height="34.5px" viewBox="0 0 272.5 34.5" enable-background="new 0 0 272.5 34.5" xml:space="preserve">
<path fill="#D0D2D3" d="M127.1,20.7l3.2,9.5c0,0,2.2,1.4,2.8,1.5c0.6,0,2.9,0,2.9,0s-3.2-8.3-3.8-8.9s-3.3-1.6-3.3-1.6"/>
<path fill="#D0D2D3" d="M130.6,7.8v8.7c0,0-0.8,2.3-1.1,2.8c-0.3,0.5-2.2,1.4-2.2,1.4s0.9-0.1,1.6-0.3c0.7-0.2,3.2-0.6,4.7-2.7
	c1.4-2.1,1.4-5.8,1-6.6s-2.8-3-2.8-3"/>
<polyline fill="#D0D2D3" points="117.6,7.8 117.6,31.7 122,31.7 122,7.2 "/>
<path fill="#D0D2D3" d="M101.5,7.3l7.7,24.4h4.7l-7.8-23.3c0,0-1.2-1.3-2.5-1.5"/>
<path fill="#D0D2D3" d="M246.8,7.4h4.1v24.4c0,0-3.9-0.3-3.9-1.9s-0.2-3-0.2-3"/>
<path fill="#D0D2D3" d="M218.8,7.4l6.6,23.3c0,0,1.5,1.1,2.1,1.4c0.6,0.3,1.9,0,1.9,0l0.2-0.3L223.9,9c0,0-1.6-1.3-2.1-1.5"/>
<polyline fill="#D0D2D3" points="236.9,9.5 237.4,7.4 240.8,7.4 240.8,32.1 236.5,32.1 "/>
<path fill="#D0D2D3" d="M209.3,29.9V13.3c0,0-0.4-2.4-1.4-3.4c-0.9-1-2.6-2.2-2.6-2.2s3.9,0.9,5.2,2.6c1.4,1.7,3.3,6.2,3.3,10.1
	C213.9,26,209.6,29.6,209.3,29.9z"/>
<path fill="#D0D2D3" d="M195.6,9.6v16.7c0,0,0.4,2.4,1.4,3.4c0.9,1,2.6,2.2,2.6,2.2s-3.9-0.9-5.2-2.6c-1.4-1.7-3.3-6.2-3.3-10.1
	C191.1,13.5,195.4,9.9,195.6,9.6z"/>
<path fill="#D0D2D3" d="M46.8,29.6V12.9c0,0-0.4-2.4-1.4-3.4c-0.9-1-2.6-2.2-2.6-2.2s3.9,0.9,5.2,2.6c1.4,1.7,3.3,6.2,3.3,10.1
	C51.4,25.7,47.1,29.3,46.8,29.6z"/>
<path fill="#D0D2D3" d="M33.1,9.2v16.7c0,0,0.4,2.4,1.4,3.4c0.9,1,2.6,2.2,2.6,2.2s-3.9-0.9-5.2-2.6c-1.4-1.7-3.3-6.2-3.3-10.1
	C28.5,13.2,32.9,9.6,33.1,9.2z"/>
<rect x="76.1" y="7.3" fill="#D0D2D3" width="3.9" height="24.4"/>
<rect x="56.4" y="7.3" fill="#D0D2D3" width="3.9" height="24.4"/>
<rect x="166.9" y="7.2" fill="#D0D2D3" width="3.9" height="24.8"/>
<polygon fill="#D0D2D3" points="185.9,32 183.9,32.2 182.1,31.3 182,7.2 185.9,7.2 "/>
<path fill="#D0D2D3" d="M7.9,25.3c0,0,0.2-0.7,1.9,0.4s1.3,1.3,1.7,1.8c0.6,0.7,1.7,3.4,2,3.4s1.7,0.9,1.7,0.9s-3.1-0.4-4.6-1.5
	c-1.6-1.1-2.5-2.6-2.5-2.6l-0.1-2"/>
<path fill="#D0D2D3" d="M11.7,8.6c0,0-2.7,2.3-1.5,4.2c1.1,1.9,2.1,2.2,2.1,2.2l2.8,0.9l7.4,3.2c0,0,2.5,3.6,2.6,4.5
	s-0.5,4.9-1.6,5.9s-0.8,0.6-0.8,0.6s1.2-2.1,0.7-4.1s-1.5-2.8-2.4-3.2c-0.9-0.4-7.6-2.4-9.8-4.1c-2.2-1.6-3.3-3-2.7-5.9
	s0.2-2.5,0.9-3.3S11.6,8,11.6,8"/>
<polyline fill="#D0D2D3" points="20.6,7.6 20.6,12.1 21.2,13.5 22.7,14.1 23.5,13.4 24.5,12.6 24.9,11 24.1,9.4 22.8,8.2 "/>
<path fill="#D0D2D3" d="M138.8,25.1c0,0,0.2-0.7,1.9,0.4s1.3,1.3,1.7,1.8c0.6,0.7,1.7,3.4,2,3.4s1.7,0.9,1.7,0.9s-3.1-0.4-4.6-1.5
	s-2.5-2.6-2.5-2.6l-0.1-2"/>
<path fill="#D0D2D3" d="M142.7,8.7c0,0-2.7,2.3-1.5,4.2c1.1,1.9,2.1,2.2,2.1,2.2l2.8,0.9l7.4,3.2c0,0,2.5,3.6,2.6,4.5
	s-0.5,4.9-1.6,5.9s-0.8,0.6-0.8,0.6s1.2-2.1,0.7-4.1s-1.5-2.8-2.4-3.2c-0.9-0.4-7.6-2.4-9.8-4.1c-2.2-1.6-3.3-3-2.7-5.9
	s0.2-2.5,0.9-3.3s2.2-1.5,2.2-1.5"/>
<path fill="#231F20" d="M20.3,7.7c-1.3-0.4-2.7-0.6-4-0.6c-3.9,0-6.4,2.6-6.4,4.8c0,1.2,0.9,2.5,3.1,3.3l6.7,2.5
	c3.8,1.4,5.5,4,5.5,7.4c0,4-2.9,7.2-8.2,7.2c-5.4,0-9.7-2.5-9.7-7.4h0.9c4.7,0,3,6.9,9,6.9c4,0,6-2.4,6-4.6c0-1.6-0.7-3.3-3.1-4.2
	l-6.8-2.5c-3.7-1.4-5.3-4-5.3-6.6c0-3.6,2.8-7.2,8.2-7.2c4.2,0,8.6,1.8,8.6,4.8c0,1.8-1.2,2.6-2.3,2.6c-1.2,0-2.3-0.9-2.3-2.6V7.7
	H20.3z M8.3,25.3H7.9c0,3.3,3.4,5.9,6.6,6.3C11.8,30.4,11.6,25.3,8.3,25.3z M19.8,18.1L13,15.6c-2.2-0.8-3.4-2.3-3.4-3.7
	c0-1,0.5-2.2,1.7-3.3c-1.4,0.9-2.6,2.8-2.6,5.3c0,2.4,1.4,4.9,5,6.2l6.6,2.5c2.7,1,3.6,3,3.6,4.7c0,1-0.3,1.7-0.8,2.4
	c1.1-0.9,1.8-3,1.8-4.6C24.8,21.8,23.1,19.3,19.8,18.1z M20.8,7.8v3.7c0,1.4,1,2.2,1.9,2.2s1.8-0.7,1.8-2.2
	C24.5,9.8,22.8,8.5,20.8,7.8z"/>
<path fill="#231F20" d="M28.4,19.5c0-6.4,3.9-12.8,11.6-12.8c7.7,0,11.6,6.4,11.6,12.7c0,6.4-3.9,12.8-11.6,12.8
	C32.2,32.2,28.4,25.8,28.4,19.5z M32.9,24.9V9.6c-2.7,2.3-4.1,6.1-4.1,9.9c0,6,3.1,10.2,7.3,11.7C34.2,30,32.9,28,32.9,24.9z
	 M46.5,29.6V13.9c0-4.6-3.2-6.9-6.6-6.9c-2.7,0-4.9,0.8-6.6,2.2v15.7c0,4.6,3.2,6.9,6.6,6.9C42.6,31.8,44.8,31,46.5,29.6z M47,29.2
	c2.7-2.3,4.1-6,4.1-9.9c0-6-3.1-10.2-7.3-11.7c2,1.2,3.2,3.2,3.2,6.3V29.2z"/>
<path fill="#231F20" d="M73,31.9H56.1v-25h4.6v24.6h12.2v0.4H73z M56.6,7.3v24.2h3.7V7.3H56.6z"/>
<path fill="#231F20" d="M92.5,31.9H75.6v-25h4.6v24.6h12.2L92.5,31.9L92.5,31.9z M76.1,7.3v24.2h3.7V7.3H76.1z"/>
<path fill="#231F20" d="M100.7,8.4c0.4-1.2,1.3-1.8,2.6-1.8c1.4,0,2.5,0.7,3,2.1l7.7,23.2h-5l-3-9.4h-9.3l-3,9.4h-0.5L100.7,8.4z
	 M96.8,22.1h9.1l-4.5-14.4L96.8,22.1z M109.4,31.5h4l-7.6-22.8c-0.4-1.2-1.3-1.7-2.6-1.7c-0.5,0-1,0.1-1.4,0.4L109.4,31.5z"/>
<path fill="#231F20" d="M117.4,7.7c2.1-0.5,5.4-1,7.7-1c5.8,0,10.2,2.2,10.2,7.5c0,3.2-2,5.9-6.3,6.7c2.2,0.5,3.7,1.9,4.7,4.3
	l2.6,6.8h-2c-2.3,0-3.7-0.8-4.4-2.9l-2.8-8.1h-4.9v11h-4.6V7.7H117.4z M121.6,31.5V7.3c-1.4,0.2-2.8,0.4-3.7,0.7v23.5H121.6z
	 M130.4,15.2V7.9c-1.5-0.6-3.4-0.8-5.3-0.8c-0.9,0-2,0.1-3,0.2v13.3h3.2C128.7,20.5,130.4,19,130.4,15.2z M130.2,29
	c0.6,1.7,1.8,2.5,4,2.5h1.3l-2.4-6.4c-1.1-2.8-3.3-4.2-5.7-4.2L130.2,29z M130.8,8.1v7.1c0,2.4-0.6,4.4-2.9,5.4
	c4.1-0.3,6.8-2.8,6.8-6.4C134.8,11.1,133.2,9.1,130.8,8.1z"/>
<path fill="#231F20" d="M151.3,7.7c-1.3-0.4-2.7-0.6-4-0.6c-3.9,0-6.4,2.6-6.4,4.8c0,1.2,0.9,2.5,3.1,3.3l6.7,2.5
	c3.8,1.4,5.5,4,5.5,7.4c0,4-2.9,7.2-8.2,7.2c-5.4,0-9.7-2.5-9.7-7.4h0.9c4.7,0,3,6.9,9,6.9c4,0,6-2.4,6-4.6c0-1.6-0.7-3.3-3.1-4.2
	l-6.8-2.5c-3.7-1.4-5.3-4-5.3-6.6c0-3.6,2.8-7.2,8.2-7.2c4.2,0,8.6,1.8,8.6,4.8c0,1.8-1.2,2.6-2.3,2.6c-1.2,0-2.3-0.9-2.3-2.6
	L151.3,7.7L151.3,7.7z M139.3,25.3h-0.5c0,3.3,3.4,5.9,6.6,6.3C142.8,30.4,142.6,25.3,139.3,25.3z M150.8,18.1l-6.8-2.5
	c-2.2-0.8-3.4-2.3-3.4-3.7c0-1,0.5-2.2,1.7-3.3c-1.4,0.9-2.6,2.8-2.6,5.3c0,2.4,1.4,4.9,5,6.2l6.6,2.5c2.7,1,3.6,3,3.6,4.7
	c0,1-0.3,1.7-0.8,2.4c1.1-0.9,1.8-3,1.8-4.6C155.8,21.8,154.1,19.3,150.8,18.1z M151.8,7.8v3.7c0,1.4,1,2.2,1.9,2.2s1.8-0.7,1.8-2.2
	C155.5,9.8,153.8,8.5,151.8,7.8z"/>
<path fill="#231F20" d="M181.6,20.1h-10.5v12.1h-4.6v-25h4.6v12.5h10.5V7.1h4.6v25c-0.7,0.2-1.2,0.3-1.8,0.3c-1.6,0-2.8-0.8-2.8-3.3
	V20.1z M167,7.5v24.2h3.7V7.5H167z M182.1,7.5v21.6c0,1.9,0.9,2.8,2.4,2.8c0.4,0,0.9,0,1.3-0.2V7.5H182.1z"/>
<path fill="#231F20" d="M190.8,19.7c0-6.4,3.9-12.8,11.6-12.8S214,13.3,214,19.6c0,6.4-3.9,12.8-11.6,12.8S190.8,26.1,190.8,19.7z
	 M195.4,25.1V9.8c-2.7,2.3-4.1,6.1-4.1,9.9c0,6,3.1,10.2,7.3,11.7C196.7,30.2,195.4,28.3,195.4,25.1z M209,29.8V14.2
	c0-4.6-3.2-6.9-6.6-6.9c-2.7,0-4.9,0.8-6.6,2.2v15.7c0,4.6,3.2,6.9,6.6,6.9C205.1,32,207.3,31.2,209,29.8z M209.5,29.5
	c2.7-2.3,4.1-6,4.1-9.9c0-6-3.1-10.2-7.3-11.7c2,1.2,3.2,3.2,3.2,6.3V29.5z"/>
<path fill="#231F20" d="M236.5,32.1V11l-6.7,21.2c-0.5,0.2-0.9,0.3-1.3,0.3c-2,0-3-0.9-3.7-3.4l-5.7-20.2v23.4h-0.5v-25h0.8
	c3,0,4.2,0.3,5,3.4l5.3,20.6l7.5-24h3.9v25h-4.6V32.1z M229.4,31.9l-5.5-21.4c-0.7-2.5-1.6-3-4.5-3h-0.3l6,21.5c0.6,2.2,1.5,3,3.2,3
	C228.8,32,229.1,32,229.4,31.9z M236.9,9.5v22.2h3.7V7.5h-3.1L236.9,9.5z"/>
<path fill="#231F20" d="M262.5,7.5h-11.4v12.1h9.9V20h-9.9v11.6H263V32h-11.9c-2.9,0-4.6-1.7-4.6-4.6V7.1h16.1v0.4
	C262.6,7.5,262.5,7.5,262.5,7.5z M250.6,31.7V7.5h-3.7v20C246.9,30.4,248.7,31.5,250.6,31.7z"/>
<path fill="#81BB41" d="M38.6,15.7c0,0-0.1,0.4-0.2,1.1c-0.1,0.6-0.3,1.1-0.6,1.4c-0.3,0.4-0.6,0.7-1.1,0.8c-0.3,0.1-0.6,0.1-0.9,0
	c-0.2-0.1-0.3-0.2-0.4-0.4c-0.1,0-0.2,0-0.3-0.1c-0.2-0.1-0.3-0.3-0.3-0.6c0.2-1.1,1-2,2.3-2.5c0.7-0.3,1.3-0.4,1.9-0.4
	C39,15.2,38.8,15.4,38.6,15.7z M35.5,18.6c-0.6,0.4-1.2,0.6-2,0.5L35.5,18.6z M36.1,20.7c-0.5-0.4-1.1-0.7-1.8-0.9
	c-0.4-0.1-0.7-0.2-0.9-0.2L36.1,20.7z M40.1,25.5c0,0,0-0.6-0.1-1.7c0-0.9-0.2-1.6-0.5-2.2c-0.3-0.7-0.8-1.1-1.4-1.4
	c-0.4-0.2-0.8-0.3-1.2-0.2c-0.2,0-0.4,0.1-0.5,0.3c-0.1,0.1-0.1,0.2-0.1,0.3c-0.1,0-0.3,0-0.4,0c-0.3,0.1-0.5,0.4-0.5,0.9
	c0,1.7,1,3.1,2.8,4.1c0.9,0.5,1.8,0.9,2.7,1C40.4,26.4,40.2,26,40.1,25.5z"/>
<path fill="#81BB41" d="M62.8,27.3c0,0,0.4,0.1,1.1,0.1c0.6,0.1,1,0.2,1.4,0.4c0.4,0.2,0.7,0.6,0.8,1c0.1,0.3,0.1,0.6,0.1,0.8
	S66,29.9,65.8,30c0,0.1,0,0.2,0,0.3c-0.1,0.2-0.3,0.3-0.6,0.3c-1.1-0.1-1.9-0.8-2.5-2c-0.3-0.6-0.5-1.2-0.5-1.8
	C62.2,27.1,62.5,27.2,62.8,27.3z M65.7,30.1c0.4,0.5,0.6,1.1,0.6,1.9L65.7,30.1z M67.7,29.4c-0.4,0.5-0.6,1.1-0.8,1.8
	c-0.1,0.3-0.1,0.7-0.1,0.9L67.7,29.4z M71.9,25.3c0,0-0.6,0.1-1.6,0.2c-0.8,0.1-1.5,0.3-2.1,0.6c-0.6,0.3-1,0.8-1.2,1.4
	c-0.2,0.4-0.2,0.8-0.1,1.2c0,0.2,0.1,0.3,0.3,0.5c0.1,0.1,0.2,0.1,0.2,0.1c0,0.1,0,0.3,0.1,0.4c0.1,0.3,0.4,0.4,0.9,0.5
	c1.6-0.2,2.9-1.1,3.7-2.9c0.4-0.9,0.7-1.8,0.8-2.7C72.8,24.9,72.4,25.1,71.9,25.3z"/>
<path fill="#81BB41" d="M230,13.7c0,0,0.2-0.2,0.7-0.7c0.4-0.4,0.7-0.6,1.1-0.7c0.4-0.2,0.8-0.2,1.1,0c0.3,0.1,0.5,0.2,0.6,0.4
	c0.1,0.1,0.1,0.3,0.1,0.5c0.1,0,0.1,0.1,0.2,0.2c0.1,0.2,0,0.4-0.1,0.6c-0.7,0.7-1.6,0.9-2.8,0.7c-0.6-0.1-1.1-0.3-1.6-0.6
	C229.5,13.9,229.7,13.9,230,13.7z M233.5,13.2c0.6,0,1.1,0.2,1.6,0.6L233.5,13.2z M234.1,11.4c0.1,0.5,0.4,1,0.8,1.5
	c0.2,0.2,0.4,0.4,0.6,0.6L234.1,11.4z M233.5,6.2c0,0-0.2,0.4-0.7,1.2c-0.4,0.6-0.6,1.2-0.7,1.8c-0.1,0.6,0,1.1,0.3,1.6
	c0.2,0.3,0.5,0.6,0.8,0.7c0.2,0.1,0.3,0.1,0.5,0c0.1,0,0.2-0.1,0.2-0.1c0.1,0.1,0.2,0.2,0.3,0.2c0.3,0.1,0.5-0.1,0.8-0.4
	c0.8-1.2,0.8-2.6,0-4.2c-0.4-0.8-0.9-1.5-1.4-2C233.7,5.4,233.7,5.7,233.5,6.2z"/>
<path fill="#81BB41" d="M9.3,10c-0.2,0.1-0.4,0.3-0.6,0.5c-0.3,0.3-0.5,0.4-0.6,0.5c-0.5,0.4-1,0.6-1.5,0.6c-0.4,0-0.9,0-1.8-0.2
	c-0.8-0.1-1.4-0.2-1.9-0.1c0.6-0.1,1-0.4,1.3-0.9C4.6,9.6,4.9,9.2,5,9.1c0.8-0.7,2-0.6,3.7,0.1C8,9,7.4,9,6.7,9.3
	c-0.6,0.2-1.1,0.6-1.5,1.1C5.8,10,6.5,9.7,7.3,9.7c0.8-0.1,1.5,0,2.3,0.2L9.3,10z M8.9,8.4c-0.2,0-0.5,0-0.9,0c-0.5,0-0.7,0-0.8,0
	C6.6,8.4,6,8.3,5.5,8C5.2,7.8,4.8,7.4,4.2,6.9C3.7,6.4,3.2,6,2.7,5.8c0.5,0.3,1.1,0.3,1.7,0.1C5.3,5.6,5.8,5.4,6,5.4
	c1.1-0.1,2.1,0.7,2.9,2.2C8.5,7.1,8,6.7,7.2,6.5c-0.7-0.2-1.4-0.2-2-0.1C6,6.5,6.8,6.7,7.5,7.1s1.3,0.8,1.7,1.4L8.9,8.4z M9.4,7.1
	C9.3,6.9,9.1,6.7,8.8,6.5C8.5,6.2,8.3,6,8.2,6C7.8,5.6,7.5,5.1,7.4,4.6c0-0.3,0-0.8,0.1-1.5s0.1-1.2,0-1.6C7.6,2,8,2.4,8.6,2.7
	c0.9,0.4,1.4,0.7,1.5,0.8c0.8,0.7,0.8,1.8,0,3.2c0.2-0.6,0.1-1.1-0.2-1.7S9.2,4,8.6,3.6c0.5,0.6,0.8,1.2,1,1.9
	c0.1,0.7,0.1,1.3-0.2,2V7.1z M11.8,7.5c0.2-0.1,0.4-0.2,0.7-0.4c0.4-0.2,0.6-0.3,0.7-0.3c0.5-0.3,0.9-0.6,1.1-1
	c0.1-0.3,0.3-0.8,0.3-1.5c0.1-0.7,0.2-1.2,0.5-1.5c-0.2,0.4-0.7,0.7-1.4,0.8c-1,0.1-1.5,0.2-1.7,0.3c-1,0.4-1.3,1.4-1,3.1
	c0-0.6,0.2-1.1,0.7-1.6c0.4-0.4,1-0.7,1.7-0.9c-0.6,0.4-1.1,0.9-1.5,1.5c-0.3,0.6-0.5,1.3-0.4,1.9L11.8,7.5z"/>
<path fill="#81BB41" d="M78.1,6.8c-0.1,0-0.2-0.1-0.4-0.1c-0.2-0.1-0.3-0.1-0.4-0.1c-0.3-0.1-0.5-0.2-0.7-0.5
	c-0.1-0.1-0.3-0.4-0.5-0.8c-0.2-0.4-0.4-0.7-0.6-0.8c0.2,0.2,0.5,0.3,0.8,0.3c0.5-0.1,0.7-0.1,0.8-0.1c0.5,0.1,0.9,0.7,1.1,1.7
	c-0.1-0.3-0.3-0.6-0.6-0.8c-0.3-0.2-0.6-0.3-0.9-0.3c0.4,0.1,0.7,0.4,1,0.7c0.3,0.3,0.5,0.7,0.6,1.1L78.1,6.8z M78.7,6.1
	c-0.1-0.1-0.2-0.2-0.3-0.4c-0.2-0.2-0.2-0.3-0.3-0.4c-0.2-0.3-0.3-0.6-0.3-0.9c0-0.2,0-0.5,0.1-0.9s0.1-0.7,0-1
	c0,0.3,0.2,0.6,0.5,0.8c0.4,0.3,0.7,0.5,0.7,0.6C79.5,4.4,79.5,5,79,5.8c0.1-0.3,0.1-0.7-0.1-1c-0.1-0.4-0.3-0.7-0.6-0.9
	c0.2,0.4,0.4,0.8,0.4,1.2c0.1,0.4,0,0.8-0.1,1.2L78.7,6.1z M79.4,6c0-0.1,0.1-0.3,0.1-0.4c0-0.2,0-0.4,0-0.4
	c0.1-0.3,0.2-0.6,0.4-0.8C80,4.3,80.3,4.1,80.6,4c0.3-0.2,0.6-0.3,0.7-0.5c-0.2,0.2-0.2,0.5-0.2,0.8c0.1,0.5,0.1,0.8,0.1,0.9
	c-0.1,0.6-0.5,0.9-1.4,1c0.3-0.1,0.5-0.3,0.7-0.6c0.2-0.3,0.2-0.6,0.2-1c-0.1,0.4-0.3,0.7-0.5,1C79.9,5.9,79.6,6.1,79.4,6L79.4,6z
	 M80,7.1c0.1,0,0.2,0.1,0.4,0.2s0.3,0.2,0.4,0.2c0.3,0.2,0.6,0.2,0.8,0.2s0.4-0.1,0.8-0.3c0.3-0.2,0.6-0.3,0.8-0.3
	c-0.3,0-0.5-0.1-0.8-0.4c-0.3-0.4-0.6-0.6-0.6-0.7c-0.5-0.3-1-0.1-1.6,0.5c0.2-0.2,0.5-0.3,0.9-0.2c0.3,0.1,0.6,0.2,0.9,0.5
	c-0.4-0.2-0.7-0.2-1.1-0.2c-0.4,0-0.7,0.2-1,0.4L80,7.1z"/>
<path fill="#81BB41" d="M197.3,30.6c0-0.6,0.2-1.1,0.3-1.6c0.1-0.3,0.3-0.6,0.5-0.8s0.5-0.4,0.7-0.6c0.3-0.2,0.6-0.3,1-0.5
	c0.4-0.1,0.7-0.2,0.6-0.2c0.3-0.1,0.7-0.2,0.9-0.4c0.2-0.1,0.5-0.3,0.8-0.4c0.2-0.1,0.3-0.2,0.3-0.2s-0.1,0-0.3,0.2
	c-0.3,0.1-0.5,0.2-0.8,0.3s-0.6,0.2-0.9,0.2c-0.3,0.1-0.5,0.1-0.7,0.2c-0.5,0.2-0.8,0.3-1.1,0.5c-0.6,0.4-1.1,0.9-1.5,1.4
	c-0.2,0.3-0.3,0.7-0.4,1.1c-0.2-0.1-0.4-0.3-0.4-0.6c-0.1-0.4,0-0.9,0.1-1.4c0.3-0.7,0.7-1.3,1.5-1.6c0.7-0.4,1.5-0.6,2.5-0.7
	c1.2-0.2,1.9-0.2,1.9-0.3c0.6-0.2,1-0.5,1.2-0.8c-0.1,1-0.4,2-1,3.1c-0.5,0.9-1,1.6-1.7,2.2c-0.8,0.7-1.8,1.1-2.8,1.2
	C197.8,31,197.5,30.8,197.3,30.6z"/>
<path fill="#81BB41" d="M102.4,22c-0.4-0.2-0.6-0.4-0.9-0.6c-0.2-0.2-0.3-0.4-0.3-0.6c-0.1-0.2-0.1-0.4-0.1-0.6s0-0.5,0-0.7
	c0-0.3,0-0.5,0-0.5c0-0.2,0-0.5,0-0.7c0-0.2,0-0.4,0-0.6s0-0.3,0-0.2c0,0,0,0.1,0,0.2c0,0.2,0,0.4,0,0.6s0,0.4-0.1,0.6
	c0,0.2-0.1,0.3-0.1,0.5c0,0.3,0,0.6,0,0.8c0,0.5,0.2,0.9,0.5,1.3c0.1,0.2,0.3,0.4,0.6,0.5c-0.1,0.1-0.3,0.2-0.5,0.1
	c-0.3-0.1-0.5-0.2-0.8-0.5c-0.4-0.4-0.6-0.8-0.6-1.4c0-0.5,0.1-1.1,0.3-1.7c0.3-0.8,0.4-1.2,0.4-1.2c0.1-0.4,0-0.7-0.2-1
	c0.6,0.4,1.1,0.8,1.6,1.4c0.4,0.5,0.7,1.1,0.9,1.6c0.2,0.7,0.2,1.4-0.1,2.1C102.8,21.8,102.6,21.9,102.4,22z"/>
<path fill="#81BB41" d="M177.1,11c0-0.3-0.1-0.6-0.3-0.7c-0.2-0.2-0.5-0.4-1-0.6c1.1,0,2,0.5,2.8,1.5s1,2,0.9,3
	c0.1-0.1,0.2-0.3,0.3-0.6s0.2-0.5,0.3-0.6c0.2,0.7,0.3,1.4,0.2,2.1c-0.1,0.8-0.4,1.4-0.9,1.9c0.2,0,0.4,0,0.6-0.2
	c0.1-0.1,0.4-0.3,0.7-0.7c-0.6,1.3-1.6,2.6-3.1,3.7c0.6-1.6,0.9-2.6,0.9-2.9c0.1-1-0.1-1.9-0.7-3c0.4,0.9,0.5,2,0.3,3.2
	s-0.8,2.2-1.6,2.8c0-0.3-0.4-1.1-1-2.3c-0.5-0.9-0.6-1.8-0.4-2.6c0.2,0.1,0.5,0.5,1,1.2s0.8,1.1,1.1,1.1c-0.2-0.2-0.8-1.1-1.7-2.8
	c0,0,0.1-0.1,0.3-0.3c0.2-0.3,0.4-0.6,0.6-0.9C176.9,12.4,177.2,11.6,177.1,11z"/>
<path fill="#81BB41" d="M115.4,2.9c-0.1-0.1-0.2-0.2-0.4-0.3c-0.2,0-0.4,0-0.7,0c0.6-0.4,1.2-0.4,1.9-0.2c0.7,0.2,1.2,0.6,1.4,1.2
	c0-0.1,0-0.2-0.1-0.4c0-0.2-0.1-0.3-0.1-0.4c0.4,0.3,0.6,0.6,0.8,1s0.3,0.9,0.2,1.3c0.1,0,0.2-0.1,0.2-0.3c0-0.1,0.1-0.3,0.1-0.6
	c0.2,0.9,0,1.9-0.3,3c-0.2-1-0.4-1.6-0.5-1.8c-0.3-0.5-0.7-1-1.4-1.3c0.5,0.3,0.9,0.8,1.2,1.5s0.3,1.4,0.2,2
	c-0.1-0.1-0.5-0.4-1.3-0.8c-0.6-0.3-0.9-0.7-1.1-1.2c0.1,0,0.4,0.1,0.9,0.3s0.8,0.3,0.9,0.2c-0.2,0-0.8-0.3-1.8-0.9c0,0,0-0.1,0-0.3
	c0-0.2,0-0.4,0-0.7C115.7,3.7,115.6,3.2,115.4,2.9z"/>
<path fill="#81BB41" d="M257.6,25.6c0.2-0.2,0.3-0.5,0.4-0.7c0-0.3,0-0.6-0.2-1.1c0.7,0.8,1,1.8,0.8,3.1c-0.2,1.2-0.7,2.1-1.6,2.7
	c0.2,0,0.4-0.1,0.6-0.2c0.3-0.1,0.5-0.2,0.6-0.2c-0.4,0.7-0.8,1.2-1.4,1.6c-0.6,0.5-1.3,0.7-2,0.7c0.1,0.2,0.3,0.2,0.5,0.3
	c0.2,0,0.5,0,0.9,0c-1.4,0.5-3,0.6-4.9,0.3c1.6-0.7,2.5-1.1,2.7-1.3c0.8-0.6,1.3-1.4,1.6-2.6c-0.4,0.9-1,1.7-2.1,2.4
	s-2.1,0.9-3.1,0.8c0.2-0.2,0.5-1,1-2.3c0.4-1,0.9-1.7,1.6-2.1c0.1,0.2,0,0.7-0.2,1.5s-0.2,1.4-0.1,1.6c0-0.3,0.3-1.3,0.9-3.2
	c0,0,0.2,0,0.4,0c0.3,0,0.7-0.1,1-0.2C256.5,26.4,257.2,26.1,257.6,25.6z"/>
<g>
	<path d="M265.4,7.3h-1.1V6.9h2.7v0.4h-1.1v3.2h-0.5V7.3z"/>
	<path d="M270.5,9c0-0.5-0.1-1.1-0.1-1.6l0,0c-0.1,0.4-0.3,0.9-0.5,1.4l-0.6,1.8h-0.4l-0.6-1.7c-0.2-0.5-0.3-1-0.4-1.4l0,0
		c0,0.5,0,1.1-0.1,1.6l-0.1,1.6h-0.4l0.3-3.6h0.6l0.6,1.8c0.2,0.4,0.3,0.8,0.4,1.2l0,0c0.1-0.4,0.2-0.8,0.4-1.2l0.6-1.8h0.6l0.2,3.6
		h-0.5V9z"/>
</g>
</svg>
