<?xml version="1.0" encoding="utf-8"?>
<!-- Generator: Adobe Illustrator 18.1.1, SVG Export Plug-In . SVG Version: 6.00 Build 0)  -->
<!DOCTYPE svg PUBLIC "-//W3C//DTD SVG 1.1//EN" "http://www.w3.org/Graphics/SVG/1.1/DTD/svg11.dtd">
<svg version="1.1" id="Layer_1" xmlns="http://www.w3.org/2000/svg" xmlns:xlink="http://www.w3.org/1999/xlink" x="0px" y="0px"
	 width="311.1px" height="281.9px" viewBox="0 0 311.1 281.9" enable-background="new 0 0 311.1 281.9" xml:space="preserve">
<g opacity="0.55">
	<g>
		<g>
			
				<image overflow="visible" width="197" height="255" xlink:href="8D2B0F84D2FEBC43.png"  transform="matrix(0.8451 0 0 0.8451 82.2224 65.0538)">
			</image>
		</g>
	</g>
</g>
<polygon fill="#D0D2D3" points="51.1,281.9 51.1,152.3 0,152.3 56.3,97.1 56.3,18.2 108.7,18.2 108.7,45.9 155.5,0 311.1,152.3 
	261.4,152.3 261.4,281.9 "/>
<polygon fill="#231F20" stroke="#231F20" stroke-width="0.8154" stroke-miterlimit="10" points="59.2,273.9 59.2,144.2 19.7,144.2 
	64.4,100.5 64.4,26.2 100.7,26.2 100.7,65 155.5,11.2 291.4,144.2 253.4,144.2 253.4,273.9 "/>
<polygon fill="#81BB41" points="155.5,22.5 92.6,84 92.6,34.3 72.4,34.3 72.4,103.9 39.4,136.2 67.2,136.2 67.2,265.8 245.4,265.8 
	245.4,136.2 271.7,136.2 "/>
<g>
	<path fill="#D0D2D3" d="M128.5,239.8l3.3-29.3c-11.9-3.4-23.3-7.7-29.7-10c-1.5-0.6-2.8-1-3.7-1.4l-2.1-0.8l-6.1-22.9l7.7,2.7
		c3.3,1.2,6.5,2.3,9.9,3.5c9.5,3.4,19.2,6.9,29.7,10.3l9-28.1c-9.2-3.8-19.2-7.3-29.9-10.4l-22.7-7.9l66.8-29.3l21-41.1l3.8-6.7
		l-5,39.7l43.2-19.4L204.8,118L175,132.4l-5.6,19.1c21.3,11.6,32.2,25.2,32.2,40.7c0,7.5-3.2,13.9-9.1,17.9
		c-8.7,6-14.9,6.5-16.6,6.5c0,0-0.3,0-0.4,0c-5.7,0-18.4-1.1-26.4-2.3l-21.7,33.1L128.5,239.8z M156.3,195.9
		c3.5,0.5,6.6,0.8,9.5,0.8c6.3,0,11.1-1.2,14.6-3.7c0.2-0.1,0.2-0.2,0.2-0.2c0,0,0.1-0.2,0.1-0.7c0-7.6-8.4-14.5-16.9-19.7
		l-6.5,20.6l-0.1,0C156.9,193.8,156.6,194.8,156.3,195.9"/>
	<path fill="#231F20" d="M201.9,114.7l10.3-15.9l-37.8,16.9l8.8-40.2l-19.4,44.2l-58.3,25.6l12.2,4.2c8.2,2.4,20.7,6.3,34,12.1
		l-11.4,35.9c-15.9-5.1-30.2-10.4-43.8-15.2l3.4,12.9c5.2,1.9,20.1,7.7,35.5,12l1.5,0.4l-7.1,33.1l16.9-31.2
		c7,1.4,22.3,2.8,28.9,2.8c0,0,5.6,0.3,14.3-5.7c4.8-3.3,7.3-8.3,7.3-14.4c0-17.2-16-29.9-33-38.5l7.1-24.3L201.9,114.7z M185,192.1
		c0,2.1-0.6,3.3-2.1,4.4c-7.5,5.3-18.9,5.4-32.1,2.8c3.2-10.9,3.3-10.9,3.4-10.9l7.1-22.4C174.3,173.1,185,182,185,192.1
		 M156.3,147.9c-7.8-1.3-11.8-2.8-15.5-4l19.6-8.2L156.3,147.9z"/>
</g>
</svg>
