<?xml version="1.0" encoding="utf-8"?>
<!-- Generator: Adobe Illustrator 19.2.1, SVG Export Plug-In . SVG Version: 6.00 Build 0)  -->
<svg version="1.1" id="Layer_1" xmlns="http://www.w3.org/2000/svg" xmlns:xlink="http://www.w3.org/1999/xlink" x="0px" y="0px"
	 viewBox="0 0 456.7 71.7" style="enable-background:new 0 0 456.7 71.7;" xml:space="preserve">
<style type="text/css">
	.st0{enable-background:new    ;}
	.st1{fill:#5C5C5C;}
	.st2{fill:#868686;}
	.st3{display:none;fill:none;stroke:url(#SVGID_1_);stroke-width:0.5;stroke-miterlimit:10;}
	.st4{fill:none;stroke:url(#SVGID_2_);stroke-width:0.5;stroke-miterlimit:10;}
	.st5{display:none;}
	.st6{display:inline;fill:#929292;}
	.st7{fill:url(#SVGID_3_);}
	.st8{fill:#CCCCCC;}
	.st9{fill:url(#SVGID_4_);}
	.st10{display:inline;}
</style>
<g id="Layer_1_1_">
	<g class="st0">
		<path class="st1" d="M90.5,33.5c-0.6-1.1-1.3-2.1-2.2-2.8c-0.9-0.7-2-1.2-3.3-1.5s-2.6-0.5-4.1-0.5c-1.1,0-2.3,0.1-3.5,0.3
			c-1.2,0.2-2.3,0.6-3.3,1.2s-1.8,1.3-2.4,2.3s-1,2.2-1,3.6c0,1.5,0.3,2.6,1,3.5s1.5,1.6,2.5,2.1s2.2,1,3.6,1.3s2.7,0.6,4.1,1
			c1.5,0.4,3,0.8,4.3,1.1c1.4,0.4,2.5,0.8,3.5,1.5s1.8,1.4,2.4,2.4s0.9,2.4,0.9,4.1c0,1.5-0.3,2.9-1,4s-1.5,2-2.6,2.7
			s-2.3,1.2-3.7,1.5c-1.4,0.3-2.7,0.5-4.1,0.5c-1.9,0-3.6-0.2-5.1-0.6c-1.6-0.4-2.9-1.1-4.1-2c-1.1-0.9-2-2.1-2.6-3.6
			s-0.9-3.2-0.9-5.3h0.9c0,1.9,0.3,3.6,0.9,4.9c0.6,1.4,1.4,2.5,2.4,3.3s2.3,1.5,3.7,1.8c1.4,0.4,3,0.6,4.8,0.6
			c1.3,0,2.5-0.1,3.8-0.4c1.3-0.3,2.4-0.8,3.4-1.4c1-0.6,1.8-1.5,2.4-2.5s0.9-2.2,0.9-3.6c0-1.6-0.4-2.9-1.1-3.9s-1.6-1.7-2.7-2.3
			s-2.3-1-3.7-1.3c-1.4-0.3-2.6-0.6-3.9-0.9c-1.3-0.3-2.6-0.6-3.9-1c-1.3-0.3-2.5-0.8-3.5-1.4s-1.9-1.4-2.5-2.4s-1-2.3-1-3.8
			c0-1.6,0.3-3,1-4c0.7-1.1,1.5-1.9,2.6-2.6c1.1-0.6,2.3-1.1,3.6-1.4c1.3-0.3,2.6-0.4,3.9-0.4c1.6,0,3.1,0.2,4.4,0.5
			c1.4,0.3,2.5,0.9,3.6,1.7c1,0.8,1.8,1.8,2.4,3.1c0.6,1.3,1,2.8,1,4.6h-0.9C91.4,36.1,91.1,34.6,90.5,33.5z"/>
		<path class="st1" d="M100.5,44.9c0-2.3,0.3-4.5,1-6.6s1.6-3.9,2.9-5.4s2.8-2.8,4.7-3.7c1.9-0.9,4-1.4,6.4-1.4s4.6,0.5,6.4,1.4
			c1.9,0.9,3.4,2.1,4.7,3.7c1.3,1.5,2.2,3.4,2.9,5.4c0.7,2.1,1,4.3,1,6.6s-0.3,4.5-1,6.6s-1.6,3.9-2.9,5.4s-2.8,2.8-4.7,3.7
			c-1.9,0.9-4,1.3-6.4,1.3s-4.6-0.4-6.4-1.3c-1.9-0.9-3.4-2.1-4.7-3.7c-1.3-1.5-2.2-3.4-2.9-5.4C100.9,49.4,100.5,47.2,100.5,44.9z
			 M101.4,44.9c0,2.3,0.4,4.5,1,6.5c0.7,2,1.6,3.7,2.8,5.1c1.2,1.4,2.7,2.5,4.4,3.3c1.7,0.8,3.7,1.2,5.9,1.2c2.2,0,4.1-0.4,5.9-1.2
			c1.7-0.8,3.2-1.9,4.4-3.3c1.2-1.4,2.1-3.1,2.8-5.1s1-4.1,1-6.5c0-2.3-0.4-4.5-1-6.5c-0.7-2-1.6-3.7-2.8-5.1
			c-1.2-1.4-2.7-2.5-4.4-3.3c-1.7-0.8-3.7-1.2-5.9-1.2c-2.2,0-4.1,0.4-5.9,1.2c-1.7,0.8-3.2,1.9-4.4,3.3c-1.2,1.4-2.1,3.1-2.8,5.1
			C101.8,40.4,101.5,42.5,101.4,44.9z"/>
		<path class="st1" d="M158.2,61.1h-19.9V28.6h0.9v31.6h19V61.1z"/>
		<path class="st1" d="M184.1,61.1h-19.9V28.6h0.9v31.6h19V61.1z"/>
		<path class="st1" d="M188.1,61.1h-1l13.2-32.5h1.2l12.8,32.5h-1L209,50.4h-16.6L188.1,61.1z M200.9,29.5L200.9,29.5l-8.1,20h15.8
			L200.9,29.5z"/>
		<path class="st1" d="M220.2,61.1V28.6h13.3c3.4,0,5.9,0.7,7.5,2c1.6,1.4,2.4,3.5,2.5,6.3c0.1,2.2-0.5,4-1.7,5.4s-3,2.4-5.2,2.9
			v0.1c1.4,0.2,2.5,0.5,3.3,1s1.5,1.1,2,1.8c0.5,0.8,0.8,1.7,0.9,2.7s0.2,2.2,0.2,3.5c0,0.5,0,1,0,1.7s0.1,1.4,0.1,2
			c0.1,0.7,0.1,1.3,0.2,1.8c0.1,0.5,0.2,0.9,0.4,1.1h-1c-0.2-0.3-0.3-0.8-0.4-1.3c-0.1-0.6-0.2-1.2-0.2-1.8s-0.1-1.3-0.1-1.9
			c0-0.7,0-1.2,0-1.8c0-1.3-0.1-2.5-0.3-3.6c-0.2-1-0.6-1.9-1.2-2.6c-0.6-0.7-1.5-1.3-2.6-1.6s-2.6-0.6-4.5-0.6h-12.2V61L220.2,61.1
			L220.2,61.1z M233.3,45c1.2,0,2.4-0.2,3.5-0.5s2.1-0.8,2.9-1.5s1.5-1.5,2-2.5s0.8-2.2,0.8-3.7c0-2.3-0.7-4.1-2.1-5.4
			c-1.4-1.3-3.6-1.9-6.7-1.9h-12.6V45H233.3z"/>
		<path class="st1" d="M272.8,33.5c-0.6-1.1-1.3-2.1-2.2-2.8c-0.9-0.7-2-1.2-3.3-1.5s-2.6-0.5-4.1-0.5c-1.1,0-2.3,0.1-3.5,0.3
			s-2.3,0.6-3.3,1.2s-1.8,1.3-2.4,2.3c-0.6,1-1,2.2-1,3.6c0,1.5,0.3,2.6,1,3.5s1.5,1.6,2.5,2.1s2.2,1,3.6,1.3s2.7,0.6,4.1,1
			c1.5,0.4,3,0.8,4.3,1.1s2.5,0.8,3.5,1.5s1.8,1.4,2.4,2.4s0.9,2.4,0.9,4.1c0,1.5-0.3,2.9-1,4s-1.5,2-2.6,2.7s-2.3,1.2-3.7,1.5
			c-1.4,0.3-2.7,0.5-4.1,0.5c-1.9,0-3.6-0.2-5.1-0.6c-1.6-0.4-2.9-1.1-4.1-2c-1.1-0.9-2-2.1-2.6-3.6s-0.9-3.2-0.9-5.3h0.9
			c0,1.9,0.3,3.6,0.9,4.9c0.6,1.4,1.4,2.5,2.4,3.3s2.3,1.5,3.7,1.8c1.4,0.4,3,0.6,4.8,0.6c1.3,0,2.5-0.1,3.8-0.4
			c1.3-0.3,2.4-0.8,3.4-1.4c1-0.6,1.8-1.5,2.4-2.5s0.9-2.2,0.9-3.6c0-1.6-0.4-2.9-1.1-3.9s-1.6-1.7-2.7-2.3s-2.3-1-3.7-1.3
			c-1.4-0.3-2.6-0.6-3.9-0.9c-1.3-0.3-2.6-0.6-3.9-1c-1.3-0.3-2.5-0.8-3.5-1.4c-1-0.6-1.9-1.4-2.5-2.4s-1-2.3-1-3.8c0-1.6,0.3-3,1-4
			c0.7-1.1,1.5-1.9,2.6-2.6c1.1-0.6,2.3-1.1,3.6-1.4c1.3-0.3,2.6-0.4,3.9-0.4c1.6,0,3.1,0.2,4.4,0.5c1.4,0.3,2.5,0.9,3.6,1.7
			c1,0.8,1.8,1.8,2.4,3.1c0.6,1.3,1,2.8,1,4.6h-0.9C273.7,36.1,273.3,34.6,272.8,33.5z"/>
		<path class="st1" d="M301.3,61.1h-0.9V28.6h0.9v15.1h22.8V28.6h0.9v32.5h-0.9V44.6h-22.8V61.1z"/>
		<path class="st1" d="M332.9,44.9c0-2.3,0.3-4.5,1-6.6s1.6-3.9,2.9-5.4s2.8-2.8,4.7-3.7c1.9-0.9,4-1.4,6.4-1.4s4.6,0.5,6.4,1.4
			c1.9,0.9,3.4,2.1,4.7,3.7c1.3,1.5,2.2,3.4,2.9,5.4c0.7,2.1,1,4.3,1,6.6s-0.3,4.5-1,6.6s-1.6,3.9-2.9,5.4s-2.8,2.8-4.7,3.7
			c-1.9,0.9-4,1.3-6.4,1.3s-4.6-0.4-6.4-1.3c-1.9-0.9-3.4-2.1-4.7-3.7c-1.3-1.5-2.2-3.4-2.9-5.4C333.2,49.4,332.9,47.2,332.9,44.9z
			 M333.8,44.9c0,2.3,0.4,4.5,1,6.5c0.7,2,1.6,3.7,2.8,5.1c1.2,1.4,2.7,2.5,4.4,3.3c1.7,0.8,3.7,1.2,5.9,1.2c2.2,0,4.1-0.4,5.9-1.2
			c1.7-0.8,3.2-1.9,4.4-3.3c1.2-1.4,2.1-3.1,2.8-5.1c0.7-2,1-4.1,1-6.5c0-2.3-0.4-4.5-1-6.5c-0.7-2-1.6-3.7-2.8-5.1
			c-1.2-1.4-2.7-2.5-4.4-3.3c-1.7-0.8-3.7-1.2-5.9-1.2c-2.2,0-4.1,0.4-5.9,1.2c-1.7,0.8-3.2,1.9-4.4,3.3c-1.2,1.4-2.1,3.1-2.8,5.1
			S333.8,42.5,333.8,44.9z"/>
		<path class="st1" d="M401.3,28.6v32.5h-0.9V29.8h-0.1l-13.8,31.4h-1l-13.8-31.4h-0.1v31.4h-0.9V28.6h1.5L386,59.9h0.1l13.8-31.3
			C399.9,28.6,401.3,28.6,401.3,28.6z"/>
		<path class="st1" d="M431.9,60.2v0.9h-21.8V28.6h21.6v0.9H411v14.2h19.4v0.9H411v15.6C411,60.2,431.9,60.2,431.9,60.2z"/>
	</g>
	<g class="st0">
		<path class="st2" d="M82.9,10.2c-0.2-0.4-0.5-0.7-0.9-1s-0.8-0.5-1.2-0.7c-0.5-0.2-0.9-0.2-1.4-0.2c-0.9,0-1.7,0.2-2.3,0.5
			c-0.6,0.3-1.1,0.8-1.5,1.4c-0.4,0.6-0.7,1.3-0.9,2c-0.2,0.7-0.3,1.5-0.3,2.3s0.1,1.5,0.3,2.2c0.2,0.7,0.5,1.4,0.9,2s0.9,1,1.5,1.4
			c0.6,0.3,1.4,0.5,2.3,0.5c1.2,0,2.2-0.4,2.9-1.1c0.7-0.7,1.1-1.7,1.3-3h3.9c-0.1,1.1-0.4,2.2-0.8,3.1s-1,1.7-1.7,2.3
			s-1.5,1.1-2.4,1.5c-0.9,0.3-2,0.5-3.1,0.5c-1.4,0-2.6-0.2-3.8-0.7c-1.1-0.5-2.1-1.2-2.8-2c-0.8-0.9-1.4-1.8-1.8-3
			c-0.4-1.1-0.6-2.4-0.6-3.7c0-1.4,0.2-2.6,0.6-3.8s1-2.2,1.8-3c0.8-0.9,1.7-1.5,2.8-2C76.8,5.2,78.1,5,79.5,5c1,0,2,0.1,2.8,0.4
			s1.7,0.7,2.4,1.3c0.7,0.6,1.3,1.2,1.7,2.1c0.5,0.8,0.7,1.8,0.9,2.8h-3.9C83.2,11,83.1,10.6,82.9,10.2z"/>
		<path class="st2" d="M93.1,10.3v2.4h0.1c0.2-0.4,0.4-0.8,0.7-1.1c0.3-0.3,0.6-0.6,1-0.9c0.4-0.2,0.8-0.4,1.2-0.6
			c0.4-0.1,0.9-0.2,1.3-0.2c0.2,0,0.5,0,0.8,0.1v3.4c-0.2,0-0.4-0.1-0.6-0.1s-0.5,0-0.7,0c-0.7,0-1.2,0.1-1.7,0.3s-0.8,0.5-1.1,0.9
			c-0.3,0.4-0.5,0.8-0.6,1.3s-0.2,1.1-0.2,1.7v5.9h-3.6V10.3H93.1z"/>
		<path class="st2" d="M99.5,14.4c0.1-0.9,0.3-1.6,0.6-2.1c0.4-0.6,0.9-1,1.4-1.4c0.6-0.3,1.2-0.6,2-0.7s1.4-0.2,2.2-0.2
			c0.7,0,1.3,0,2,0.1s1.3,0.3,1.9,0.5c0.6,0.3,1,0.7,1.4,1.1s0.5,1.1,0.5,1.9v6.9c0,0.6,0,1.2,0.1,1.7s0.2,1,0.4,1.2h-3.7
			c-0.1-0.2-0.1-0.4-0.2-0.6c0-0.2-0.1-0.4-0.1-0.7c-0.6,0.6-1.3,1-2,1.2c-0.8,0.2-1.6,0.4-2.4,0.4c-0.6,0-1.2-0.1-1.8-0.2
			c-0.5-0.2-1-0.4-1.4-0.7c-0.4-0.3-0.7-0.7-1-1.2c-0.2-0.5-0.3-1.1-0.3-1.8c0-0.7,0.1-1.4,0.4-1.8c0.3-0.5,0.6-0.9,1-1.2
			c0.4-0.3,0.9-0.5,1.4-0.7c0.5-0.1,1.1-0.3,1.6-0.3c0.5-0.1,1.1-0.2,1.6-0.2c0.5-0.1,1-0.1,1.4-0.2c0.4-0.1,0.7-0.3,1-0.4
			s0.3-0.5,0.3-0.9s-0.1-0.7-0.2-0.9s-0.3-0.4-0.5-0.5s-0.5-0.2-0.7-0.3c-0.3,0-0.6-0.1-0.9-0.1c-0.7,0-1.3,0.2-1.7,0.5
			s-0.6,0.8-0.7,1.5h-3.6V14.4z M107.8,17.1c-0.2,0.1-0.3,0.2-0.6,0.3c-0.2,0.1-0.5,0.1-0.7,0.2c-0.3,0.1-0.5,0.1-0.8,0.1
			s-0.6,0.1-0.9,0.1c-0.3,0.1-0.5,0.1-0.8,0.2s-0.5,0.2-0.7,0.3c-0.2,0.1-0.4,0.3-0.5,0.5s-0.2,0.5-0.2,0.8s0.1,0.6,0.2,0.8
			c0.1,0.2,0.3,0.4,0.5,0.5s0.4,0.2,0.7,0.3c0.3,0.1,0.6,0.1,0.8,0.1c0.7,0,1.3-0.1,1.7-0.4s0.7-0.5,0.9-0.9c0.2-0.3,0.3-0.7,0.3-1
			s0.1-0.6,0.1-0.8V17.1z"/>
		<path class="st2" d="M112.9,12.8v-2.4h2.2v-1c0-1.2,0.4-2.1,1.1-2.9s1.8-1.1,3.3-1.1c0.3,0,0.6,0,1,0c0.3,0,0.6,0,0.9,0.1v2.7
			C120.9,8.1,120.5,8,120,8s-0.8,0.1-1.1,0.3c-0.2,0.2-0.3,0.6-0.3,1.2v0.8h2.5v2.4h-2.5v10.8H115V12.8H112.9z"/>
		<path class="st2" d="M130,10.3v2.4h-2.7v6.5c0,0.6,0.1,1,0.3,1.2c0.2,0.2,0.6,0.3,1.2,0.3c0.2,0,0.4,0,0.6,0c0.2,0,0.4,0,0.5-0.1
			v2.8c-0.3,0.1-0.6,0.1-1,0.1s-0.7,0-1.1,0c-0.6,0-1.1,0-1.6-0.1s-0.9-0.2-1.3-0.4c-0.4-0.2-0.7-0.5-0.9-0.9
			c-0.2-0.4-0.3-0.9-0.3-1.6v-7.8h-2.2v-2.4h2.2v-4h3.6v4C127.3,10.3,130,10.3,130,10.3z"/>
		<path class="st2" d="M135.6,20.4c0.5,0.5,1.3,0.8,2.3,0.8c0.7,0,1.4-0.2,1.9-0.5c0.5-0.4,0.8-0.8,1-1.2h3.2
			c-0.5,1.6-1.3,2.7-2.3,3.4c-1.1,0.7-2.3,1-3.8,1c-1,0-2-0.2-2.8-0.5s-1.5-0.8-2.1-1.4s-1-1.3-1.3-2.2c-0.3-0.8-0.5-1.8-0.5-2.8
			s0.2-1.9,0.5-2.8c0.3-0.8,0.8-1.6,1.4-2.2c0.6-0.6,1.3-1.1,2.1-1.5s1.7-0.5,2.7-0.5c1.1,0,2.1,0.2,2.9,0.7c0.8,0.4,1.5,1,2.1,1.7
			s0.9,1.6,1.2,2.5c0.2,0.9,0.3,1.9,0.3,2.9h-9.5C134.8,19,135.1,19.8,135.6,20.4z M139.7,13.4c-0.4-0.5-1.1-0.7-2-0.7
			c-0.6,0-1.1,0.1-1.4,0.3c-0.4,0.2-0.7,0.4-0.9,0.7s-0.4,0.6-0.5,0.9c-0.1,0.3-0.1,0.6-0.2,0.9h5.9
			C140.4,14.6,140.1,13.9,139.7,13.4z"/>
		<path class="st2" d="M155.7,21.8c-0.4,0.7-1,1.2-1.7,1.5s-1.5,0.5-2.3,0.5c-1,0-1.9-0.2-2.6-0.6s-1.4-0.9-1.8-1.6
			c-0.5-0.7-0.9-1.4-1.1-2.3c-0.2-0.9-0.4-1.7-0.4-2.7c0-0.9,0.1-1.7,0.4-2.6c0.2-0.8,0.6-1.6,1.1-2.2c0.5-0.6,1.1-1.1,1.8-1.5
			s1.6-0.6,2.6-0.6c0.8,0,1.5,0.2,2.2,0.5s1.3,0.8,1.7,1.5h0.1V5.3h3.6v18.2h-3.4L155.7,21.8L155.7,21.8z M155.6,15.3
			c-0.1-0.5-0.3-0.9-0.5-1.3c-0.2-0.4-0.6-0.7-1-0.9s-0.9-0.4-1.5-0.4s-1.1,0.1-1.5,0.4c-0.4,0.2-0.7,0.6-1,0.9
			c-0.2,0.4-0.4,0.8-0.5,1.3s-0.2,1-0.2,1.6c0,0.5,0.1,1,0.2,1.5c0.1,0.5,0.3,1,0.6,1.4s0.6,0.7,1,1c0.4,0.2,0.9,0.4,1.4,0.4
			c0.6,0,1.1-0.1,1.5-0.4s0.7-0.6,1-1c0.2-0.4,0.4-0.9,0.5-1.4s0.2-1,0.2-1.6S155.7,15.8,155.6,15.3z"/>
		<path class="st2" d="M182.2,5.3v3.4h-8.8v4.2h7.6V16h-7.6v7.5h-4V5.3H182.2z"/>
		<path class="st2" d="M187.6,10.3v2.4h0.1c0.2-0.4,0.4-0.8,0.7-1.1s0.6-0.6,1-0.9c0.4-0.2,0.8-0.4,1.2-0.6c0.4-0.1,0.9-0.2,1.3-0.2
			c0.2,0,0.5,0,0.8,0.1v3.4c-0.2,0-0.4-0.1-0.6-0.1s-0.5,0-0.7,0c-0.7,0-1.2,0.1-1.7,0.3s-0.8,0.5-1.1,0.9s-0.5,0.8-0.6,1.3
			s-0.2,1.1-0.2,1.7v5.9h-3.6V10.3H187.6z"/>
		<path class="st2" d="M193.7,14.1c0.3-0.9,0.8-1.6,1.4-2.2c0.6-0.6,1.3-1.1,2.1-1.4C198,10.1,199,10,200,10s2,0.2,2.8,0.5
			s1.6,0.8,2.2,1.4c0.6,0.6,1.1,1.3,1.4,2.2c0.3,0.9,0.5,1.8,0.5,2.9s-0.2,2-0.5,2.9s-0.8,1.6-1.4,2.2c-0.6,0.6-1.3,1.1-2.2,1.4
			C202,23.8,201,24,200,24s-2-0.2-2.8-0.5s-1.5-0.8-2.1-1.4s-1.1-1.3-1.4-2.2c-0.3-0.8-0.5-1.8-0.5-2.9S193.4,14.9,193.7,14.1z
			 M197,18.5c0.1,0.5,0.3,1,0.5,1.4s0.6,0.7,1,1c0.4,0.2,0.9,0.4,1.5,0.4s1.1-0.1,1.5-0.4c0.4-0.2,0.7-0.6,1-1
			c0.2-0.4,0.4-0.8,0.5-1.4c0.1-0.5,0.2-1,0.2-1.5s-0.1-1-0.2-1.6c-0.1-0.5-0.3-1-0.5-1.4s-0.6-0.7-1-1c-0.4-0.2-0.9-0.4-1.5-0.4
			s-1.1,0.1-1.5,0.4c-0.4,0.2-0.7,0.6-1,1c-0.2,0.4-0.4,0.8-0.5,1.4c-0.1,0.5-0.2,1-0.2,1.6C196.8,17.5,196.9,18,197,18.5z"/>
		<path class="st2" d="M212.7,10.3v1.8h0.1c0.5-0.7,1-1.2,1.7-1.6c0.7-0.4,1.4-0.6,2.3-0.6c0.8,0,1.6,0.2,2.3,0.5s1.2,0.9,1.6,1.7
			c0.4-0.6,0.9-1.1,1.6-1.5c0.7-0.4,1.5-0.7,2.4-0.7c0.7,0,1.3,0.1,1.9,0.3c0.6,0.2,1.1,0.4,1.5,0.8c0.4,0.4,0.8,0.9,1,1.5
			s0.4,1.3,0.4,2.2v8.8h-3.6V16c0-0.4,0-0.9-0.1-1.2c0-0.4-0.1-0.7-0.3-1s-0.4-0.5-0.7-0.7s-0.7-0.3-1.2-0.3s-0.9,0.1-1.2,0.3
			s-0.6,0.5-0.7,0.8c-0.2,0.3-0.3,0.7-0.4,1.1c-0.1,0.4-0.1,0.8-0.1,1.2v7.3h-3.6v-7.4c0-0.4,0-0.8,0-1.2s-0.1-0.7-0.2-1.1
			s-0.3-0.6-0.6-0.8s-0.7-0.3-1.3-0.3c-0.2,0-0.4,0-0.7,0.1s-0.6,0.2-0.8,0.4c-0.3,0.2-0.5,0.5-0.7,0.9S213,15,213,15.7v7.7h-3.6
			V10.3H212.7z"/>
		<path class="st2" d="M251.5,10.2c-0.2-0.4-0.5-0.7-0.9-1s-0.8-0.5-1.2-0.7c-0.5-0.2-0.9-0.2-1.4-0.2c-0.9,0-1.7,0.2-2.3,0.5
			s-1.1,0.8-1.5,1.4c-0.4,0.6-0.7,1.3-0.9,2s-0.3,1.5-0.3,2.3s0.1,1.5,0.3,2.2s0.5,1.4,0.9,2s0.9,1,1.5,1.4c0.6,0.3,1.4,0.5,2.3,0.5
			c1.2,0,2.2-0.4,2.9-1.1s1.1-1.7,1.3-3h3.9c-0.1,1.1-0.4,2.2-0.8,3.1s-1,1.7-1.7,2.3s-1.5,1.1-2.4,1.5c-0.9,0.3-2,0.5-3.1,0.5
			c-1.4,0-2.6-0.2-3.8-0.7c-1.1-0.5-2.1-1.2-2.8-2c-0.8-0.9-1.4-1.8-1.8-3s-0.6-2.4-0.6-3.7c0-1.4,0.2-2.6,0.6-3.8
			c0.4-1.2,1-2.2,1.8-3c0.8-0.9,1.7-1.5,2.8-2s2.4-0.7,3.8-0.7c1,0,2,0.1,2.8,0.4s1.7,0.7,2.4,1.3s1.3,1.2,1.7,2.1s0.7,1.8,0.9,2.8
			H252C251.8,11,251.7,10.6,251.5,10.2z"/>
		<path class="st2" d="M258.4,14.1c0.3-0.9,0.8-1.6,1.4-2.2c0.6-0.6,1.3-1.1,2.1-1.4c0.8-0.3,1.8-0.5,2.8-0.5s2,0.2,2.8,0.5
			s1.6,0.8,2.2,1.4s1.1,1.3,1.4,2.2s0.5,1.8,0.5,2.9s-0.2,2-0.5,2.9s-0.8,1.6-1.4,2.2s-1.3,1.1-2.2,1.4c-0.8,0.3-1.8,0.5-2.8,0.5
			s-2-0.2-2.8-0.5s-1.5-0.8-2.1-1.4s-1.1-1.3-1.4-2.2c-0.3-0.8-0.5-1.8-0.5-2.9S258,14.9,258.4,14.1z M261.7,18.5
			c0.1,0.5,0.3,1,0.5,1.4s0.6,0.7,1,1s0.9,0.4,1.5,0.4s1.1-0.1,1.5-0.4c0.4-0.2,0.7-0.6,1-1c0.2-0.4,0.4-0.8,0.5-1.4
			c0.1-0.5,0.2-1,0.2-1.5s-0.1-1-0.2-1.6c-0.1-0.5-0.3-1-0.5-1.4s-0.6-0.7-1-1c-0.4-0.2-0.9-0.4-1.5-0.4s-1.1,0.1-1.5,0.4
			c-0.4,0.2-0.7,0.6-1,1c-0.2,0.4-0.4,0.8-0.5,1.4c-0.1,0.5-0.2,1-0.2,1.6C261.5,17.5,261.6,18,261.7,18.5z"/>
		<path class="st2" d="M277.3,10.3v1.8h0.1c0.5-0.8,1.1-1.3,1.8-1.7c0.7-0.3,1.5-0.5,2.2-0.5c1,0,1.8,0.1,2.4,0.4
			c0.6,0.3,1.1,0.6,1.5,1.1s0.6,1,0.8,1.7c0.1,0.7,0.2,1.4,0.2,2.2v8.1h-3.6V16c0-1.1-0.2-1.9-0.5-2.4s-0.9-0.8-1.8-0.8
			c-1,0-1.7,0.3-2.1,0.9c-0.4,0.6-0.7,1.6-0.7,2.9v6.9H274V10.3H277.3z"/>
		<path class="st2" d="M295.3,12.7c-0.6,0-1.1,0.1-1.5,0.4c-0.4,0.3-0.7,0.6-1,1c-0.2,0.4-0.4,0.9-0.5,1.4s-0.2,1-0.2,1.5
			s0.1,1,0.2,1.5s0.3,0.9,0.5,1.3s0.5,0.7,0.9,1s0.9,0.4,1.4,0.4c0.9,0,1.5-0.2,2-0.7s0.8-1.1,0.9-2h3.5c-0.2,1.8-0.9,3.1-2,4
			s-2.6,1.4-4.3,1.4c-1,0-1.9-0.2-2.7-0.5c-0.8-0.3-1.5-0.8-2.1-1.4s-1-1.3-1.4-2.1c-0.3-0.8-0.5-1.7-0.5-2.7s0.1-2,0.4-2.8
			c0.3-0.9,0.7-1.6,1.3-2.3s1.3-1.1,2.1-1.5c0.8-0.4,1.8-0.5,2.9-0.5c0.8,0,1.5,0.1,2.3,0.3c0.7,0.2,1.4,0.5,1.9,0.9
			c0.6,0.4,1,0.9,1.4,1.6c0.4,0.6,0.6,1.4,0.6,2.2H298C297.7,13.5,296.8,12.7,295.3,12.7z"/>
		<path class="st2" d="M307.1,10.3v2.4h0.1c0.2-0.4,0.4-0.8,0.7-1.1c0.3-0.3,0.6-0.6,1-0.9c0.4-0.2,0.8-0.4,1.2-0.6s0.9-0.2,1.3-0.2
			c0.2,0,0.5,0,0.8,0.1v3.4c-0.2,0-0.4-0.1-0.6-0.1s-0.5,0-0.7,0c-0.7,0-1.2,0.1-1.7,0.3s-0.8,0.5-1.1,0.9c-0.3,0.4-0.5,0.8-0.6,1.3
			s-0.2,1.1-0.2,1.7v5.9h-3.6V10.3H307.1z"/>
		<path class="st2" d="M317,20.4c0.5,0.5,1.3,0.8,2.3,0.8c0.7,0,1.4-0.2,1.9-0.5c0.5-0.4,0.8-0.8,1-1.2h3.2
			c-0.5,1.6-1.3,2.7-2.3,3.4c-1.1,0.7-2.3,1-3.8,1c-1,0-2-0.2-2.8-0.5s-1.5-0.8-2.1-1.4s-1-1.3-1.3-2.2c-0.3-0.8-0.5-1.8-0.5-2.8
			s0.2-1.9,0.5-2.8c0.3-0.8,0.8-1.6,1.4-2.2c0.6-0.6,1.3-1.1,2.1-1.5c0.8-0.4,1.7-0.5,2.7-0.5c1.1,0,2.1,0.2,2.9,0.7
			c0.8,0.4,1.5,1,2.1,1.7c0.5,0.7,0.9,1.6,1.2,2.5c0.2,0.9,0.3,1.9,0.3,2.9h-9.5C316.1,19,316.4,19.8,317,20.4z M321.1,13.4
			c-0.4-0.5-1.1-0.7-2-0.7c-0.6,0-1.1,0.1-1.4,0.3c-0.4,0.2-0.7,0.4-0.9,0.7s-0.4,0.6-0.5,0.9s-0.1,0.6-0.2,0.9h5.9
			C321.8,14.6,321.5,13.9,321.1,13.4z"/>
		<path class="st2" d="M335,10.3v2.4h-2.7v6.5c0,0.6,0.1,1,0.3,1.2c0.2,0.2,0.6,0.3,1.2,0.3c0.2,0,0.4,0,0.6,0s0.4,0,0.5-0.1v2.8
			c-0.3,0.1-0.6,0.1-1,0.1s-0.7,0-1.1,0c-0.6,0-1.1,0-1.6-0.1s-0.9-0.2-1.3-0.4c-0.4-0.2-0.7-0.5-0.9-0.9c-0.2-0.4-0.3-0.9-0.3-1.6
			v-7.8h-2.2v-2.4h2.2v-4h3.6v4C332.3,10.3,335,10.3,335,10.3z"/>
		<path class="st2" d="M340.6,20.4c0.5,0.5,1.3,0.8,2.3,0.8c0.7,0,1.4-0.2,1.9-0.5c0.5-0.4,0.8-0.8,1-1.2h3.2
			c-0.5,1.6-1.3,2.7-2.3,3.4c-1.1,0.7-2.3,1-3.8,1c-1,0-2-0.2-2.8-0.5s-1.5-0.8-2.1-1.4s-1-1.3-1.3-2.2c-0.3-0.8-0.5-1.8-0.5-2.8
			s0.2-1.9,0.5-2.8c0.3-0.8,0.8-1.6,1.4-2.2c0.6-0.6,1.3-1.1,2.1-1.5c0.8-0.4,1.7-0.5,2.7-0.5c1.1,0,2.1,0.2,2.9,0.7
			c0.8,0.4,1.5,1,2.1,1.7c0.5,0.7,0.9,1.6,1.2,2.5c0.2,0.9,0.3,1.9,0.3,2.9h-9.5C339.7,19,340,19.8,340.6,20.4z M344.7,13.4
			c-0.4-0.5-1.1-0.7-2-0.7c-0.6,0-1.1,0.1-1.4,0.3c-0.4,0.2-0.7,0.4-0.9,0.7s-0.4,0.6-0.5,0.9s-0.1,0.6-0.2,0.9h5.9
			C345.4,14.6,345.1,13.9,344.7,13.4z"/>
	</g>
	
		<radialGradient id="SVGID_1_" cx="226.4991" cy="44.6229" r="171.6707" gradientTransform="matrix(1.2429 0 0 1 -23.3657 24)" gradientUnits="userSpaceOnUse">
		<stop  offset="0" style="stop-color:#656565"/>
		<stop  offset="0.1452" style="stop-color:#6A6A6A"/>
		<stop  offset="0.3087" style="stop-color:#777777"/>
		<stop  offset="0.4809" style="stop-color:#8E8E8E"/>
		<stop  offset="0.6593" style="stop-color:#ADADAD"/>
		<stop  offset="0.8405" style="stop-color:#D5D5D5"/>
		<stop  offset="1" style="stop-color:#FFFFFF"/>
	</radialGradient>
	<line class="st3" x1="-43.6" y1="68.6" x2="559.9" y2="68.6"/>
	
		<radialGradient id="SVGID_2_" cx="231.0767" cy="41.6667" r="92.9831" gradientTransform="matrix(1.7795 0 0 1 -183.201 24)" gradientUnits="userSpaceOnUse">
		<stop  offset="0" style="stop-color:#000000"/>
		<stop  offset="8.766528e-02" style="stop-color:#070707"/>
		<stop  offset="0.2166" style="stop-color:#1B1B1B"/>
		<stop  offset="0.371" style="stop-color:#3B3B3B"/>
		<stop  offset="0.545" style="stop-color:#686868"/>
		<stop  offset="0.7356" style="stop-color:#A2A2A2"/>
		<stop  offset="0.9371" style="stop-color:#E8E8E8"/>
		<stop  offset="1" style="stop-color:#FFFFFF"/>
	</radialGradient>
	<line class="st4" x1="-6" y1="65.7" x2="462" y2="65.7"/>
</g>
<g id="version_2">
	<g id="icon_1_">
	</g>
	<g id="guides_1_">
	</g>
</g>
<g id="icon">
	<g class="st5">
		<polygon class="st6" points="12.6,61.9 12.6,32.2 3.5,32.2 13.8,22.1 13.8,5.1 22.1,5.1 22.1,14 34.7,1.6 65.9,32.2 57.2,32.2 
			57.2,61.9 		"/>
		<path class="st6" d="M57.7,62.5H12V32.7L1.7,33.2l11.5-11.3V4.5h11v6.3l10.5-10l32.5,31.8h-9.5C57.7,32.6,57.7,62.5,57.7,62.5z
			 M13.1,61.4h43.5V31.6h7.9L34.7,2.4L21.5,15.2V5.6h-7.3v16.7l-9.5,9.3H13v29.8H13.1z"/>
	</g>
	<g>
		
			<radialGradient id="SVGID_3_" cx="33.45" cy="9.8" r="28.5789" gradientTransform="matrix(1 0 0 1 0 24)" gradientUnits="userSpaceOnUse">
			<stop  offset="0" style="stop-color:#2E2E2E"/>
			<stop  offset="0.1677" style="stop-color:#3A3A3A"/>
			<stop  offset="0.4696" style="stop-color:#595959"/>
			<stop  offset="0.8683" style="stop-color:#8C8C8C"/>
			<stop  offset="1" style="stop-color:#9E9E9E"/>
		</radialGradient>
		<polygon class="st7" points="12.8,61.9 12.8,34.1 4.4,34.1 14,24.8 14,8.9 21.7,8.9 21.7,17.2 33.5,5.7 62.5,34.1 54.4,34.1 
			54.4,61.9 		"/>
		<path d="M54.9,62.4H12.3V34.6H3.2l10.3-10.1V8.4h8.8V16L33.5,5l30.3,29.7H55L54.9,62.4L54.9,62.4z M13.3,61.4h40.6V33.6h7.4
			L33.5,6.4l-12.2,12v-9h-6.8V25l-8.8,8.7h7.7L13.3,61.4L13.3,61.4z"/>
	</g>
	<g>
		<path class="st8" d="M28.3,52.7l0.6-4.9c-2-0.6-3.9-1.3-5-1.7c-0.3-0.1-0.5-0.2-0.6-0.2l-0.4-0.1l-1-3.9l1.3,0.5
			c0.5,0.2,1.1,0.4,1.7,0.6c1.6,0.6,3.2,1.2,5,1.7l1.5-4.7c-1.5-0.6-3.2-1.2-5-1.8l-3.8-1.3L33.8,32l3.5-6.9l0.6-1.1L37,30.5
			l7.3-3.3l-3.2,4.9l-5,2.4l-0.9,3.2c3.6,1.9,5.4,4.2,5.4,6.8c0,1.3-0.5,2.3-1.5,3c-1.5,1-2.5,1.1-2.8,1.1h-0.1
			c-1,0-3.1-0.2-4.4-0.4l-3.6,5.6L28.3,52.7z M33,45.3c0.6,0.1,1.1,0.1,1.6,0.1c1.1,0,1.9-0.2,2.5-0.6l0,0c0,0,0,0,0-0.1
			c0-1.3-1.4-2.4-2.8-3.3l-1.1,3.5l0,0C33.1,44.9,33,45.1,33,45.3"/>
		
			<linearGradient id="SVGID_4_" gradientUnits="userSpaceOnUse" x1="22.9293" y1="14.85" x2="42.3875" y2="14.85" gradientTransform="matrix(1 0 0 1 0 24)">
			<stop  offset="0" style="stop-color:#4CAF50"/>
			<stop  offset="1" style="stop-color:#70BF73"/>
		</linearGradient>
		<path class="st9" d="M40.7,31.6l1.7-2.7L36,31.8l1.5-6.8l-3.3,7.4l-9.8,4.3l2,0.7c1.4,0.4,3.5,1.1,5.7,2l-1.9,6
			c-2.7-0.9-5.1-1.8-7.4-2.6l0.6,2.2c0.9,0.3,3.4,1.3,6,2l0.2,0.1l-1.2,5.6l2.8-5.2c1.2,0.2,3.7,0.5,4.9,0.5c0,0,0.9,0,2.4-1
			c0.8-0.6,1.2-1.4,1.2-2.4c0-2.9-2.7-5-5.5-6.5l1.2-4.1L40.7,31.6z M37.8,44.6c0,0.3-0.1,0.6-0.4,0.7c-1.3,0.9-3.2,0.9-5.4,0.5
			c0.5-1.8,0.6-1.8,0.6-1.8l1.2-3.8C36,41.4,37.8,42.9,37.8,44.6 M33,37.2c-1.3-0.2-2-0.5-2.6-0.7l3.3-1.4L33,37.2z"/>
	</g>
	<g id="Layer_11">
	</g>
</g>
<g id="icon_v2" class="st5">
	<g id="Layer_12" class="st10">
	</g>
</g>
<g id="main_guides" class="st5">
</g>
<g id="Layer_4">
</g>
<g id="the_S">
</g>
<g id="guides" class="st5">
</g>
</svg>
