<?xml version="1.0" encoding="utf-8"?>
<!-- Generator: Adobe Illustrator 20.0.0, SVG Export Plug-In . SVG Version: 6.00 Build 0)  -->
<svg version="1.1" id="Layer_1" xmlns="http://www.w3.org/2000/svg" xmlns:xlink="http://www.w3.org/1999/xlink" x="0px" y="0px"
	 viewBox="0 0 450 143" style="enable-background:new 0 0 450 143;" xml:space="preserve">
<style type="text/css">
	.st0{display:none;}
	.st1{display:inline;}
	.st2{fill:url(#SVGID_1_);}
	.st3{fill:#CCCCCC;}
	.st4{fill:#44D62C;}
	.st5{fill:#020202;}
	.st6{font-family:'HelveticaNeue-Medium';}
	.st7{font-size:57px;}
	.st8{font-size:23.3186px;}
	.st9{fill:none;stroke:url(#SVGID_2_);stroke-width:0.5;stroke-miterlimit:10;}
</style>
<g id="version_2">
	<g id="icon_1_">
	</g>
	<g id="guides_1_">
	</g>
</g>
<g id="icon_v2" class="st0">
	<g id="Layer_12" class="st1">
	</g>
</g>
<g id="main_guides" class="st0">
</g>
<g id="Layer_4">
</g>
<g id="the_S">
</g>
<g>
	<g>
		
			<radialGradient id="SVGID_1_" cx="381.888" cy="84.5617" r="28.579" gradientTransform="matrix(2.0199 0 0 -2.0199 -691.6729 240.8238)" gradientUnits="userSpaceOnUse">
			<stop  offset="0" style="stop-color:#2E2E2E"/>
			<stop  offset="0.1677" style="stop-color:#3A3A3A"/>
			<stop  offset="0.4696" style="stop-color:#595959"/>
			<stop  offset="0.8683" style="stop-color:#8C8C8C"/>
			<stop  offset="1" style="stop-color:#9E9E9E"/>
		</radialGradient>
		<polygon class="st2" points="38,126.8 38,70.6 21,70.6 40.4,51.8 40.4,19.7 56,19.7 56,36.5 79.8,13.3 138.4,70.6 122,70.6 
			122,126.8 		"/>
		<path d="M123,127.8H37V71.6H18.6l20.8-20.4V18.7h17.8v15.4l22.6-22.2l61.2,60h-17.8L123,127.8L123,127.8z M39,125.8h82V69.6h14.9
			L79.8,14.7L55.1,38.9V20.7H41.4v31.5L23.6,69.8h15.6L39,125.8L39,125.8z"/>
	</g>
	<g>
		<path class="st3" d="M69.3,108.2l1.2-9.9c-4-1.2-7.9-2.6-10.1-3.4c-0.6-0.2-1-0.4-1.2-0.4l-0.8-0.2l-2-7.9l2.6,1
			c1,0.4,2.2,0.8,3.4,1.2c3.2,1.2,6.5,2.4,10.1,3.4l3-9.5c-3-1.2-6.5-2.4-10.1-3.6l-7.7-2.6l22.6-9.9l7.1-13.9l1.2-2.2l-1.8,13.1
			l14.7-6.7l-6.5,9.9L85,71.4l-1.8,6.5c7.3,3.8,10.9,8.5,10.9,13.7c0,2.6-1,4.6-3,6.1c-3,2-5,2.2-5.7,2.2h-0.2c-2,0-6.3-0.4-8.9-0.8
			l-7.3,11.3L69.3,108.2z M78.8,93.2c1.2,0.2,2.2,0.2,3.2,0.2c2.2,0,3.8-0.4,5-1.2l0,0c0,0,0,0,0-0.2c0-2.6-2.8-4.8-5.7-6.7
			l-2.2,7.1l0,0C79,92.4,78.8,92.8,78.8,93.2"/>
		<path class="st4" d="M94.3,65.6l3.4-5.5L84.8,66l3-13.7l-6.7,14.9l-19.8,8.7l4,1.4c2.8,0.8,7.1,2.2,11.5,4l-3.8,12.1
			c-5.5-1.8-10.3-3.6-14.9-5.3l1.2,4.4c1.8,0.6,6.9,2.6,12.1,4l0.4,0.2l-2.4,11.3l5.7-10.5c2.4,0.4,7.5,1,9.9,1c0,0,1.8,0,4.8-2
			c1.6-1.2,2.4-2.8,2.4-4.8c0-5.9-5.5-10.1-11.1-13.1l2.4-8.3L94.3,65.6z M88.5,91.8c0,0.6-0.2,1.2-0.8,1.4c-2.6,1.8-6.5,1.8-10.9,1
			c1-3.6,1.2-3.6,1.2-3.6l2.4-7.7C84.8,85.4,88.5,88.4,88.5,91.8 M78.8,76.9c-2.6-0.4-4-1-5.3-1.4l6.7-2.8L78.8,76.9z"/>
	</g>
</g>
<g>
	<text transform="matrix(1 0 0 1 133.8946 54.2258)" class="st5 st6 st7">SOLLARS</text>
</g>
<text transform="matrix(1 0 0 1 178.7529 100.8271)" class="st5 st6 st7">HOME</text>
<text transform="matrix(1 0 0 1 140.5188 123.7549)" class="st5 st6 st8">Crafted From Concrete</text>
<radialGradient id="SVGID_2_" cx="207.3076" cy="69.1766" r="92.983" gradientTransform="matrix(1.3789 0 0 -0.6289 -21.576 173.1264)" gradientUnits="userSpaceOnUse">
	<stop  offset="0" style="stop-color:#000000"/>
	<stop  offset="8.766528e-02" style="stop-color:#070707"/>
	<stop  offset="0.2166" style="stop-color:#1B1B1B"/>
	<stop  offset="0.371" style="stop-color:#3B3B3B"/>
	<stop  offset="0.545" style="stop-color:#686868"/>
	<stop  offset="0.7356" style="stop-color:#A2A2A2"/>
	<stop  offset="0.9371" style="stop-color:#E8E8E8"/>
	<stop  offset="1" style="stop-color:#FFFFFF"/>
</radialGradient>
<line class="st9" x1="83" y1="129.6" x2="445.6" y2="129.6"/>
</svg>
