<?xml version="1.0" encoding="utf-8"?>
<!-- Generator: Adobe Illustrator 19.2.1, SVG Export Plug-In . SVG Version: 6.00 Build 0)  -->
<svg version="1.1" id="Layer_1" xmlns="http://www.w3.org/2000/svg" xmlns:xlink="http://www.w3.org/1999/xlink" x="0px" y="0px"
	 viewBox="0 0 96.8 37.1" style="enable-background:new 0 0 96.8 37.1;" xml:space="preserve">
<style type="text/css">
	.st0{display:none;}
	.st1{fill:#868686;}
</style>
<g id="Layer_1_1_">
	<g id="Guest_House_Logo" class="st0">
	</g>
	<g id="Palo-Max_Logo" class="st0">
	</g>
	<g id="Ranch_Logo">
	</g>
	<g id="guides">
	</g>
	<g id="Ranch_1_">
		<g>
			<path class="st1" d="M9,8.7c0,0.2,0,0.5,0.1,0.6c0,0.2,0.1,0.4,0.2,0.5c0.1,0.1,0.2,0.2,0.4,0.3s0.4,0.1,0.7,0.1s0.6-0.1,0.8-0.3
				c0.3-0.2,0.4-0.5,0.4-0.9c0-0.2,0-0.4-0.1-0.6c-0.1-0.2-0.2-0.3-0.3-0.4c-0.1-0.1-0.3-0.3-0.6-0.4c-0.2-0.1-0.5-0.2-0.9-0.3
				C9.3,7.1,8.9,6.9,8.6,6.7C8.3,6.6,8,6.4,7.8,6.1C7.5,5.9,7.4,5.6,7.3,5.3C7.2,5,7.1,4.6,7.1,4.2c0-1,0.3-1.8,0.8-2.2
				s1.3-0.7,2.3-0.7c0.5,0,0.9,0,1.3,0.1c0.4,0.1,0.7,0.3,1,0.5C12.8,2,13,2.3,13.2,2.7c0.2,0.3,0.2,0.8,0.2,1.2v0.3h-2
				c0-0.5-0.1-0.9-0.3-1.1s-0.5-0.4-0.9-0.4c-0.2,0-0.4,0-0.6,0.1c0,0.1-0.1,0.1-0.2,0.3C9.3,3.2,9.2,3.3,9.2,3.4c0,0.1,0,0.3,0,0.4
				c0,0.3,0.1,0.6,0.2,0.8C9.5,4.8,9.8,5,10.3,5.2l1.6,0.7c0.4,0.2,0.7,0.3,1,0.5s0.4,0.4,0.6,0.6c0.1,0.2,0.2,0.4,0.3,0.7
				s0.1,0.5,0.1,0.9c0,1.1-0.3,1.9-0.9,2.3c-0.6,0.5-1.5,0.7-2.6,0.7c-1.2,0-2-0.3-2.5-0.8C7.2,10.4,7,9.7,7,8.8V8.4h2V8.7z"/>
			<path class="st1" d="M14.9,1.4H17v10.2h-2.1V1.4z"/>
			<path class="st1" d="M23.3,8.3L23.3,8.3v-7h1.9v10.2h-2.3l-2.5-7.1l0,0v7.1h-1.9V1.4h2.4L23.3,8.3z"/>
			<path class="st1" d="M31.1,3.8c0-0.2-0.1-0.4-0.2-0.5c-0.1-0.2-0.2-0.3-0.4-0.4c-0.1-0.1-0.3-0.2-0.5-0.2c-0.5,0-0.9,0.3-1.1,0.8
				c-0.2,0.6-0.3,1.5-0.3,2.7c0,0.6,0,1.2,0.1,1.7c0,0.5,0.1,0.9,0.2,1.3c0.1,0.3,0.2,0.6,0.4,0.8c0.2,0.2,0.4,0.3,0.7,0.3
				c0.1,0,0.3,0,0.4-0.1s0.3-0.2,0.4-0.3s0.2-0.3,0.3-0.5c0.1-0.2,0.1-0.4,0.1-0.7v-1h-1.4V6.1h3.3v5.5h-1.5v-0.9l0,0
				c-0.2,0.4-0.5,0.7-0.9,0.8s-0.8,0.2-1.2,0.2c-0.6,0-1.1-0.1-1.5-0.3s-0.7-0.6-0.9-1c-0.2-0.5-0.4-1-0.4-1.7s-0.1-1.4-0.1-2.3
				s0.1-1.6,0.2-2.2s0.3-1.2,0.6-1.6s0.6-0.8,1.1-1s1-0.3,1.6-0.3c1.1,0,1.9,0.3,2.4,0.8c0.5,0.6,0.7,1.4,0.7,2.4h-2
				C31.1,4.2,31.1,4,31.1,3.8z"/>
			<path class="st1" d="M34.5,1.4h2.1v8.5h3.6v1.7h-5.7C34.5,11.6,34.5,1.4,34.5,1.4z"/>
			<path class="st1" d="M46.8,3.1h-3.6v2.4h3.4v1.7h-3.4v2.7H47v1.7h-5.8V1.4h5.7v1.7H46.8z"/>
			<path class="st1" d="M53,8.7c0,0.2,0,0.5,0.1,0.6c0,0.2,0.1,0.4,0.2,0.5c0.1,0.1,0.2,0.2,0.4,0.3s0.4,0.1,0.7,0.1
				s0.6-0.1,0.8-0.3c0.3-0.2,0.4-0.5,0.4-0.9c0-0.2,0-0.4-0.1-0.6c-0.1-0.2-0.2-0.3-0.3-0.4c-0.1-0.1-0.3-0.3-0.6-0.4
				c-0.2-0.1-0.5-0.2-0.9-0.3c-0.5-0.2-0.8-0.3-1.2-0.5c-0.3-0.2-0.6-0.4-0.8-0.6s-0.4-0.5-0.5-0.8S51,4.7,51,4.3
				c0-1,0.3-1.8,0.8-2.2s1.3-0.7,2.3-0.7c0.5,0,0.9,0,1.3,0.1c0.4,0.1,0.7,0.3,1,0.5c0.4,0,0.6,0.3,0.8,0.7c0.2,0.3,0.2,0.8,0.2,1.2
				v0.3h-2c0-0.5-0.1-0.9-0.3-1.1s-0.5-0.4-0.9-0.4c-0.2,0-0.4,0-0.6,0.1c-0.2,0.1-0.3,0.2-0.4,0.3C53.1,3.2,53,3.3,53,3.5
				c0,0.1,0,0.3,0,0.4c0,0.3,0.1,0.6,0.2,0.8c0.1,0.2,0.4,0.4,0.9,0.6L55.7,6c0.4,0.2,0.7,0.3,1,0.5s0.4,0.4,0.6,0.6
				c0.1,0.2,0.2,0.4,0.3,0.7s0.1,0.5,0.1,0.9c0,1.1-0.3,1.9-0.9,2.3c-0.6,0.5-1.5,0.7-2.6,0.7c-1.2,0-2-0.3-2.5-0.8
				C51.2,10.4,51,9.7,51,8.8V8.4h2V8.7z"/>
			<path class="st1" d="M64.7,3.1h-2.2v8.5h-2.1V3.1h-2.2V1.4h6.5V3.1z"/>
			<path class="st1" d="M65.5,4.3c0.1-0.7,0.2-1.2,0.5-1.7s0.6-0.8,1-1.1s1.1-0.4,1.8-0.4c0.8,0,1.4,0.1,1.8,0.4s0.8,0.6,1,1.1
				s0.4,1,0.5,1.7s0.1,1.4,0.1,2.1c0,0.8,0,1.5-0.1,2.1s-0.2,1.2-0.5,1.7s-0.6,0.8-1,1.1c-0.5,0.2-1.1,0.4-1.8,0.4
				c-0.8,0-1.4-0.1-1.8-0.4c-0.5-0.2-0.8-0.6-1-1.1s-0.4-1-0.5-1.7c-0.1-0.6-0.1-1.4-0.1-2.1S65.4,5,65.5,4.3z M67.5,8.2
				c0,0.5,0.1,0.9,0.2,1.2s0.2,0.5,0.4,0.7c0.2,0.1,0.4,0.2,0.7,0.2c0.3,0,0.5-0.1,0.7-0.2c0.2-0.1,0.3-0.4,0.4-0.7s0.2-0.7,0.2-1.2
				s0-1.1,0-1.7s0-1.3,0-1.7c0-0.5-0.1-0.9-0.2-1.2s-0.2-0.5-0.4-0.7c-0.2-0.1-0.4-0.2-0.7-0.2c-0.3,0-0.5,0.1-0.7,0.2
				c-0.2,0.1-0.3,0.4-0.4,0.7s-0.2,0.7-0.2,1.2s0,1.1,0,1.7S67.5,7.7,67.5,8.2z"/>
			<path class="st1" d="M77.3,1.4c0.9,0,1.5,0.2,2,0.6C79.8,2.5,80,3.1,80,4c0,0.7-0.1,1.2-0.4,1.7s-0.7,0.7-1.3,0.8l0,0
				c0.5,0.1,0.9,0.2,1.1,0.5s0.4,0.7,0.4,1.2c0,0.2,0,0.4,0,0.6s0,0.5,0,0.7c0,0.5,0,1,0.1,1.2c0.1,0.3,0.2,0.5,0.4,0.6v0.1h-2.2
				c-0.1-0.1-0.2-0.3-0.2-0.5s0-0.4-0.1-0.6l-0.1-2c0-0.4-0.1-0.7-0.3-0.9c-0.2-0.2-0.5-0.3-0.9-0.3h-1.1v4.3h-2.1v-10H77.3z
				 M76.4,5.8c0.5,0,0.9-0.1,1.1-0.3C77.8,5.2,78,4.8,78,4.3c0-0.9-0.5-1.4-1.4-1.4h-1v2.9H76.4z"/>
			<path class="st1" d="M84.2,5.3L84.2,5.3l1.5-3.9h2.2l-2.6,6.2v4h-2.1v-4l-2.6-6.2h2.3L84.2,5.3z"/>
		</g>
	</g>
</g>
<g id="Layer_2">
	<g>
		<g>
			<path class="st1" d="M2.7,13.2h9.8c1,0,2,0.1,2.9,0.3s1.7,0.5,2.4,1c0.7,0.5,1.2,1.1,1.6,1.9s0.6,1.7,0.6,2.9
				c0,1.6-0.4,2.9-1.3,4s-2.1,1.8-3.7,2v0.1c1.1,0.1,1.9,0.4,2.6,0.9c0.6,0.4,1.1,1,1.4,1.6s0.5,1.3,0.6,2.1
				c0.1,0.8,0.1,1.5,0.1,2.3c0,0.5,0,0.9,0,1.4s0,0.9,0.1,1.2c0,0.4,0.1,0.7,0.2,1.1c0.1,0.3,0.2,0.6,0.4,0.8h-1.6
				c-0.3-0.5-0.5-1.2-0.5-1.9s0-1.5,0-2.3s0-1.6-0.1-2.4s-0.3-1.5-0.6-2.1c-0.4-0.6-0.9-1.1-1.7-1.5S14.1,26,12.7,26H4.1v10.7H2.7
				V13.2z M12.5,24.8c0.9,0,1.7-0.1,2.4-0.3c0.7-0.2,1.4-0.5,1.9-1c0.5-0.4,0.9-1,1.3-1.7c0.3-0.7,0.5-1.5,0.5-2.4s-0.2-1.6-0.5-2.3
				s-0.8-1.1-1.3-1.5s-1.2-0.7-1.9-0.9s-1.5-0.3-2.3-0.3H4.1v10.3L12.5,24.8L12.5,24.8z"/>
			<path class="st1" d="M36.2,33.4L36.2,33.4c-0.3,0.5-0.6,1-0.9,1.4c-0.4,0.5-0.8,0.9-1.4,1.2c-0.5,0.4-1.1,0.6-1.8,0.8
				s-1.4,0.3-2.2,0.3c-1.8,0-3.2-0.4-4.2-1.2s-1.5-2-1.5-3.6c0-1,0.2-1.8,0.6-2.4s0.9-1.1,1.5-1.5s1.3-0.6,2-0.8
				c0.7-0.2,1.4-0.3,2.1-0.3l1.9-0.2c0.9-0.1,1.6-0.2,2.1-0.3c0.5-0.1,0.9-0.3,1.2-0.6c0.3-0.3,0.4-0.6,0.5-1s0.1-0.9,0.1-1.5
				c0-0.5-0.1-0.9-0.3-1.3s-0.5-0.7-0.8-1.1c-0.4-0.3-0.9-0.5-1.5-0.7s-1.3-0.3-2.2-0.3c-1.5,0-2.7,0.4-3.7,1.1
				c-0.9,0.7-1.4,1.9-1.5,3.4h-1.3c0.1-1.9,0.7-3.3,1.8-4.2c1.1-0.9,2.7-1.4,4.7-1.4s3.5,0.4,4.5,1.2c0.9,0.8,1.4,1.9,1.4,3.2v9.9
				c0,0.2,0,0.5,0,0.7s0,0.5,0.1,0.7s0.2,0.4,0.3,0.5c0.2,0.1,0.4,0.2,0.7,0.2c0.2,0,0.5,0,0.9-0.1v1.1c-0.3,0.1-0.7,0.1-1,0.1
				c-0.5,0-0.9-0.1-1.2-0.2s-0.5-0.3-0.7-0.5S36,35.5,36,35.2c-0.1-0.3-0.1-0.6-0.1-1v-0.8H36.2z M36.2,27.2
				c-0.3,0.4-0.8,0.6-1.4,0.8c-0.6,0.1-1.3,0.2-2.1,0.3l-2.1,0.1c-0.6,0.1-1.2,0.2-1.8,0.3c-0.6,0.1-1.2,0.3-1.7,0.6
				c-0.5,0.3-0.9,0.7-1.2,1.2c-0.3,0.5-0.5,1.1-0.5,1.9c0,1.3,0.4,2.2,1.2,2.8c0.8,0.6,1.9,0.9,3.3,0.9s2.6-0.3,3.4-0.8
				s1.5-1.1,1.9-1.8s0.7-1.3,0.8-1.9s0.2-1.1,0.2-1.3C36.2,30.3,36.2,27.2,36.2,27.2z"/>
			<path class="st1" d="M43.2,19.8h1.3v3.6h0.1c0.2-0.6,0.5-1.2,0.9-1.7s0.9-0.9,1.4-1.3s1.1-0.6,1.8-0.8s1.3-0.3,1.9-0.3
				c1,0,1.8,0.1,2.5,0.4s1.3,0.6,1.7,1s0.8,0.8,1,1.3s0.4,1,0.5,1.5s0.2,1,0.2,1.5s0,0.9,0,1.2v10.5h-1.3V26.1c0-0.4,0-0.9-0.1-1.6
				c-0.1-0.6-0.3-1.2-0.6-1.8c-0.3-0.6-0.8-1.1-1.5-1.5s-1.5-0.6-2.7-0.6c-1,0-1.8,0.2-2.6,0.5c-0.7,0.4-1.4,0.8-1.9,1.5
				c-0.5,0.6-0.9,1.4-1.2,2.2s-0.4,1.8-0.4,2.9v9.2h-1.3V19.8H43.2z"/>
			<path class="st1" d="M74.9,25.1c-0.1-0.7-0.3-1.4-0.6-2c-0.3-0.6-0.7-1-1.2-1.4S72,21,71.3,20.8s-1.4-0.3-2.2-0.3
				c-1.1,0-2,0.2-2.8,0.6s-1.5,1-2,1.7c-0.6,0.7-1,1.5-1.3,2.4s-0.4,1.9-0.4,2.8c0,1.1,0.1,2.2,0.4,3.2c0.3,1,0.7,1.8,1.2,2.5
				s1.2,1.3,2,1.7S68,36,69.1,36c0.8,0,1.5-0.1,2.2-0.4s1.3-0.6,1.8-1.1s0.9-1,1.3-1.7c0.3-0.6,0.5-1.4,0.7-2.1h1.3
				c-0.1,1-0.4,1.9-0.8,2.7s-0.9,1.5-1.6,2s-1.4,1-2.2,1.2C71,36.9,70.1,37,69.2,37c-1.4,0-2.6-0.2-3.5-0.7c-1-0.5-1.8-1.2-2.4-2
				s-1.1-1.8-1.4-2.9c-0.3-1.1-0.4-2.2-0.4-3.4c0-1.2,0.2-2.3,0.5-3.4s0.8-2,1.5-2.8c0.7-0.8,1.5-1.4,2.4-1.9s2.1-0.7,3.3-0.7
				c0.9,0,1.8,0.1,2.6,0.3c0.8,0.2,1.5,0.6,2.1,1s1.1,1.1,1.5,1.8c0.4,0.7,0.6,1.5,0.7,2.5h-1.2C74.9,24.8,74.9,25.1,74.9,25.1z"/>
			<path class="st1" d="M82.2,13.2v10.2h0.1c0.2-0.6,0.5-1.2,0.9-1.7s0.9-0.9,1.4-1.3s1.1-0.6,1.8-0.8s1.3-0.3,1.9-0.3
				c1,0,1.8,0.1,2.5,0.4s1.3,0.6,1.7,1c0.4,0.4,0.8,0.8,1,1.3s0.4,1,0.5,1.5s0.2,1,0.2,1.5s0,0.9,0,1.2v10.5h-1.3V26.1
				c0-0.4,0-0.9-0.1-1.6c-0.1-0.6-0.3-1.2-0.6-1.8c-0.3-0.6-0.8-1.1-1.5-1.5s-1.5-0.6-2.7-0.6c-1,0-1.8,0.2-2.6,0.5
				c-0.7,0.4-1.4,0.8-1.9,1.5c-0.5,0.6-0.9,1.4-1.2,2.2s-0.4,1.8-0.4,2.9v9.2h-1.3V13.2H82.2z"/>
		</g>
	</g>
</g>
</svg>
