<?xml version="1.0" encoding="utf-8"?>
<!-- Generator: Adobe Illustrator 19.2.1, SVG Export Plug-In . SVG Version: 6.00 Build 0)  -->
<svg version="1.1" id="Layer_1" xmlns="http://www.w3.org/2000/svg" xmlns:xlink="http://www.w3.org/1999/xlink" x="0px" y="0px"
	 viewBox="0 0 140.1 37.9" style="enable-background:new 0 0 140.1 37.9;" xml:space="preserve">
<style type="text/css">
	.st0{fill:#FFFFFF;}
	.st1{clip-path:url(#SVGID_4_);}
	.st2{fill:none;stroke:#000000;stroke-miterlimit:10;}
	.st3{display:none;}
	.st4{display:inline;}
</style>
<g id="Layer_1_1_">
	<g>
		<g>
			<rect id="SVGID_1_" x="-441.4" y="-942.6" class="st0" width="1500" height="800"/>
		</g>
		<g>
			<defs>
				<rect id="SVGID_3_" x="-441.4" y="-942.6" width="1500" height="800"/>
			</defs>
			<clipPath id="SVGID_4_">
				<use xlink:href="#SVGID_3_"  style="overflow:visible;"/>
			</clipPath>
			<g class="st1">
				
					<image style="overflow:visible;enable-background:new    ;" width="4096" height="2160" xlink:href="27A1677FC5C5D501.jpeg"  transform="matrix(0.5121 0 0 0.5121 -710.6613 -1006.222)">
				</image>
			</g>
		</g>
		<g>
			<rect id="SVGID_2_" x="-441.4" y="-942.6" class="st2" width="1500" height="800"/>
		</g>
	</g>
	<g id="logo">
		<g id="Layer_4">
		</g>
	</g>
	<g id="Layer_10">
	</g>
	<g id="Layer_11">
	</g>
	<g id="_x32_nd-unit">
		<g>
			<path class="st0" d="M1.1,12.4h10c0.7,0,1.4,0.1,2.2,0.2c0.8,0.2,1.6,0.5,2.2,0.9c0.7,0.5,1.3,1.1,1.7,2c0.5,0.9,0.7,2,0.7,3.4
				c0,2.1-0.6,3.7-1.9,4.8s-3.1,1.7-5.5,1.7h-8v10.5H1.1V12.4z M2.5,24.2h8.3c1.1,0,2-0.2,2.7-0.5s1.3-0.7,1.8-1.2
				c0.4-0.5,0.8-1.1,1-1.7c0.2-0.6,0.3-1.2,0.3-1.8c0-0.4-0.1-1-0.2-1.6s-0.4-1.2-0.8-1.7s-1-1-1.7-1.4s-1.7-0.6-2.9-0.6H2.5V24.2z"
				/>
			<path class="st0" d="M32.4,32.6L32.4,32.6c-0.3,0.5-0.6,1-0.9,1.4c-0.4,0.5-0.8,0.9-1.4,1.2c-0.5,0.4-1.1,0.6-1.8,0.8
				c-0.7,0.2-1.4,0.3-2.2,0.3c-1.8,0-3.2-0.4-4.2-1.2s-1.5-2-1.5-3.6c0-1,0.2-1.8,0.6-2.4s0.9-1.1,1.5-1.5s1.3-0.6,2-0.8
				c0.7-0.2,1.4-0.3,2.1-0.3l1.9-0.2c0.9-0.1,1.6-0.2,2.1-0.3c0.5-0.1,0.9-0.3,1.2-0.6c0.3-0.3,0.4-0.6,0.5-1s0.1-0.9,0.1-1.5
				c0-0.5-0.1-0.9-0.3-1.3s-0.5-0.7-0.8-1.1c-0.4-0.3-0.9-0.5-1.5-0.7s-1.3-0.3-2.2-0.3c-1.5,0-2.7,0.4-3.7,1.1
				c-0.9,0.7-1.4,1.9-1.5,3.4h-1.3c0.1-1.9,0.7-3.3,1.8-4.2c1.1-0.9,2.7-1.4,4.7-1.4s3.5,0.4,4.5,1.2c0.9,0.8,1.4,1.9,1.4,3.2v9.9
				c0,0.2,0,0.5,0,0.7s0,0.5,0.1,0.7s0.2,0.4,0.3,0.5c0.2,0.1,0.4,0.2,0.7,0.2c0.2,0,0.5,0,0.9-0.1v1.1c-0.3,0.1-0.7,0.1-1,0.1
				c-0.5,0-0.9-0.1-1.2-0.2c-0.3-0.1-0.5-0.3-0.7-0.5s-0.3-0.5-0.3-0.8c-0.1-0.3-0.1-0.6-0.1-1v-0.8H32.4z M32.4,26.3
				c-0.3,0.4-0.8,0.6-1.4,0.8c-0.6,0.1-1.3,0.2-2.1,0.3l-2.1,0.2c-0.6,0.1-1.2,0.2-1.8,0.3c-0.6,0.1-1.2,0.3-1.7,0.6
				c-0.5,0.3-0.9,0.7-1.2,1.2c-0.3,0.5-0.5,1.1-0.5,1.9c0,1.3,0.4,2.2,1.2,2.8c0.8,0.6,1.9,0.9,3.3,0.9s2.6-0.3,3.4-0.8
				s1.5-1.1,1.9-1.8s0.7-1.3,0.8-1.9c0.1-0.6,0.2-1.1,0.2-1.3V26.3z"/>
			<path class="st0" d="M40.9,12.4V36h-1.3V12.4H40.9z"/>
			<path class="st0" d="M45.9,27.5c0-1.2,0.2-2.3,0.5-3.4s0.8-2,1.5-2.8s1.5-1.5,2.4-1.9c1-0.5,2.1-0.7,3.3-0.7
				c1.3,0,2.4,0.2,3.3,0.7c1,0.5,1.8,1.1,2.4,1.9c0.7,0.8,1.2,1.8,1.5,2.8c0.3,1.1,0.5,2.2,0.5,3.4c0,1.2-0.2,2.4-0.5,3.4
				c-0.3,1.1-0.8,2-1.5,2.8s-1.5,1.4-2.4,1.9s-2.1,0.7-3.3,0.7c-1.3,0-2.4-0.2-3.3-0.7c-1-0.5-1.8-1.1-2.4-1.9
				c-0.7-0.8-1.2-1.7-1.5-2.8C46,29.8,45.9,28.7,45.9,27.5z M47.1,27.5c0,1,0.1,2,0.4,2.9c0.3,0.9,0.7,1.8,1.3,2.5
				c0.5,0.7,1.2,1.3,2,1.7s1.7,0.6,2.8,0.6s2-0.2,2.8-0.6c0.8-0.4,1.5-1,2-1.7s1-1.6,1.3-2.5s0.4-1.9,0.4-2.9s-0.1-2-0.4-2.9
				c-0.3-0.9-0.7-1.8-1.3-2.5c-0.5-0.7-1.2-1.3-2-1.7c-0.8-0.4-1.7-0.6-2.8-0.6s-2,0.2-2.8,0.6s-1.5,1-2,1.7c-0.6,0.7-1,1.6-1.3,2.5
				C47.2,25.5,47.1,26.4,47.1,27.5z"/>
			<path class="st0" d="M66.5,26.3h7.1v1.3h-7.1V26.3z"/>
			<path class="st0" d="M79.7,12.4h2.1L91,34.3h0.1l9.1-21.9h2.1V36h-1.5V14.2h-0.1l-9,21.8h-1.5l-9.1-21.8H81V36h-1.5V12.4H79.7z"
				/>
			<path class="st0" d="M119.2,32.6L119.2,32.6c-0.3,0.5-0.6,1-0.9,1.4c-0.4,0.5-0.8,0.9-1.4,1.2c-0.5,0.4-1.1,0.6-1.8,0.8
				c-0.7,0.2-1.4,0.3-2.2,0.3c-1.8,0-3.2-0.4-4.2-1.2s-1.5-2-1.5-3.6c0-1,0.2-1.8,0.6-2.4s0.9-1.1,1.5-1.5s1.3-0.6,2-0.8
				c0.7-0.2,1.4-0.3,2.1-0.3l1.9-0.2c0.9-0.1,1.6-0.2,2.1-0.3c0.5-0.1,0.9-0.3,1.2-0.6s0.4-0.6,0.5-1s0.1-0.9,0.1-1.5
				c0-0.5-0.1-0.9-0.3-1.3c-0.2-0.4-0.5-0.7-0.8-1.1c-0.4-0.3-0.9-0.5-1.5-0.7s-1.3-0.3-2.2-0.3c-1.5,0-2.7,0.4-3.7,1.1
				c-0.9,0.7-1.4,1.9-1.5,3.4H108c0.1-1.9,0.7-3.3,1.8-4.2c1.1-0.9,2.7-1.4,4.7-1.4s3.5,0.4,4.5,1.2c0.9,0.8,1.4,1.9,1.4,3.2v9.9
				c0,0.2,0,0.5,0,0.7s0,0.5,0.1,0.7s0.2,0.4,0.3,0.5c0.2,0.1,0.4,0.2,0.7,0.2c0.2,0,0.5,0,0.9-0.1v1.1c-0.3,0.1-0.7,0.1-1,0.1
				c-0.5,0-0.9-0.1-1.2-0.2c-0.3-0.1-0.5-0.3-0.7-0.5s-0.3-0.5-0.3-0.8c-0.1-0.3-0.1-0.6-0.1-1L119.2,32.6L119.2,32.6z M119.2,26.3
				c-0.3,0.4-0.8,0.6-1.4,0.8c-0.6,0.1-1.3,0.2-2.1,0.3l-2.1,0.2c-0.6,0.1-1.2,0.2-1.8,0.3c-0.6,0.1-1.2,0.3-1.7,0.6
				c-0.5,0.3-0.9,0.7-1.2,1.2c-0.3,0.5-0.5,1.1-0.5,1.9c0,1.3,0.4,2.2,1.2,2.8c0.8,0.6,1.9,0.9,3.3,0.9s2.6-0.3,3.4-0.8
				s1.5-1.1,1.9-1.8s0.7-1.3,0.8-1.9c0.1-0.6,0.2-1.1,0.2-1.3C119.2,29.5,119.2,26.3,119.2,26.3z"/>
			<path class="st0" d="M130.8,27l-6.2-8.1h1.7l5.3,7.1l5.4-7h1.6l-6.1,8.1l6.7,8.9h-1.7l-5.8-8l-5.9,8h-1.6L130.8,27z"/>
		</g>
		<g>
			<path class="st0" d="M58.8,2.5V1.1h6.4v1.5h-2.4V9h-1.7V2.5H58.8z"/>
			<path class="st0" d="M68.4,1.1v3h3.2v-3h1.7v7.8h-1.7V5.5h-3.2v3.4h-1.7V1.1H68.4z"/>
			<path class="st0" d="M81.3,1.1v1.5h-4.1v1.7H81v1.3h-3.8v1.9h4.2V9h-6V1.1H81.3z"/>
		</g>
	</g>
	<g id="Ranch">
	</g>
	<g id="New_Logo" class="st3">
		<g id="Layer_8" class="st4">
		</g>
		<g id="Layer_9" class="st4">
		</g>
	</g>
</g>
<g id="Guest_House_Logo">
</g>
<g id="Palo-Max_Logo">
</g>
<g id="Ranch_Logo">
</g>
<g id="guides" class="st3">
</g>
</svg>
