<?xml version="1.0" encoding="utf-8"?>
<!-- Generator: Adobe Illustrator 19.2.1, SVG Export Plug-In . SVG Version: 6.00 Build 0)  -->
<svg version="1.1" id="Layer_1" xmlns="http://www.w3.org/2000/svg" xmlns:xlink="http://www.w3.org/1999/xlink" x="0px" y="0px"
	 viewBox="0 0 202.7 38.3" style="enable-background:new 0 0 202.7 38.3;" xml:space="preserve">
<style type="text/css">
	.st0{fill:#FFFFFF;}
	.st1{clip-path:url(#SVGID_4_);}
	.st2{fill:none;stroke:#000000;stroke-miterlimit:10;}
	.st3{fill:#868686;}
	.st4{display:none;}
	.st5{display:inline;}
</style>
<g id="Layer_1_1_">
	<g>
		<g>
			<rect id="SVGID_1_" x="-41.7" y="-942.3" class="st0" width="1500" height="800"/>
		</g>
		<g>
			<defs>
				<rect id="SVGID_3_" x="-41.7" y="-942.3" width="1500" height="800"/>
			</defs>
			<clipPath id="SVGID_4_">
				<use xlink:href="#SVGID_3_"  style="overflow:visible;"/>
			</clipPath>
			<g class="st1">
				
					<image style="overflow:visible;enable-background:new    ;" width="4096" height="2160" xlink:href="AFA274FADA0AB51B.jpeg"  transform="matrix(0.5121 0 0 0.5121 -310.9608 -1005.9647)">
				</image>
			</g>
		</g>
		<g>
			<rect id="SVGID_2_" x="-41.7" y="-942.3" class="st2" width="1500" height="800"/>
		</g>
	</g>
	<g id="logo">
		<g id="Layer_4">
		</g>
	</g>
	<g id="Layer_10">
	</g>
	<g id="Layer_11">
	</g>
	<g id="_x32_nd-unit">
		<g>
			<path class="st3" d="M2.8,24.5c0-1.7,0.2-3.3,0.7-4.8s1.2-2.8,2.2-4c0.9-1.1,2.1-2.1,3.5-2.7c1.4-0.7,3-1,4.7-1
				c1.2,0,2.4,0.2,3.5,0.5c1.1,0.4,2.1,0.9,3,1.6c0.9,0.7,1.6,1.5,2.2,2.5s1,2.1,1.2,3.3h-1.4c-0.5-2.1-1.5-3.7-3-4.9
				c-1.4-1.2-3.2-1.7-5.4-1.7c-1.6,0-3,0.3-4.2,0.9c-1.2,0.6-2.2,1.4-3,2.5c-0.8,1-1.4,2.2-1.8,3.6s-0.6,2.8-0.6,4.2
				c0,1.5,0.2,2.9,0.6,4.2c0.4,1.3,1,2.5,1.8,3.5s1.8,1.8,3,2.4c1.2,0.6,2.6,0.9,4.3,0.9c1.4,0,2.7-0.2,3.8-0.7s2.1-1.1,2.9-1.9
				c0.8-0.8,1.4-1.8,1.8-3s0.6-2.5,0.5-3.9h-8.7v-1.3h9.9v11.5H23v-5h-0.1c-0.3,0.9-0.7,1.6-1.3,2.3c-0.6,0.7-1.2,1.3-2,1.7
				C18.8,35.7,18,36,17,36.3s-2,0.4-3,0.4c-1.8,0-3.4-0.3-4.7-1c-1.4-0.6-2.5-1.5-3.5-2.6c-0.9-1.1-1.7-2.4-2.1-3.9
				C3,27.8,2.8,26.2,2.8,24.5z"/>
			<path class="st3" d="M43,36.2h-1.3v-3.6h-0.1c-0.2,0.6-0.5,1.2-0.9,1.7s-0.9,0.9-1.4,1.3c-0.5,0.4-1.1,0.6-1.8,0.8
				c-0.6,0.2-1.3,0.3-1.9,0.3c-1,0-1.8-0.1-2.5-0.4c-0.7-0.2-1.3-0.6-1.7-1c-0.4-0.4-0.8-0.8-1-1.3c-0.3-0.5-0.4-1-0.5-1.5
				s-0.2-1-0.2-1.5s0-0.9,0-1.2V19.2H31V30c0,0.4,0,1,0.1,1.6s0.3,1.2,0.6,1.8s0.8,1.1,1.4,1.5c0.6,0.4,1.5,0.6,2.7,0.6
				c0.9,0,1.8-0.2,2.6-0.5c0.8-0.4,1.4-0.8,1.9-1.5c0.5-0.6,0.9-1.4,1.2-2.2c0.3-0.9,0.4-1.8,0.4-2.9v-9.2H43V36.2z"/>
			<path class="st3" d="M48.9,27.9v0.2c0,1,0.1,1.9,0.4,2.8c0.3,0.9,0.7,1.7,1.2,2.4s1.2,1.2,2,1.6c0.8,0.4,1.7,0.6,2.7,0.6
				c1.7,0,3-0.4,4-1.3c1-0.9,1.7-2.1,2.1-3.7h1.3c-0.4,2-1.2,3.5-2.4,4.6s-2.9,1.6-4.9,1.6C54,36.7,53,36.5,52,36
				c-0.9-0.5-1.7-1.1-2.3-1.8c-0.6-0.8-1.1-1.7-1.4-2.8c-0.3-1.1-0.5-2.2-0.5-3.4c0-1.2,0.2-2.3,0.5-3.4s0.8-2,1.4-2.9
				c0.6-0.8,1.4-1.5,2.4-2s2.1-0.7,3.4-0.7c1.2,0,2.2,0.2,3.2,0.7c0.9,0.4,1.7,1,2.3,1.8s1.1,1.6,1.4,2.6c0.3,1,0.5,2.1,0.5,3.2
				c0,0.1,0,0.2,0,0.4c0,0.1,0,0.3,0,0.3L48.9,27.9L48.9,27.9z M61.4,26.8c0-0.9-0.2-1.8-0.5-2.6s-0.7-1.6-1.2-2.2s-1.1-1.1-1.9-1.5
				c-0.7-0.4-1.6-0.6-2.5-0.6c-1,0-1.9,0.2-2.7,0.6s-1.4,0.9-2,1.5c-0.5,0.6-0.9,1.4-1.2,2.2S49,25.9,49,26.8H61.4z"/>
			<path class="st3" d="M67.9,30.5c0,0.8,0.2,1.5,0.5,2.1s0.7,1.1,1.2,1.6c0.5,0.4,1.1,0.8,1.7,1c0.7,0.2,1.4,0.3,2.1,0.3
				c0.5,0,1.1,0,1.8-0.1c0.6-0.1,1.2-0.3,1.7-0.5c0.5-0.3,1-0.6,1.3-1.1s0.5-1.1,0.5-1.8c0-0.9-0.3-1.7-0.9-2.1
				c-0.6-0.5-1.3-0.9-2.2-1.1c-0.9-0.3-1.8-0.5-2.8-0.6c-1-0.2-1.9-0.4-2.8-0.7s-1.6-0.8-2.2-1.4s-0.9-1.5-0.9-2.7
				c0-0.8,0.2-1.5,0.6-2.1s0.9-1,1.4-1.3s1.2-0.6,2-0.7c0.7-0.1,1.5-0.2,2.2-0.2c0.9,0,1.7,0.1,2.5,0.3c0.8,0.2,1.4,0.5,2,1
				c0.6,0.4,1,1,1.3,1.7s0.5,1.5,0.5,2.5h-1.3c0-0.8-0.1-1.4-0.4-2c-0.3-0.5-0.6-1-1.1-1.3s-1-0.6-1.6-0.8c-0.6-0.2-1.3-0.2-2-0.2
				c-0.6,0-1.1,0.1-1.7,0.2s-1.1,0.3-1.6,0.6s-0.8,0.6-1.1,1s-0.4,0.9-0.4,1.5c0,0.7,0.2,1.2,0.5,1.7c0.3,0.4,0.8,0.8,1.3,1
				c0.5,0.3,1.1,0.5,1.8,0.6c0.7,0.2,1.3,0.3,2,0.5c0.8,0.2,1.6,0.3,2.4,0.5c0.7,0.2,1.4,0.5,1.9,0.9s1,0.8,1.3,1.4s0.5,1.3,0.5,2.2
				c0,0.9-0.2,1.7-0.6,2.3s-0.9,1.1-1.6,1.4c-0.6,0.4-1.3,0.6-2.1,0.8c-0.8,0.1-1.5,0.2-2.3,0.2c-1,0-1.9-0.1-2.7-0.4
				c-0.8-0.3-1.5-0.6-2.2-1.2c-0.6-0.5-1.1-1.1-1.5-1.9c-0.4-0.7-0.5-1.6-0.6-2.6h1.6V30.5z"/>
			<path class="st3" d="M91.2,20.3h-3.7v11.8c0,0.7,0.1,1.2,0.2,1.6c0.2,0.4,0.4,0.7,0.7,0.9c0.3,0.2,0.7,0.3,1.2,0.4
				c0.5,0,1,0.1,1.6,0v1.1c-0.6,0-1.3,0-1.9,0c-0.6-0.1-1.1-0.2-1.6-0.5s-0.8-0.7-1.1-1.2c-0.3-0.5-0.4-1.3-0.3-2.3V20.3h-3.1v-1.1
				h3.1v-5.3h1.3v5.3h3.7L91.2,20.3L91.2,20.3z"/>
			<path class="st3" d="M106.4,12.6h1.5v10.7h15V12.6h1.5v23.6h-1.5V24.6h-15v11.6h-1.5V12.6z"/>
			<path class="st3" d="M129.3,27.7c0-1.2,0.2-2.3,0.5-3.4s0.8-2,1.5-2.8s1.5-1.5,2.4-1.9c1-0.5,2.1-0.7,3.3-0.7
				c1.3,0,2.4,0.2,3.3,0.7c1,0.5,1.8,1.1,2.4,1.9c0.7,0.8,1.2,1.8,1.5,2.8c0.3,1.1,0.5,2.2,0.5,3.4c0,1.2-0.2,2.4-0.5,3.4
				c-0.3,1.1-0.8,2-1.5,2.8c-0.7,0.8-1.5,1.4-2.4,1.9s-2.1,0.7-3.3,0.7c-1.3,0-2.4-0.2-3.3-0.7c-1-0.5-1.8-1.1-2.4-1.9
				c-0.7-0.8-1.2-1.7-1.5-2.8C129.4,30.1,129.3,28.9,129.3,27.7z M130.5,27.7c0,1,0.1,2,0.4,2.9c0.3,0.9,0.7,1.8,1.3,2.5
				c0.5,0.7,1.2,1.3,2,1.7s1.7,0.6,2.8,0.6s2-0.2,2.8-0.6c0.8-0.4,1.5-1,2-1.7s1-1.6,1.3-2.5s0.4-1.9,0.4-2.9s-0.1-2-0.4-2.9
				c-0.3-0.9-0.7-1.8-1.3-2.5c-0.5-0.7-1.2-1.3-2-1.7c-0.8-0.4-1.7-0.6-2.8-0.6s-2,0.2-2.8,0.6s-1.5,1-2,1.7c-0.6,0.7-1,1.6-1.3,2.5
				C130.7,25.7,130.5,26.7,130.5,27.7z"/>
			<path class="st3" d="M163,36.2h-1.3v-3.6h-0.1c-0.2,0.6-0.5,1.2-0.9,1.7s-0.9,0.9-1.4,1.3c-0.5,0.4-1.1,0.6-1.8,0.8
				c-0.6,0.2-1.3,0.3-1.9,0.3c-1,0-1.8-0.1-2.5-0.4c-0.7-0.2-1.3-0.6-1.7-1s-0.8-0.8-1-1.3c-0.3-0.5-0.4-1-0.5-1.5s-0.2-1-0.2-1.5
				s0-0.9,0-1.2V19.2h1.3V30c0,0.4,0,1,0.1,1.6s0.3,1.2,0.6,1.8s0.8,1.1,1.4,1.5c0.6,0.4,1.5,0.6,2.7,0.6c0.9,0,1.8-0.2,2.6-0.5
				c0.8-0.4,1.4-0.8,1.9-1.5c0.5-0.6,0.9-1.4,1.2-2.2c0.3-0.9,0.4-1.8,0.4-2.9v-9.2h1.3v17H163z"/>
			<path class="st3" d="M169,30.5c0,0.8,0.2,1.5,0.5,2.1s0.7,1.1,1.2,1.6c0.5,0.4,1.1,0.8,1.7,1c0.7,0.2,1.4,0.3,2.1,0.3
				c0.5,0,1.1,0,1.8-0.1c0.6-0.1,1.2-0.3,1.7-0.5c0.5-0.3,1-0.6,1.3-1.1s0.5-1.1,0.5-1.8c0-0.9-0.3-1.7-0.9-2.1
				c-0.6-0.5-1.3-0.9-2.2-1.1c-0.9-0.3-1.8-0.5-2.8-0.6c-1-0.2-1.9-0.4-2.8-0.7s-1.6-0.8-2.2-1.4c-0.6-0.6-0.9-1.5-0.9-2.7
				c0-0.8,0.2-1.5,0.6-2.1c0.4-0.6,0.9-1,1.4-1.3s1.2-0.6,2-0.7c0.7-0.1,1.5-0.2,2.2-0.2c0.9,0,1.7,0.1,2.5,0.3c0.8,0.2,1.4,0.5,2,1
				c0.6,0.4,1,1,1.3,1.7s0.5,1.5,0.5,2.5h-1.3c0-0.8-0.1-1.4-0.4-2c-0.3-0.5-0.6-1-1.1-1.3s-1-0.6-1.6-0.8c-0.6-0.2-1.3-0.2-2-0.2
				c-0.6,0-1.1,0.1-1.7,0.2c-0.6,0.1-1.1,0.3-1.6,0.6s-0.8,0.6-1.1,1s-0.4,0.9-0.4,1.5c0,0.7,0.2,1.2,0.5,1.7c0.3,0.4,0.8,0.8,1.3,1
				c0.5,0.3,1.1,0.5,1.8,0.6c0.7,0.2,1.3,0.3,2,0.5c0.8,0.2,1.6,0.3,2.4,0.5c0.7,0.2,1.4,0.5,1.9,0.9s1,0.8,1.3,1.4s0.5,1.3,0.5,2.2
				c0,0.9-0.2,1.7-0.6,2.3c-0.4,0.6-0.9,1.1-1.6,1.4c-0.6,0.4-1.3,0.6-2.1,0.8c-0.8,0.1-1.5,0.2-2.3,0.2c-1,0-1.9-0.1-2.7-0.4
				c-0.8-0.3-1.5-0.6-2.2-1.2c-0.6-0.5-1.1-1.1-1.5-1.9c-0.4-0.7-0.5-1.6-0.6-2.6h1.6V30.5z"/>
			<path class="st3" d="M186.5,27.9v0.2c0,1,0.1,1.9,0.4,2.8c0.3,0.9,0.7,1.7,1.2,2.4s1.2,1.2,2,1.6c0.8,0.4,1.7,0.6,2.7,0.6
				c1.7,0,3-0.4,4-1.3c1-0.9,1.7-2.1,2.1-3.7h1.3c-0.4,2-1.2,3.5-2.4,4.6s-2.9,1.6-4.9,1.6c-1.3,0-2.3-0.2-3.3-0.7
				c-0.9-0.5-1.7-1.1-2.3-1.8c-0.6-0.8-1.1-1.7-1.4-2.8c-0.3-1.1-0.5-2.2-0.5-3.4c0-1.2,0.2-2.3,0.5-3.4s0.8-2,1.4-2.9
				c0.6-0.8,1.4-1.5,2.4-2s2.1-0.7,3.4-0.7c1.2,0,2.2,0.2,3.2,0.7c0.9,0.4,1.7,1,2.3,1.8s1.1,1.6,1.4,2.6c0.3,1,0.5,2.1,0.5,3.2
				c0,0.1,0,0.2,0,0.4c0,0.1,0,0.3,0,0.3L186.5,27.9L186.5,27.9z M199,26.8c0-0.9-0.2-1.8-0.5-2.6s-0.7-1.6-1.2-2.2
				s-1.1-1.1-1.9-1.5c-0.7-0.4-1.6-0.6-2.5-0.6c-1,0-1.9,0.2-2.7,0.6s-1.4,0.9-2,1.5c-0.5,0.6-0.9,1.4-1.2,2.2s-0.5,1.7-0.5,2.6H199
				z"/>
		</g>
		<g>
			<path class="st3" d="M4.1,3.2c0.1-0.4,0.3-0.7,0.5-1C4.9,2,5.2,1.7,5.5,1.6c0.4-0.2,0.8-0.2,1.2-0.2c0.4,0,0.7,0.1,1,0.2
				c0.4,0,0.7,0.2,0.9,0.4C8.8,2.2,9,2.4,9.2,2.7c0.1,0.3,0.2,0.6,0.2,1s-0.1,0.7-0.2,1C9.1,5,8.9,5.3,8.7,5.5S8.3,5.9,8,6.1
				C7.7,6.3,7.5,6.4,7.2,6.6S6.7,7,6.5,7.2C6.2,7.4,6,7.6,5.8,7.8h3.6v1.3H3.8c0-0.4,0-0.7,0.2-1.1c0.1-0.3,0.3-0.6,0.5-0.9
				C4.7,6.9,5,6.6,5.3,6.4S5.9,6,6.2,5.7c0.2-0.1,0.3-0.2,0.5-0.4c0.2,0,0.4-0.2,0.6-0.3c0.2-0.1,0.3-0.3,0.4-0.5s0.2-0.4,0.2-0.6
				c0-0.4-0.1-0.7-0.3-0.9C7.3,2.8,7,2.7,6.7,2.7c-0.2,0-0.4,0.1-0.6,0.2c-0.2,0-0.3,0.2-0.4,0.4C5.6,3.4,5.6,3.6,5.5,3.8
				c0,0.2-0.1,0.4-0.1,0.6H4C3.9,4,4,3.6,4.1,3.2z"/>
			<path class="st3" d="M12.3,3.5v0.8l0,0c0.2-0.3,0.5-0.6,0.8-0.7c0.3-0.1,0.6-0.2,1-0.2s0.8,0.1,1,0.2c0.3,0.1,0.5,0.3,0.6,0.5
				C15.9,4.3,16,4.5,16,4.8c0.1,0.3,0.1,0.6,0.1,1v3.5h-1.6V6c0-0.5-0.1-0.8-0.2-1S14,4.6,13.6,4.6S12.9,4.7,12.7,5
				s-0.3,0.7-0.3,1.2v3h-1.6V3.5H12.3z"/>
			<path class="st3" d="M22,8.5c-0.2,0.3-0.4,0.5-0.7,0.7s-0.6,0.2-1,0.2s-0.8-0.1-1.1-0.2c-0.3-0.2-0.6-0.4-0.8-0.7
				c-0.2-0.3-0.4-0.6-0.5-1s-0.2-0.7-0.2-1.1s0.1-0.7,0.2-1.1s0.3-0.7,0.5-0.9c0.2-0.3,0.5-0.5,0.8-0.7s0.7-0.2,1.1-0.2
				c0.3,0,0.7,0.1,1,0.2c0.3,0.1,0.5,0.4,0.7,0.6l0,0v-3h1.6v7.8H22V8.5L22,8.5z M21.9,5.7c0-0.2-0.1-0.4-0.2-0.6s-0.2-0.3-0.4-0.4
				c-0.2-0.1-0.4-0.2-0.6-0.2c-0.3,0-0.5,0.1-0.6,0.2s-0.3,0.2-0.4,0.4c-0.1,0.2-0.2,0.4-0.2,0.6s-0.1,0.4-0.1,0.7
				c0,0.2,0,0.4,0.1,0.7c0.1,0.2,0.1,0.4,0.2,0.6c0,0.1,0.1,0.2,0.3,0.3c0.2,0.1,0.4,0.2,0.6,0.2c0.3,0,0.5-0.1,0.6-0.2
				c0.2-0.1,0.3-0.2,0.4-0.4c0.1-0.2,0.2-0.4,0.2-0.6S22,6.6,22,6.3S22,5.9,21.9,5.7z"/>
			<path class="st3" d="M34.8,8.6c-0.6,0.5-1.4,0.8-2.5,0.8c-1.1,0-1.9-0.3-2.5-0.8C29.3,8.1,29,7.3,29,6.2V1.3h1.7v4.9
				c0,0.2,0,0.4,0.1,0.6c0,0.2,0.1,0.4,0.2,0.5c0.1,0.2,0.3,0.3,0.5,0.4s0.5,0.1,0.8,0.1c0.6,0,1-0.1,1.3-0.4
				C33.9,7.2,34,6.8,34,6.2V1.3h1.7v4.9C35.7,7.3,35.4,8.1,34.8,8.6z"/>
			<path class="st3" d="M39.1,3.5v0.8l0,0c0.2-0.3,0.5-0.6,0.8-0.7c0.3-0.1,0.6-0.2,1-0.2s0.8,0.1,1,0.2c0.3,0.1,0.5,0.3,0.6,0.5
				c0.2,0.2,0.3,0.4,0.3,0.7c0.1,0.3,0.1,0.6,0.1,1v3.5h-1.6V6c0-0.5-0.1-0.8-0.2-1s-0.4-0.3-0.8-0.3c-0.4,0-0.7,0.1-0.9,0.4
				s-0.3,0.7-0.3,1.2v3h-1.6V3.5H39.1z"/>
			<path class="st3" d="M44.8,2.6V1.3h1.6v1.3H44.8z M46.3,3.5v5.7h-1.6V3.5H46.3z"/>
			<path class="st3" d="M51.2,3.5v1h-1.1v2.8c0,0.3,0,0.4,0.1,0.5S50.5,8,50.8,8c0.1,0,0.2,0,0.3,0s0.2,0,0.2,0v1.2
				c-0.1,0-0.3,0-0.4,0c-0.2,0-0.3,0-0.5,0s-0.5,0-0.7,0S49.3,9.1,49.1,9c-0.2-0.1-0.3-0.2-0.4-0.4c-0.1-0.2-0.1-0.4-0.1-0.7V4.6
				h-0.9v-1h0.9V1.8h1.6v1.7H51.2z"/>
			<path class="st3" d="M53.9,7.8C54,7.9,54.1,8,54.2,8.1c0.1,0.1,0.2,0.1,0.4,0.2c0.1,0,0.3,0.1,0.4,0.1c0.1,0,0.2,0,0.3,0
				s0.2-0.1,0.3-0.1c0.1-0.1,0.2-0.1,0.2-0.2C56,7.8,56,7.7,56,7.6c0-0.2-0.2-0.4-0.5-0.5s-0.7-0.2-1.3-0.4
				c-0.2-0.1-0.4-0.1-0.7-0.2c-0.2-0.1-0.4-0.2-0.6-0.3c-0.2-0.1-0.3-0.3-0.4-0.4c-0.1-0.2-0.2-0.4-0.2-0.6c0-0.4,0.1-0.7,0.2-0.9
				s0.3-0.4,0.6-0.6c0.2-0.1,0.5-0.2,0.8-0.3s0.6-0.1,0.9-0.1s0.6,0,0.9,0.1c0.3,0.1,0.5,0.2,0.8,0.3c0.2,0.1,0.4,0.3,0.6,0.6
				s0.2,0.5,0.3,0.9h-1.5c0-0.3-0.1-0.5-0.3-0.6s-0.4-0.2-0.7-0.2c-0.1,0-0.2,0-0.3,0s-0.2,0-0.3,0.1c-0.1,0-0.2,0.1-0.2,0.2
				C54,4.7,54,4.8,54,4.9s0.1,0.3,0.2,0.3c0.1,0.1,0.2,0.2,0.4,0.2c0.2,0.1,0.4,0.1,0.6,0.1s0.4,0.1,0.6,0.1C56,5.8,56.2,5.9,56.4,6
				c0.2,0,0.4,0.1,0.6,0.2s0.3,0.3,0.4,0.5c0.1,0.2,0.2,0.4,0.2,0.7c0,0.4-0.1,0.7-0.2,0.9c-0.2,0.3-0.3,0.5-0.6,0.6
				c-0.2,0.2-0.5,0.3-0.8,0.3c-0.3,0.1-0.6,0.1-1,0.1c-0.3,0-0.7,0-1-0.1S53.4,9,53.2,8.9c-0.2-0.2-0.4-0.4-0.6-0.6
				c-0.2-0.3-0.2-0.6-0.3-1h1.5C53.8,7.5,53.8,7.7,53.9,7.8z"/>
		</g>
	</g>
	<g id="Ranch">
	</g>
	<g id="New_Logo" class="st4">
		<g id="Layer_8" class="st5">
		</g>
		<g id="Layer_9" class="st5">
		</g>
	</g>
</g>
<g id="Guest_House_Logo">
</g>
<g id="Palo-Max_Logo">
</g>
<g id="Ranch_Logo">
</g>
<g id="guides" class="st4">
</g>
</svg>
