<?xml version="1.0" encoding="utf-8"?>
<!-- Generator: Adobe Illustrator 19.2.1, SVG Export Plug-In . SVG Version: 6.00 Build 0)  -->
<svg version="1.1" id="Layer_1" xmlns="http://www.w3.org/2000/svg" xmlns:xlink="http://www.w3.org/1999/xlink" x="0px" y="0px"
	 viewBox="0 0 143.3 39.5" style="enable-background:new 0 0 143.3 39.5;" xml:space="preserve">
<style type="text/css">
	.st0{display:none;fill:#F2F2F2;}
	.st1{fill:#868686;}
	.st2{display:none;}
	.st3{display:inline;}
</style>
<g id="Layer_1_1_">
	<g id="logo">
		<g id="Layer_4">
		</g>
	</g>
	<g id="Layer_10">
	</g>
	<g id="Layer_11">
	</g>
	<g id="_x32_nd-unit">
	</g>
	<g id="Dark_Palo_Max">
		<rect x="-92.3" y="-43.6" class="st0" width="331.3" height="128.4"/>
		<g>
			<path class="st1" d="M2.1,12.5h10c0.7,0,1.4,0.1,2.2,0.2c0.8,0.2,1.6,0.5,2.2,0.9c0.7,0.5,1.3,1.1,1.7,2c0.5,0.9,0.7,2,0.7,3.4
				c0,2.1-0.6,3.7-1.9,4.8c-1.3,1.1-3.1,1.7-5.5,1.7h-8V36H2.1V12.5z M3.5,24.3h8.3c1.1,0,2-0.2,2.7-0.5s1.3-0.7,1.8-1.2
				c0.4-0.5,0.8-1.1,1-1.7s0.3-1.2,0.3-1.8c0-0.4-0.1-1-0.2-1.6s-0.4-1.2-0.8-1.7s-1-1-1.7-1.4s-1.7-0.6-2.9-0.6H3.5V24.3z"/>
			<path class="st1" d="M33.4,32.7L33.4,32.7c-0.3,0.5-0.6,1-0.9,1.4c-0.4,0.5-0.8,0.9-1.4,1.2c-0.5,0.4-1.1,0.6-1.8,0.8
				c-0.7,0.2-1.4,0.3-2.2,0.3c-1.8,0-3.2-0.4-4.2-1.2c-1-0.8-1.5-2-1.5-3.6c0-1,0.2-1.8,0.6-2.4s0.9-1.1,1.5-1.5s1.3-0.6,2-0.8
				c0.7-0.2,1.4-0.3,2.1-0.3l1.9-0.2c0.9-0.1,1.6-0.2,2.1-0.3c0.5-0.1,0.9-0.3,1.2-0.6s0.4-0.6,0.5-1s0.1-0.9,0.1-1.5
				c0-0.5-0.1-0.9-0.3-1.3s-0.5-0.7-0.8-1.1c-0.4-0.3-0.9-0.5-1.5-0.7s-1.3-0.3-2.2-0.3c-1.5,0-2.7,0.4-3.7,1.1
				c-0.9,0.7-1.4,1.9-1.5,3.4h-1.3c0.1-1.9,0.7-3.3,1.8-4.2c1.1-0.9,2.7-1.4,4.7-1.4s3.5,0.4,4.5,1.2c0.9,0.8,1.4,1.9,1.4,3.2v9.9
				c0,0.2,0,0.5,0,0.7s0,0.5,0.1,0.7s0.2,0.4,0.3,0.5c0.2,0.1,0.4,0.2,0.7,0.2c0.2,0,0.5,0,0.9-0.1v1.1C36.3,36,36,36,35.6,36
				c-0.5,0-0.9-0.1-1.2-0.2c-0.3-0.1-0.5-0.3-0.7-0.5s-0.3-0.5-0.3-0.8c-0.1-0.3-0.1-0.6-0.1-1v-0.8H33.4z M33.4,26.4
				c-0.3,0.4-0.8,0.6-1.4,0.8c-0.6,0.1-1.3,0.2-2.1,0.3l-2.1,0.2c-0.6,0.1-1.2,0.2-1.8,0.3c-0.6,0.1-1.2,0.3-1.7,0.6
				c-0.5,0.3-0.9,0.7-1.2,1.2c-0.3,0.5-0.5,1.1-0.5,1.9c0,1.3,0.4,2.2,1.2,2.8c0.8,0.6,1.9,0.9,3.3,0.9s2.6-0.3,3.4-0.8
				s1.5-1.1,1.9-1.8c0.4-0.7,0.7-1.3,0.8-1.9s0.2-1.1,0.2-1.3C33.4,29.6,33.4,26.4,33.4,26.4z"/>
			<path class="st1" d="M41.9,12.5V36h-1.3V12.5H41.9z"/>
			<path class="st1" d="M46.9,27.6c0-1.2,0.2-2.3,0.5-3.4s0.8-2,1.5-2.8s1.5-1.5,2.4-1.9c1-0.5,2.1-0.7,3.3-0.7
				c1.3,0,2.4,0.2,3.3,0.7c1,0.5,1.8,1.1,2.4,1.9c0.7,0.8,1.2,1.8,1.5,2.8c0.3,1.1,0.5,2.2,0.5,3.4c0,1.2-0.2,2.4-0.5,3.4
				c-0.3,1.1-0.8,2-1.5,2.8s-1.5,1.4-2.4,1.9s-2.1,0.7-3.3,0.7c-1.3,0-2.4-0.2-3.3-0.7c-1-0.5-1.8-1.1-2.4-1.9
				c-0.7-0.8-1.2-1.7-1.5-2.8C47,29.9,46.9,28.8,46.9,27.6z M48.1,27.6c0,1,0.1,2,0.4,2.9c0.3,0.9,0.7,1.8,1.3,2.5
				c0.5,0.7,1.2,1.3,2,1.7s1.7,0.6,2.8,0.6s2-0.2,2.8-0.6c0.8-0.4,1.5-1,2-1.7s1-1.6,1.3-2.5s0.4-1.9,0.4-2.9s-0.1-2-0.4-2.9
				c-0.3-0.9-0.7-1.8-1.3-2.5c-0.5-0.7-1.2-1.3-2-1.7c-0.8-0.4-1.7-0.6-2.8-0.6s-2,0.2-2.8,0.6s-1.5,1-2,1.7c-0.6,0.7-1,1.6-1.3,2.5
				C48.3,25.6,48.1,26.6,48.1,27.6z"/>
			<path class="st1" d="M67.6,26.4h7.1v1.3h-7.1V26.4z"/>
			<path class="st1" d="M80.7,12.5h2.1L92,34.4h0.1l9.1-21.9h2.1V36h-1.5V14.3h-0.1l-9,21.8h-1.5l-9.1-21.8H82V36h-1.5V12.5H80.7z"
				/>
			<path class="st1" d="M120.2,32.7L120.2,32.7c-0.3,0.5-0.6,1-0.9,1.4c-0.4,0.5-0.8,0.9-1.4,1.2c-0.5,0.4-1.1,0.6-1.8,0.8
				c-0.7,0.2-1.4,0.3-2.2,0.3c-1.8,0-3.2-0.4-4.2-1.2s-1.5-2-1.5-3.6c0-1,0.2-1.8,0.6-2.4s0.9-1.1,1.5-1.5s1.3-0.6,2-0.8
				c0.7-0.2,1.4-0.3,2.1-0.3l1.9-0.2c0.9-0.1,1.6-0.2,2.1-0.3c0.5-0.1,0.9-0.3,1.2-0.6s0.4-0.6,0.5-1s0.1-0.9,0.1-1.5
				c0-0.5-0.1-0.9-0.3-1.3c-0.2-0.4-0.5-0.7-0.8-1.1c-0.4-0.3-0.9-0.5-1.5-0.7s-1.3-0.3-2.2-0.3c-1.5,0-2.7,0.4-3.7,1.1
				c-0.9,0.7-1.4,1.9-1.5,3.4H109c0.1-1.9,0.7-3.3,1.8-4.2c1.1-0.9,2.7-1.4,4.7-1.4s3.5,0.4,4.5,1.2c0.9,0.8,1.4,1.9,1.4,3.2v9.9
				c0,0.2,0,0.5,0,0.7s0,0.5,0.1,0.7s0.2,0.4,0.3,0.5c0.2,0.1,0.4,0.2,0.7,0.2c0.2,0,0.5,0,0.9-0.1v1.1c-0.3,0.1-0.7,0.1-1,0.1
				c-0.5,0-0.9-0.1-1.2-0.2c-0.3-0.1-0.5-0.3-0.7-0.5s-0.3-0.5-0.3-0.8c-0.1-0.3-0.1-0.6-0.1-1L120.2,32.7L120.2,32.7z M120.2,26.4
				c-0.3,0.4-0.8,0.6-1.4,0.8c-0.6,0.1-1.3,0.2-2.1,0.3l-2.1,0.2c-0.6,0.1-1.2,0.2-1.8,0.3c-0.6,0.1-1.2,0.3-1.7,0.6
				c-0.5,0.3-0.9,0.7-1.2,1.2c-0.3,0.5-0.5,1.1-0.5,1.9c0,1.3,0.4,2.2,1.2,2.8c0.8,0.6,1.9,0.9,3.3,0.9s2.6-0.3,3.4-0.8
				s1.5-1.1,1.9-1.8s0.7-1.3,0.8-1.9c0.1-0.6,0.2-1.1,0.2-1.3C120.2,29.6,120.2,26.4,120.2,26.4z"/>
			<path class="st1" d="M131.8,27.1l-6.2-8.1h1.7l5.3,7.1l5.3-7.1h1.6l-6.1,8.1l6.7,8.9h-1.7l-5.8-8l-5.9,8h-1.6L131.8,27.1z"/>
		</g>
		<g>
			<path class="st1" d="M59.8,2.7V1.2h6.4v1.5h-2.4V9h-1.7V2.7H59.8z"/>
			<path class="st1" d="M69.5,1.2v3h3.2v-3h1.7V9h-1.7V5.7h-3.2V9h-1.7V1.2H69.5z"/>
			<path class="st1" d="M82.3,1.2v1.5h-4.1v1.7H82v1.3h-3.8v1.9h4.2V9h-6V1.2H82.3z"/>
		</g>
	</g>
	<g id="Ranch">
	</g>
	<g id="New_Logo" class="st2">
		<g id="Layer_8" class="st3">
		</g>
		<g id="Layer_9" class="st3">
		</g>
	</g>
</g>
<g id="Guest_House_Logo">
</g>
<g id="Palo-Max_Logo">
</g>
<g id="Ranch_Logo">
</g>
<g id="guides" class="st2">
</g>
</svg>
