<?xml version="1.0" encoding="utf-8"?>
<!-- Generator: Adobe Illustrator 18.1.1, SVG Export Plug-In . SVG Version: 6.00 Build 0)  -->
<!DOCTYPE svg PUBLIC "-//W3C//DTD SVG 1.1//EN" "http://www.w3.org/Graphics/SVG/1.1/DTD/svg11.dtd">
<svg version="1.1" id="Layer_1" xmlns="http://www.w3.org/2000/svg" xmlns:xlink="http://www.w3.org/1999/xlink" x="0px" y="0px"
	 width="159.8px" height="46.5px" viewBox="-399 264.5 159.8 46.5" enable-background="new -399 264.5 159.8 46.5"
	 xml:space="preserve">
<g id="model-title">
	<g>
		<path fill="#F2F2F2" d="M-391.9,274.5c0.9,0,1.6,0.1,2.4,0.3c0.7,0.2,1.3,0.5,1.9,0.9c0.5,0.4,0.9,0.9,1.2,1.6
			c0.3,0.7,0.4,1.5,0.4,2.5c0,1.1-0.3,2.1-0.8,2.9c-0.5,0.8-1.3,1.3-2.3,1.6l0,0c1.2,0.2,2.1,0.6,2.8,1.5c0.7,0.8,1,1.9,1,3.3
			c0,0.8-0.1,1.6-0.3,2.3c-0.2,0.7-0.6,1.4-1.1,1.9c-0.5,0.6-1.2,1-2,1.3c-0.8,0.3-1.8,0.5-3.1,0.5h-7.2v-20.8H-391.9z
			 M-393.6,283.1c1.2,0,2-0.2,2.5-0.6s0.8-1.1,0.8-2.1s-0.2-1.7-0.7-2.1s-1.2-0.6-2.3-0.6h-1.5v5.4
			C-394.8,283.1-393.6,283.1-393.6,283.1z M-393.2,292.3c1,0,1.8-0.2,2.4-0.7c0.6-0.4,0.9-1.3,0.9-2.5c0-0.6-0.1-1.1-0.2-1.5
			c-0.2-0.4-0.4-0.7-0.7-1c-0.3-0.2-0.6-0.4-1-0.5s-0.8-0.1-1.3-0.1h-1.7v6.2h1.6V292.3z"/>
		<path fill="#F2F2F2" d="M-373.5,274.5l5.5,20.9h-4.4l-1-4.4h-5.4l-1,4.4h-4.4l5.5-20.9C-378.7,274.5-373.5,274.5-373.5,274.5z
			 M-374,287.5l-2-9.4h-0.1l-2,9.4H-374z"/>
		<path fill="#F2F2F2" d="M-363.1,289.4c0,0.5,0,0.9,0.1,1.3s0.2,0.7,0.4,1c0.2,0.3,0.5,0.5,0.9,0.6c0.4,0.2,0.8,0.2,1.3,0.2
			c0.6,0,1.2-0.2,1.7-0.6s0.8-1.1,0.8-1.9c0-0.5-0.1-0.9-0.2-1.2c-0.1-0.3-0.3-0.6-0.6-0.9c-0.3-0.3-0.7-0.5-1.1-0.7
			c-0.5-0.2-1.1-0.4-1.8-0.7c-0.9-0.3-1.7-0.6-2.4-1c-0.7-0.4-1.2-0.8-1.7-1.3s-0.8-1.1-1-1.7s-0.3-1.4-0.3-2.2c0-2,0.6-3.6,1.7-4.6
			s2.7-1.5,4.7-1.5c0.9,0,1.8,0.1,2.6,0.3c0.8,0.2,1.5,0.5,2,1c0.6,0.5,1,1,1.3,1.7c0.3,0.7,0.5,1.6,0.5,2.5v0.6h-4
			c0-1-0.2-1.7-0.5-2.3c-0.3-0.5-0.9-0.8-1.7-0.8c-0.5,0-0.9,0.1-1.2,0.2c-0.3,0.1-0.6,0.3-0.7,0.5c-0.2,0.2-0.3,0.5-0.4,0.8
			c-0.1,0.3-0.1,0.6-0.1,0.9c0,0.6,0.1,1.2,0.4,1.6c0.3,0.4,0.9,0.8,1.7,1.2l3.2,1.4c0.8,0.3,1.4,0.7,1.9,1.1s0.9,0.8,1.2,1.2
			c0.3,0.4,0.5,0.9,0.6,1.4s0.2,1.1,0.2,1.7c0,2.2-0.6,3.8-1.9,4.8c-1.3,1-3,1.5-5.3,1.5c-2.4,0-4-0.5-5.1-1.5c-1-1-1.5-2.5-1.5-4.4
			v-0.8h4.2v0.6H-363.1z"/>
		<path fill="#F2F2F2" d="M-339.6,278h-7.5v4.9h7.1v3.4h-7.1v5.6h7.8v3.4h-12v-20.9h11.7V278z"/>
	</g>
	<g>
		<path fill="#F2F2F2" d="M-328.1,274.5l3,14.7h0.1l3-14.7h6.2v20.9h-3.8v-16.6h-0.1l-3.7,16.6h-3.2l-3.8-16.6h-0.1v16.6h-3.8v-20.9
			H-328.1z"/>
		<path fill="#F2F2F2" d="M-313.1,280.6c0.1-1.3,0.5-2.5,1-3.4s1.2-1.7,2.1-2.2s2.2-0.8,3.7-0.8s2.8,0.3,3.7,0.8
			c0.9,0.5,1.6,1.3,2.1,2.2s0.8,2.1,1,3.4c0.2,1.3,0.2,2.8,0.2,4.3c0,1.6-0.1,3-0.2,4.4c-0.1,1.3-0.5,2.4-1,3.4
			c-0.5,1-1.2,1.7-2.1,2.2s-2.2,0.8-3.7,0.8s-2.8-0.3-3.7-0.8s-1.6-1.2-2.1-2.2c-0.5-1-0.8-2.1-1-3.4c-0.1-1.3-0.2-2.8-0.2-4.4
			C-313.3,283.4-313.2,281.9-313.1,280.6z M-309,288.5c0.1,1,0.2,1.8,0.4,2.4s0.5,1.1,0.9,1.3c0.4,0.2,0.9,0.4,1.5,0.4
			s1.1-0.1,1.5-0.4c0.4-0.3,0.7-0.7,0.9-1.3c0.2-0.6,0.3-1.4,0.4-2.4s0.1-2.2,0.1-3.6c0-1.4,0-2.6-0.1-3.5c-0.1-1-0.2-1.8-0.4-2.4
			c-0.2-0.6-0.5-1.1-0.9-1.3c-0.4-0.3-0.9-0.4-1.5-0.4s-1.1,0.1-1.5,0.4c-0.4,0.3-0.7,0.7-0.9,1.3c-0.2,0.6-0.3,1.4-0.4,2.4
			s-0.1,2.1-0.1,3.5C-309.1,286.3-309.1,287.5-309,288.5z"/>
		<path fill="#F2F2F2" d="M-289.5,274.5c1.4,0,2.6,0.2,3.5,0.7c0.9,0.5,1.6,1.2,2.1,2c0.5,0.9,0.8,1.9,1,3.2
			c0.2,1.2,0.3,2.6,0.3,4.1c0,1.8-0.1,3.4-0.3,4.7c-0.2,1.3-0.6,2.5-1.1,3.3c-0.5,0.9-1.3,1.5-2.2,1.9c-0.9,0.4-2.1,0.6-3.5,0.6
			h-6.7v-20.7H-289.5z M-290.3,292.3c0.7,0,1.3-0.1,1.8-0.4c0.4-0.3,0.8-0.7,1.1-1.2c0.3-0.6,0.4-1.3,0.5-2.3
			c0.1-0.9,0.1-2.1,0.1-3.5c0-1.2,0-2.2-0.1-3.1c-0.1-0.9-0.2-1.6-0.5-2.2c-0.2-0.6-0.6-1-1.1-1.3s-1.1-0.4-1.9-0.4h-1.7v14.7h1.8
			V292.3z"/>
		<path fill="#F2F2F2" d="M-268.2,278h-7.5v4.9h7.1v3.4h-7.1v5.6h7.8v3.4h-12v-20.9h11.7L-268.2,278L-268.2,278z"/>
		<path fill="#F2F2F2" d="M-265.7,274.5h4.2V292h7.5v3.4h-11.7L-265.7,274.5L-265.7,274.5z"/>
		<path fill="#F2F2F2" d="M-248.8,289.4c0,0.5,0,0.9,0.1,1.3s0.2,0.7,0.4,1c0.2,0.3,0.5,0.5,0.9,0.6c0.4,0.2,0.8,0.2,1.3,0.2
			c0.6,0,1.2-0.2,1.7-0.6c0.5-0.4,0.8-1.1,0.8-1.9c0-0.5-0.1-0.9-0.2-1.2c-0.1-0.3-0.3-0.6-0.6-0.9c-0.3-0.3-0.7-0.5-1.1-0.7
			c-0.5-0.2-1.1-0.4-1.8-0.7c-0.9-0.3-1.7-0.6-2.4-1c-0.7-0.4-1.2-0.8-1.7-1.3s-0.8-1.1-1-1.7s-0.3-1.4-0.3-2.2c0-2,0.6-3.6,1.7-4.6
			c1.1-1,2.7-1.5,4.7-1.5c0.9,0,1.8,0.1,2.6,0.3s1.5,0.5,2,1c0.6,0.5,1,1,1.3,1.7c0.3,0.7,0.5,1.6,0.5,2.5v0.6h-4
			c0-1-0.2-1.7-0.5-2.3c-0.3-0.5-0.9-0.8-1.7-0.8c-0.5,0-0.9,0.1-1.2,0.2c-0.3,0.1-0.6,0.3-0.7,0.5c-0.2,0.2-0.3,0.5-0.4,0.8
			c-0.1,0.3-0.1,0.6-0.1,0.9c0,0.6,0.1,1.2,0.4,1.6c0.3,0.4,0.9,0.8,1.7,1.2l3.2,1.4c0.8,0.3,1.4,0.7,1.9,1.1s0.9,0.8,1.2,1.2
			s0.5,0.9,0.6,1.4s0.2,1.1,0.2,1.7c0,2.2-0.6,3.8-1.9,4.8s-3,1.5-5.3,1.5c-2.4,0-4-0.5-5.1-1.5c-1-1-1.5-2.5-1.5-4.4v-0.8h4.2v0.6
			H-248.8z"/>
	</g>
	<line fill="none" stroke="#F2F2F2" stroke-miterlimit="10" x1="-399" y1="297.2" x2="-239.2" y2="297.2"/>
	<text transform="matrix(1 0 0 1 -355.6222 273.6035)" fill="#F2F2F2" font-family="'HelveticaNeue-CondensedBold'" font-size="12">PRE-DESIGNED</text>
</g>
<text transform="matrix(1 0 0 1 -399.0806 310.3408)" fill="#FFFFFF" font-family="'HelveticaNeue'" font-size="15.2726">SINGLE FAMILY HOME</text>
</svg>
