<?xml version="1.0" encoding="utf-8"?>
<!-- Generator: Adobe Illustrator 18.1.1, SVG Export Plug-In . SVG Version: 6.00 Build 0)  -->
<!DOCTYPE svg PUBLIC "-//W3C//DTD SVG 1.1//EN" "http://www.w3.org/Graphics/SVG/1.1/DTD/svg11.dtd">
<svg version="1.1" id="Layer_1" xmlns="http://www.w3.org/2000/svg" xmlns:xlink="http://www.w3.org/1999/xlink" x="0px" y="0px"
	 width="180px" height="42.2px" viewBox="484.8 260 180 42.2" enable-background="new 484.8 260 180 42.2" xml:space="preserve">
<g id="garages_5_">
	<g enable-background="new    ">
		<path fill="#F2F2F2" d="M492.5,260.2l2.6,12.6h0l2.6-12.6h5.3V278h-3.3v-14.2h0l-3.2,14.2h-2.8l-3.2-14.2h0V278h-3.3v-17.8H492.5z
			"/>
		<path fill="#F2F2F2" d="M505.4,265.3c0.1-1.1,0.4-2.1,0.8-2.9c0.4-0.8,1-1.5,1.8-1.9c0.8-0.5,1.9-0.7,3.2-0.7
			c1.3,0,2.4,0.2,3.2,0.7c0.8,0.5,1.4,1.1,1.8,1.9c0.4,0.8,0.7,1.8,0.8,2.9s0.2,2.4,0.2,3.7c0,1.4-0.1,2.6-0.2,3.8s-0.4,2.1-0.8,2.9
			c-0.4,0.8-1,1.4-1.8,1.9c-0.8,0.4-1.9,0.7-3.2,0.7c-1.4,0-2.4-0.2-3.2-0.7c-0.8-0.4-1.4-1.1-1.8-1.9c-0.4-0.8-0.7-1.8-0.8-2.9
			s-0.2-2.4-0.2-3.8C505.2,267.7,505.3,266.5,505.4,265.3z M508.9,272.1c0.1,0.8,0.2,1.5,0.4,2c0.2,0.5,0.4,0.9,0.8,1.2
			c0.3,0.2,0.8,0.4,1.3,0.4c0.5,0,1-0.1,1.3-0.4c0.3-0.2,0.6-0.6,0.8-1.2c0.2-0.5,0.3-1.2,0.4-2c0.1-0.8,0.1-1.9,0.1-3.1
			s0-2.2-0.1-3c-0.1-0.8-0.2-1.5-0.4-2.1c-0.2-0.5-0.4-0.9-0.8-1.2c-0.3-0.2-0.8-0.4-1.3-0.4c-0.5,0-1,0.1-1.3,0.4
			c-0.3,0.2-0.6,0.6-0.8,1.2c-0.2,0.5-0.3,1.2-0.4,2.1c-0.1,0.8-0.1,1.8-0.1,3S508.8,271.3,508.9,272.1z"/>
		<path fill="#F2F2F2" d="M525.6,260.2c1.2,0,2.3,0.2,3,0.6c0.8,0.4,1.4,1,1.8,1.8c0.4,0.8,0.7,1.7,0.9,2.7s0.2,2.3,0.2,3.6
			c0,1.6-0.1,2.9-0.3,4.1c-0.2,1.2-0.5,2.1-1,2.9c-0.5,0.8-1.1,1.3-1.9,1.7c-0.8,0.4-1.8,0.5-3,0.5h-5.7v-17.8H525.6z M524.9,275.3
			c0.6,0,1.1-0.1,1.5-0.3s0.7-0.6,0.9-1.1s0.4-1.2,0.5-2c0.1-0.8,0.1-1.8,0.1-3c0-1,0-1.9-0.1-2.7c-0.1-0.8-0.2-1.4-0.4-1.9
			c-0.2-0.5-0.5-0.9-0.9-1.2c-0.4-0.3-1-0.4-1.6-0.4h-1.5v12.5H524.9z"/>
		<path fill="#F2F2F2" d="M543.8,263.1h-6.4v4.2h6v3h-6v4.8h6.6v3h-10.2v-17.8h10V263.1z"/>
		<path fill="#F2F2F2" d="M545.9,260.2h3.6V275h6.4v3h-10V260.2z"/>
	</g>
</g>
<g>
	<path fill="#F2F2F2" d="M485.8,291c0-1.4,0.2-2.7,0.6-3.9c0.4-1.2,1-2.3,1.8-3.3c0.8-0.9,1.7-1.7,2.8-2.2s2.4-0.8,3.9-0.8
		c1,0,1.9,0.1,2.8,0.4c0.9,0.3,1.7,0.7,2.4,1.3c0.7,0.6,1.3,1.2,1.8,2c0.5,0.8,0.8,1.7,1,2.7h-1.1c-0.5-1.7-1.3-3-2.4-4
		c-1.2-1-2.6-1.4-4.4-1.4c-1.3,0-2.4,0.3-3.4,0.8c-1,0.5-1.8,1.2-2.5,2s-1.2,1.8-1.5,2.9c-0.3,1.1-0.5,2.3-0.5,3.5
		c0,1.2,0.2,2.4,0.5,3.5s0.8,2,1.5,2.8c0.7,0.8,1.5,1.5,2.5,1.9c1,0.5,2.2,0.7,3.5,0.7c1.2,0,2.2-0.2,3.1-0.6
		c0.9-0.4,1.7-0.9,2.3-1.6c0.6-0.7,1.1-1.5,1.4-2.5s0.5-2,0.4-3.2h-7.1v-1h8.1v9.5h-1v-4.1h-0.1c-0.2,0.7-0.6,1.3-1.1,1.9
		c-0.5,0.6-1,1-1.7,1.4c-0.6,0.4-1.3,0.7-2.1,0.9s-1.6,0.3-2.4,0.3c-1.5,0-2.8-0.3-3.9-0.8c-1.1-0.5-2.1-1.2-2.8-2.1
		c-0.8-0.9-1.4-2-1.8-3.2C486,293.7,485.8,292.4,485.8,291z"/>
	<path fill="#F2F2F2" d="M507.7,281.2v11.6c0,0.4,0,0.8,0.1,1.3c0,0.5,0.1,1,0.3,1.6c0.1,0.5,0.3,1.1,0.6,1.6c0.3,0.5,0.6,1,1.1,1.4
		s1,0.7,1.7,1c0.7,0.2,1.5,0.4,2.4,0.4c1.2,0,2.2-0.2,3-0.5c0.8-0.3,1.4-0.8,1.9-1.4c0.5-0.6,0.9-1.4,1.1-2.3c0.2-0.9,0.3-1.9,0.3-3
		v-11.6h1.2v11.6c0,1.2-0.1,2.2-0.4,3.2c-0.2,1-0.7,1.9-1.2,2.6s-1.3,1.3-2.3,1.7s-2.2,0.6-3.6,0.6c-1.1,0-2.1-0.1-2.9-0.4
		c-0.8-0.3-1.5-0.7-2-1.1c-0.5-0.5-1-1-1.3-1.6c-0.3-0.6-0.5-1.2-0.7-1.8c-0.2-0.6-0.3-1.2-0.3-1.8c0-0.6-0.1-1.1-0.1-1.5v-11.6
		H507.7z"/>
	<path fill="#F2F2F2" d="M524.7,281.2h13v1h-11.8v7.7h11.1v1h-11.1v8.5h11.9v1h-13.1V281.2z"/>
	<path fill="#F2F2F2" d="M552.4,286.7c0-0.8-0.2-1.5-0.5-2.2c-0.3-0.6-0.7-1.1-1.3-1.5s-1.2-0.7-1.9-0.9c-0.7-0.2-1.6-0.3-2.4-0.3
		c-0.5,0-1.1,0.1-1.7,0.2c-0.6,0.1-1.2,0.3-1.7,0.7c-0.5,0.3-1,0.7-1.3,1.3c-0.3,0.5-0.5,1.2-0.5,2c0,0.8,0.2,1.4,0.6,1.9
		c0.4,0.5,0.9,0.9,1.5,1.2c0.6,0.3,1.3,0.5,2.1,0.7c0.8,0.2,1.6,0.4,2.4,0.5c0.8,0.2,1.6,0.4,2.4,0.6c0.8,0.2,1.5,0.5,2.1,0.9
		c0.6,0.4,1.1,0.9,1.5,1.5s0.6,1.4,0.6,2.3c0,1-0.2,1.9-0.6,2.5c-0.4,0.7-1,1.2-1.6,1.7c-0.7,0.4-1.4,0.7-2.2,0.9
		c-0.8,0.2-1.6,0.3-2.3,0.3c-1.1,0-2.2-0.1-3.2-0.4c-1-0.2-1.9-0.6-2.6-1.2c-0.7-0.5-1.3-1.3-1.7-2.1s-0.6-1.9-0.6-3.2h1.2
		c-0.1,1.1,0.1,2,0.5,2.7c0.4,0.7,0.9,1.3,1.5,1.8s1.4,0.8,2.3,1c0.9,0.2,1.8,0.3,2.7,0.3c0.6,0,1.2-0.1,1.8-0.2
		c0.7-0.1,1.3-0.4,1.8-0.7c0.5-0.3,1-0.8,1.4-1.4c0.4-0.6,0.6-1.3,0.6-2.1c0-0.8-0.2-1.5-0.6-2c-0.4-0.5-0.9-0.9-1.5-1.2
		c-0.6-0.3-1.3-0.6-2.1-0.8c-0.8-0.2-1.6-0.4-2.4-0.5c-0.8-0.2-1.6-0.4-2.4-0.6c-0.8-0.2-1.5-0.5-2.1-0.9c-0.6-0.4-1.1-0.8-1.5-1.4
		c-0.4-0.6-0.6-1.3-0.6-2.3s0.2-1.7,0.6-2.4c0.4-0.7,0.9-1.2,1.5-1.6s1.3-0.7,2.1-0.9c0.8-0.2,1.5-0.3,2.3-0.3c1,0,1.9,0.1,2.8,0.3
		c0.9,0.2,1.6,0.6,2.3,1.1c0.7,0.5,1.2,1.1,1.6,1.8c0.4,0.8,0.6,1.7,0.7,2.7H552.4z"/>
	<path fill="#F2F2F2" d="M554.1,282.2v-1h14.8v1h-6.8v18.3h-1.2v-18.3H554.1z"/>
	<path fill="#F2F2F2" d="M577.7,281.2h1.2v8.7h12.3v-8.7h1.2v19.3h-1.2V291h-12.3v9.5h-1.2V281.2z"/>
	<path fill="#F2F2F2" d="M613.3,290.9c0,1.4-0.2,2.7-0.6,4c-0.4,1.2-1,2.3-1.8,3.2c-0.8,0.9-1.7,1.6-2.9,2.1
		c-1.1,0.5-2.4,0.8-3.9,0.8c-1.4,0-2.7-0.3-3.9-0.8c-1.1-0.5-2.1-1.2-2.9-2.1c-0.8-0.9-1.4-2-1.8-3.2c-0.4-1.2-0.6-2.6-0.6-4
		c0-1.4,0.2-2.7,0.6-4c0.4-1.2,1-2.3,1.8-3.2c0.8-0.9,1.7-1.6,2.9-2.1c1.1-0.5,2.4-0.8,3.9-0.8c1.4,0,2.7,0.3,3.9,0.8
		c1.1,0.5,2.1,1.2,2.9,2.1c0.8,0.9,1.4,2,1.8,3.2C613.1,288.1,613.3,289.5,613.3,290.9z M596.2,290.9c0,1.2,0.2,2.4,0.5,3.5
		c0.4,1.1,0.9,2.1,1.6,2.9c0.7,0.8,1.5,1.5,2.5,2c1,0.5,2.1,0.7,3.4,0.7s2.4-0.2,3.4-0.7c1-0.5,1.8-1.1,2.5-2
		c0.7-0.8,1.2-1.8,1.6-2.9c0.4-1.1,0.5-2.3,0.5-3.5c0-1.2-0.2-2.4-0.5-3.5c-0.4-1.1-0.9-2.1-1.6-2.9c-0.7-0.8-1.5-1.5-2.5-2
		c-1-0.5-2.1-0.7-3.4-0.7s-2.4,0.2-3.4,0.7c-1,0.5-1.8,1.1-2.5,2c-0.7,0.8-1.2,1.8-1.6,2.9C596.3,288.4,596.2,289.6,596.2,290.9z"/>
	<path fill="#F2F2F2" d="M617,281.2v11.6c0,0.4,0,0.8,0.1,1.3c0,0.5,0.1,1,0.3,1.6c0.1,0.5,0.3,1.1,0.6,1.6c0.3,0.5,0.6,1,1.1,1.4
		s1,0.7,1.7,1c0.7,0.2,1.5,0.4,2.4,0.4c1.2,0,2.2-0.2,3-0.5c0.8-0.3,1.4-0.8,1.9-1.4c0.5-0.6,0.9-1.4,1.1-2.3c0.2-0.9,0.3-1.9,0.3-3
		v-11.6h1.2v11.6c0,1.2-0.1,2.2-0.4,3.2c-0.2,1-0.7,1.9-1.2,2.6s-1.3,1.3-2.3,1.7s-2.2,0.6-3.6,0.6c-1.1,0-2.1-0.1-2.9-0.4
		c-0.8-0.3-1.5-0.7-2-1.1c-0.5-0.5-1-1-1.3-1.6c-0.3-0.6-0.5-1.2-0.7-1.8c-0.2-0.6-0.3-1.2-0.3-1.8c0-0.6-0.1-1.1-0.1-1.5v-11.6H617
		z"/>
	<path fill="#F2F2F2" d="M646.6,286.7c0-0.8-0.2-1.5-0.5-2.2c-0.3-0.6-0.7-1.1-1.3-1.5s-1.2-0.7-1.9-0.9c-0.7-0.2-1.6-0.3-2.4-0.3
		c-0.5,0-1.1,0.1-1.7,0.2c-0.6,0.1-1.2,0.3-1.7,0.7c-0.5,0.3-1,0.7-1.3,1.3c-0.3,0.5-0.5,1.2-0.5,2c0,0.8,0.2,1.4,0.6,1.9
		c0.4,0.5,0.9,0.9,1.5,1.2c0.6,0.3,1.3,0.5,2.1,0.7c0.8,0.2,1.6,0.4,2.4,0.5c0.8,0.2,1.6,0.4,2.4,0.6c0.8,0.2,1.5,0.5,2.1,0.9
		c0.6,0.4,1.1,0.9,1.5,1.5s0.6,1.4,0.6,2.3c0,1-0.2,1.9-0.6,2.5c-0.4,0.7-1,1.2-1.6,1.7c-0.7,0.4-1.4,0.7-2.2,0.9
		c-0.8,0.2-1.6,0.3-2.3,0.3c-1.1,0-2.2-0.1-3.2-0.4c-1-0.2-1.9-0.6-2.6-1.2c-0.7-0.5-1.3-1.3-1.7-2.1s-0.6-1.9-0.6-3.2h1.2
		c-0.1,1.1,0.1,2,0.5,2.7c0.4,0.7,0.9,1.3,1.5,1.8s1.4,0.8,2.3,1c0.9,0.2,1.8,0.3,2.7,0.3c0.6,0,1.2-0.1,1.8-0.2
		c0.7-0.1,1.3-0.4,1.8-0.7c0.5-0.3,1-0.8,1.4-1.4c0.4-0.6,0.6-1.3,0.6-2.1c0-0.8-0.2-1.5-0.6-2c-0.4-0.5-0.9-0.9-1.5-1.2
		c-0.6-0.3-1.3-0.6-2.1-0.8c-0.8-0.2-1.6-0.4-2.4-0.5c-0.8-0.2-1.6-0.4-2.4-0.6c-0.8-0.2-1.5-0.5-2.1-0.9c-0.6-0.4-1.1-0.8-1.5-1.4
		c-0.4-0.6-0.6-1.3-0.6-2.3s0.2-1.7,0.6-2.4c0.4-0.7,0.9-1.2,1.5-1.6s1.3-0.7,2.1-0.9c0.8-0.2,1.5-0.3,2.3-0.3c1,0,1.9,0.1,2.8,0.3
		c0.9,0.2,1.6,0.6,2.3,1.1c0.7,0.5,1.2,1.1,1.6,1.8c0.4,0.8,0.6,1.7,0.7,2.7H646.6z"/>
	<path fill="#F2F2F2" d="M651,281.2h13v1h-11.8v7.7h11.1v1h-11.1v8.5h11.9v1H651V281.2z"/>
</g>
</svg>
