<?xml version="1.0" encoding="utf-8"?>
<!-- Generator: Adobe Illustrator 18.1.1, SVG Export Plug-In . SVG Version: 6.00 Build 0)  -->
<!DOCTYPE svg PUBLIC "-//W3C//DTD SVG 1.1//EN" "http://www.w3.org/Graphics/SVG/1.1/DTD/svg11.dtd">
<svg version="1.1" id="Layer_1" xmlns="http://www.w3.org/2000/svg" xmlns:xlink="http://www.w3.org/1999/xlink" x="0px" y="0px"
	 width="100.2px" height="42.2px" viewBox="-54.7 260 100.2 42.2" enable-background="new -54.7 260 100.2 42.2"
	 xml:space="preserve">
<g id="garages_2_">
	<g enable-background="new    ">
		<path fill="#F2F2F2" d="M-47.3,260.7l2.6,12.6h0l2.6-12.6h5.3v17.8h-3.3v-14.2h0l-3.2,14.2h-2.8l-3.2-14.2h0v14.2h-3.3v-17.8
			H-47.3z"/>
		<path fill="#F2F2F2" d="M-34.4,265.9c0.1-1.1,0.4-2.1,0.8-2.9c0.4-0.8,1-1.5,1.8-1.9c0.8-0.5,1.9-0.7,3.2-0.7
			c1.3,0,2.4,0.2,3.2,0.7c0.8,0.5,1.4,1.1,1.8,1.9c0.4,0.8,0.7,1.8,0.8,2.9s0.2,2.4,0.2,3.7c0,1.4-0.1,2.6-0.2,3.8s-0.4,2.1-0.8,2.9
			c-0.4,0.8-1,1.4-1.8,1.9c-0.8,0.4-1.9,0.7-3.2,0.7c-1.4,0-2.4-0.2-3.2-0.7c-0.8-0.4-1.4-1.1-1.8-1.9c-0.4-0.8-0.7-1.8-0.8-2.9
			s-0.2-2.4-0.2-3.8C-34.6,268.3-34.6,267-34.4,265.9z M-30.9,272.7c0.1,0.8,0.2,1.5,0.4,2c0.2,0.5,0.4,0.9,0.8,1.2
			c0.3,0.2,0.8,0.4,1.3,0.4c0.5,0,1-0.1,1.3-0.4c0.3-0.2,0.6-0.6,0.8-1.2c0.2-0.5,0.3-1.2,0.4-2c0.1-0.8,0.1-1.9,0.1-3.1
			s0-2.2-0.1-3c-0.1-0.8-0.2-1.5-0.4-2.1c-0.2-0.5-0.4-0.9-0.8-1.2c-0.3-0.2-0.8-0.4-1.3-0.4c-0.5,0-1,0.1-1.3,0.4
			c-0.3,0.2-0.6,0.6-0.8,1.2c-0.2,0.5-0.3,1.2-0.4,2.1c-0.1,0.8-0.1,1.8-0.1,3S-31,271.8-30.9,272.7z"/>
		<path fill="#F2F2F2" d="M-14.3,260.7c1.2,0,2.3,0.2,3,0.6c0.8,0.4,1.4,1,1.8,1.8c0.4,0.8,0.7,1.7,0.9,2.7s0.2,2.3,0.2,3.6
			c0,1.6-0.1,2.9-0.3,4.1c-0.2,1.2-0.5,2.1-1,2.9c-0.5,0.8-1.1,1.3-1.9,1.7c-0.8,0.4-1.8,0.5-3,0.5h-5.7v-17.8H-14.3z M-15,275.9
			c0.6,0,1.1-0.1,1.5-0.3s0.7-0.6,0.9-1.1s0.4-1.2,0.5-2c0.1-0.8,0.1-1.8,0.1-3c0-1,0-1.9-0.1-2.7c-0.1-0.8-0.2-1.4-0.4-1.9
			c-0.2-0.5-0.5-0.9-0.9-1.2c-0.4-0.3-1-0.4-1.6-0.4h-1.5v12.5H-15z"/>
		<path fill="#F2F2F2" d="M4,263.7h-6.4v4.2h6v3h-6v4.8h6.6v3H-6v-17.8H4V263.7z"/>
		<path fill="#F2F2F2" d="M6,260.7h3.6v14.9H16v3H6V260.7z"/>
	</g>
</g>
<g enable-background="new    ">
	<path fill="#F2F2F2" d="M-53.2,280.8h8.6c0.9,0,1.8,0.1,2.6,0.3c0.8,0.2,1.5,0.5,2.1,0.9s1.1,1,1.4,1.6c0.3,0.7,0.5,1.5,0.5,2.5
		c0,1.4-0.4,2.6-1.2,3.5c-0.8,1-1.9,1.6-3.3,1.8v0.1c0.9,0.1,1.7,0.4,2.2,0.8s1,0.9,1.2,1.4c0.3,0.6,0.4,1.2,0.5,1.9s0.1,1.4,0.1,2
		c0,0.4,0,0.8,0,1.2s0,0.7,0.1,1.1c0,0.3,0.1,0.7,0.2,0.9s0.2,0.5,0.4,0.7h-1.4c-0.3-0.5-0.4-1-0.4-1.7s0-1.3,0-2s0-1.4-0.1-2.1
		c-0.1-0.7-0.2-1.3-0.6-1.8c-0.3-0.5-0.8-1-1.5-1.3c-0.7-0.3-1.6-0.5-2.8-0.5h-7.4v9.4h-1.3V280.8z M-44.5,291
		c0.8,0,1.5-0.1,2.1-0.3c0.6-0.2,1.2-0.5,1.7-0.9c0.5-0.4,0.8-0.9,1.1-1.5c0.3-0.6,0.4-1.3,0.4-2.1c0-0.8-0.1-1.4-0.4-2
		s-0.7-1-1.2-1.3c-0.5-0.3-1-0.6-1.7-0.8c-0.6-0.2-1.3-0.2-2-0.2h-7.4v9.1H-44.5z"/>
	<path fill="#F2F2F2" d="M-34.9,280.8H-21v1.1h-12.6v8.3h11.9v1.1h-11.9v9.1h12.8v1.1h-14.1V280.8z"/>
	<path fill="#F2F2F2" d="M-18.7,280.8h1.6l13.1,19h0.1v-19h1.3v20.7h-1.5l-13.2-19.1h-0.1v19.1h-1.3V280.8z"/>
	<path fill="#F2F2F2" d="M-1.2,281.9v-1.1h15.9v1.1H7.3v19.6H6v-19.6H-1.2z"/>
	<path fill="#F2F2F2" d="M19.9,280.8h1.4l8.2,20.7h-1.4l-2.6-6.6h-9.9l-2.6,6.6h-1.4L19.9,280.8z M25.1,293.8l-4.4-11.7h-0.1
		L16,293.8H25.1z"/>
	<path fill="#F2F2F2" d="M31,280.8h1.3v19.6H44v1.1H31V280.8z"/>
</g>
</svg>
