<?xml version="1.0" encoding="utf-8"?>
<!-- Generator: Adobe Illustrator 18.1.1, SVG Export Plug-In . SVG Version: 6.00 Build 0)  -->
<!DOCTYPE svg PUBLIC "-//W3C//DTD SVG 1.1//EN" "http://www.w3.org/Graphics/SVG/1.1/DTD/svg11.dtd">
<svg version="1.1" xmlns="http://www.w3.org/2000/svg" xmlns:xlink="http://www.w3.org/1999/xlink" x="0px" y="0px" width="159.8px"
	 height="33.5px" viewBox="0 0 159.8 33.5" enable-background="new 0 0 159.8 33.5" xml:space="preserve">
<g id="landing1">
	<rect x="1699.5" y="295.2" fill="#EBEBEB" width="190.5" height="263.7"/>
	<rect x="610" y="295.3" fill="#EBEBEB" width="190.5" height="263.7"/>
	<line fill="none" stroke="#999999" stroke-miterlimit="10" x1="1248.5" y1="315.2" x2="1248.5" y2="559.2"/>
	<g id="Main_Body">
		<linearGradient id="SVGID_1_" gradientUnits="userSpaceOnUse" x1="1250" y1="-202.8333" x2="1250" y2="597.1667">
			<stop  offset="0" style="stop-color:#FFFFFF"/>
			<stop  offset="1" style="stop-color:#F2F2F2"/>
		</linearGradient>
		
			<rect x="610" y="-202.8" display="none" fill="url(#SVGID_1_)" stroke="#000000" stroke-miterlimit="10" width="1280" height="800"/>
		<g>
			<defs>
				<rect id="SVGID_2_" x="611" y="-201.8" width="1279" height="497.1"/>
			</defs>
			<clipPath id="SVGID_3_">
				<use xlink:href="#SVGID_2_"  overflow="visible"/>
			</clipPath>
			<g clip-path="url(#SVGID_3_)">
				
					<image overflow="visible" width="4096" height="2160" xlink:href="../../../../Dropbox/Client Account Files/Sollars Home/Graphics/Stock Images/Product Families/Single Story Home Product Images_Rev2/White Eichler.jpg"  transform="matrix(0.3344 0 0 0.3178 555.0113 -136.0059)">
				</image>
			</g>
			<rect x="611" y="-188.2" opacity="0.96" clip-path="url(#SVGID_3_)" fill="#F2F2F2" width="1279" height="203.9"/>
		</g>
		<g>
			
				<image overflow="visible" opacity="0.6" width="1286" height="68" xlink:href="73888A8D45CA2E9A.png"  transform="matrix(1 0 0 1 607 -204.8333)">
			</image>
			<g>
				<rect x="610" y="-202.8" fill="#FFFFFF" width="1280" height="61.1"/>
			</g>
		</g>
		<line fill="none" stroke="#4CAF50" stroke-width="4" stroke-miterlimit="10" x1="609" y1="14.2" x2="1889" y2="14.2"/>
		<path fill="#D0D2D3" d="M1249.9-162.9l3.2,9.5c0,0,2.2,1.4,2.8,1.5c0.6,0,2.9,0,2.9,0s-3.2-8.3-3.8-8.9c-0.6-0.6-3.3-1.6-3.3-1.6"
			/>
		<path fill="#D0D2D3" d="M1253.4-175.8v8.7c0,0-0.8,2.3-1.1,2.8c-0.3,0.5-2.2,1.4-2.2,1.4s0.9-0.1,1.6-0.3c0.7-0.2,3.2-0.6,4.7-2.7
			c1.4-2.1,1.4-5.8,1-6.6c-0.4-0.8-2.8-3-2.8-3"/>
		<polyline fill="#D0D2D3" points="1240.4,-175.8 1240.4,-151.9 1244.8,-151.9 1244.8,-176.4 		"/>
		<path fill="#D0D2D3" d="M1224.3-176.3l7.7,24.4h4.7l-7.8-23.3c0,0-1.2-1.3-2.5-1.5"/>
		<path fill="#D0D2D3" d="M1369.6-176.3h4.1v24.4c0,0-3.9-0.3-3.9-1.9s-0.2-3-0.2-3"/>
		<path fill="#D0D2D3" d="M1341.6-176.3l6.6,23.3c0,0,1.5,1.1,2.1,1.4c0.6,0.3,1.9,0,1.9,0l0.2-0.3l-5.7-22.8c0,0-1.6-1.3-2.1-1.5"
			/>
		<polyline fill="#D0D2D3" points="1359.7,-174.2 1360.2,-176.3 1363.6,-176.3 1363.6,-151.6 1359.3,-151.6 		"/>
		<path fill="#D0D2D3" d="M1332.1-153.8v-16.6c0,0-0.4-2.4-1.4-3.4c-0.9-1-2.6-2.2-2.6-2.2s3.9,0.9,5.2,2.6
			c1.4,1.7,3.3,6.2,3.3,10.1C1336.7-157.7,1332.4-154.1,1332.1-153.8z"/>
		<path fill="#D0D2D3" d="M1318.4-174.1v16.7c0,0,0.4,2.4,1.4,3.4c0.9,1,2.6,2.2,2.6,2.2s-3.9-0.9-5.2-2.6
			c-1.4-1.7-3.3-6.2-3.3-10.1C1313.9-170.2,1318.2-173.8,1318.4-174.1z"/>
		<path fill="#D0D2D3" d="M1169.6-154v-16.7c0,0-0.4-2.4-1.4-3.4c-0.9-1-2.6-2.2-2.6-2.2s3.9,0.9,5.2,2.6c1.4,1.7,3.3,6.2,3.3,10.1
			C1174.2-157.9,1169.9-154.3,1169.6-154z"/>
		<path fill="#D0D2D3" d="M1155.9-174.4v16.7c0,0,0.4,2.4,1.4,3.4c0.9,1,2.6,2.2,2.6,2.2s-3.9-0.9-5.2-2.6
			c-1.4-1.7-3.3-6.2-3.3-10.1C1151.3-170.4,1155.7-174,1155.9-174.4z"/>
		<rect x="1198.9" y="-176.3" fill="#D0D2D3" width="3.9" height="24.4"/>
		<rect x="1179.2" y="-176.3" fill="#D0D2D3" width="3.9" height="24.4"/>
		<rect x="1289.7" y="-176.5" fill="#D0D2D3" width="3.9" height="24.8"/>
		<polygon fill="#D0D2D3" points="1308.7,-151.7 1306.7,-151.5 1304.9,-152.4 1304.8,-176.5 1308.7,-176.5 		"/>
		<path fill="#D0D2D3" d="M1130.7-158.3c0,0,0.2-0.7,1.9,0.4c1.7,1.1,1.3,1.3,1.7,1.8c0.6,0.7,1.7,3.4,2,3.4s1.7,0.9,1.7,0.9
			s-3.1-0.4-4.6-1.5c-1.6-1.1-2.5-2.6-2.5-2.6l-0.1-2"/>
		<path fill="#D0D2D3" d="M1134.5-175c0,0-2.7,2.3-1.5,4.2c1.1,1.9,2.1,2.2,2.1,2.2l2.8,0.9l7.4,3.2c0,0,2.5,3.6,2.6,4.5
			c0.1,0.9-0.5,4.9-1.6,5.9c-1.1,1-0.8,0.6-0.8,0.6s1.2-2.1,0.7-4.1s-1.5-2.8-2.4-3.2c-0.9-0.4-7.6-2.4-9.8-4.1
			c-2.2-1.6-3.3-3-2.7-5.9c0.6-2.9,0.2-2.5,0.9-3.3s2.2-1.5,2.2-1.5"/>
		<polyline fill="#D0D2D3" points="1143.4,-176 1143.4,-171.5 1144,-170.1 1145.5,-169.5 1146.3,-170.2 1147.3,-171 1147.7,-172.6 
			1146.9,-174.2 1145.6,-175.4 		"/>
		<path fill="#D0D2D3" d="M1261.6-158.5c0,0,0.2-0.7,1.9,0.4c1.7,1.1,1.3,1.3,1.7,1.8c0.6,0.7,1.7,3.4,2,3.4s1.7,0.9,1.7,0.9
			s-3.1-0.4-4.6-1.5c-1.5-1.1-2.5-2.6-2.5-2.6l-0.1-2"/>
		<path fill="#D0D2D3" d="M1265.5-174.9c0,0-2.7,2.3-1.5,4.2c1.1,1.9,2.1,2.2,2.1,2.2l2.8,0.9l7.4,3.2c0,0,2.5,3.6,2.6,4.5
			c0.1,0.9-0.5,4.9-1.6,5.9s-0.8,0.6-0.8,0.6s1.2-2.1,0.7-4.1s-1.5-2.8-2.4-3.2c-0.9-0.4-7.6-2.4-9.8-4.1c-2.2-1.6-3.3-3-2.7-5.9
			c0.6-2.9,0.2-2.5,0.9-3.3c0.7-0.8,2.2-1.5,2.2-1.5"/>
		<path fill="#231F20" d="M1143.1-175.9c-1.3-0.4-2.7-0.6-4-0.6c-3.9,0-6.4,2.6-6.4,4.8c0,1.2,0.9,2.5,3.1,3.3l6.7,2.5
			c3.8,1.4,5.5,4,5.5,7.4c0,4-2.9,7.2-8.2,7.2c-5.4,0-9.7-2.5-9.7-7.4h0.9c4.7,0,3,6.9,9,6.9c4,0,6-2.4,6-4.6c0-1.6-0.7-3.3-3.1-4.2
			l-6.8-2.5c-3.7-1.4-5.3-4-5.3-6.6c0-3.6,2.8-7.2,8.2-7.2c4.2,0,8.6,1.8,8.6,4.8c0,1.8-1.2,2.6-2.3,2.6c-1.2,0-2.3-0.9-2.3-2.6
			v-3.8H1143.1z M1131.1-158.3h-0.4c0,3.3,3.4,5.9,6.6,6.3C1134.6-153.2,1134.4-158.3,1131.1-158.3z M1142.6-165.5l-6.8-2.5
			c-2.2-0.8-3.4-2.3-3.4-3.7c0-1,0.5-2.2,1.7-3.3c-1.4,0.9-2.6,2.8-2.6,5.3c0,2.4,1.4,4.9,5,6.2l6.6,2.5c2.7,1,3.6,3,3.6,4.7
			c0,1-0.3,1.7-0.8,2.4c1.1-0.9,1.8-3,1.8-4.6C1147.6-161.8,1145.9-164.3,1142.6-165.5z M1143.6-175.8v3.7c0,1.4,1,2.2,1.9,2.2
			c0.9,0,1.8-0.7,1.8-2.2C1147.3-173.8,1145.6-175.1,1143.6-175.8z"/>
		<path fill="#231F20" d="M1151.2-164.1c0-6.4,3.9-12.8,11.6-12.8c7.7,0,11.6,6.4,11.6,12.7c0,6.4-3.9,12.8-11.6,12.8
			C1155-151.4,1151.2-157.8,1151.2-164.1z M1155.7-158.7V-174c-2.7,2.3-4.1,6.1-4.1,9.9c0,6,3.1,10.2,7.3,11.7
			C1157-153.6,1155.7-155.6,1155.7-158.7z M1169.3-154v-15.7c0-4.6-3.2-6.9-6.6-6.9c-2.7,0-4.9,0.8-6.6,2.2v15.7
			c0,4.6,3.2,6.9,6.6,6.9C1165.4-151.8,1167.6-152.6,1169.3-154z M1169.8-154.4c2.7-2.3,4.1-6,4.1-9.9c0-6-3.1-10.2-7.3-11.7
			c2,1.2,3.2,3.2,3.2,6.3V-154.4z"/>
		<path fill="#231F20" d="M1195.8-151.7h-16.9v-25h4.6v24.6h12.2L1195.8-151.7L1195.8-151.7z M1179.4-176.3v24.2h3.7v-24.2H1179.4z"
			/>
		<path fill="#231F20" d="M1215.3-151.7h-16.9v-25h4.6v24.6h12.2L1215.3-151.7L1215.3-151.7z M1198.9-176.3v24.2h3.7v-24.2H1198.9z"
			/>
		<path fill="#231F20" d="M1223.5-175.2c0.4-1.2,1.3-1.8,2.6-1.8c1.4,0,2.5,0.7,3,2.1l7.7,23.2h-5l-3-9.4h-9.3l-3,9.4h-0.5
			L1223.5-175.2z M1219.6-161.5h9.1l-4.5-14.4L1219.6-161.5z M1232.2-152.1h4l-7.6-22.8c-0.4-1.2-1.3-1.7-2.6-1.7
			c-0.5,0-1,0.1-1.4,0.4L1232.2-152.1z"/>
		<path fill="#231F20" d="M1240.2-175.9c2.1-0.5,5.4-1,7.7-1c5.8,0,10.2,2.2,10.2,7.5c0,3.2-2,5.9-6.3,6.7c2.2,0.5,3.7,1.9,4.7,4.3
			l2.6,6.8h-2c-2.3,0-3.7-0.8-4.4-2.9l-2.8-8.1h-4.9v11h-4.6v-24.3H1240.2z M1244.4-152.1v-24.2c-1.4,0.2-2.8,0.4-3.7,0.7v23.5
			H1244.4z M1253.2-168.4v-7.3c-1.5-0.6-3.4-0.8-5.3-0.8c-0.9,0-2,0.1-3,0.2v13.3h3.2C1251.5-163.1,1253.2-164.6,1253.2-168.4z
			 M1253-154.6c0.6,1.7,1.8,2.5,4,2.5h1.3l-2.4-6.4c-1.1-2.8-3.3-4.2-5.7-4.2L1253-154.6z M1253.6-175.5v7.1c0,2.4-0.6,4.4-2.9,5.4
			c4.1-0.3,6.8-2.8,6.8-6.4C1257.6-172.5,1256-174.5,1253.6-175.5z"/>
		<path fill="#231F20" d="M1274.1-175.9c-1.3-0.4-2.7-0.6-4-0.6c-3.9,0-6.4,2.6-6.4,4.8c0,1.2,0.9,2.5,3.1,3.3l6.7,2.5
			c3.8,1.4,5.5,4,5.5,7.4c0,4-2.9,7.2-8.2,7.2c-5.4,0-9.7-2.5-9.7-7.4h0.9c4.7,0,3,6.9,9,6.9c4,0,6-2.4,6-4.6c0-1.6-0.7-3.3-3.1-4.2
			l-6.8-2.5c-3.7-1.4-5.3-4-5.3-6.6c0-3.6,2.8-7.2,8.2-7.2c4.2,0,8.6,1.8,8.6,4.8c0,1.8-1.2,2.6-2.3,2.6c-1.2,0-2.3-0.9-2.3-2.6
			L1274.1-175.9L1274.1-175.9z M1262.1-158.3h-0.5c0,3.3,3.4,5.9,6.6,6.3C1265.6-153.2,1265.4-158.3,1262.1-158.3z M1273.6-165.5
			l-6.8-2.5c-2.2-0.8-3.4-2.3-3.4-3.7c0-1,0.5-2.2,1.7-3.3c-1.4,0.9-2.6,2.8-2.6,5.3c0,2.4,1.4,4.9,5,6.2l6.6,2.5
			c2.7,1,3.6,3,3.6,4.7c0,1-0.3,1.7-0.8,2.4c1.1-0.9,1.8-3,1.8-4.6C1278.6-161.8,1276.9-164.3,1273.6-165.5z M1274.6-175.8v3.7
			c0,1.4,1,2.2,1.9,2.2c0.9,0,1.8-0.7,1.8-2.2C1278.3-173.8,1276.6-175.1,1274.6-175.8z"/>
		<path fill="#231F20" d="M1304.4-163.6h-10.5v12.1h-4.6v-25h4.6v12.5h10.5v-12.6h4.6v25c-0.7,0.2-1.2,0.3-1.8,0.3
			c-1.6,0-2.8-0.8-2.8-3.3V-163.6z M1289.8-176.2v24.2h3.7v-24.2H1289.8z M1304.9-176.2v21.6c0,1.9,0.9,2.8,2.4,2.8
			c0.4,0,0.9,0,1.3-0.2v-24.2H1304.9z"/>
		<path fill="#231F20" d="M1313.6-164c0-6.4,3.9-12.8,11.6-12.8c7.7,0,11.6,6.4,11.6,12.7c0,6.4-3.9,12.8-11.6,12.8
			C1317.5-151.3,1313.6-157.6,1313.6-164z M1318.2-158.6v-15.3c-2.7,2.3-4.1,6.1-4.1,9.9c0,6,3.1,10.2,7.3,11.7
			C1319.5-153.5,1318.2-155.4,1318.2-158.6z M1331.8-153.9v-15.6c0-4.6-3.2-6.9-6.6-6.9c-2.7,0-4.9,0.8-6.6,2.2v15.7
			c0,4.6,3.2,6.9,6.6,6.9C1327.9-151.7,1330.1-152.5,1331.8-153.9z M1332.3-154.2c2.7-2.3,4.1-6,4.1-9.9c0-6-3.1-10.2-7.3-11.7
			c2,1.2,3.2,3.2,3.2,6.3V-154.2z"/>
		<path fill="#231F20" d="M1359.3-151.6v-21.1l-6.7,21.2c-0.5,0.2-0.9,0.3-1.3,0.3c-2,0-3-0.9-3.7-3.4l-5.7-20.2v23.4h-0.5v-25h0.8
			c3,0,4.2,0.3,5,3.4l5.3,20.6l7.5-24h3.9v25h-4.6V-151.6z M1352.2-151.8l-5.5-21.4c-0.7-2.5-1.6-3-4.5-3h-0.3l6,21.5
			c0.6,2.2,1.5,3,3.2,3C1351.6-151.7,1351.9-151.7,1352.2-151.8z M1359.7-174.2v22.2h3.7v-24.2h-3.1L1359.7-174.2z"/>
		<path fill="#231F20" d="M1385.3-176.2h-11.4v12.1h9.9v0.4h-9.9v11.6h11.9v0.4h-11.9c-2.9,0-4.6-1.7-4.6-4.6v-20.3h16.1
			L1385.3-176.2L1385.3-176.2z M1373.4-152v-24.2h-3.7v20C1369.7-153.3,1371.5-152.2,1373.4-152z"/>
		<path fill="#81BB41" d="M1161.4-167.9c0,0-0.1,0.4-0.2,1.1c-0.1,0.6-0.3,1.1-0.6,1.4c-0.3,0.4-0.6,0.7-1.1,0.8
			c-0.3,0.1-0.6,0.1-0.9,0c-0.2-0.1-0.3-0.2-0.4-0.4c-0.1,0-0.2,0-0.3-0.1c-0.2-0.1-0.3-0.3-0.3-0.6c0.2-1.1,1-2,2.3-2.5
			c0.7-0.3,1.3-0.4,1.9-0.4C1161.8-168.4,1161.6-168.2,1161.4-167.9z M1158.3-165c-0.6,0.4-1.2,0.6-2,0.5L1158.3-165z M1158.9-162.9
			c-0.5-0.4-1.1-0.7-1.8-0.9c-0.4-0.1-0.7-0.2-0.9-0.2L1158.9-162.9z M1162.9-158.1c0,0,0-0.6-0.1-1.7c0-0.9-0.2-1.6-0.5-2.2
			c-0.3-0.7-0.8-1.1-1.4-1.4c-0.4-0.2-0.8-0.3-1.2-0.2c-0.2,0-0.4,0.1-0.5,0.3c-0.1,0.1-0.1,0.2-0.1,0.3c-0.1,0-0.3,0-0.4,0
			c-0.3,0.1-0.5,0.4-0.5,0.9c0,1.7,1,3.1,2.8,4.1c0.9,0.5,1.8,0.9,2.7,1C1163.2-157.2,1163-157.6,1162.9-158.1z"/>
		<path fill="#81BB41" d="M1185.6-156.3c0,0,0.4,0.1,1.1,0.1c0.6,0.1,1,0.2,1.4,0.4c0.4,0.2,0.7,0.6,0.8,1c0.1,0.3,0.1,0.6,0.1,0.8
			c0,0.2-0.2,0.3-0.4,0.4c0,0.1,0,0.2,0,0.3c-0.1,0.2-0.3,0.3-0.6,0.3c-1.1-0.1-1.9-0.8-2.5-2c-0.3-0.6-0.5-1.2-0.5-1.8
			C1185-156.5,1185.3-156.4,1185.6-156.3z M1188.5-153.5c0.4,0.5,0.6,1.1,0.6,1.9L1188.5-153.5z M1190.5-154.2
			c-0.4,0.5-0.6,1.1-0.8,1.8c-0.1,0.3-0.1,0.7-0.1,0.9L1190.5-154.2z M1194.7-158.3c0,0-0.6,0.1-1.6,0.2c-0.8,0.1-1.5,0.3-2.1,0.6
			c-0.6,0.3-1,0.8-1.2,1.4c-0.2,0.4-0.2,0.8-0.1,1.2c0,0.2,0.1,0.3,0.3,0.5c0.1,0.1,0.2,0.1,0.2,0.1c0,0.1,0,0.3,0.1,0.4
			c0.1,0.3,0.4,0.4,0.9,0.5c1.6-0.2,2.9-1.1,3.7-2.9c0.4-0.9,0.7-1.8,0.8-2.7C1195.6-158.7,1195.2-158.5,1194.7-158.3z"/>
		<path fill="#81BB41" d="M1352.8-170c0,0,0.2-0.2,0.7-0.7c0.4-0.4,0.7-0.6,1.1-0.7c0.4-0.2,0.8-0.2,1.1,0c0.3,0.1,0.5,0.2,0.6,0.4
			c0.1,0.1,0.1,0.3,0.1,0.5c0.1,0,0.1,0.1,0.2,0.2c0.1,0.2,0,0.4-0.1,0.6c-0.7,0.7-1.6,0.9-2.8,0.7c-0.6-0.1-1.1-0.3-1.6-0.6
			C1352.3-169.8,1352.5-169.8,1352.8-170z M1356.3-170.5c0.6,0,1.1,0.2,1.6,0.6L1356.3-170.5z M1356.9-172.3c0.1,0.5,0.4,1,0.8,1.5
			c0.2,0.2,0.4,0.4,0.6,0.6L1356.9-172.3z M1356.3-177.5c0,0-0.2,0.4-0.7,1.2c-0.4,0.6-0.6,1.2-0.7,1.8c-0.1,0.6,0,1.1,0.3,1.6
			c0.2,0.3,0.5,0.6,0.8,0.7c0.2,0.1,0.3,0.1,0.5,0c0.1,0,0.2-0.1,0.2-0.1c0.1,0.1,0.2,0.2,0.3,0.2c0.3,0.1,0.5-0.1,0.8-0.4
			c0.8-1.2,0.8-2.6,0-4.2c-0.4-0.8-0.9-1.5-1.4-2C1356.5-178.3,1356.5-178,1356.3-177.5z"/>
		<path fill="#81BB41" d="M1132.1-173.6c-0.2,0.1-0.4,0.3-0.6,0.5c-0.3,0.3-0.5,0.4-0.6,0.5c-0.5,0.4-1,0.6-1.5,0.6
			c-0.4,0-0.9,0-1.8-0.2c-0.8-0.1-1.4-0.2-1.9-0.1c0.6-0.1,1-0.4,1.3-0.9c0.4-0.8,0.7-1.2,0.8-1.3c0.8-0.7,2-0.6,3.7,0.1
			c-0.7-0.2-1.3-0.2-2,0.1c-0.6,0.2-1.1,0.6-1.5,1.1c0.6-0.4,1.3-0.7,2.1-0.7c0.8-0.1,1.5,0,2.3,0.2L1132.1-173.6z M1131.7-175.2
			c-0.2,0-0.5,0-0.9,0c-0.5,0-0.7,0-0.8,0c-0.6,0-1.2-0.1-1.7-0.4c-0.3-0.2-0.7-0.6-1.3-1.1c-0.5-0.5-1-0.9-1.5-1.1
			c0.5,0.3,1.1,0.3,1.7,0.1c0.9-0.3,1.4-0.5,1.6-0.5c1.1-0.1,2.1,0.7,2.9,2.2c-0.4-0.5-0.9-0.9-1.7-1.1c-0.7-0.2-1.4-0.2-2-0.1
			c0.8,0.1,1.6,0.3,2.3,0.7c0.7,0.4,1.3,0.8,1.7,1.4L1131.7-175.2z M1132.2-176.5c-0.1-0.2-0.3-0.4-0.6-0.6
			c-0.3-0.3-0.5-0.5-0.6-0.5c-0.4-0.4-0.7-0.9-0.8-1.4c0-0.3,0-0.8,0.1-1.5c0.1-0.7,0.1-1.2,0-1.6c0.1,0.5,0.5,0.9,1.1,1.2
			c0.9,0.4,1.4,0.7,1.5,0.8c0.8,0.7,0.8,1.8,0,3.2c0.2-0.6,0.1-1.1-0.2-1.7s-0.7-1-1.3-1.4c0.5,0.6,0.8,1.2,1,1.9
			c0.1,0.7,0.1,1.3-0.2,2V-176.5z M1134.6-176.1c0.2-0.1,0.4-0.2,0.7-0.4c0.4-0.2,0.6-0.3,0.7-0.3c0.5-0.3,0.9-0.6,1.1-1
			c0.1-0.3,0.3-0.8,0.3-1.5c0.1-0.7,0.2-1.2,0.5-1.5c-0.2,0.4-0.7,0.7-1.4,0.8c-1,0.1-1.5,0.2-1.7,0.3c-1,0.4-1.3,1.4-1,3.1
			c0-0.6,0.2-1.1,0.7-1.6c0.4-0.4,1-0.7,1.7-0.9c-0.6,0.4-1.1,0.9-1.5,1.5c-0.3,0.6-0.5,1.3-0.4,1.9L1134.6-176.1z"/>
		<path fill="#81BB41" d="M1200.9-176.8c-0.1,0-0.2-0.1-0.4-0.1c-0.2-0.1-0.3-0.1-0.4-0.1c-0.3-0.1-0.5-0.2-0.7-0.5
			c-0.1-0.1-0.3-0.4-0.5-0.8c-0.2-0.4-0.4-0.7-0.6-0.8c0.2,0.2,0.5,0.3,0.8,0.3c0.5-0.1,0.7-0.1,0.8-0.1c0.5,0.1,0.9,0.7,1.1,1.7
			c-0.1-0.3-0.3-0.6-0.6-0.8c-0.3-0.2-0.6-0.3-0.9-0.3c0.4,0.1,0.7,0.4,1,0.7c0.3,0.3,0.5,0.7,0.6,1.1L1200.9-176.8z M1201.5-177.5
			c-0.1-0.1-0.2-0.2-0.3-0.4c-0.2-0.2-0.2-0.3-0.3-0.4c-0.2-0.3-0.3-0.6-0.3-0.9c0-0.2,0-0.5,0.1-0.9s0.1-0.7,0-1
			c0,0.3,0.2,0.6,0.5,0.8c0.4,0.3,0.7,0.5,0.7,0.6c0.4,0.5,0.4,1.1-0.1,1.9c0.1-0.3,0.1-0.7-0.1-1c-0.1-0.4-0.3-0.7-0.6-0.9
			c0.2,0.4,0.4,0.8,0.4,1.2c0.1,0.4,0,0.8-0.1,1.2L1201.5-177.5z M1202.2-177.6c0-0.1,0.1-0.3,0.1-0.4c0-0.2,0-0.4,0-0.4
			c0.1-0.3,0.2-0.6,0.4-0.8c0.1-0.1,0.4-0.3,0.7-0.4c0.3-0.2,0.6-0.3,0.7-0.5c-0.2,0.2-0.2,0.5-0.2,0.8c0.1,0.5,0.1,0.8,0.1,0.9
			c-0.1,0.6-0.5,0.9-1.4,1c0.3-0.1,0.5-0.3,0.7-0.6c0.2-0.3,0.2-0.6,0.2-1c-0.1,0.4-0.3,0.7-0.5,1c-0.3,0.3-0.6,0.5-0.9,0.5
			L1202.2-177.6z M1202.8-176.5c0.1,0,0.2,0.1,0.4,0.2c0.2,0.1,0.3,0.2,0.4,0.2c0.3,0.2,0.6,0.2,0.8,0.2c0.2,0,0.4-0.1,0.8-0.3
			c0.3-0.2,0.6-0.3,0.8-0.3c-0.3,0-0.5-0.1-0.8-0.4c-0.3-0.4-0.6-0.6-0.6-0.7c-0.5-0.3-1-0.1-1.6,0.5c0.2-0.2,0.5-0.3,0.9-0.2
			c0.3,0.1,0.6,0.2,0.9,0.5c-0.4-0.2-0.7-0.2-1.1-0.2s-0.7,0.2-1,0.4L1202.8-176.5z"/>
		<path fill="#81BB41" d="M1320.1-153.1c0-0.6,0.2-1.1,0.3-1.6c0.1-0.3,0.3-0.6,0.5-0.8c0.2-0.2,0.5-0.4,0.7-0.6
			c0.3-0.2,0.6-0.3,1-0.5c0.4-0.1,0.7-0.2,0.6-0.2c0.3-0.1,0.7-0.2,0.9-0.4c0.2-0.1,0.5-0.3,0.8-0.4c0.2-0.1,0.3-0.2,0.3-0.2
			s-0.1,0-0.3,0.2c-0.3,0.1-0.5,0.2-0.8,0.3c-0.3,0.1-0.6,0.2-0.9,0.2c-0.3,0.1-0.5,0.1-0.7,0.2c-0.5,0.2-0.8,0.3-1.1,0.5
			c-0.6,0.4-1.1,0.9-1.5,1.4c-0.2,0.3-0.3,0.7-0.4,1.1c-0.2-0.1-0.4-0.3-0.4-0.6c-0.1-0.4,0-0.9,0.1-1.4c0.3-0.7,0.7-1.3,1.5-1.6
			c0.7-0.4,1.5-0.6,2.5-0.7c1.2-0.2,1.9-0.2,1.9-0.3c0.6-0.2,1-0.5,1.2-0.8c-0.1,1-0.4,2-1,3.1c-0.5,0.9-1,1.6-1.7,2.2
			c-0.8,0.7-1.8,1.1-2.8,1.2C1320.6-152.7,1320.3-152.9,1320.1-153.1z"/>
		<path fill="#81BB41" d="M1225.2-161.6c-0.4-0.2-0.6-0.4-0.9-0.6c-0.2-0.2-0.3-0.4-0.3-0.6c-0.1-0.2-0.1-0.4-0.1-0.6s0-0.5,0-0.7
			c0-0.3,0-0.5,0-0.5c0-0.2,0-0.5,0-0.7s0-0.4,0-0.6s0-0.3,0-0.2c0,0,0,0.1,0,0.2c0,0.2,0,0.4,0,0.6s0,0.4-0.1,0.6
			c0,0.2-0.1,0.3-0.1,0.5c0,0.3,0,0.6,0,0.8c0,0.5,0.2,0.9,0.5,1.3c0.1,0.2,0.3,0.4,0.6,0.5c-0.1,0.1-0.3,0.2-0.5,0.1
			c-0.3-0.1-0.5-0.2-0.8-0.5c-0.4-0.4-0.6-0.8-0.6-1.4c0-0.5,0.1-1.1,0.3-1.7c0.3-0.8,0.4-1.2,0.4-1.2c0.1-0.4,0-0.7-0.2-1
			c0.6,0.4,1.1,0.8,1.6,1.4c0.4,0.5,0.7,1.1,0.9,1.6c0.2,0.7,0.2,1.4-0.1,2.1C1225.6-161.8,1225.4-161.7,1225.2-161.6z"/>
		<path fill="#81BB41" d="M1299.9-172.7c0-0.3-0.1-0.6-0.3-0.7c-0.2-0.2-0.5-0.4-1-0.6c1.1,0,2,0.5,2.8,1.5c0.8,1,1,2,0.9,3
			c0.1-0.1,0.2-0.3,0.3-0.6s0.2-0.5,0.3-0.6c0.2,0.7,0.3,1.4,0.2,2.1c-0.1,0.8-0.4,1.4-0.9,1.9c0.2,0,0.4,0,0.6-0.2
			c0.1-0.1,0.4-0.3,0.7-0.7c-0.6,1.3-1.6,2.6-3.1,3.7c0.6-1.6,0.9-2.6,0.9-2.9c0.1-1-0.1-1.9-0.7-3c0.4,0.9,0.5,2,0.3,3.2
			c-0.2,1.2-0.8,2.2-1.6,2.8c0-0.3-0.4-1.1-1-2.3c-0.5-0.9-0.6-1.8-0.4-2.6c0.2,0.1,0.5,0.5,1,1.2s0.8,1.1,1.1,1.1
			c-0.2-0.2-0.8-1.1-1.7-2.8c0,0,0.1-0.1,0.3-0.3c0.2-0.3,0.4-0.6,0.6-0.9C1299.7-171.3,1300-172.1,1299.9-172.7z"/>
		<path fill="#81BB41" d="M1238.2-180.7c-0.1-0.1-0.2-0.2-0.4-0.3c-0.2,0-0.4,0-0.7,0c0.6-0.4,1.2-0.4,1.9-0.2
			c0.7,0.2,1.2,0.6,1.4,1.2c0-0.1,0-0.2-0.1-0.4c0-0.2-0.1-0.3-0.1-0.4c0.4,0.3,0.6,0.6,0.8,1c0.2,0.4,0.3,0.9,0.2,1.3
			c0.1,0,0.2-0.1,0.2-0.3c0-0.1,0.1-0.3,0.1-0.6c0.2,0.9,0,1.9-0.3,3c-0.2-1-0.4-1.6-0.5-1.8c-0.3-0.5-0.7-1-1.4-1.3
			c0.5,0.3,0.9,0.8,1.2,1.5c0.3,0.7,0.3,1.4,0.2,2c-0.1-0.1-0.5-0.4-1.3-0.8c-0.6-0.3-0.9-0.7-1.1-1.2c0.1,0,0.4,0.1,0.9,0.3
			c0.5,0.2,0.8,0.3,0.9,0.2c-0.2,0-0.8-0.3-1.8-0.9c0,0,0-0.1,0-0.3c0-0.2,0-0.4,0-0.7C1238.5-179.9,1238.4-180.4,1238.2-180.7z"/>
		<path fill="#81BB41" d="M1380.4-158.1c0.2-0.2,0.3-0.5,0.4-0.7c0-0.3,0-0.6-0.2-1.1c0.7,0.8,1,1.8,0.8,3.1
			c-0.2,1.2-0.7,2.1-1.6,2.7c0.2,0,0.4-0.1,0.6-0.2c0.3-0.1,0.5-0.2,0.6-0.2c-0.4,0.7-0.8,1.2-1.4,1.6c-0.6,0.5-1.3,0.7-2,0.7
			c0.1,0.2,0.3,0.2,0.5,0.3c0.2,0,0.5,0,0.9,0c-1.4,0.5-3,0.6-4.9,0.3c1.6-0.7,2.5-1.1,2.7-1.3c0.8-0.6,1.3-1.4,1.6-2.6
			c-0.4,0.9-1,1.7-2.1,2.4c-1.1,0.7-2.1,0.9-3.1,0.8c0.2-0.2,0.5-1,1-2.3c0.4-1,0.9-1.7,1.6-2.1c0.1,0.2,0,0.7-0.2,1.5
			c-0.2,0.8-0.2,1.4-0.1,1.6c0-0.3,0.3-1.3,0.9-3.2c0,0,0.2,0,0.4,0c0.3,0,0.7-0.1,1-0.2C1379.3-157.3,1380-157.6,1380.4-158.1z"/>
		<g>
			<path d="M1388.2-176.4h-1.1v-0.4h2.7v0.4h-1.1v3.2h-0.5V-176.4z"/>
			<path d="M1393.3-174.7c0-0.5-0.1-1.1-0.1-1.6l0,0c-0.1,0.4-0.3,0.9-0.5,1.4l-0.6,1.8h-0.4l-0.6-1.7c-0.2-0.5-0.3-1-0.4-1.4l0,0
				c0,0.5,0,1.1-0.1,1.6l-0.1,1.6h-0.4l0.3-3.6h0.6l0.6,1.8c0.2,0.4,0.3,0.8,0.4,1.2l0,0c0.1-0.4,0.2-0.8,0.4-1.2l0.6-1.8h0.6
				l0.2,3.6h-0.5V-174.7z"/>
		</g>
		<line fill="none" stroke="#999999" stroke-miterlimit="10" x1="1699.5" y1="295.2" x2="1699.5" y2="559.2"/>
		<line fill="none" stroke="#999999" stroke-miterlimit="10" x1="799.5" y1="295.2" x2="799.5" y2="559.2"/>
		<rect x="1775.6" y="-202.8" fill="#4CAF50" width="58.5" height="61.1"/>
		<path fill="#4CAF50" d="M1750.3-168.9h-6v18h-9v-12h-9v12h-9v-18h-6l19.7-19.3L1750.3-168.9z"/>
		<path fill="#FFFFFF" d="M1797.3-183.6v6c0,0.4-0.1,0.8-0.4,1.1c-0.3,0.3-0.6,0.4-1.1,0.4h-6c-0.4,0-0.8-0.1-1.1-0.4
			c-0.3-0.3-0.4-0.6-0.4-1.1v-6c0-0.4,0.1-0.8,0.4-1.1c0.3-0.3,0.6-0.4,1.1-0.4h6c0.4,0,0.8,0.1,1.1,0.4
			C1797.2-184.4,1797.3-184,1797.3-183.6z M1797.3-171.6v6c0,0.4-0.1,0.8-0.4,1.1c-0.3,0.3-0.6,0.4-1.1,0.4h-6
			c-0.4,0-0.8-0.1-1.1-0.4c-0.3-0.3-0.4-0.6-0.4-1.1v-6c0-0.4,0.1-0.8,0.4-1.1c0.3-0.3,0.6-0.4,1.1-0.4h6c0.4,0,0.8,0.1,1.1,0.4
			C1797.2-172.4,1797.3-172,1797.3-171.6z M1797.3-159.6v6c0,0.4-0.1,0.8-0.4,1.1c-0.3,0.3-0.6,0.4-1.1,0.4h-6
			c-0.4,0-0.8-0.1-1.1-0.4c-0.3-0.3-0.4-0.6-0.4-1.1v-6c0-0.4,0.1-0.8,0.4-1.1c0.3-0.3,0.6-0.4,1.1-0.4h6c0.4,0,0.8,0.1,1.1,0.4
			C1797.2-160.4,1797.3-160,1797.3-159.6z M1809.3-183.6v6c0,0.4-0.1,0.8-0.4,1.1c-0.3,0.3-0.6,0.4-1.1,0.4h-6
			c-0.4,0-0.8-0.1-1.1-0.4c-0.3-0.3-0.4-0.6-0.4-1.1v-6c0-0.4,0.1-0.8,0.4-1.1c0.3-0.3,0.6-0.4,1.1-0.4h6c0.4,0,0.8,0.1,1.1,0.4
			C1809.2-184.4,1809.3-184,1809.3-183.6z M1809.3-171.6v6c0,0.4-0.1,0.8-0.4,1.1c-0.3,0.3-0.6,0.4-1.1,0.4h-6
			c-0.4,0-0.8-0.1-1.1-0.4c-0.3-0.3-0.4-0.6-0.4-1.1v-6c0-0.4,0.1-0.8,0.4-1.1c0.3-0.3,0.6-0.4,1.1-0.4h6c0.4,0,0.8,0.1,1.1,0.4
			C1809.2-172.4,1809.3-172,1809.3-171.6z M1809.3-159.6v6c0,0.4-0.1,0.8-0.4,1.1c-0.3,0.3-0.6,0.4-1.1,0.4h-6
			c-0.4,0-0.8-0.1-1.1-0.4c-0.3-0.3-0.4-0.6-0.4-1.1v-6c0-0.4,0.1-0.8,0.4-1.1c0.3-0.3,0.6-0.4,1.1-0.4h6c0.4,0,0.8,0.1,1.1,0.4
			C1809.2-160.4,1809.3-160,1809.3-159.6z M1821.3-183.6v6c0,0.4-0.1,0.8-0.4,1.1c-0.3,0.3-0.6,0.4-1.1,0.4h-6
			c-0.4,0-0.8-0.1-1.1-0.4c-0.3-0.3-0.4-0.6-0.4-1.1v-6c0-0.4,0.1-0.8,0.4-1.1c0.3-0.3,0.6-0.4,1.1-0.4h6c0.4,0,0.8,0.1,1.1,0.4
			C1821.2-184.4,1821.3-184,1821.3-183.6z M1821.3-171.6v6c0,0.4-0.1,0.8-0.4,1.1c-0.3,0.3-0.6,0.4-1.1,0.4h-6
			c-0.4,0-0.8-0.1-1.1-0.4c-0.3-0.3-0.4-0.6-0.4-1.1v-6c0-0.4,0.1-0.8,0.4-1.1c0.3-0.3,0.6-0.4,1.1-0.4h6c0.4,0,0.8,0.1,1.1,0.4
			C1821.2-172.4,1821.3-172,1821.3-171.6z M1821.3-159.6v6c0,0.4-0.1,0.8-0.4,1.1c-0.3,0.3-0.6,0.4-1.1,0.4h-6
			c-0.4,0-0.8-0.1-1.1-0.4c-0.3-0.3-0.4-0.6-0.4-1.1v-6c0-0.4,0.1-0.8,0.4-1.1c0.3-0.3,0.6-0.4,1.1-0.4h6c0.4,0,0.8,0.1,1.1,0.4
			C1821.2-160.4,1821.3-160,1821.3-159.6z"/>
		<rect x="610" y="558.8" fill="#727272" width="1280" height="38.3"/>
		<path fill="#4CAF50" d="M1262.5,574.3v7.4c0,2.7-1,4.9-2.9,6.9c-1.9,1.9-4.2,2.9-6.9,2.9h-7.4c-2.7,0-5-1-6.9-2.9
			c-1.9-1.9-2.9-4.2-2.9-6.9v-7.4c0-2.7,1-5,2.9-6.9c1.9-1.9,4.2-2.9,6.9-2.9h7.4c2.7,0,5,1,6.9,2.9
			C1261.5,569.3,1262.5,571.6,1262.5,574.3z M1257.6,584.1v-12.3c0-0.7-0.2-1.2-0.7-1.7c-0.5-0.5-1.1-0.7-1.7-0.7h-12.3
			c-0.7,0-1.2,0.2-1.7,0.7c-0.5,0.5-0.7,1.1-0.7,1.7v12.3c0,0.7,0.2,1.2,0.7,1.7c0.5,0.5,1.1,0.7,1.7,0.7h12.3
			c0.7,0,1.2-0.2,1.7-0.7C1257.3,585.4,1257.6,584.8,1257.6,584.1z M1249,573.5l-6.1,8.2h12.3L1249,573.5z"/>
		<line fill="none" stroke="#4CAF50" stroke-width="4" stroke-miterlimit="10" x1="610" y1="295.2" x2="1890" y2="295.2"/>
		<path fill="#4CAF50" d="M1351.7,331H1146c-5.6,0-10.1-4.5-10.1-10.1v-29.8c0-5.6,4.5-10.1,10.1-10.1h205.8
			c5.6,0,10.1,4.5,10.1,10.1v29.8C1361.9,326.5,1357.3,331,1351.7,331z"/>
		<text transform="matrix(1 0 0 1 1180.9537 315.2507)" fill="#FFFFFF" font-family="'HelveticaNeue-Medium'" font-size="26">WELCOME</text>
	</g>
	<g id="info_icons">
		<path fill="#4CAF50" d="M1012.8,419.7c3.8-2.2,8-3.4,12.5-3.4c4.5,0,8.7,1.1,12.5,3.4c3.8,2.2,6.9,5.3,9.1,9.1
			c2.2,3.8,3.4,8,3.4,12.5c0,4.5-1.1,8.7-3.4,12.5c-2.2,3.8-5.3,6.9-9.1,9.1c-3.8,2.2-8,3.4-12.5,3.4c-4.5,0-8.7-1.1-12.5-3.4
			c-3.8-2.2-6.9-5.3-9.1-9.1c-2.2-3.8-3.4-8-3.4-12.5c0-4.5,1.1-8.7,3.4-12.5C1006,425,1009,422,1012.8,419.7z M1037.6,429.1
			c-3.4-3.4-7.5-5.1-12.3-5.1c-4.8,0-8.9,1.7-12.3,5.1c-3.4,3.4-5.1,7.5-5.1,12.3c0,4.8,1.7,8.9,5.1,12.3c3.4,3.4,7.5,5.1,12.3,5.1
			c4.8,0,8.9-1.7,12.3-5.1c3.4-3.4,5.1-7.5,5.1-12.3C1042.7,436.6,1041,432.5,1037.6,429.1z M1013.2,437.3c0.4-0.4,1-0.6,1.6-0.6
			c0.6,0,1.2,0.2,1.6,0.7c0.4,0.4,0.7,1,0.7,1.6c0,0.6-0.2,1.2-0.7,1.6c-0.4,0.4-1,0.7-1.6,0.7c-0.6,0-1.1-0.2-1.6-0.7
			c-0.4-0.4-0.7-1-0.7-1.6C1012.6,438.2,1012.8,437.7,1013.2,437.3z M1019.5,428.4c0.6,0,1.1,0.2,1.6,0.7c0.4,0.4,0.7,1,0.7,1.6
			c0,0.6-0.2,1.2-0.7,1.6c-0.4,0.4-1,0.7-1.6,0.7c-0.6,0-1.2-0.2-1.6-0.7c-0.4-0.5-0.7-1-0.7-1.6c0-0.6,0.2-1.2,0.7-1.6
			C1018.3,428.6,1018.8,428.4,1019.5,428.4z M1030.1,431.9L1030.1,431.9c-0.2-0.4-0.3-0.8-0.3-1.2c0-0.6,0.2-1.2,0.7-1.6
			c0.4-0.5,1-0.7,1.6-0.7c0.6,0,1.1,0.2,1.6,0.7c0.4,0.4,0.7,1,0.7,1.6c0,0.6-0.2,1.2-0.7,1.6c-0.4,0.4-1,0.7-1.6,0.7
			c-0.4,0-0.8-0.1-1.2-0.4l-2.3,6.1c0.5,0.6,0.7,1.3,0.7,2.1c0,1-0.4,1.9-1.1,2.6c-0.7,0.7-1.6,1.1-2.6,1.1c-1,0-1.9-0.4-2.6-1.1
			c-0.7-0.7-1.1-1.6-1.1-2.6c0-0.9,0.3-1.7,0.9-2.4c0.6-0.7,1.3-1.1,2.2-1.2L1030.1,431.9z M1034.6,437.3c0.4-0.4,1-0.7,1.6-0.7
			c0.6,0,1.2,0.2,1.6,0.6c0.4,0.4,0.7,1,0.7,1.6c0,0.6-0.2,1.2-0.7,1.6c-0.4,0.4-1,0.7-1.6,0.7c-0.6,0-1.2-0.2-1.6-0.7
			c-0.4-0.4-0.7-1-0.7-1.6C1033.9,438.3,1034.2,437.7,1034.6,437.3z"/>
		<text transform="matrix(1 0 0 1 955.6827 405.2487)" fill="#727272" font-family="'HelveticaNeue-CondensedBold'" font-size="32">Dashboard</text>
		
			<text transform="matrix(1 0 0 1 1423.6827 405.2487)" fill="#727272" font-family="'HelveticaNeue-CondensedBold'" font-size="32">Contact</text>
		<path fill="#4CAF50" d="M1473.6,442.7l-25-25.1h50L1473.6,442.7z M1448.6,425.9v25l12.5-12.5L1448.6,425.9z M1473.6,450.9
			l-8.3-8.3l-16.7,16.7h50l-16.7-16.7L1473.6,450.9z M1486.1,438.4l12.5,12.5v-25L1486.1,438.4z"/>
		<text transform="matrix(1 0 0 1 989.6017 -42.2307)" fill="#727272" font-family="'HelveticaNeue-UltraLight'" font-size="49">PRE-DESIGNED MODELS</text>
		
			<text transform="matrix(1 0 0 1 1176.8538 -79.7291)" fill="#4CAF50" font-family="'HelveticaNeue-CondensedBold'" font-size="28">INTERACTIVE</text>
		<text transform="matrix(1 0 0 1 1911 -31.082)" fill="#727272" font-family="'HelveticaNeue-UltraLight'" font-size="49">PRE-DESIGNED MODELS</text>
		<text transform="matrix(1 0 0 1 2098.252 -68.5803)" fill="#4CAF50" font-family="'HelveticaNeue-CondensedBold'" font-size="28">INTERACTIVE</text>
	</g>
	<rect x="1890.5" y="-420.4" fill="#298EFD" width="157.5" height="131.7"/>
</g>
<g id="nav-Modal">
	<rect x="610" y="-202.8" opacity="0.85" width="1280" height="800"/>
	<g id="p1" opacity="0.85">
		
			<image overflow="visible" opacity="0.82" width="329" height="174" xlink:href="73888A8D45CA2E98.png"  transform="matrix(1 0 0 1 741 -158.8333)">
		</image>
		<g>
			<g>
				<defs>
					<rect id="home-img_17_" x="803.2" y="-119" width="219" height="91.8"/>
				</defs>
				<use xlink:href="#home_x002D_img_17_"  overflow="visible"/>
				<clipPath id="home-img_12_">
					<use xlink:href="#home_x002D_img_17_"  overflow="visible"/>
				</clipPath>
				<g clip-path="url(#home-img_12_)">
					
						<image overflow="visible" width="2000" height="1000" xlink:href="../../../../Dropbox/Client Account Files/Sollars Home/Product Images_Rev2/Single Family Home_1.jpg"  transform="matrix(0.155 0 0 0.155 750.6249 -150.5402)">
					</image>
				</g>
			</g>
		</g>
	</g>
	<g id="p2">
		
			<image overflow="visible" opacity="0.82" width="348" height="183" xlink:href="73888A8D45CA2E99.png"  transform="matrix(1 0 0 1 1079 -172.8333)">
		</image>
		<g>
			<g>
				<defs>
					<rect id="home-img_18_" x="1141.5" y="-119" width="219" height="91.8"/>
				</defs>
				<clipPath id="home-img_13_">
					<use xlink:href="#home_x002D_img_18_"  overflow="visible"/>
				</clipPath>
				<g clip-path="url(#home-img_13_)">
					
						<image overflow="visible" width="2000" height="1000" xlink:href="../../../../Dropbox/Client Account Files/Sollars Home/Product Images_Rev2/Guest House Gable Roof_After2.jpg"  transform="matrix(0.1645 0 0 0.1645 1088.6307 -164.3792)">
					</image>
				</g>
			</g>
		</g>
	</g>
	<g id="p3">
		
			<image overflow="visible" opacity="0.82" width="338" height="179" xlink:href="73888A8D45CA2E89.png"  transform="matrix(1 0 0 1 1415 -164.8333)">
		</image>
		<g>
			<g>
				<defs>
					<rect id="home-img_19_" x="1476.2" y="-119" width="219" height="91.8"/>
				</defs>
				<clipPath id="home-img_14_">
					<use xlink:href="#home_x002D_img_19_"  overflow="visible"/>
				</clipPath>
				<g clip-path="url(#home-img_14_)">
					
						<image overflow="visible" width="2000" height="1000" xlink:href="../../../../Dropbox/Client Account Files/Sollars Home/Product Images_Rev2/Office_Workshop_Studio_1.jpg"  transform="matrix(0.1595 0 0 0.1595 1424.5215 -156.1467)">
					</image>
				</g>
			</g>
		</g>
	</g>
	<g id="p4">
		
			<image overflow="visible" opacity="0.82" width="293" height="156" xlink:href="73888A8D45CA2E8B.png"  transform="matrix(1 0 0 1 776 164.1667)">
		</image>
		<g>
			<g>
				<defs>
					<rect id="home-img_16_" x="799.5" y="209.5" width="219" height="91.8"/>
				</defs>
				<clipPath id="home-img_15_">
					<use xlink:href="#home_x002D_img_16_"  overflow="visible"/>
				</clipPath>
				<g transform="matrix(1 0 0 1 -6.103516e-05 0)" clip-path="url(#home-img_15_)">
					
						<image overflow="visible" width="2000" height="1000" xlink:href="../../../../Dropbox/Client Account Files/Sollars Home/Product Images_Rev2/Rental Studio 16x26_1.jpg"  transform="matrix(0.1369 0 0 0.1369 785.4051 172.6986)">
					</image>
				</g>
			</g>
		</g>
	</g>
	<g id="p5">
		
			<image overflow="visible" opacity="0.82" width="303" height="161" xlink:href="B2BC066B1638BB45.png"  transform="matrix(1 0 0 1 1084.4059 169.6333)">
		</image>
		<g>
			<g>
				<defs>
					<rect id="home-img_21_" x="1140.4" y="209.5" width="219" height="91.8"/>
				</defs>
				<clipPath id="home-img_20_">
					<use xlink:href="#home_x002D_img_21_"  overflow="visible"/>
				</clipPath>
				<g clip-path="url(#home-img_20_)">
					
						<image overflow="visible" width="2000" height="1000" xlink:href="../../../../Dropbox/Client Account Files/Sollars Home/Product Images_Rev2/3car_garage_1.jpg"  transform="matrix(0.142 0 0 0.142 1093.9595 177.6721)">
					</image>
				</g>
			</g>
		</g>
	</g>
	<g id="p6">
		
			<image overflow="visible" opacity="0.82" width="295" height="164" xlink:href="B2BC066B1638BB5C.png"  transform="matrix(1 0 0 1 1434.6167 159.1162)">
		</image>
		<g>
			<g>
				<defs>
					<rect id="home-img_23_" x="1475.2" y="209.5" width="219" height="91.8"/>
				</defs>
				<clipPath id="home-img_22_">
					<use xlink:href="#home_x002D_img_23_"  overflow="visible"/>
				</clipPath>
				<g transform="matrix(1 0 0 1 0 0)" clip-path="url(#home-img_22_)">
					
						<image overflow="visible" width="4096" height="2160" xlink:href="../../../../Dropbox/Client Account Files/Sollars Home/Product Families/Pool House Product Images_rev1/Pool House Product 1/736 SF beach villa.jpg"  transform="matrix(6.723011e-02 0 0 6.723010e-02 1444.5895 167.6711)">
					</image>
				</g>
			</g>
		</g>
	</g>
	<g id="Main">
		
			<text transform="matrix(1 0 0 1 1147.6537 -165.7259)" fill="#FFFFFF" font-family="'HelveticaNeue-CondensedBold'" font-size="33">CHOSE A MODEL</text>
		<line fill="none" stroke="#FFFFFF" stroke-width="3" stroke-miterlimit="10" x1="799" y1="-151.3" x2="1702" y2="-151.3"/>
		<rect id="home-img" x="1142.3" y="-119" fill="none" stroke="#4CAF50" stroke-miterlimit="10" width="219" height="91.8"/>
		<rect id="home-img_1_" x="1476.6" y="-119" fill="none" stroke="#4CAF50" stroke-miterlimit="10" width="219" height="91.8"/>
		<rect id="home-img_2_" x="803.2" y="-119" fill="none" stroke="#4CAF50" stroke-miterlimit="10" width="219" height="91.8"/>
		<g>
			
				<text transform="matrix(1 0 0 1 821.1711 17.7091)" fill="#FFFFFF" font-family="'HelveticaNeue-Medium'" font-size="28" letter-spacing="5">Product 1</text>
		</g>
		<rect x="798.3" y="33.6" fill="none" width="222.7" height="208.2"/>
		<text transform="matrix(1 0 0 1 818.0128 45.7228)"><tspan x="0" y="0" fill="#FFFFFF" font-family="'HelveticaNeue-ThinItalic'" font-size="17" letter-spacing="3">Temporibus autem </tspan><tspan x="-14.2" y="20.4" fill="#FFFFFF" font-family="'HelveticaNeue-ThinItalic'" font-size="17" letter-spacing="3">quibusdam et aut of</tspan><tspan x="191.5" y="20.4" fill="#FFFFFF" font-family="'HelveticaNeue-ThinItalic'" font-size="17" letter-spacing="3">-</tspan><tspan x="9.7" y="40.8" fill="#FFFFFF" font-family="'HelveticaNeue-ThinItalic'" font-size="17" letter-spacing="3">ficiis debitis aut </tspan><tspan x="-13.4" y="61.2" fill="#FFFFFF" font-family="'HelveticaNeue-ThinItalic'" font-size="17" letter-spacing="3">rerum necessitatibus </tspan><tspan x="-5.9" y="81.6" fill="#FFFFFF" font-family="'HelveticaNeue-ThinItalic'" font-size="17" letter-spacing="3">saepe eveniet ut et </tspan><tspan x="36.5" y="102" fill="#FFFFFF" font-family="'HelveticaNeue-ThinItalic'" font-size="17" letter-spacing="3">voluptates.</tspan><tspan x="-19.7" y="142.8" fill="#FFFFFF" font-family="'HelveticaNeue'" font-size="17" letter-spacing="3">Go to</tspan></text>
		<path fill="#4CAF50" d="M1002.3,170.6c2.3,0,4.3,0.6,6.3,1.7c1.9,1.1,3.4,2.6,4.5,4.6c1.1,1.9,1.7,4,1.7,6.3
			c0,2.3-0.6,4.3-1.7,6.3c-1.1,1.9-2.6,3.4-4.5,4.5c-1.9,1.1-4,1.7-6.3,1.7s-4.4-0.6-6.3-1.7c-1.9-1.1-3.4-2.6-4.6-4.5
			c-1.1-1.9-1.7-4-1.7-6.3c0-1.7,0.3-3.3,1-4.9c0.7-1.5,1.6-2.9,2.7-4c1.1-1.1,2.4-2,4-2.7C999,170.9,1000.6,170.6,1002.3,170.6z
			 M1002.2,180.9h-6.2v4.2h6.3l0,4.1l8.4-6.2l-8.4-6.2V180.9z"/>
		<rect id="home-img_3_" x="799.5" y="209.5" fill="none" stroke="#4CAF50" stroke-miterlimit="10" width="219" height="91.8"/>
		<g>
			
				<text transform="matrix(1 0 0 1 822.1518 351.1758)" fill="#FFFFFF" font-family="'HelveticaNeue-Medium'" font-size="28" letter-spacing="5">Product 4</text>
		</g>
		<g>
			<rect x="799" y="367.1" fill="none" width="222.7" height="208.2"/>
			<text transform="matrix(1 0 0 1 818.7187 379.1895)"><tspan x="0" y="0" fill="#FFFFFF" font-family="'HelveticaNeue-ThinItalic'" font-size="17" letter-spacing="3">Temporibus autem </tspan><tspan x="-14.2" y="20.4" fill="#FFFFFF" font-family="'HelveticaNeue-ThinItalic'" font-size="17" letter-spacing="3">quibusdam et aut of</tspan><tspan x="191.5" y="20.4" fill="#FFFFFF" font-family="'HelveticaNeue-ThinItalic'" font-size="17" letter-spacing="3">-</tspan><tspan x="9.7" y="40.8" fill="#FFFFFF" font-family="'HelveticaNeue-ThinItalic'" font-size="17" letter-spacing="3">ficiis debitis aut </tspan><tspan x="-13.4" y="61.2" fill="#FFFFFF" font-family="'HelveticaNeue-ThinItalic'" font-size="17" letter-spacing="3">rerum necessitatibus </tspan><tspan x="-5.9" y="81.6" fill="#FFFFFF" font-family="'HelveticaNeue-ThinItalic'" font-size="17" letter-spacing="3">saepe eveniet ut et </tspan><tspan x="36.5" y="102" fill="#FFFFFF" font-family="'HelveticaNeue-ThinItalic'" font-size="17" letter-spacing="3">voluptates.</tspan><tspan x="-19.7" y="142.8" fill="#FFFFFF" font-family="'HelveticaNeue-ThinItalic'" font-size="17" letter-spacing="3">Go to</tspan></text>
		</g>
		<path fill="#4CAF50" d="M1002.3,505c2.3,0,4.3,0.6,6.3,1.7c1.9,1.1,3.4,2.6,4.5,4.6c1.1,1.9,1.7,4,1.7,6.3c0,2.3-0.6,4.3-1.7,6.3
			s-2.6,3.4-4.5,4.5c-1.9,1.1-4,1.7-6.3,1.7c-2.3,0-4.4-0.6-6.3-1.7c-1.9-1.1-3.4-2.6-4.6-4.5s-1.7-4-1.7-6.3c0-1.7,0.3-3.3,1-4.9
			c0.7-1.5,1.6-2.9,2.7-4c1.1-1.1,2.4-2,4-2.7C999,505.4,1000.6,505,1002.3,505z M1002.2,515.4h-6.2v4.2h6.3l0,4.1l8.4-6.2l-8.4-6.2
			V515.4z"/>
		<rect id="home-img_4_" x="1139.7" y="209.5" fill="none" stroke="#4CAF50" stroke-miterlimit="10" width="219" height="91.8"/>
		<g>
			
				<text transform="matrix(1 0 0 1 1162.3296 351.1758)" fill="#FFFFFF" font-family="'HelveticaNeue-Medium'" font-size="28" letter-spacing="5">Product 5</text>
		</g>
		<g>
			<rect x="1139.2" y="367.1" fill="none" width="222.7" height="208.2"/>
			<text transform="matrix(1 0 0 1 1158.8965 379.1895)"><tspan x="0" y="0" fill="#FFFFFF" font-family="'HelveticaNeue-ThinItalic'" font-size="17" letter-spacing="3">Temporibus autem </tspan><tspan x="-14.2" y="20.4" fill="#FFFFFF" font-family="'HelveticaNeue-ThinItalic'" font-size="17" letter-spacing="3">quibusdam et aut of</tspan><tspan x="191.5" y="20.4" fill="#FFFFFF" font-family="'HelveticaNeue-ThinItalic'" font-size="17" letter-spacing="3">-</tspan><tspan x="9.7" y="40.8" fill="#FFFFFF" font-family="'HelveticaNeue-ThinItalic'" font-size="17" letter-spacing="3">ficiis debitis aut </tspan><tspan x="-13.4" y="61.2" fill="#FFFFFF" font-family="'HelveticaNeue-ThinItalic'" font-size="17" letter-spacing="3">rerum necessitatibus </tspan><tspan x="-5.9" y="81.6" fill="#FFFFFF" font-family="'HelveticaNeue-ThinItalic'" font-size="17" letter-spacing="3">saepe eveniet ut et </tspan><tspan x="36.5" y="102" fill="#FFFFFF" font-family="'HelveticaNeue-ThinItalic'" font-size="17" letter-spacing="3">voluptates.</tspan><tspan x="-19.7" y="142.8" fill="#FFFFFF" font-family="'HelveticaNeue-ThinItalic'" font-size="17" letter-spacing="3">Go to</tspan></text>
		</g>
		<path fill="#4CAF50" d="M1342.9,505c2.3,0,4.3,0.6,6.3,1.7c1.9,1.1,3.4,2.6,4.5,4.6c1.1,1.9,1.7,4,1.7,6.3c0,2.3-0.6,4.3-1.7,6.3
			s-2.6,3.4-4.5,4.5c-1.9,1.1-4,1.7-6.3,1.7c-2.3,0-4.4-0.6-6.3-1.7c-1.9-1.1-3.4-2.6-4.6-4.5c-1.1-1.9-1.7-4-1.7-6.3
			c0-1.7,0.3-3.3,1-4.9c0.7-1.5,1.6-2.9,2.7-4c1.1-1.1,2.4-2,4-2.7C1339.6,505.4,1341.2,505,1342.9,505z M1342.8,515.4h-6.2v4.2h6.3
			l0,4.1l8.4-6.2l-8.4-6.2V515.4z"/>
		<rect id="home-img_5_" x="1475.2" y="209.5" fill="none" stroke="#4CAF50" stroke-miterlimit="10" width="219" height="91.8"/>
		<g>
			
				<text transform="matrix(1 0 0 1 1497.616 351.1758)" fill="#FFFFFF" font-family="'HelveticaNeue-Medium'" font-size="28" letter-spacing="5">Product 6</text>
		</g>
		<g>
			<rect x="1474.9" y="367.1" fill="none" width="222.7" height="208.2"/>
			<text transform="matrix(1 0 0 1 1494.665 379.1895)"><tspan x="0" y="0" fill="#FFFFFF" font-family="'HelveticaNeue-ThinItalic'" font-size="17" letter-spacing="3">Temporibus autem </tspan><tspan x="-14.2" y="20.4" fill="#FFFFFF" font-family="'HelveticaNeue-ThinItalic'" font-size="17" letter-spacing="3">quibusdam et aut of</tspan><tspan x="191.5" y="20.4" fill="#FFFFFF" font-family="'HelveticaNeue-ThinItalic'" font-size="17" letter-spacing="3">-</tspan><tspan x="9.7" y="40.8" fill="#FFFFFF" font-family="'HelveticaNeue-ThinItalic'" font-size="17" letter-spacing="3">ficiis debitis aut </tspan><tspan x="-13.4" y="61.2" fill="#FFFFFF" font-family="'HelveticaNeue-ThinItalic'" font-size="17" letter-spacing="3">rerum necessitatibus </tspan><tspan x="-5.9" y="81.6" fill="#FFFFFF" font-family="'HelveticaNeue-ThinItalic'" font-size="17" letter-spacing="3">saepe eveniet ut et </tspan><tspan x="36.5" y="102" fill="#FFFFFF" font-family="'HelveticaNeue-ThinItalic'" font-size="17" letter-spacing="3">voluptates.</tspan><tspan x="-19.7" y="142.8" fill="#FFFFFF" font-family="'HelveticaNeue-ThinItalic'" font-size="17" letter-spacing="3">Go to</tspan></text>
		</g>
		<path fill="#4CAF50" d="M1674,505c2.3,0,4.3,0.6,6.3,1.7c1.9,1.1,3.4,2.6,4.5,4.6c1.1,1.9,1.7,4,1.7,6.3c0,2.3-0.6,4.3-1.7,6.3
			c-1.1,1.9-2.6,3.4-4.5,4.5c-1.9,1.1-4,1.7-6.3,1.7c-2.3,0-4.4-0.6-6.3-1.7c-1.9-1.1-3.4-2.6-4.6-4.5c-1.1-1.9-1.7-4-1.7-6.3
			c0-1.7,0.3-3.3,1-4.9c0.7-1.5,1.6-2.9,2.7-4c1.1-1.1,2.4-2,4-2.7C1670.7,505.4,1672.3,505,1674,505z M1673.9,515.4h-6.2v4.2h6.3
			l0,4.1l8.4-6.2l-8.4-6.2V515.4z"/>
		<g>
			
				<text transform="matrix(1 0 0 1 1160.6581 14.5619)" fill="#FFFFFF" font-family="'HelveticaNeue-Medium'" font-size="28" letter-spacing="5">Product 2</text>
		</g>
		<g>
			<rect x="1138" y="30.4" fill="none" width="222.7" height="208.2"/>
			<text transform="matrix(1 0 0 1 1157.7069 42.5756)"><tspan x="0" y="0" fill="#FFFFFF" font-family="'HelveticaNeue-ThinItalic'" font-size="17" letter-spacing="3">Temporibus autem </tspan><tspan x="-14.2" y="20.4" fill="#FFFFFF" font-family="'HelveticaNeue-ThinItalic'" font-size="17" letter-spacing="3">quibusdam et aut of</tspan><tspan x="191.5" y="20.4" fill="#FFFFFF" font-family="'HelveticaNeue-ThinItalic'" font-size="17" letter-spacing="3">-</tspan><tspan x="9.7" y="40.8" fill="#FFFFFF" font-family="'HelveticaNeue-ThinItalic'" font-size="17" letter-spacing="3">ficiis debitis aut </tspan><tspan x="-13.4" y="61.2" fill="#FFFFFF" font-family="'HelveticaNeue-ThinItalic'" font-size="17" letter-spacing="3">rerum necessitatibus </tspan><tspan x="-5.9" y="81.6" fill="#FFFFFF" font-family="'HelveticaNeue-ThinItalic'" font-size="17" letter-spacing="3">saepe eveniet ut et </tspan><tspan x="36.5" y="102" fill="#FFFFFF" font-family="'HelveticaNeue-ThinItalic'" font-size="17" letter-spacing="3">voluptates.</tspan><tspan x="-19.7" y="142.8" fill="#FFFFFF" font-family="'HelveticaNeue-ThinItalic'" font-size="17" letter-spacing="3">Go to</tspan></text>
		</g>
		<path fill="#4CAF50" d="M1342.9,168.4c2.3,0,4.3,0.6,6.3,1.7c1.9,1.1,3.4,2.6,4.5,4.6c1.1,1.9,1.7,4,1.7,6.3
			c0,2.3-0.6,4.3-1.7,6.3c-1.1,1.9-2.6,3.4-4.5,4.5c-1.9,1.1-4,1.7-6.3,1.7c-2.3,0-4.4-0.6-6.3-1.7c-1.9-1.1-3.4-2.6-4.6-4.5
			c-1.1-1.9-1.7-4-1.7-6.3c0-1.7,0.3-3.3,1-4.9c0.7-1.5,1.6-2.9,2.7-4c1.1-1.1,2.4-2,4-2.7C1339.6,168.7,1341.2,168.4,1342.9,168.4z
			 M1342.8,178.8h-6.2v4.2h6.3l0,4.1l8.4-6.2l-8.4-6.2V178.8z"/>
		<g>
			
				<text transform="matrix(1 0 0 1 1500.3289 13.6239)" fill="#FFFFFF" font-family="'HelveticaNeue-Medium'" font-size="28" letter-spacing="5">Product 3</text>
		</g>
		<g>
			<rect x="1477.7" y="29.5" fill="none" width="222.7" height="208.2"/>
			<text transform="matrix(1 0 0 1 1497.3777 41.6376)"><tspan x="0" y="0" fill="#FFFFFF" font-family="'HelveticaNeue-ThinItalic'" font-size="17" letter-spacing="3">Temporibus autem </tspan><tspan x="-14.2" y="20.4" fill="#FFFFFF" font-family="'HelveticaNeue-ThinItalic'" font-size="17" letter-spacing="3">quibusdam et aut of</tspan><tspan x="191.5" y="20.4" fill="#FFFFFF" font-family="'HelveticaNeue-ThinItalic'" font-size="17" letter-spacing="3">-</tspan><tspan x="9.7" y="40.8" fill="#FFFFFF" font-family="'HelveticaNeue-ThinItalic'" font-size="17" letter-spacing="3">ficiis debitis aut </tspan><tspan x="-13.4" y="61.2" fill="#FFFFFF" font-family="'HelveticaNeue-ThinItalic'" font-size="17" letter-spacing="3">rerum necessitatibus </tspan><tspan x="-5.9" y="81.6" fill="#FFFFFF" font-family="'HelveticaNeue-ThinItalic'" font-size="17" letter-spacing="3">saepe eveniet ut et </tspan><tspan x="36.5" y="102" fill="#FFFFFF" font-family="'HelveticaNeue-ThinItalic'" font-size="17" letter-spacing="3">voluptates.</tspan><tspan x="-19.7" y="142.8" fill="#FFFFFF" font-family="'HelveticaNeue-ThinItalic'" font-size="17" letter-spacing="3">Go to</tspan></text>
		</g>
		<path fill="#4CAF50" d="M1674,167.5c2.3,0,4.3,0.6,6.3,1.7c1.9,1.1,3.4,2.6,4.5,4.6c1.1,1.9,1.7,4,1.7,6.3c0,2.3-0.6,4.3-1.7,6.3
			c-1.1,1.9-2.6,3.4-4.5,4.5c-1.9,1.1-4,1.7-6.3,1.7c-2.3,0-4.4-0.6-6.3-1.7c-1.9-1.1-3.4-2.6-4.6-4.5c-1.1-1.9-1.7-4-1.7-6.3
			c0-1.7,0.3-3.3,1-4.9c0.7-1.5,1.6-2.9,2.7-4c1.1-1.1,2.4-2,4-2.7C1670.7,167.8,1672.3,167.5,1674,167.5z M1673.9,177.8h-6.2v4.2
			h6.3l0,4.1l8.4-6.2l-8.4-6.2V177.8z"/>
		<linearGradient id="SVGID_4_" gradientUnits="userSpaceOnUse" x1="1657.3956" y1="-166.8789" x2="1680.676" y2="-190.1593">
			<stop  offset="0" style="stop-color:#CCCCCC"/>
			<stop  offset="1" style="stop-color:#FFFFFF"/>
		</linearGradient>
		<path fill="url(#SVGID_4_)" d="M1677.5-163.7l-8.5-8.5l-8.5,8.5l-6.4-6.4l8.5-8.5l-8.5-8.5l6.4-6.4l8.5,8.5l8.5-8.5l6.4,6.4
			l-8.5,8.5l8.5,8.5L1677.5-163.7z"/>
	</g>
</g>
<g id="Dashboard">
	<linearGradient id="SVGID_5_" gradientUnits="userSpaceOnUse" x1="730.5" y1="715.1667" x2="1770.5" y2="-324.8333">
		<stop  offset="0" style="stop-color:#000000"/>
		<stop  offset="1" style="stop-color:#1E1E1E"/>
	</linearGradient>
	<rect x="610.5" y="-204.8" opacity="0.92" fill="url(#SVGID_5_)" width="1280" height="800"/>
	<linearGradient id="SVGID_6_" gradientUnits="userSpaceOnUse" x1="2105.5281" y1="-282.971" x2="2248.771" y2="-426.2139">
		<stop  offset="0" style="stop-color:#000000"/>
		<stop  offset="1" style="stop-color:#1E1E1E"/>
	</linearGradient>
	<rect x="2102.2" y="-422.8" fill="url(#SVGID_6_)" width="150" height="136.5"/>
	<rect x="612" y="-202.8" fill="none" stroke="#298EFD" stroke-miterlimit="10" width="244.2" height="797"/>
	<rect x="858.2" y="488.4" fill="#4CAF50" width="451" height="106.7"/>
	<rect x="1311" y="488.4" fill="none" stroke="#298EFD" stroke-miterlimit="10" width="576.5" height="106.7"/>
	<text transform="matrix(1 0 0 1 641 -131.8333)" fill="#F2F2F2" font-family="'HelveticaNeue-Medium'" font-size="19">BASE HOME PRICE</text>
	<g>
		<path fill="#F2F2F2" d="M892.7,527.3l2.6,12.6h0l2.6-12.6h5.3v17.8h-3.3v-14.2h0l-3.2,14.2h-2.8l-3.2-14.2h0v14.2h-3.3v-17.8
			H892.7z"/>
		<path fill="#F2F2F2" d="M905.6,532.5c0.1-1.1,0.4-2.1,0.8-2.9c0.4-0.8,1-1.5,1.8-1.9c0.8-0.5,1.9-0.7,3.2-0.7
			c1.3,0,2.4,0.2,3.2,0.7c0.8,0.5,1.4,1.1,1.8,1.9c0.4,0.8,0.7,1.8,0.8,2.9s0.2,2.4,0.2,3.7c0,1.4-0.1,2.6-0.2,3.8s-0.4,2.1-0.8,2.9
			c-0.4,0.8-1,1.4-1.8,1.9c-0.8,0.4-1.9,0.7-3.2,0.7c-1.4,0-2.4-0.2-3.2-0.7c-0.8-0.4-1.4-1.1-1.8-1.9c-0.4-0.8-0.7-1.8-0.8-2.9
			s-0.2-2.4-0.2-3.8C905.4,534.9,905.4,533.6,905.6,532.5z M909.1,539.3c0.1,0.8,0.2,1.5,0.4,2c0.2,0.5,0.4,0.9,0.8,1.2
			c0.3,0.2,0.8,0.4,1.3,0.4c0.5,0,1-0.1,1.3-0.4c0.3-0.2,0.6-0.6,0.8-1.2c0.2-0.5,0.3-1.2,0.4-2c0.1-0.8,0.1-1.9,0.1-3.1
			s0-2.2-0.1-3c-0.1-0.8-0.2-1.5-0.4-2.1c-0.2-0.5-0.4-0.9-0.8-1.2c-0.3-0.2-0.8-0.4-1.3-0.4c-0.5,0-1,0.1-1.3,0.4
			c-0.3,0.2-0.6,0.6-0.8,1.2c-0.2,0.5-0.3,1.2-0.4,2.1c-0.1,0.8-0.1,1.8-0.1,3S909,538.5,909.1,539.3z"/>
		<path fill="#F2F2F2" d="M925.7,527.3c1.2,0,2.3,0.2,3,0.6c0.8,0.4,1.4,1,1.8,1.8c0.4,0.8,0.7,1.7,0.9,2.7s0.2,2.3,0.2,3.6
			c0,1.6-0.1,2.9-0.3,4.1c-0.2,1.2-0.5,2.1-1,2.9c-0.5,0.8-1.1,1.3-1.9,1.7c-0.8,0.4-1.8,0.5-3,0.5h-5.7v-17.8H925.7z M925,542.5
			c0.6,0,1.1-0.1,1.5-0.3s0.7-0.6,0.9-1.1s0.4-1.2,0.5-2c0.1-0.8,0.1-1.8,0.1-3c0-1,0-1.9-0.1-2.7c-0.1-0.8-0.2-1.4-0.4-1.9
			c-0.2-0.5-0.5-0.9-0.9-1.2c-0.4-0.3-1-0.4-1.6-0.4h-1.5v12.5H925z"/>
		<path fill="#F2F2F2" d="M944,530.3h-6.4v4.2h6v3h-6v4.8h6.6v3H934v-17.8h10V530.3z"/>
		<path fill="#F2F2F2" d="M946,527.3h3.6v14.9h6.4v3h-10V527.3z"/>
	</g>
	<g>
		<path fill="#FFFFFF" d="M898.2,552.4c0-0.8-0.2-1.4-0.5-2s-0.7-1-1.2-1.4s-1.1-0.7-1.8-0.9c-0.7-0.2-1.4-0.3-2.3-0.3
			c-0.5,0-1,0.1-1.6,0.2c-0.6,0.1-1.1,0.3-1.6,0.6c-0.5,0.3-0.9,0.7-1.2,1.2c-0.3,0.5-0.5,1.1-0.5,1.8c0,0.7,0.2,1.3,0.5,1.8
			c0.4,0.5,0.8,0.8,1.4,1.1c0.6,0.3,1.2,0.5,2,0.7c0.7,0.2,1.5,0.3,2.2,0.5c0.8,0.1,1.5,0.3,2.2,0.5c0.7,0.2,1.4,0.5,1.9,0.9
			c0.6,0.4,1,0.8,1.4,1.4s0.5,1.3,0.5,2.2c0,0.9-0.2,1.7-0.6,2.3c-0.4,0.6-0.9,1.2-1.5,1.5c-0.6,0.4-1.3,0.7-2,0.9
			c-0.7,0.2-1.5,0.3-2.1,0.3c-1,0-2-0.1-3-0.3c-0.9-0.2-1.7-0.6-2.4-1.1c-0.7-0.5-1.2-1.2-1.6-2c-0.4-0.8-0.6-1.8-0.6-2.9h1.1
			c-0.1,1,0.1,1.8,0.4,2.5c0.3,0.7,0.8,1.2,1.4,1.7c0.6,0.4,1.3,0.7,2.1,0.9c0.8,0.2,1.6,0.3,2.5,0.3c0.5,0,1.1-0.1,1.7-0.2
			c0.6-0.1,1.2-0.4,1.7-0.7c0.5-0.3,0.9-0.7,1.3-1.2c0.3-0.5,0.5-1.2,0.5-1.9c0-0.8-0.2-1.4-0.5-1.8s-0.8-0.9-1.4-1.2
			c-0.6-0.3-1.2-0.5-2-0.7c-0.7-0.2-1.5-0.3-2.2-0.5c-0.8-0.1-1.5-0.3-2.2-0.5c-0.7-0.2-1.4-0.5-2-0.8c-0.6-0.3-1-0.8-1.4-1.3
			c-0.4-0.5-0.5-1.2-0.5-2.1c0-0.8,0.2-1.6,0.5-2.2c0.4-0.6,0.8-1.1,1.4-1.5s1.2-0.7,1.9-0.8c0.7-0.2,1.4-0.3,2.1-0.3
			c0.9,0,1.8,0.1,2.6,0.3c0.8,0.2,1.5,0.5,2.1,1s1.1,1,1.5,1.7c0.4,0.7,0.6,1.5,0.6,2.5H898.2z"/>
		<path fill="#FFFFFF" d="M902.3,547.3h1.1v17.8h-1.1V547.3z"/>
		<path fill="#FFFFFF" d="M906.6,547.3h1.4l11.3,16.4h0v-16.4h1.1v17.8h-1.3l-11.4-16.5h-0.1v16.5h-1.1V547.3z"/>
		<path fill="#FFFFFF" d="M922.9,556.3c0-1.3,0.2-2.5,0.6-3.6s0.9-2.1,1.6-3c0.7-0.9,1.6-1.6,2.6-2.1c1-0.5,2.2-0.8,3.6-0.8
			c0.9,0,1.8,0.1,2.6,0.4c0.8,0.3,1.6,0.7,2.2,1.2c0.7,0.5,1.2,1.1,1.7,1.9s0.8,1.6,0.9,2.5h-1c-0.4-1.6-1.2-2.8-2.2-3.7
			c-1.1-0.9-2.5-1.3-4.1-1.3c-1.2,0-2.3,0.2-3.2,0.7c-0.9,0.5-1.7,1.1-2.3,1.9s-1.1,1.7-1.4,2.7c-0.3,1-0.5,2.1-0.5,3.2
			c0,1.1,0.2,2.2,0.5,3.2s0.8,1.9,1.4,2.6s1.4,1.3,2.3,1.8s2,0.7,3.2,0.7c1.1,0,2-0.2,2.9-0.5c0.9-0.4,1.6-0.8,2.2-1.5
			c0.6-0.6,1-1.4,1.3-2.3s0.4-1.9,0.4-3h-6.6v-1h7.5v8.8h-1v-3.8h0c-0.2,0.6-0.5,1.2-1,1.8c-0.4,0.5-0.9,1-1.5,1.3
			c-0.6,0.4-1.2,0.6-2,0.8s-1.5,0.3-2.3,0.3c-1.4,0-2.5-0.2-3.6-0.7s-1.9-1.1-2.6-2c-0.7-0.8-1.3-1.8-1.6-2.9
			C923.1,558.8,922.9,557.6,922.9,556.3z"/>
		<path fill="#FFFFFF" d="M942,547.3h1.1v16.9h10.1v1H942V547.3z"/>
		<path fill="#FFFFFF" d="M954.5,547.3h12v0.9h-10.9v7.2h10.2v1h-10.2v7.8h11v1h-12.1V547.3z"/>
		<path fill="#FFFFFF" d="M975.5,547.3h11.2v0.9h-10.1v7.2h9.1v1h-9.1v8.8h-1.1V547.3z"/>
		<path fill="#FFFFFF" d="M992.3,547.3h1.2l7,17.8h-1.2l-2.2-5.7h-8.6l-2.3,5.7h-1.2L992.3,547.3z M996.8,558.5l-3.8-10.1h0l-4,10.1
			H996.8z"/>
		<path fill="#FFFFFF" d="M1001.8,547.3h1.6l7,16.6h0l6.9-16.6h1.6v17.8h-1.1v-16.5h0l-6.8,16.5h-1.1l-6.9-16.5h-0.1v16.5h-1.1
			V547.3z"/>
		<path fill="#FFFFFF" d="M1022,547.3h1.1v17.8h-1.1V547.3z"/>
		<path fill="#FFFFFF" d="M1026.3,547.3h1.1v16.9h10.1v1h-11.2V547.3z"/>
		<path fill="#FFFFFF" d="M1048.4,547.3h1.2l-7.2,10.4v7.5h-1.1v-7.5l-7.1-10.4h1.2l6.4,9.4L1048.4,547.3z"/>
		<path fill="#FFFFFF" d="M1057.6,547.3h1.1v8.1h11.4v-8.1h1.1v17.8h-1.1v-8.8h-11.4v8.8h-1.1V547.3z"/>
		<path fill="#FFFFFF" d="M1090.5,556.2c0,1.3-0.2,2.5-0.6,3.7s-0.9,2.1-1.7,3c-0.7,0.8-1.6,1.5-2.7,2c-1.1,0.5-2.2,0.7-3.6,0.7
			s-2.5-0.2-3.6-0.7c-1.1-0.5-2-1.1-2.7-2c-0.7-0.8-1.3-1.8-1.7-3c-0.4-1.1-0.6-2.4-0.6-3.7s0.2-2.5,0.6-3.7c0.4-1.1,0.9-2.1,1.7-3
			c0.7-0.8,1.6-1.5,2.7-2c1.1-0.5,2.3-0.7,3.6-0.7s2.5,0.2,3.6,0.7c1,0.5,1.9,1.1,2.7,2c0.7,0.8,1.3,1.8,1.7,3
			C1090.3,553.7,1090.5,554.9,1090.5,556.2z M1074.6,556.2c0,1.1,0.2,2.2,0.5,3.2c0.3,1,0.8,1.9,1.5,2.7c0.6,0.8,1.4,1.4,2.3,1.8
			s2,0.7,3.1,0.7s2.2-0.2,3.1-0.7c0.9-0.5,1.7-1.1,2.3-1.8c0.6-0.8,1.1-1.6,1.4-2.7s0.5-2.1,0.5-3.2c0-1.2-0.2-2.2-0.5-3.2
			s-0.8-1.9-1.4-2.7c-0.6-0.8-1.4-1.4-2.3-1.8c-0.9-0.4-1.9-0.7-3.1-0.7s-2.2,0.2-3.1,0.7c-0.9,0.5-1.7,1.1-2.3,1.8
			c-0.6,0.8-1.1,1.6-1.5,2.7C1074.8,554,1074.6,555.1,1074.6,556.2z"/>
		<path fill="#FFFFFF" d="M1092.9,547.3h1.6l7,16.6h0l6.9-16.6h1.6v17.8h-1.1v-16.5h0l-6.8,16.5h-1.1l-6.9-16.5h-0.1v16.5h-1.1
			V547.3z"/>
		<path fill="#FFFFFF" d="M1113.1,547.3h12v0.9h-10.9v7.2h10.2v1h-10.2v7.8h11v1h-12.1V547.3z"/>
		<path fill="#FFFFFF" d="M1138.7,552.4c0-0.8-0.2-1.4-0.5-2s-0.7-1-1.2-1.4s-1.1-0.7-1.8-0.9c-0.7-0.2-1.4-0.3-2.3-0.3
			c-0.5,0-1,0.1-1.6,0.2c-0.6,0.1-1.1,0.3-1.6,0.6c-0.5,0.3-0.9,0.7-1.2,1.2c-0.3,0.5-0.5,1.1-0.5,1.8c0,0.7,0.2,1.3,0.5,1.8
			c0.4,0.5,0.8,0.8,1.4,1.1c0.6,0.3,1.2,0.5,2,0.7c0.7,0.2,1.5,0.3,2.2,0.5c0.8,0.1,1.5,0.3,2.2,0.5c0.7,0.2,1.4,0.5,1.9,0.9
			c0.6,0.4,1,0.8,1.4,1.4s0.5,1.3,0.5,2.2c0,0.9-0.2,1.7-0.6,2.3c-0.4,0.6-0.9,1.2-1.5,1.5c-0.6,0.4-1.3,0.7-2,0.9
			c-0.7,0.2-1.5,0.3-2.1,0.3c-1,0-2-0.1-3-0.3c-0.9-0.2-1.7-0.6-2.4-1.1c-0.7-0.5-1.2-1.2-1.6-2c-0.4-0.8-0.6-1.8-0.6-2.9h1.1
			c-0.1,1,0.1,1.8,0.4,2.5c0.3,0.7,0.8,1.2,1.4,1.7c0.6,0.4,1.3,0.7,2.1,0.9c0.8,0.2,1.6,0.3,2.5,0.3c0.5,0,1.1-0.1,1.7-0.2
			c0.6-0.1,1.2-0.4,1.7-0.7c0.5-0.3,0.9-0.7,1.3-1.2c0.3-0.5,0.5-1.2,0.5-1.9c0-0.8-0.2-1.4-0.5-1.8s-0.8-0.9-1.4-1.2
			c-0.6-0.3-1.2-0.5-2-0.7c-0.7-0.2-1.5-0.3-2.2-0.5c-0.8-0.1-1.5-0.3-2.2-0.5c-0.7-0.2-1.4-0.5-2-0.8c-0.6-0.3-1-0.8-1.4-1.3
			c-0.4-0.5-0.5-1.2-0.5-2.1c0-0.8,0.2-1.6,0.5-2.2c0.4-0.6,0.8-1.1,1.4-1.5s1.2-0.7,1.9-0.8c0.7-0.2,1.4-0.3,2.1-0.3
			c0.9,0,1.8,0.1,2.6,0.3c0.8,0.2,1.5,0.5,2.1,1s1.1,1,1.5,1.7c0.4,0.7,0.6,1.5,0.6,2.5H1138.7z"/>
	</g>
	<text transform="matrix(1 0 0 1 887 -107.8333)"><tspan x="0" y="0" fill="#F2F2F2" font-family="'HelveticaNeue-CondensedBold'" font-size="42">DESIGN &amp; </tspan><tspan x="0" y="36" fill="#F2F2F2" font-family="'HelveticaNeue-CondensedBold'" font-size="42">ENGINEERING</tspan></text>
	<line fill="none" stroke="#298EFD" stroke-width="2" stroke-miterlimit="10" x1="887" y1="-64.8" x2="1109" y2="-64.8"/>
	<linearGradient id="SVGID_7_" gradientUnits="userSpaceOnUse" x1="1793.1893" y1="-155.679" x2="1816.4697" y2="-178.9593">
		<stop  offset="0" style="stop-color:#CCCCCC"/>
		<stop  offset="1" style="stop-color:#FFFFFF"/>
	</linearGradient>
	<path fill="url(#SVGID_7_)" d="M1813.3-152.5l-8.5-8.5l-8.5,8.5l-6.4-6.4l8.5-8.5l-8.5-8.5l6.4-6.4l8.5,8.5l8.5-8.5l6.4,6.4
		l-8.5,8.5l8.5,8.5L1813.3-152.5z"/>
	<text transform="matrix(1 0 0 1 999 23.1667)" fill="#FFFFFF" font-family="'HelveticaNeue-Medium'" font-size="33">Plans</text>
	<rect x="999" y="41.2" fill="none" width="583" height="66"/>
	<text transform="matrix(1 0 0 1 999 58.3024)"><tspan x="0" y="0" fill="#F2F2F2" font-family="'HelveticaNeue'" font-size="24">The base plans allows you to receive one of our </tspan><tspan x="0" y="26" fill="#F2F2F2" font-family="'HelveticaNeue'" font-size="24">pre-designed models designed to your site. </tspan></text>
	<path fill="none" stroke="#F2F2F2" stroke-miterlimit="10" d="M1066.4,164.7h-39.8c-0.6,0-1.1-0.5-1.1-1.1v-39.8
		c0-0.6,0.5-1.1,1.1-1.1h39.8c0.6,0,1.1,0.5,1.1,1.1v39.8C1067.5,164.2,1067,164.7,1066.4,164.7z"/>
	<text transform="matrix(1 0 0 1 1091 152.1227)" fill="#F2F2F2" font-family="'HelveticaNeue'" font-size="24">BASE</text>
	<path fill="none" stroke="#F2F2F2" stroke-miterlimit="10" d="M1066.4,249h-39.8c-0.6,0-1.1-0.5-1.1-1.1V208c0-0.6,0.5-1.1,1.1-1.1
		h39.8c0.6,0,1.1,0.5,1.1,1.1v39.8C1067.5,248.5,1067,249,1066.4,249z"/>
	<text transform="matrix(1 0 0 1 1091 235.5788)" fill="#F2F2F2" font-family="'HelveticaNeue'" font-size="24">CUSTOM</text>
	<path fill="none" stroke="#F2F2F2" stroke-miterlimit="10" d="M1066.3,333.2h-39.8c-0.6,0-1.1-0.5-1.1-1.1v-39.8
		c0-0.6,0.5-1.1,1.1-1.1h39.8c0.6,0,1.1,0.5,1.1,1.1v39.8C1067.4,332.8,1066.9,333.2,1066.3,333.2z"/>
	<text transform="matrix(1 0 0 1 1091 324.6227)" fill="#F2F2F2" font-family="'HelveticaNeue-Medium'" font-size="24">SURVEYOR</text>
	<path fill="none" stroke="#F2F2F2" stroke-miterlimit="10" d="M1067.9,417.5h-39.8c-0.6,0-1.1-0.5-1.1-1.1v-39.8
		c0-0.6,0.5-1.1,1.1-1.1h39.8c0.6,0,1.1,0.5,1.1,1.1v39.8C1069,417,1068.5,417.5,1067.9,417.5z"/>
	<text transform="matrix(1 0 0 1 1091 409.9874)" fill="#F2F2F2" font-family="'HelveticaNeue-Medium'" font-size="24">GEO TECHNICAL ENGINEERING</text>
	<path fill="#29E918" d="M1027.8,230.8l6.4-6.4l6.2,6.2l18.2-18.2l6.4,6.4l-24.5,24.6L1027.8,230.8z"/>
	<path fill="#15477F" stroke="#1F6BBE" stroke-miterlimit="10" d="M1233.1,451.9l6.8-6.8l10.6,10.6l10.6-10.6l6.8,6.8l-17.3,17.4
		L1233.1,451.9z"/>
	<text transform="matrix(1 0 0 1 1474.9995 563.8333)" fill="#F2F2F2" font-family="'HelveticaNeue-Medium'" font-size="24">Total</text>
	<text transform="matrix(1 0 0 1 1638 563.1667)" fill="#F2F2F2" font-family="'HelveticaNeue-Medium'" font-size="35">$133,424.07</text>
	<linearGradient id="SVGID_8_" gradientUnits="userSpaceOnUse" x1="1717.3387" y1="-167.3191" x2="1750.3387" y2="-167.3191">
		<stop  offset="0" style="stop-color:#CCCCCC"/>
		<stop  offset="1" style="stop-color:#FFFFFF"/>
	</linearGradient>
	<path fill="url(#SVGID_8_)" d="M1750.3-177.8v25.5c0,0.4-0.2,0.8-0.5,1.1c-0.3,0.3-0.6,0.4-1,0.4h-4.5v-12h-21v12h-4.5
		c-0.4,0-0.8-0.1-1.1-0.4c-0.3-0.3-0.4-0.6-0.4-1.1v-30c0-0.4,0.1-0.8,0.4-1.1c0.3-0.3,0.6-0.4,1.1-0.4h7.5v9h15v-9h3L1750.3-177.8z
		 M1738.3-183.8h-3v6h3V-183.8z"/>
	<text transform="matrix(1 0 0 1 1656.3387 -159.8796)" fill="#F2F2F2" font-family="'HelveticaNeue-Medium'" font-size="24">save</text>
	<text transform="matrix(1 0 0 1 640.5029 -106.1414)" fill="#FFFFFF" font-family="'HelveticaNeue-Medium'" font-size="10.6972">Plans</text>
	<rect x="640.5" y="-100.3" fill="none" width="189" height="21.4"/>
	<text transform="matrix(1 0 0 1 640.5 -94.7557)"><tspan x="0" y="0" fill="#F2F2F2" font-family="'HelveticaNeue'" font-size="7.7798">The base plans allows you to receive one of our </tspan><tspan x="0" y="8.4" fill="#F2F2F2" font-family="'HelveticaNeue'" font-size="7.7798">pre-designed models designed to your site. </tspan></text>
	<path fill="none" stroke="#F2F2F2" stroke-miterlimit="10" d="M662.4-60.3h-12.9c-0.2,0-0.4-0.2-0.4-0.4v-12.9
		c0-0.2,0.2-0.4,0.4-0.4h12.9c0.2,0,0.4,0.2,0.4,0.4v12.9C662.7-60.4,662.5-60.3,662.4-60.3z"/>
	<text transform="matrix(1 0 0 1 670.3271 -64.3416)" fill="#F2F2F2" font-family="'HelveticaNeue'" font-size="7.7798">BASE</text>
	<text transform="matrix(1 0 0 1 670.3271 -37.2879)" fill="#F2F2F2" font-family="'HelveticaNeue'" font-size="7.7798">CUSTOM</text>
	<path fill="none" stroke="#F2F2F2" stroke-miterlimit="10" d="M662.3-5.6h-12.9c-0.2,0-0.4-0.2-0.4-0.4v-12.9
		c0-0.2,0.2-0.4,0.4-0.4h12.9c0.2,0,0.4,0.2,0.4,0.4V-6C662.7-5.8,662.5-5.6,662.3-5.6z"/>
	<text transform="matrix(1 0 0 1 670.3271 -8.4246)" fill="#F2F2F2" font-family="'HelveticaNeue-Medium'" font-size="7.7798">SURVEYOR</text>
	<path fill="none" stroke="#F2F2F2" stroke-miterlimit="10" d="M662.8,21.7h-12.9c-0.2,0-0.4-0.2-0.4-0.4V8.4c0-0.2,0.2-0.4,0.4-0.4
		h12.9c0.2,0,0.4,0.2,0.4,0.4v12.9C663.2,21.5,663,21.7,662.8,21.7z"/>
	<text transform="matrix(1 0 0 1 670.3271 19.2497)" fill="#F2F2F2" font-family="'HelveticaNeue-Medium'" font-size="7.7798">GEO TECHNICAL ENGINEERING</text>
	<path fill="#29E918" d="M780.9-34.4l6.4-6.4l6.2,6.2l18.2-18.2l6.4,6.4l-24.5,24.6L780.9-34.4z"/>
	<rect x="649.1" y="-46.9" fill="none" stroke="#F2F2F2" stroke-miterlimit="10" width="13.6" height="13.6"/>
	<text transform="matrix(1 0 0 1 640.5029 53.8341)" fill="#FFFFFF" font-family="'HelveticaNeue-Medium'" font-size="10.6972">SITE WORK</text>
	<rect x="640.5" y="59.7" fill="none" width="189" height="21.4"/>
	<text transform="matrix(1 0 0 1 640.5 65.2198)"><tspan x="0" y="0" fill="#F2F2F2" font-family="'HelveticaNeue'" font-size="7.7798">The base plans allows you to receive one of our </tspan><tspan x="0" y="8.4" fill="#F2F2F2" font-family="'HelveticaNeue'" font-size="7.7798">pre-designed models designed to your site. </tspan></text>
	<path fill="none" stroke="#F2F2F2" stroke-miterlimit="10" d="M662.4,99.7h-12.9c-0.2,0-0.4-0.2-0.4-0.4V86.4
		c0-0.2,0.2-0.4,0.4-0.4h12.9c0.2,0,0.4,0.2,0.4,0.4v12.9C662.7,99.5,662.5,99.7,662.4,99.7z"/>
	<text transform="matrix(1 0 0 1 670.3271 95.6339)" fill="#F2F2F2" font-family="'HelveticaNeue'" font-size="7.7798">BASE</text>
	<text transform="matrix(1 0 0 1 670.3271 122.6876)" fill="#F2F2F2" font-family="'HelveticaNeue'" font-size="7.7798">CUSTOM</text>
	<path fill="none" stroke="#F2F2F2" stroke-miterlimit="10" d="M662.3,154.3h-12.9c-0.2,0-0.4-0.2-0.4-0.4v-12.9
		c0-0.2,0.2-0.4,0.4-0.4h12.9c0.2,0,0.4,0.2,0.4,0.4V154C662.7,154.2,662.5,154.3,662.3,154.3z"/>
	<text transform="matrix(1 0 0 1 670.3271 151.5509)" fill="#F2F2F2" font-family="'HelveticaNeue-Medium'" font-size="7.7798">SURVEYOR</text>
	<path fill="none" stroke="#F2F2F2" stroke-miterlimit="10" d="M662.8,181.7h-12.9c-0.2,0-0.4-0.2-0.4-0.4v-12.9
		c0-0.2,0.2-0.4,0.4-0.4h12.9c0.2,0,0.4,0.2,0.4,0.4v12.9C663.2,181.5,663,181.7,662.8,181.7z"/>
	<text transform="matrix(1 0 0 1 670.3271 179.2252)" fill="#F2F2F2" font-family="'HelveticaNeue-Medium'" font-size="7.7798">GEO TECHNICAL ENGINEERING</text>
	<rect x="649.1" y="113" fill="none" stroke="#F2F2F2" stroke-miterlimit="10" width="13.6" height="13.6"/>
	<text transform="matrix(1 0 0 1 640.6008 212.4749)" fill="#FFFFFF" font-family="'HelveticaNeue-Medium'" font-size="10.6972">BUILDING UPGRADES</text>
	<rect x="640.6" y="218.3" fill="none" width="189" height="21.4"/>
	<text transform="matrix(1 0 0 1 640.5978 223.8606)"><tspan x="0" y="0" fill="#F2F2F2" font-family="'HelveticaNeue'" font-size="7.7798">The base plans allows you to receive one of our </tspan><tspan x="0" y="8.4" fill="#F2F2F2" font-family="'HelveticaNeue'" font-size="7.7798">pre-designed models designed to your site. </tspan></text>
	<path fill="none" stroke="#F2F2F2" stroke-miterlimit="10" d="M662.4,258.3h-12.9c-0.2,0-0.4-0.2-0.4-0.4v-12.9
		c0-0.2,0.2-0.4,0.4-0.4h12.9c0.2,0,0.4,0.2,0.4,0.4V258C662.8,258.2,662.6,258.3,662.4,258.3z"/>
	<text transform="matrix(1 0 0 1 670.425 254.2747)" fill="#F2F2F2" font-family="'HelveticaNeue'" font-size="7.7798">BASE</text>
	<text transform="matrix(1 0 0 1 670.425 281.3284)" fill="#F2F2F2" font-family="'HelveticaNeue'" font-size="7.7798">CUSTOM</text>
	<path fill="none" stroke="#F2F2F2" stroke-miterlimit="10" d="M662.4,313h-12.9c-0.2,0-0.4-0.2-0.4-0.4v-12.9
		c0-0.2,0.2-0.4,0.4-0.4h12.9c0.2,0,0.4,0.2,0.4,0.4v12.9C662.8,312.8,662.6,313,662.4,313z"/>
	<text transform="matrix(1 0 0 1 670.425 310.1917)" fill="#F2F2F2" font-family="'HelveticaNeue-Medium'" font-size="7.7798">SURVEYOR</text>
	<path fill="none" stroke="#F2F2F2" stroke-miterlimit="10" d="M662.9,340.3H650c-0.2,0-0.4-0.2-0.4-0.4V327c0-0.2,0.2-0.4,0.4-0.4
		h12.9c0.2,0,0.4,0.2,0.4,0.4V340C663.3,340.1,663.1,340.3,662.9,340.3z"/>
	<text transform="matrix(1 0 0 1 670.425 337.866)" fill="#F2F2F2" font-family="'HelveticaNeue-Medium'" font-size="7.7798">GEO TECHNICAL ENGINEERING</text>
	<rect x="649.2" y="271.7" fill="none" stroke="#F2F2F2" stroke-miterlimit="10" width="13.6" height="13.6"/>
	<text transform="matrix(1 0 0 1 640.6008 381.1916)" fill="#FFFFFF" font-family="'HelveticaNeue-Medium'" font-size="10.6972">SITE AMENITIES</text>
	<rect x="640.6" y="387" fill="none" width="189" height="21.4"/>
	<text transform="matrix(1 0 0 1 640.5978 392.5774)"><tspan x="0" y="0" fill="#F2F2F2" font-family="'HelveticaNeue'" font-size="7.7798">The base plans allows you to receive one of our </tspan><tspan x="0" y="8.4" fill="#F2F2F2" font-family="'HelveticaNeue'" font-size="7.7798">pre-designed models designed to your site. </tspan></text>
	<path fill="none" stroke="#F2F2F2" stroke-miterlimit="10" d="M662.4,427.1h-12.9c-0.2,0-0.4-0.2-0.4-0.4v-12.9
		c0-0.2,0.2-0.4,0.4-0.4h12.9c0.2,0,0.4,0.2,0.4,0.4v12.9C662.8,426.9,662.6,427.1,662.4,427.1z"/>
	<text transform="matrix(1 0 0 1 670.425 422.9914)" fill="#F2F2F2" font-family="'HelveticaNeue'" font-size="7.7798">BASE</text>
	<text transform="matrix(1 0 0 1 670.425 450.0451)" fill="#F2F2F2" font-family="'HelveticaNeue'" font-size="7.7798">CUSTOM</text>
	<path fill="none" stroke="#F2F2F2" stroke-miterlimit="10" d="M662.4,481.7h-12.9c-0.2,0-0.4-0.2-0.4-0.4v-12.9
		c0-0.2,0.2-0.4,0.4-0.4h12.9c0.2,0,0.4,0.2,0.4,0.4v12.9C662.8,481.5,662.6,481.7,662.4,481.7z"/>
	<text transform="matrix(1 0 0 1 670.425 478.9084)" fill="#F2F2F2" font-family="'HelveticaNeue-Medium'" font-size="7.7798">SURVEYOR</text>
	<path fill="none" stroke="#F2F2F2" stroke-miterlimit="10" d="M662.9,509H650c-0.2,0-0.4-0.2-0.4-0.4v-12.9c0-0.2,0.2-0.4,0.4-0.4
		h12.9c0.2,0,0.4,0.2,0.4,0.4v12.9C663.3,508.9,663.1,509,662.9,509z"/>
	<text transform="matrix(1 0 0 1 670.425 506.5827)" fill="#F2F2F2" font-family="'HelveticaNeue-Medium'" font-size="7.7798">GEO TECHNICAL ENGINEERING</text>
	<rect x="649.2" y="440.4" fill="none" stroke="#F2F2F2" stroke-miterlimit="10" width="13.6" height="13.6"/>
	<g id="local_guides" display="none">
	</g>
	<linearGradient id="SVGID_9_" gradientUnits="userSpaceOnUse" x1="1516.7037" y1="-314.0929" x2="1662.4453" y2="-459.8345">
		<stop  offset="0" style="stop-color:#CCCCCC"/>
		<stop  offset="1" style="stop-color:#FFFFFF"/>
	</linearGradient>
	<rect x="1498.6" y="-441.7" fill="url(#SVGID_9_)" width="182" height="109.5"/>
	<linearGradient id="SVGID_10_" gradientUnits="userSpaceOnUse" x1="2121.1562" y1="468.8382" x2="2144.4365" y2="445.5579">
		<stop  offset="0" style="stop-color:#CCCCCC"/>
		<stop  offset="1" style="stop-color:#FFFFFF"/>
	</linearGradient>
	<path fill="url(#SVGID_10_)" d="M2141.3,472l-8.5-8.5l-8.5,8.5l-6.4-6.4l8.5-8.5l-8.5-8.5l6.4-6.4l8.5,8.5l8.5-8.5l6.4,6.4
		l-8.5,8.5l8.5,8.5L2141.3,472z"/>
	<g>
		<path fill="#F2F2F2" d="M2131.7,717.5l2.6,12.6h0l2.6-12.6h5.3v17.8h-3.3v-14.2h0l-3.2,14.2h-2.8l-3.2-14.2h0v14.2h-3.3v-17.8
			H2131.7z"/>
		<path fill="#F2F2F2" d="M2144.6,722.7c0.1-1.1,0.4-2.1,0.8-2.9c0.4-0.8,1-1.5,1.8-1.9c0.8-0.5,1.9-0.7,3.2-0.7
			c1.3,0,2.4,0.2,3.2,0.7c0.8,0.5,1.4,1.1,1.8,1.9c0.4,0.8,0.7,1.8,0.8,2.9s0.2,2.4,0.2,3.7c0,1.4-0.1,2.6-0.2,3.8s-0.4,2.1-0.8,2.9
			c-0.4,0.8-1,1.4-1.8,1.9c-0.8,0.4-1.9,0.7-3.2,0.7c-1.4,0-2.4-0.2-3.2-0.7c-0.8-0.4-1.4-1.1-1.8-1.9c-0.4-0.8-0.7-1.8-0.8-2.9
			s-0.2-2.4-0.2-3.8C2144.4,725.1,2144.4,723.8,2144.6,722.7z M2148.1,729.5c0.1,0.8,0.2,1.5,0.4,2c0.2,0.5,0.4,0.9,0.8,1.2
			c0.3,0.2,0.8,0.4,1.3,0.4c0.5,0,1-0.1,1.3-0.4c0.3-0.2,0.6-0.6,0.8-1.2c0.2-0.5,0.3-1.2,0.4-2c0.1-0.8,0.1-1.9,0.1-3.1
			s0-2.2-0.1-3c-0.1-0.8-0.2-1.5-0.4-2.1c-0.2-0.5-0.4-0.9-0.8-1.2c-0.3-0.2-0.8-0.4-1.3-0.4c-0.5,0-1,0.1-1.3,0.4
			c-0.3,0.2-0.6,0.6-0.8,1.2c-0.2,0.5-0.3,1.2-0.4,2.1c-0.1,0.8-0.1,1.8-0.1,3S2148,728.7,2148.1,729.5z"/>
		<path fill="#F2F2F2" d="M2164.7,717.5c1.2,0,2.3,0.2,3,0.6c0.8,0.4,1.4,1,1.8,1.8c0.4,0.8,0.7,1.7,0.9,2.7s0.2,2.3,0.2,3.6
			c0,1.6-0.1,2.9-0.3,4.1c-0.2,1.2-0.5,2.1-1,2.9c-0.5,0.8-1.1,1.3-1.9,1.7c-0.8,0.4-1.8,0.5-3,0.5h-5.7v-17.8H2164.7z M2164,732.7
			c0.6,0,1.1-0.1,1.5-0.3s0.7-0.6,0.9-1.1s0.4-1.2,0.5-2c0.1-0.8,0.1-1.8,0.1-3c0-1,0-1.9-0.1-2.7c-0.1-0.8-0.2-1.4-0.4-1.9
			c-0.2-0.5-0.5-0.9-0.9-1.2c-0.4-0.3-1-0.4-1.6-0.4h-1.5v12.5H2164z"/>
		<path fill="#F2F2F2" d="M2183,720.5h-6.4v4.2h6v3h-6v4.8h6.6v3H2173v-17.8h10V720.5z"/>
		<path fill="#F2F2F2" d="M2185,717.5h3.6v14.9h6.4v3h-10V717.5z"/>
	</g>
	<g>
		<path fill="#FFFFFF" d="M2137.2,742.6c0-0.8-0.2-1.4-0.5-2s-0.7-1-1.2-1.4s-1.1-0.7-1.8-0.9c-0.7-0.2-1.4-0.3-2.3-0.3
			c-0.5,0-1,0.1-1.6,0.2c-0.6,0.1-1.1,0.3-1.6,0.6c-0.5,0.3-0.9,0.7-1.2,1.2c-0.3,0.5-0.5,1.1-0.5,1.8c0,0.7,0.2,1.3,0.5,1.8
			c0.4,0.5,0.8,0.8,1.4,1.1c0.6,0.3,1.2,0.5,2,0.7c0.7,0.2,1.5,0.3,2.2,0.5c0.8,0.1,1.5,0.3,2.2,0.5c0.7,0.2,1.4,0.5,1.9,0.9
			c0.6,0.4,1,0.8,1.4,1.4s0.5,1.3,0.5,2.2c0,0.9-0.2,1.7-0.6,2.3c-0.4,0.6-0.9,1.2-1.5,1.5c-0.6,0.4-1.3,0.7-2,0.9
			c-0.7,0.2-1.5,0.3-2.1,0.3c-1,0-2-0.1-3-0.3c-0.9-0.2-1.7-0.6-2.4-1.1c-0.7-0.5-1.2-1.2-1.6-2c-0.4-0.8-0.6-1.8-0.6-2.9h1.1
			c-0.1,1,0.1,1.8,0.4,2.5c0.3,0.7,0.8,1.2,1.4,1.7c0.6,0.4,1.3,0.7,2.1,0.9c0.8,0.2,1.6,0.3,2.5,0.3c0.5,0,1.1-0.1,1.7-0.2
			c0.6-0.1,1.2-0.4,1.7-0.7c0.5-0.3,0.9-0.7,1.3-1.2c0.3-0.5,0.5-1.2,0.5-1.9c0-0.8-0.2-1.4-0.5-1.8s-0.8-0.9-1.4-1.2
			c-0.6-0.3-1.2-0.5-2-0.7c-0.7-0.2-1.5-0.3-2.2-0.5c-0.8-0.1-1.5-0.3-2.2-0.5c-0.7-0.2-1.4-0.5-2-0.8c-0.6-0.3-1-0.8-1.4-1.3
			c-0.4-0.5-0.5-1.2-0.5-2.1c0-0.8,0.2-1.6,0.5-2.2c0.4-0.6,0.8-1.1,1.4-1.5s1.2-0.7,1.9-0.8c0.7-0.2,1.4-0.3,2.1-0.3
			c0.9,0,1.8,0.1,2.6,0.3c0.8,0.2,1.5,0.5,2.1,1s1.1,1,1.5,1.7c0.4,0.7,0.6,1.5,0.6,2.5H2137.2z"/>
		<path fill="#FFFFFF" d="M2141.3,737.5h1.1v17.8h-1.1V737.5z"/>
		<path fill="#FFFFFF" d="M2145.6,737.5h1.4l11.3,16.4h0v-16.4h1.1v17.8h-1.3l-11.4-16.5h-0.1v16.5h-1.1V737.5z"/>
		<path fill="#FFFFFF" d="M2161.9,746.5c0-1.3,0.2-2.5,0.6-3.6s0.9-2.1,1.6-3c0.7-0.9,1.6-1.6,2.6-2.1c1-0.5,2.2-0.8,3.6-0.8
			c0.9,0,1.8,0.1,2.6,0.4c0.8,0.3,1.6,0.7,2.2,1.2c0.7,0.5,1.2,1.1,1.7,1.9s0.8,1.6,0.9,2.5h-1c-0.4-1.6-1.2-2.8-2.2-3.7
			c-1.1-0.9-2.5-1.3-4.1-1.3c-1.2,0-2.3,0.2-3.2,0.7c-0.9,0.5-1.7,1.1-2.3,1.9s-1.1,1.7-1.4,2.7c-0.3,1-0.5,2.1-0.5,3.2
			c0,1.1,0.2,2.2,0.5,3.2s0.8,1.9,1.4,2.6s1.4,1.3,2.3,1.8s2,0.7,3.2,0.7c1.1,0,2-0.2,2.9-0.5c0.9-0.4,1.6-0.8,2.2-1.5
			c0.6-0.6,1-1.4,1.3-2.3s0.4-1.9,0.4-3h-6.6v-1h7.5v8.8h-1v-3.8h0c-0.2,0.6-0.5,1.2-1,1.8c-0.4,0.5-0.9,1-1.5,1.3
			c-0.6,0.4-1.2,0.6-2,0.8s-1.5,0.3-2.3,0.3c-1.4,0-2.5-0.2-3.6-0.7s-1.9-1.1-2.6-2c-0.7-0.8-1.3-1.8-1.6-2.9
			C2162.1,749,2161.9,747.8,2161.9,746.5z"/>
		<path fill="#FFFFFF" d="M2181.1,737.5h1.1v16.9h10.1v1h-11.2V737.5z"/>
		<path fill="#FFFFFF" d="M2193.6,737.5h12v0.9h-10.9v7.2h10.2v1h-10.2v7.8h11v1h-12.1V737.5z"/>
		<path fill="#FFFFFF" d="M2214.5,737.5h11.2v0.9h-10.1v7.2h9.1v1h-9.1v8.8h-1.1V737.5z"/>
		<path fill="#FFFFFF" d="M2231.3,737.5h1.2l7,17.8h-1.2l-2.2-5.7h-8.6l-2.3,5.7h-1.2L2231.3,737.5z M2235.8,748.7l-3.8-10.1h0
			l-4,10.1H2235.8z"/>
		<path fill="#FFFFFF" d="M2240.8,737.5h1.6l7,16.6h0l6.9-16.6h1.6v17.8h-1.1v-16.5h0l-6.8,16.5h-1.1l-6.9-16.5h-0.1v16.5h-1.1
			V737.5z"/>
		<path fill="#FFFFFF" d="M2261.1,737.5h1.1v17.8h-1.1V737.5z"/>
		<path fill="#FFFFFF" d="M2265.3,737.5h1.1v16.9h10.1v1h-11.2V737.5z"/>
		<path fill="#FFFFFF" d="M2287.4,737.5h1.2l-7.2,10.4v7.5h-1.1v-7.5l-7.1-10.4h1.2l6.4,9.4L2287.4,737.5z"/>
		<path fill="#FFFFFF" d="M2296.6,737.5h1.1v8.1h11.4v-8.1h1.1v17.8h-1.1v-8.8h-11.4v8.8h-1.1V737.5z"/>
		<path fill="#FFFFFF" d="M2329.5,746.4c0,1.3-0.2,2.5-0.6,3.7s-0.9,2.1-1.7,3c-0.7,0.8-1.6,1.5-2.7,2c-1.1,0.5-2.2,0.7-3.6,0.7
			s-2.5-0.2-3.6-0.7c-1.1-0.5-2-1.1-2.7-2c-0.7-0.8-1.3-1.8-1.7-3c-0.4-1.1-0.6-2.4-0.6-3.7s0.2-2.5,0.6-3.7c0.4-1.1,0.9-2.1,1.7-3
			c0.7-0.8,1.6-1.5,2.7-2c1.1-0.5,2.3-0.7,3.6-0.7s2.5,0.2,3.6,0.7c1,0.5,1.9,1.1,2.7,2c0.7,0.8,1.3,1.8,1.7,3
			C2329.3,743.9,2329.5,745.1,2329.5,746.4z M2313.7,746.4c0,1.1,0.2,2.2,0.5,3.2c0.3,1,0.8,1.9,1.5,2.7c0.6,0.8,1.4,1.4,2.3,1.8
			s2,0.7,3.1,0.7s2.2-0.2,3.1-0.7c0.9-0.5,1.7-1.1,2.3-1.8c0.6-0.8,1.1-1.6,1.4-2.7s0.5-2.1,0.5-3.2c0-1.2-0.2-2.2-0.5-3.2
			s-0.8-1.9-1.4-2.7c-0.6-0.8-1.4-1.4-2.3-1.8c-0.9-0.4-1.9-0.7-3.1-0.7s-2.2,0.2-3.1,0.7c-0.9,0.5-1.7,1.1-2.3,1.8
			c-0.6,0.8-1.1,1.6-1.5,2.7C2313.8,744.2,2313.7,745.3,2313.7,746.4z"/>
		<path fill="#FFFFFF" d="M2331.9,737.5h1.6l7,16.6h0l6.9-16.6h1.6v17.8h-1.1v-16.5h0l-6.8,16.5h-1.1l-6.9-16.5h-0.1v16.5h-1.1
			V737.5z"/>
		<path fill="#FFFFFF" d="M2352.1,737.5h12v0.9h-10.9v7.2h10.2v1h-10.2v7.8h11v1h-12.1V737.5z"/>
		<path fill="#FFFFFF" d="M2377.8,742.6c0-0.8-0.2-1.4-0.5-2s-0.7-1-1.2-1.4s-1.1-0.7-1.8-0.9c-0.7-0.2-1.4-0.3-2.3-0.3
			c-0.5,0-1,0.1-1.6,0.2c-0.6,0.1-1.1,0.3-1.6,0.6c-0.5,0.3-0.9,0.7-1.2,1.2c-0.3,0.5-0.5,1.1-0.5,1.8c0,0.7,0.2,1.3,0.5,1.8
			c0.4,0.5,0.8,0.8,1.4,1.1c0.6,0.3,1.2,0.5,2,0.7c0.7,0.2,1.5,0.3,2.2,0.5c0.8,0.1,1.5,0.3,2.2,0.5c0.7,0.2,1.4,0.5,1.9,0.9
			c0.6,0.4,1,0.8,1.4,1.4s0.5,1.3,0.5,2.2c0,0.9-0.2,1.7-0.6,2.3c-0.4,0.6-0.9,1.2-1.5,1.5c-0.6,0.4-1.3,0.7-2,0.9
			c-0.7,0.2-1.5,0.3-2.1,0.3c-1,0-2-0.1-3-0.3c-0.9-0.2-1.7-0.6-2.4-1.1c-0.7-0.5-1.2-1.2-1.6-2c-0.4-0.8-0.6-1.8-0.6-2.9h1.1
			c-0.1,1,0.1,1.8,0.4,2.5c0.3,0.7,0.8,1.2,1.4,1.7c0.6,0.4,1.3,0.7,2.1,0.9c0.8,0.2,1.6,0.3,2.5,0.3c0.5,0,1.1-0.1,1.7-0.2
			c0.6-0.1,1.2-0.4,1.7-0.7c0.5-0.3,0.9-0.7,1.3-1.2c0.3-0.5,0.5-1.2,0.5-1.9c0-0.8-0.2-1.4-0.5-1.8s-0.8-0.9-1.4-1.2
			c-0.6-0.3-1.2-0.5-2-0.7c-0.7-0.2-1.5-0.3-2.2-0.5c-0.8-0.1-1.5-0.3-2.2-0.5c-0.7-0.2-1.4-0.5-2-0.8c-0.6-0.3-1-0.8-1.4-1.3
			c-0.4-0.5-0.5-1.2-0.5-2.1c0-0.8,0.2-1.6,0.5-2.2c0.4-0.6,0.8-1.1,1.4-1.5s1.2-0.7,1.9-0.8c0.7-0.2,1.4-0.3,2.1-0.3
			c0.9,0,1.8,0.1,2.6,0.3c0.8,0.2,1.5,0.5,2.1,1s1.1,1,1.5,1.7c0.4,0.7,0.6,1.5,0.6,2.5H2377.8z"/>
	</g>
	<g>
		<path fill="#F2F2F2" d="M-498-373.2c0,0.7,0.1,1.3,0.2,1.9c0.1,0.6,0.3,1.1,0.6,1.4c0.3,0.4,0.7,0.7,1.2,0.9
			c0.5,0.2,1.2,0.3,2,0.3c0.9,0,1.8-0.3,2.5-0.9c0.7-0.6,1.1-1.5,1.1-2.8c0-0.7-0.1-1.3-0.3-1.7c-0.2-0.5-0.5-0.9-0.9-1.3
			c-0.4-0.4-1-0.7-1.7-1.1s-1.5-0.7-2.5-1c-1.3-0.4-2.5-0.9-3.5-1.5c-1-0.5-1.8-1.2-2.5-1.9c-0.7-0.7-1.1-1.5-1.4-2.5
			c-0.3-0.9-0.5-2-0.5-3.3c0-3,0.8-5.2,2.5-6.6c1.7-1.5,3.9-2.2,6.8-2.2c1.3,0,2.6,0.1,3.7,0.4c1.1,0.3,2.1,0.8,2.9,1.4
			c0.8,0.7,1.5,1.5,1.9,2.5c0.5,1,0.7,2.2,0.7,3.7v0.8h-5.8c0-1.4-0.3-2.5-0.8-3.3c-0.5-0.8-1.3-1.2-2.5-1.2c-0.7,0-1.2,0.1-1.7,0.3
			c-0.4,0.2-0.8,0.5-1.1,0.8c-0.3,0.3-0.4,0.7-0.5,1.1c-0.1,0.4-0.1,0.9-0.1,1.3c0,0.9,0.2,1.7,0.6,2.3c0.4,0.6,1.2,1.2,2.5,1.7
			l4.7,2c1.1,0.5,2.1,1,2.8,1.6c0.7,0.5,1.3,1.1,1.7,1.8c0.4,0.6,0.7,1.3,0.9,2.1c0.2,0.8,0.3,1.6,0.3,2.5c0,3.2-0.9,5.5-2.8,6.9
			c-1.8,1.4-4.4,2.2-7.7,2.2c-3.4,0-5.9-0.7-7.3-2.2c-1.5-1.5-2.2-3.6-2.2-6.4v-1.2h6V-373.2z"/>
		<path fill="#F2F2F2" d="M-480.8-394.7h6v30h-6V-394.7z"/>
		<path fill="#F2F2F2" d="M-452.7-389.7h-6.6v25h-6v-25h-6.6v-5h19.2V-389.7z"/>
		<path fill="#F2F2F2" d="M-433.3-389.7h-10.7v7.1h10.1v5h-10.1v8.1h11.1v5h-17.2v-30h16.8V-389.7z"/>
		<path fill="#F2F2F2" d="M-490.9-353.3c-0.5-1-1.5-1.5-2.8-1.5c-0.8,0-1.4,0.2-1.9,0.6c-0.5,0.4-0.9,1.1-1.2,2
			c-0.3,0.9-0.5,2.1-0.6,3.6c-0.1,1.5-0.2,3.3-0.2,5.4c0,2.3,0.1,4.1,0.2,5.5c0.2,1.4,0.4,2.5,0.7,3.3c0.3,0.8,0.7,1.3,1.2,1.6
			c0.5,0.3,1.1,0.4,1.7,0.4c0.5,0,1-0.1,1.5-0.3c0.5-0.2,0.9-0.5,1.2-1.1s0.6-1.3,0.8-2.3c0.2-1,0.3-2.3,0.3-3.9h6
			c0,1.6-0.1,3.2-0.4,4.6c-0.3,1.5-0.7,2.7-1.4,3.8c-0.7,1.1-1.7,1.9-2.9,2.6c-1.2,0.6-2.9,0.9-4.9,0.9c-2.3,0-4.1-0.4-5.4-1.1
			c-1.3-0.7-2.4-1.8-3.1-3.1c-0.7-1.4-1.2-3-1.4-4.9c-0.2-1.9-0.3-4-0.3-6.3c0-2.3,0.1-4.4,0.3-6.3c0.2-1.9,0.7-3.6,1.4-4.9
			c0.7-1.4,1.7-2.4,3.1-3.2c1.3-0.8,3.2-1.2,5.4-1.2c2.2,0,3.9,0.4,5.1,1.1c1.2,0.7,2.2,1.6,2.8,2.7c0.6,1.1,1,2.2,1.2,3.5
			c0.2,1.2,0.2,2.4,0.2,3.5h-6C-490.1-350.8-490.3-352.3-490.9-353.3z"/>
		<path fill="#F2F2F2" d="M-480.7-350c0.2-1.9,0.7-3.6,1.4-4.9c0.7-1.4,1.7-2.4,3.1-3.2c1.3-0.8,3.2-1.2,5.4-1.2
			c2.3,0,4.1,0.4,5.4,1.2c1.3,0.8,2.4,1.8,3.1,3.2c0.7,1.4,1.2,3,1.4,4.9c0.2,1.9,0.3,4,0.3,6.3c0,2.3-0.1,4.4-0.3,6.3
			c-0.2,1.9-0.7,3.5-1.4,4.9c-0.7,1.4-1.7,2.4-3.1,3.1c-1.3,0.7-3.2,1.1-5.4,1.1c-2.3,0-4.1-0.4-5.4-1.1c-1.3-0.7-2.4-1.8-3.1-3.1
			c-0.7-1.4-1.2-3-1.4-4.9c-0.2-1.9-0.3-4-0.3-6.3C-481-346-480.9-348.1-480.7-350z M-474.8-338.6c0.1,1.4,0.3,2.6,0.6,3.4
			c0.3,0.9,0.7,1.5,1.3,1.9c0.5,0.4,1.3,0.6,2.2,0.6s1.6-0.2,2.2-0.6c0.5-0.4,1-1,1.3-1.9c0.3-0.9,0.5-2,0.6-3.4
			c0.1-1.4,0.1-3.1,0.1-5.1c0-2,0-3.7-0.1-5.1c-0.1-1.4-0.3-2.5-0.6-3.4c-0.3-0.9-0.7-1.5-1.3-2c-0.5-0.4-1.3-0.6-2.2-0.6
			s-1.6,0.2-2.2,0.6c-0.5,0.4-1,1.1-1.3,2c-0.3,0.9-0.5,2-0.6,3.4c-0.1,1.4-0.1,3.1-0.1,5.1C-474.9-341.7-474.9-340-474.8-338.6z"/>
		<path fill="#F2F2F2" d="M-442.7-338.2L-442.7-338.2l0.1-20.5h5.5v30h-6.9l-7.4-21h-0.1v21h-5.5v-30h7L-442.7-338.2z"/>
		<path fill="#F2F2F2" d="M-422.7-358.7c2.1,0,3.8,0.3,5.1,1c1.3,0.7,2.3,1.7,3,2.9c0.7,1.3,1.2,2.8,1.4,4.6c0.3,1.8,0.4,3.8,0.4,6
			c0,2.6-0.2,4.9-0.5,6.9c-0.3,1.9-0.9,3.5-1.7,4.8c-0.8,1.3-1.8,2.2-3.2,2.8c-1.3,0.6-3,0.9-5,0.9h-9.5v-30H-422.7z M-423.9-333.2
			c1.1,0,1.9-0.2,2.6-0.5c0.6-0.4,1.2-1,1.5-1.8c0.4-0.8,0.6-1.9,0.8-3.3c0.1-1.4,0.2-3.1,0.2-5.1c0-1.7-0.1-3.2-0.2-4.5
			c-0.1-1.3-0.3-2.4-0.7-3.2c-0.4-0.9-0.9-1.5-1.6-1.9c-0.7-0.4-1.6-0.7-2.8-0.7h-2.6v21.1H-423.9z"/>
		<path fill="#F2F2F2" d="M-408.5-358.7h6v30h-6V-358.7z"/>
		<path fill="#F2F2F2" d="M-380.4-353.7h-6.6v25h-6v-25h-6.6v-5h19.2V-353.7z"/>
		<path fill="#F2F2F2" d="M-377.5-358.7h6v30h-6V-358.7z"/>
		<path fill="#F2F2F2" d="M-367.3-350c0.2-1.9,0.7-3.6,1.4-4.9c0.7-1.4,1.7-2.4,3.1-3.2c1.3-0.8,3.2-1.2,5.4-1.2
			c2.3,0,4.1,0.4,5.4,1.2c1.3,0.8,2.4,1.8,3.1,3.2c0.7,1.4,1.2,3,1.4,4.9c0.2,1.9,0.3,4,0.3,6.3c0,2.3-0.1,4.4-0.3,6.3
			c-0.2,1.9-0.7,3.5-1.4,4.9c-0.7,1.4-1.7,2.4-3.1,3.1c-1.3,0.7-3.1,1.1-5.4,1.1c-2.3,0-4.1-0.4-5.4-1.1c-1.3-0.7-2.4-1.8-3.1-3.1
			c-0.7-1.4-1.2-3-1.4-4.9c-0.2-1.9-0.3-4-0.3-6.3C-367.6-346-367.5-348.1-367.3-350z M-361.4-338.6c0.1,1.4,0.3,2.6,0.6,3.4
			c0.3,0.9,0.7,1.5,1.3,1.9c0.5,0.4,1.3,0.6,2.2,0.6s1.6-0.2,2.2-0.6c0.5-0.4,1-1,1.3-1.9c0.3-0.9,0.5-2,0.6-3.4
			c0.1-1.4,0.1-3.1,0.1-5.1c0-2,0-3.7-0.1-5.1c-0.1-1.4-0.3-2.5-0.6-3.4c-0.3-0.9-0.7-1.5-1.3-2c-0.5-0.4-1.3-0.6-2.2-0.6
			s-1.6,0.2-2.2,0.6c-0.5,0.4-1,1.1-1.3,2c-0.3,0.9-0.5,2-0.6,3.4c-0.1,1.4-0.1,3.1-0.1,5.1C-361.5-341.7-361.5-340-361.4-338.6z"/>
		<path fill="#F2F2F2" d="M-329.3-338.2L-329.3-338.2l0.1-20.5h5.5v30h-6.9l-7.4-21h-0.1v21h-5.5v-30h7L-329.3-338.2z"/>
		<path fill="#F2F2F2" d="M-314.6-337.2c0,0.7,0.1,1.3,0.2,1.9c0.1,0.6,0.3,1.1,0.6,1.4c0.3,0.4,0.7,0.7,1.2,0.9
			c0.5,0.2,1.2,0.3,2,0.3c0.9,0,1.8-0.3,2.5-0.9c0.7-0.6,1.1-1.5,1.1-2.8c0-0.7-0.1-1.3-0.3-1.7c-0.2-0.5-0.5-0.9-0.9-1.3
			c-0.4-0.4-1-0.7-1.7-1.1c-0.7-0.3-1.5-0.7-2.5-1c-1.3-0.4-2.5-0.9-3.5-1.5c-1-0.5-1.8-1.2-2.5-1.9c-0.7-0.7-1.1-1.5-1.4-2.5
			c-0.3-0.9-0.5-2-0.5-3.3c0-3,0.8-5.2,2.5-6.6c1.7-1.5,3.9-2.2,6.8-2.2c1.3,0,2.6,0.1,3.7,0.4c1.1,0.3,2.1,0.8,2.9,1.4
			c0.8,0.7,1.5,1.5,1.9,2.5c0.5,1,0.7,2.2,0.7,3.7v0.8h-5.8c0-1.4-0.3-2.5-0.8-3.3c-0.5-0.8-1.3-1.2-2.5-1.2c-0.7,0-1.2,0.1-1.7,0.3
			c-0.4,0.2-0.8,0.5-1.1,0.8c-0.3,0.3-0.4,0.7-0.5,1.1c-0.1,0.4-0.1,0.9-0.1,1.3c0,0.9,0.2,1.7,0.6,2.3c0.4,0.6,1.2,1.2,2.5,1.7
			l4.7,2c1.1,0.5,2.1,1,2.8,1.6c0.7,0.5,1.3,1.1,1.7,1.8c0.4,0.6,0.7,1.3,0.9,2.1c0.2,0.8,0.3,1.6,0.3,2.5c0,3.2-0.9,5.5-2.8,6.9
			c-1.8,1.4-4.4,2.2-7.7,2.2c-3.4,0-5.9-0.7-7.3-2.2c-1.5-1.5-2.2-3.6-2.2-6.4v-1.2h6V-337.2z"/>
	</g>
	<line fill="none" stroke="#298EFD" stroke-width="2" stroke-miterlimit="10" x1="-505" y1="-321.8" x2="-301" y2="-321.8"/>
	<line fill="none" stroke="#298EFD" stroke-width="2" stroke-miterlimit="10" x1="-253" y1="-321.8" x2="-127" y2="-321.8"/>
	
		<text transform="matrix(1 0 0 1 -253.0002 -328.2487)" fill="#F2F2F2" font-family="'HelveticaNeue-CondensedBold'" font-size="42">UTILITY</text>
</g>
<g id="Single">
	<text transform="matrix(1 0 0 1 788 745.1667)" fill="#F2F2F2" font-family="'HelveticaNeue-CondensedBold'" font-size="25">MODEL</text>
	<text transform="matrix(1 0 0 1 787 768.1667)" fill="#F2F2F2" font-family="'HelveticaNeue-Thin'" font-size="29">SINGLE FAMILY HOMES</text>
</g>
<g id="Guest">
	<text transform="matrix(1 0 0 1 789 1100.1666)" fill="#F2F2F2" font-family="'HelveticaNeue-CondensedBold'" font-size="25">MODEL</text>
	<text transform="matrix(1 0 0 1 788 1123.1666)" fill="#F2F2F2" font-family="'HelveticaNeue-Thin'" font-size="29">RENTALUNITS</text>
</g>
<g id="pool">
	<text transform="matrix(1 0 0 1 786 1672.1666)" fill="#F2F2F2" font-family="'HelveticaNeue-CondensedBold'" font-size="25">MODEL</text>
	<text transform="matrix(1 0 0 1 785 1695.1666)" fill="#F2F2F2" font-family="'HelveticaNeue-Thin'" font-size="29">POOL HOUSES</text>
</g>
<g id="model-title">
	<g>
		<path fill="#F2F2F2" d="M7,10.2c0.9,0,1.6,0.1,2.4,0.3c0.7,0.2,1.3,0.5,1.9,0.9c0.5,0.4,0.9,0.9,1.2,1.6c0.3,0.7,0.4,1.5,0.4,2.5
			c0,1.1-0.3,2.1-0.8,2.9s-1.3,1.3-2.3,1.6V20c1.2,0.2,2.1,0.6,2.8,1.5c0.7,0.8,1,1.9,1,3.3c0,0.8-0.1,1.6-0.3,2.3
			c-0.2,0.7-0.6,1.4-1.1,1.9c-0.5,0.6-1.2,1-2,1.3c-0.8,0.3-1.8,0.5-3.1,0.5H0V10.2H7z M5.4,18.7c1.2,0,2-0.2,2.5-0.6
			c0.5-0.4,0.8-1.1,0.8-2.1S8.5,14.3,8,13.9c-0.5-0.4-1.2-0.6-2.3-0.6H4.2v5.4H5.4z M5.8,27.8c1,0,1.8-0.2,2.4-0.7
			c0.6-0.4,0.9-1.3,0.9-2.5c0-0.6-0.1-1.1-0.2-1.5c-0.2-0.4-0.4-0.7-0.7-1c-0.3-0.2-0.6-0.4-1-0.5c-0.4-0.1-0.8-0.1-1.3-0.1H4.2v6.2
			H5.8z"/>
		<path fill="#F2F2F2" d="M25.3,10.2l5.5,20.7h-4.4l-1-4.4H20l-1,4.4h-4.4l5.5-20.7H25.3z M24.8,23.1l-2-9.3h-0.1l-2,9.3H24.8z"/>
		<path fill="#F2F2F2" d="M35.6,25c0,0.5,0,0.9,0.1,1.3c0.1,0.4,0.2,0.7,0.4,1c0.2,0.3,0.5,0.5,0.9,0.6c0.4,0.2,0.8,0.2,1.3,0.2
			c0.6,0,1.2-0.2,1.7-0.6c0.5-0.4,0.8-1.1,0.8-1.9c0-0.5-0.1-0.9-0.2-1.2c-0.1-0.3-0.3-0.6-0.6-0.9c-0.3-0.3-0.7-0.5-1.1-0.7
			c-0.5-0.2-1.1-0.4-1.8-0.7c-0.9-0.3-1.7-0.6-2.4-1c-0.7-0.4-1.2-0.8-1.7-1.3c-0.5-0.5-0.8-1.1-1-1.7c-0.2-0.6-0.3-1.4-0.3-2.2
			c0-2,0.6-3.6,1.7-4.6c1.1-1,2.7-1.5,4.7-1.5c0.9,0,1.8,0.1,2.6,0.3c0.8,0.2,1.5,0.5,2,1c0.6,0.5,1,1,1.3,1.7
			c0.3,0.7,0.5,1.6,0.5,2.5v0.6h-4c0-1-0.2-1.7-0.5-2.3c-0.3-0.5-0.9-0.8-1.7-0.8c-0.5,0-0.9,0.1-1.2,0.2s-0.6,0.3-0.7,0.5
			c-0.2,0.2-0.3,0.5-0.4,0.8c-0.1,0.3-0.1,0.6-0.1,0.9c0,0.6,0.1,1.2,0.4,1.6s0.9,0.8,1.7,1.2l3.2,1.4c0.8,0.3,1.4,0.7,1.9,1.1
			c0.5,0.4,0.9,0.8,1.2,1.2c0.3,0.4,0.5,0.9,0.6,1.4c0.1,0.5,0.2,1.1,0.2,1.7c0,2.2-0.6,3.8-1.9,4.8c-1.3,1-3,1.5-5.3,1.5
			c-2.4,0-4-0.5-5.1-1.5c-1-1-1.5-2.5-1.5-4.4v-0.8h4.2V25z"/>
		<path fill="#F2F2F2" d="M58.9,13.6h-7.4v4.9h7v3.4h-7v5.6h7.7v3.4H47.3V10.2h11.6V13.6z"/>
	</g>
	<g>
		<path fill="#F2F2F2" d="M70.3,10.2l3,14.6h0.1l3-14.6h6.2v20.7h-3.8V14.4h-0.1l-3.7,16.5h-3.2L68,14.4h-0.1v16.5h-3.8V10.2H70.3z"
			/>
		<path fill="#F2F2F2" d="M85.2,16.2c0.1-1.3,0.5-2.5,1-3.4c0.5-0.9,1.2-1.7,2.1-2.2c0.9-0.5,2.2-0.8,3.7-0.8s2.8,0.3,3.7,0.8
			c0.9,0.5,1.6,1.3,2.1,2.2c0.5,0.9,0.8,2.1,1,3.4s0.2,2.8,0.2,4.3c0,1.6-0.1,3-0.2,4.4c-0.1,1.3-0.5,2.4-1,3.4s-1.2,1.7-2.1,2.2
			c-0.9,0.5-2.2,0.8-3.7,0.8s-2.8-0.3-3.7-0.8c-0.9-0.5-1.6-1.2-2.1-2.2s-0.8-2.1-1-3.4c-0.1-1.3-0.2-2.8-0.2-4.4
			C85,19,85.1,17.5,85.2,16.2z M89.3,24.1c0.1,1,0.2,1.8,0.4,2.4c0.2,0.6,0.5,1.1,0.9,1.3s0.9,0.4,1.5,0.4c0.6,0,1.1-0.1,1.5-0.4
			s0.7-0.7,0.9-1.3c0.2-0.6,0.3-1.4,0.4-2.4c0.1-1,0.1-2.2,0.1-3.6s0-2.6-0.1-3.5c-0.1-1-0.2-1.8-0.4-2.4c-0.2-0.6-0.5-1.1-0.9-1.3
			c-0.4-0.3-0.9-0.4-1.5-0.4c-0.6,0-1.1,0.1-1.5,0.4c-0.4,0.3-0.7,0.7-0.9,1.3c-0.2,0.6-0.3,1.4-0.4,2.4c-0.1,1-0.1,2.1-0.1,3.5
			S89.2,23.1,89.3,24.1z"/>
		<path fill="#F2F2F2" d="M108.6,10.2c1.4,0,2.6,0.2,3.5,0.7c0.9,0.5,1.6,1.2,2.1,2c0.5,0.9,0.8,1.9,1,3.2c0.2,1.2,0.3,2.6,0.3,4.1
			c0,1.8-0.1,3.4-0.3,4.7s-0.6,2.5-1.1,3.3c-0.5,0.9-1.3,1.5-2.2,1.9c-0.9,0.4-2.1,0.6-3.5,0.6h-6.6V10.2H108.6z M107.8,27.8
			c0.7,0,1.3-0.1,1.8-0.4c0.4-0.3,0.8-0.7,1.1-1.2c0.3-0.6,0.4-1.3,0.5-2.3c0.1-0.9,0.1-2.1,0.1-3.5c0-1.2,0-2.2-0.1-3.1
			s-0.2-1.6-0.5-2.2c-0.2-0.6-0.6-1-1.1-1.3c-0.5-0.3-1.1-0.4-1.9-0.4H106v14.6H107.8z"/>
		<path fill="#F2F2F2" d="M129.8,13.6h-7.4v4.9h7v3.4h-7v5.6h7.7v3.4h-11.9V10.2h11.6V13.6z"/>
		<path fill="#F2F2F2" d="M132.2,10.2h4.2v17.3h7.4v3.4h-11.6V10.2z"/>
		<path fill="#F2F2F2" d="M149,25c0,0.5,0,0.9,0.1,1.3c0.1,0.4,0.2,0.7,0.4,1c0.2,0.3,0.5,0.5,0.9,0.6c0.4,0.2,0.8,0.2,1.3,0.2
			c0.6,0,1.2-0.2,1.7-0.6c0.5-0.4,0.8-1.1,0.8-1.9c0-0.5-0.1-0.9-0.2-1.2c-0.1-0.3-0.3-0.6-0.6-0.9c-0.3-0.3-0.7-0.5-1.1-0.7
			c-0.5-0.2-1.1-0.4-1.8-0.7c-0.9-0.3-1.7-0.6-2.4-1c-0.7-0.4-1.2-0.8-1.7-1.3c-0.5-0.5-0.8-1.1-1-1.7c-0.2-0.6-0.3-1.4-0.3-2.2
			c0-2,0.6-3.6,1.7-4.6c1.1-1,2.7-1.5,4.7-1.5c0.9,0,1.8,0.1,2.6,0.3c0.8,0.2,1.5,0.5,2,1c0.6,0.5,1,1,1.3,1.7
			c0.3,0.7,0.5,1.6,0.5,2.5v0.6h-4c0-1-0.2-1.7-0.5-2.3c-0.3-0.5-0.9-0.8-1.7-0.8c-0.5,0-0.9,0.1-1.2,0.2s-0.6,0.3-0.7,0.5
			c-0.2,0.2-0.3,0.5-0.4,0.8c-0.1,0.3-0.1,0.6-0.1,0.9c0,0.6,0.1,1.2,0.4,1.6s0.9,0.8,1.7,1.2l3.2,1.4c0.8,0.3,1.4,0.7,1.9,1.1
			c0.5,0.4,0.9,0.8,1.2,1.2c0.3,0.4,0.5,0.9,0.6,1.4c0.1,0.5,0.2,1.1,0.2,1.7c0,2.2-0.6,3.8-1.9,4.8c-1.3,1-3,1.5-5.3,1.5
			c-2.4,0-4-0.5-5.1-1.5c-1-1-1.5-2.5-1.5-4.4v-0.8h4.2V25z"/>
	</g>
	<line fill="#4CAF50" stroke="#F2F2F2" stroke-miterlimit="10" x1="0" y1="32.7" x2="159" y2="32.7"/>
	<text transform="matrix(1 0 0 1 43.3778 9.1035)" fill="#F2F2F2" font-family="'HelveticaNeue-CondensedBold'" font-size="12">PRE-DESIGNED</text>
</g>
<g id="guest">
	<text transform="matrix(1 0 0 1 786 914.1667)" fill="#F2F2F2" font-family="'HelveticaNeue-CondensedBold'" font-size="25">MODEL</text>
	<text transform="matrix(1 0 0 1 785 937.1667)" fill="#F2F2F2" font-family="'HelveticaNeue-Thin'" font-size="29">GUESTHOUSES</text>
</g>
<g id="office">
	<text transform="matrix(1 0 0 1 788 1496.1666)" fill="#F2F2F2" font-family="'HelveticaNeue-CondensedBold'" font-size="25">MODEL</text>
	<text transform="matrix(1 0 0 1 787 1519.1666)" fill="#F2F2F2" font-family="'HelveticaNeue-Thin'" font-size="29">OFFICE, WORKSHOP, STUDIO</text>
</g>
<g id="garages">
	<text transform="matrix(1 0 0 1 786 1286.1666)" fill="#F2F2F2" font-family="'HelveticaNeue-CondensedBold'" font-size="25">MODEL</text>
	<text transform="matrix(1 0 0 1 785 1309.1666)" fill="#F2F2F2" font-family="'HelveticaNeue-Thin'" font-size="29">GARAGES</text>
</g>
<g id="Tree_Headers">
	<rect x="2380" y="98.7" display="none" fill="#020202" width="467" height="178.8"/>
	<line fill="none" stroke="#298EFD" stroke-width="2" stroke-miterlimit="10" x1="2499" y1="219.2" x2="2721" y2="219.2"/>
	<g>
		<path fill="#F2F2F2" d="M2511.3,145.7c2.1,0,3.8,0.3,5.1,1c1.3,0.7,2.3,1.7,3,2.9c0.7,1.3,1.2,2.8,1.4,4.6s0.4,3.8,0.4,6
			c0,2.6-0.2,4.9-0.5,6.9s-0.9,3.5-1.7,4.8c-0.8,1.3-1.8,2.2-3.2,2.8s-3,0.9-5,0.9h-9.5v-30H2511.3z M2510.1,171.2
			c1.1,0,1.9-0.2,2.6-0.5c0.6-0.4,1.2-1,1.5-1.8c0.4-0.8,0.6-1.9,0.8-3.3c0.1-1.4,0.2-3.1,0.2-5.1c0-1.7-0.1-3.2-0.2-4.5
			c-0.1-1.3-0.3-2.4-0.7-3.2c-0.3-0.9-0.9-1.5-1.6-1.9c-0.7-0.4-1.6-0.7-2.8-0.7h-2.6v21.1H2510.1z"/>
		<path fill="#F2F2F2" d="M2542,150.7h-10.7v7.1h10.1v5h-10.1v8.1h11.1v5h-17.2v-30h16.8V150.7z"/>
		<path fill="#F2F2F2" d="M2550.3,167.2c0,0.7,0.1,1.3,0.2,1.9c0.1,0.6,0.3,1.1,0.6,1.4c0.3,0.4,0.7,0.7,1.2,0.9
			c0.5,0.2,1.2,0.3,2,0.3c0.9,0,1.8-0.3,2.5-0.9c0.7-0.6,1.1-1.5,1.1-2.8c0-0.7-0.1-1.3-0.3-1.7c-0.2-0.5-0.5-0.9-0.9-1.3
			c-0.4-0.4-1-0.7-1.7-1.1c-0.7-0.3-1.5-0.7-2.5-1c-1.3-0.4-2.5-0.9-3.5-1.5c-1-0.5-1.8-1.2-2.5-1.9c-0.7-0.7-1.1-1.5-1.4-2.5
			c-0.3-0.9-0.5-2-0.5-3.3c0-3,0.8-5.2,2.5-6.6c1.7-1.5,3.9-2.2,6.8-2.2c1.3,0,2.6,0.1,3.7,0.4c1.1,0.3,2.1,0.8,2.9,1.4
			s1.5,1.5,1.9,2.5c0.5,1,0.7,2.2,0.7,3.7v0.8h-5.8c0-1.4-0.3-2.5-0.8-3.3c-0.5-0.8-1.3-1.2-2.5-1.2c-0.7,0-1.2,0.1-1.7,0.3
			c-0.4,0.2-0.8,0.5-1.1,0.8c-0.3,0.3-0.4,0.7-0.5,1.1s-0.1,0.9-0.1,1.3c0,0.9,0.2,1.7,0.6,2.3c0.4,0.6,1.2,1.2,2.5,1.7l4.7,2
			c1.1,0.5,2.1,1,2.8,1.6c0.7,0.5,1.3,1.1,1.7,1.8c0.4,0.6,0.7,1.3,0.9,2.1c0.2,0.8,0.3,1.6,0.3,2.5c0,3.2-0.9,5.5-2.8,6.9
			c-1.8,1.4-4.4,2.2-7.7,2.2c-3.4,0-5.9-0.7-7.3-2.2c-1.5-1.5-2.2-3.6-2.2-6.4v-1.2h6V167.2z"/>
		<path fill="#F2F2F2" d="M2567.5,145.7h6v30h-6V145.7z"/>
		<path fill="#F2F2F2" d="M2591.2,152.9c-0.1-0.6-0.3-1.1-0.6-1.6s-0.6-0.9-1.1-1.2c-0.4-0.3-1-0.5-1.6-0.5c-1.5,0-2.5,0.8-3.2,2.4
			c-0.6,1.6-1,4.3-1,8.1c0,1.8,0.1,3.4,0.2,4.9c0.1,1.5,0.3,2.7,0.6,3.7c0.3,1,0.7,1.8,1.3,2.4s1.3,0.8,2.1,0.8
			c0.4,0,0.8-0.1,1.2-0.3c0.4-0.2,0.8-0.5,1.2-0.9c0.4-0.4,0.7-0.9,0.9-1.5c0.3-0.6,0.4-1.3,0.4-2.1V164h-4v-4.5h9.8v16.2h-4.5v-2.8
			h-0.1c-0.7,1.2-1.6,2-2.6,2.5c-1,0.5-2.2,0.7-3.7,0.7c-1.8,0-3.4-0.3-4.5-1c-1.2-0.6-2.1-1.6-2.7-3c-0.7-1.3-1.1-3-1.3-5
			c-0.2-2-0.3-4.3-0.3-6.9c0-2.5,0.2-4.7,0.5-6.6c0.3-1.9,0.9-3.5,1.7-4.8c0.8-1.3,1.8-2.2,3.1-2.9c1.3-0.6,2.9-1,4.8-1
			c3.3,0,5.7,0.8,7.1,2.5c1.5,1.6,2.2,4,2.2,7h-5.8C2591.4,154.1,2591.3,153.5,2591.2,152.9z"/>
		<path fill="#F2F2F2" d="M2615.7,166.2L2615.7,166.2l0.1-20.5h5.5v30h-6.9l-7.4-21h-0.1v21h-5.5v-30h7L2615.7,166.2z"/>
		<path fill="#F2F2F2" d="M2652.1,163.6c0.2-0.9,0.3-1.6,0.3-2.3h5.2c0,1.6-0.3,3.2-0.9,4.7c-0.6,1.5-1.3,2.9-2.2,4.2l3.9,5.5h-6.4
			l-1.7-2.3c-0.8,0.9-1.8,1.6-3,2.1c-1.3,0.5-2.7,0.7-4.2,0.7c-1.9,0-3.4-0.3-4.6-0.8c-1.2-0.5-2.1-1.3-2.8-2.1
			c-0.7-0.9-1.1-1.8-1.4-2.8s-0.4-1.9-0.4-2.8c0-1.8,0.5-3.4,1.6-4.8c1.1-1.4,2.6-2.7,4.4-3.9l-1-1.6c-0.4-0.6-0.8-1.2-1-1.6
			c-0.3-0.5-0.5-0.9-0.6-1.3s-0.2-0.8-0.3-1.2c-0.1-0.4-0.1-0.8-0.1-1.2c0-1,0.2-1.9,0.6-2.6c0.4-0.8,0.9-1.4,1.6-2s1.5-1,2.4-1.3
			c0.9-0.3,2-0.4,3.1-0.4c1.3,0,2.4,0.2,3.3,0.5c0.9,0.3,1.7,0.8,2.3,1.3c0.6,0.6,1.1,1.2,1.4,2c0.3,0.8,0.4,1.6,0.4,2.4
			c0,1.5-0.4,2.9-1.3,4.1c-0.9,1.2-2.2,2.4-3.9,3.7l4.5,6.1C2651.7,165.2,2651.9,164.4,2652.1,163.6z M2640.4,165.1
			c-0.4,0.8-0.7,1.6-0.7,2.6c0,0.4,0.1,0.9,0.3,1.4c0.2,0.5,0.4,0.9,0.8,1.3c0.3,0.4,0.8,0.7,1.3,0.9c0.5,0.2,1.1,0.4,1.8,0.4
			c1.6,0,2.9-0.6,3.9-1.9l-5-7.1C2641.7,163.4,2640.9,164.3,2640.4,165.1z M2643.4,155.1l0.7,1l1.1-0.9c0.7-0.6,1.2-1.1,1.4-1.7
			c0.3-0.5,0.4-1.1,0.4-1.6c0-0.8-0.2-1.4-0.7-1.9c-0.5-0.4-1.1-0.7-1.9-0.7c-0.7,0-1.3,0.2-1.8,0.6c-0.5,0.4-0.7,1-0.7,1.8
			C2641.9,152.7,2642.4,153.8,2643.4,155.1z"/>
		<path fill="#F2F2F2" d="M2517.9,186.7h-10.7v7.1h10.1v5h-10.1v8.1h11.1v5h-17.2v-30h16.8V186.7z"/>
		<path fill="#F2F2F2" d="M2535.6,202.2L2535.6,202.2l0.1-20.5h5.5v30h-6.9l-7.4-21h-0.1v21h-5.5v-30h7L2535.6,202.2z"/>
		<path fill="#F2F2F2" d="M2558.5,188.9c-0.1-0.6-0.3-1.1-0.6-1.6c-0.3-0.5-0.6-0.9-1.1-1.2c-0.4-0.3-1-0.5-1.6-0.5
			c-1.5,0-2.5,0.8-3.2,2.4c-0.6,1.6-1,4.3-1,8.1c0,1.8,0.1,3.4,0.2,4.9s0.3,2.7,0.6,3.7c0.3,1,0.7,1.8,1.3,2.4s1.3,0.8,2.1,0.8
			c0.4,0,0.8-0.1,1.2-0.3c0.4-0.2,0.8-0.5,1.2-0.9c0.4-0.4,0.7-0.9,0.9-1.5c0.3-0.6,0.4-1.3,0.4-2.1V200h-4v-4.5h9.8v16.2h-4.5v-2.8
			h-0.1c-0.7,1.2-1.6,2-2.6,2.5c-1,0.5-2.2,0.7-3.7,0.7c-1.8,0-3.4-0.3-4.5-1c-1.2-0.6-2.1-1.6-2.7-3s-1.1-3-1.3-5
			c-0.2-2-0.3-4.3-0.3-6.9c0-2.5,0.2-4.7,0.5-6.6s0.9-3.5,1.7-4.8c0.8-1.3,1.8-2.2,3.1-2.9c1.3-0.6,2.9-1,4.8-1
			c3.3,0,5.7,0.8,7.1,2.5s2.2,4,2.2,7h-5.8C2558.7,190.1,2558.7,189.5,2558.5,188.9z"/>
		<path fill="#F2F2F2" d="M2569.1,181.7h6v30h-6V181.7z"/>
		<path fill="#F2F2F2" d="M2593.9,202.2L2593.9,202.2l0.1-20.5h5.5v30h-6.9l-7.4-21h-0.1v21h-5.5v-30h7L2593.9,202.2z"/>
		<path fill="#F2F2F2" d="M2620.5,186.7h-10.7v7.1h10.1v5h-10.1v8.1h11.1v5h-17.2v-30h16.8V186.7z"/>
		<path fill="#F2F2F2" d="M2640.7,186.7H2630v7.1h10.1v5H2630v8.1h11.1v5h-17.2v-30h16.8V186.7z"/>
		<path fill="#F2F2F2" d="M2655.3,181.7c2.5,0,4.5,0.6,5.9,1.9c1.4,1.3,2.1,3.2,2.1,5.8c0,2-0.4,3.7-1.2,4.9
			c-0.8,1.3-2.1,2.1-3.8,2.5v0.1c1.5,0.2,2.6,0.7,3.3,1.5c0.7,0.8,1.1,2,1.3,3.7c0.1,0.6,0.1,1.2,0.1,1.8c0,0.7,0.1,1.4,0.1,2.2
			c0.1,1.6,0.1,2.8,0.3,3.7c0.2,0.8,0.5,1.4,1.1,1.7v0.3h-6.6c-0.3-0.4-0.5-0.9-0.6-1.4s-0.1-1.1-0.2-1.7l-0.2-5.8
			c-0.1-1.2-0.3-2.1-0.9-2.8c-0.5-0.7-1.4-1-2.7-1h-3.2v12.7h-6v-30H2655.3z M2652.7,194.8c1.5,0,2.6-0.3,3.4-1
			c0.8-0.7,1.2-1.8,1.2-3.5c0-2.8-1.4-4.2-4.2-4.2h-2.9v8.7H2652.7z"/>
		<path fill="#F2F2F2" d="M2667.8,181.7h6v30h-6V181.7z"/>
		<path fill="#F2F2F2" d="M2692.6,202.2L2692.6,202.2l0.1-20.5h5.5v30h-6.9l-7.4-21h-0.1v21h-5.5v-30h7L2692.6,202.2z"/>
		<path fill="#F2F2F2" d="M2715.5,188.9c-0.1-0.6-0.3-1.1-0.6-1.6c-0.3-0.5-0.6-0.9-1.1-1.2c-0.4-0.3-1-0.5-1.6-0.5
			c-1.5,0-2.5,0.8-3.1,2.4c-0.6,1.6-1,4.3-1,8.1c0,1.8,0.1,3.4,0.2,4.9c0.1,1.5,0.3,2.7,0.6,3.7c0.3,1,0.7,1.8,1.3,2.4
			s1.3,0.8,2.1,0.8c0.4,0,0.8-0.1,1.2-0.3c0.4-0.2,0.8-0.5,1.2-0.9c0.4-0.4,0.7-0.9,0.9-1.5c0.3-0.6,0.4-1.3,0.4-2.1V200h-4v-4.5
			h9.8v16.2h-4.5v-2.8h-0.1c-0.7,1.2-1.6,2-2.6,2.5c-1,0.5-2.2,0.7-3.7,0.7c-1.8,0-3.4-0.3-4.5-1c-1.2-0.6-2.1-1.6-2.7-3
			s-1.1-3-1.3-5c-0.2-2-0.3-4.3-0.3-6.9c0-2.5,0.2-4.7,0.5-6.6c0.3-1.9,0.9-3.5,1.7-4.8c0.8-1.3,1.8-2.2,3.1-2.9
			c1.3-0.6,2.9-1,4.8-1c3.3,0,5.7,0.8,7.1,2.5c1.5,1.6,2.2,4,2.2,7h-5.8C2715.7,190.1,2715.7,189.5,2715.5,188.9z"/>
	</g>
</g>
<g id="Dashboard_2" display="none">
	<linearGradient id="SVGID_11_" gradientUnits="userSpaceOnUse" x1="1769.5" y1="-323.8333" x2="729.5" y2="716.1667">
		<stop  offset="0" style="stop-color:#F2F2F2"/>
		<stop  offset="1" style="stop-color:#4CAF50"/>
	</linearGradient>
	<rect x="609.5" y="-203.8" display="inline" opacity="0.92" fill="url(#SVGID_11_)" width="1280" height="800"/>
	
		<rect id="back_v2" x="611" y="-202.8" opacity="0.92" fill="#F2F2F2" stroke="#4CAF50" stroke-miterlimit="10" width="1280" height="800"/>
	<linearGradient id="SVGID_12_" gradientUnits="userSpaceOnUse" x1="2104.5281" y1="-281.971" x2="2247.771" y2="-425.2139">
		<stop  offset="0" style="stop-color:#000000"/>
		<stop  offset="1" style="stop-color:#1E1E1E"/>
	</linearGradient>
	<rect x="2101.2" y="-421.8" display="inline" fill="url(#SVGID_12_)" width="150" height="136.5"/>
	<rect x="611" y="-201.8" display="inline" fill="none" stroke="#F2F2F2" stroke-miterlimit="10" width="244.2" height="797"/>
	<rect x="857.2" y="489.4" display="inline" fill="none" stroke="#F2F2F2" stroke-miterlimit="10" width="451" height="106.7"/>
	<rect x="1310" y="489.4" display="inline" fill="none" stroke="#F2F2F2" stroke-miterlimit="10" width="576.5" height="106.7"/>
	
		<text transform="matrix(1 0 0 1 640 -130.8333)" display="inline" fill="#020202" font-family="'HelveticaNeue-Medium'" font-size="19">BASE HOME PRICE</text>
	
		<text transform="matrix(1 0 0 1 885 546.1667)" display="inline" fill="#F2F2F2" font-family="'HelveticaNeue-CondensedBold'" font-size="25">MODEL</text>
	
		<text transform="matrix(1 0 0 1 884 566.1667)" display="inline" fill="#FFFFFF" font-family="'HelveticaNeue-Thin'" font-size="25">SINGLE FAMILY HOMES</text>
	<text transform="matrix(1 0 0 1 886 -106.8333)" display="inline"><tspan x="0" y="0" fill="#020202" font-family="'HelveticaNeue-CondensedBold'" font-size="42">DESIGN &amp; </tspan><tspan x="0" y="36" fill="#020202" font-family="'HelveticaNeue-CondensedBold'" font-size="42">ENGINEERING</tspan></text>
	
		<line display="inline" fill="none" stroke="#F2F2F2" stroke-width="2" stroke-miterlimit="10" x1="886" y1="-63.8" x2="1108" y2="-63.8"/>
	<path display="inline" fill="#727272" d="M1812.3-151.5l-8.5-8.5l-8.5,8.5l-6.4-6.4l8.5-8.5l-8.5-8.5l6.4-6.4l8.5,8.5l8.5-8.5
		l6.4,6.4l-8.5,8.5l8.5,8.5L1812.3-151.5z"/>
	
		<text transform="matrix(1 0 0 1 998 24.1667)" display="inline" fill="#020202" font-family="'HelveticaNeue-Medium'" font-size="33">Plans</text>
	<rect x="998" y="42.2" display="inline" fill="none" width="583" height="66"/>
	<text transform="matrix(1 0 0 1 998 59.3024)" display="inline"><tspan x="0" y="0" fill="#020202" font-family="'HelveticaNeue'" font-size="24">The base plans allows you to receive one of our </tspan><tspan x="0" y="26" fill="#020202" font-family="'HelveticaNeue'" font-size="24">pre-designed models designed to your site. </tspan></text>
	<path display="inline" fill="#F2F2F2" stroke="#020202" stroke-miterlimit="10" d="M1065.4,165.7h-39.8c-0.6,0-1.1-0.5-1.1-1.1
		v-39.8c0-0.6,0.5-1.1,1.1-1.1h39.8c0.6,0,1.1,0.5,1.1,1.1v39.8C1066.5,165.2,1066,165.7,1065.4,165.7z"/>
	<text transform="matrix(1 0 0 1 1090 153.1227)" display="inline" fill="#020202" font-family="'HelveticaNeue'" font-size="24">BASE</text>
	<path display="inline" fill="#F2F2F2" stroke="#020202" stroke-miterlimit="10" d="M1065.4,250h-39.8c-0.6,0-1.1-0.5-1.1-1.1V209
		c0-0.6,0.5-1.1,1.1-1.1h39.8c0.6,0,1.1,0.5,1.1,1.1v39.8C1066.5,249.5,1066,250,1065.4,250z"/>
	<text transform="matrix(1 0 0 1 1090 236.5788)" display="inline" fill="#020202" font-family="'HelveticaNeue'" font-size="24">CUSTOM</text>
	<path display="inline" fill="#F2F2F2" stroke="#020202" stroke-miterlimit="10" d="M1065.3,334.2h-39.8c-0.6,0-1.1-0.5-1.1-1.1
		v-39.8c0-0.6,0.5-1.1,1.1-1.1h39.8c0.6,0,1.1,0.5,1.1,1.1v39.8C1066.4,333.8,1065.9,334.2,1065.3,334.2z"/>
	
		<text transform="matrix(1 0 0 1 1090 325.6227)" display="inline" fill="#020202" font-family="'HelveticaNeue-Medium'" font-size="24">SURVEYOR</text>
	<path display="inline" fill="#F2F2F2" stroke="#020202" stroke-miterlimit="10" d="M1066.9,418.5h-39.8c-0.6,0-1.1-0.5-1.1-1.1
		v-39.8c0-0.6,0.5-1.1,1.1-1.1h39.8c0.6,0,1.1,0.5,1.1,1.1v39.8C1068,418,1067.5,418.5,1066.9,418.5z"/>
	
		<text transform="matrix(1 0 0 1 1090 410.9874)" display="inline" fill="#020202" font-family="'HelveticaNeue-Medium'" font-size="24">GEO TECHNICAL ENGINEERING</text>
	<path display="inline" fill="#29E918" d="M1026.8,231.8l6.4-6.4l6.2,6.2l18.2-18.2l6.4,6.4l-24.5,24.6L1026.8,231.8z"/>
	<path display="inline" fill="#727272" d="M1232.1,452.9l6.8-6.8l10.6,10.6l10.6-10.6l6.8,6.8l-17.3,17.4L1232.1,452.9z"/>
	
		<text transform="matrix(1 0 0 1 1473.9995 564.8333)" display="inline" fill="#020202" font-family="'HelveticaNeue-Medium'" font-size="24">Total</text>
	
		<text transform="matrix(1 0 0 1 1637 564.1667)" display="inline" fill="#020202" font-family="'HelveticaNeue-Medium'" font-size="35">$133,424.07</text>
	<path display="inline" fill="#727272" d="M1749.3-176.8v25.5c0,0.4-0.2,0.8-0.5,1.1c-0.3,0.3-0.6,0.4-1,0.4h-4.5v-12h-21v12h-4.5
		c-0.4,0-0.8-0.1-1.1-0.4c-0.3-0.3-0.4-0.6-0.4-1.1v-30c0-0.4,0.1-0.8,0.4-1.1c0.3-0.3,0.6-0.4,1.1-0.4h7.5v9h15v-9h3L1749.3-176.8z
		 M1737.3-182.8h-3v6h3V-182.8z"/>
	
		<text transform="matrix(1 0 0 1 1655.3387 -158.8796)" display="inline" fill="#727272" font-family="'HelveticaNeue-Medium'" font-size="24">save</text>
	
		<text transform="matrix(1 0 0 1 639.5029 -105.1414)" display="inline" fill="#020202" font-family="'HelveticaNeue-Medium'" font-size="10.6972">Plans</text>
	<rect x="639.5" y="-99.3" display="inline" fill="none" width="189" height="21.4"/>
	<text transform="matrix(1 0 0 1 639.5 -93.7557)" display="inline"><tspan x="0" y="0" fill="#020202" font-family="'HelveticaNeue'" font-size="7.7798">The base plans allows you to receive one of our </tspan><tspan x="0" y="8.4" fill="#020202" font-family="'HelveticaNeue'" font-size="7.7798">pre-designed models designed to your site. </tspan></text>
	<path display="inline" fill="#F2F2F2" stroke="#020202" stroke-miterlimit="10" d="M661.4-59.3h-12.9c-0.2,0-0.4-0.2-0.4-0.4v-12.9
		c0-0.2,0.2-0.4,0.4-0.4h12.9c0.2,0,0.4,0.2,0.4,0.4v12.9C661.7-59.4,661.5-59.3,661.4-59.3z"/>
	
		<text transform="matrix(1 0 0 1 669.3271 -63.3416)" display="inline" fill="#020202" font-family="'HelveticaNeue'" font-size="7.7798">BASE</text>
	
		<text transform="matrix(1 0 0 1 669.3271 -36.2879)" display="inline" fill="#020202" font-family="'HelveticaNeue'" font-size="7.7798">CUSTOM</text>
	<path display="inline" fill="#F2F2F2" stroke="#020202" stroke-miterlimit="10" d="M661.3-4.6h-12.9c-0.2,0-0.4-0.2-0.4-0.4v-12.9
		c0-0.2,0.2-0.4,0.4-0.4h12.9c0.2,0,0.4,0.2,0.4,0.4V-5C661.7-4.8,661.5-4.6,661.3-4.6z"/>
	
		<text transform="matrix(1 0 0 1 669.3271 -7.4246)" display="inline" fill="#020202" font-family="'HelveticaNeue-Medium'" font-size="7.7798">SURVEYOR</text>
	<path display="inline" fill="#F2F2F2" stroke="#020202" stroke-miterlimit="10" d="M661.8,22.7h-12.9c-0.2,0-0.4-0.2-0.4-0.4V9.4
		c0-0.2,0.2-0.4,0.4-0.4h12.9c0.2,0,0.4,0.2,0.4,0.4v12.9C662.2,22.5,662,22.7,661.8,22.7z"/>
	
		<text transform="matrix(1 0 0 1 669.3271 20.2497)" display="inline" fill="#020202" font-family="'HelveticaNeue-Medium'" font-size="7.7798">GEO TECHNICAL ENGINEERING</text>
	<path display="inline" fill="#29E918" d="M779.9-33.4l6.4-6.4l6.2,6.2l18.2-18.2l6.4,6.4l-24.5,24.6L779.9-33.4z"/>
	<rect x="648.1" y="-45.9" display="inline" fill="#F2F2F2" stroke="#020202" stroke-miterlimit="10" width="13.6" height="13.6"/>
	
		<text transform="matrix(1 0 0 1 639.5029 54.8341)" display="inline" fill="#020202" font-family="'HelveticaNeue-Medium'" font-size="10.6972">SITE WORK</text>
	<rect x="639.5" y="60.7" display="inline" fill="none" width="189" height="21.4"/>
	<text transform="matrix(1 0 0 1 639.5 66.2198)" display="inline"><tspan x="0" y="0" fill="#020202" font-family="'HelveticaNeue'" font-size="7.7798">The base plans allows you to receive one of our </tspan><tspan x="0" y="8.4" fill="#020202" font-family="'HelveticaNeue'" font-size="7.7798">pre-designed models designed to your site. </tspan></text>
	<path display="inline" fill="#F2F2F2" stroke="#020202" stroke-miterlimit="10" d="M661.4,100.7h-12.9c-0.2,0-0.4-0.2-0.4-0.4V87.4
		c0-0.2,0.2-0.4,0.4-0.4h12.9c0.2,0,0.4,0.2,0.4,0.4v12.9C661.7,100.5,661.5,100.7,661.4,100.7z"/>
	
		<text transform="matrix(1 0 0 1 669.3271 96.6339)" display="inline" fill="#020202" font-family="'HelveticaNeue'" font-size="7.7798">BASE</text>
	
		<text transform="matrix(1 0 0 1 669.3271 123.6876)" display="inline" fill="#020202" font-family="'HelveticaNeue'" font-size="7.7798">CUSTOM</text>
	<path display="inline" fill="#F2F2F2" stroke="#020202" stroke-miterlimit="10" d="M661.3,155.3h-12.9c-0.2,0-0.4-0.2-0.4-0.4
		v-12.9c0-0.2,0.2-0.4,0.4-0.4h12.9c0.2,0,0.4,0.2,0.4,0.4V155C661.7,155.2,661.5,155.3,661.3,155.3z"/>
	
		<text transform="matrix(1 0 0 1 669.3271 152.5509)" display="inline" fill="#020202" font-family="'HelveticaNeue-Medium'" font-size="7.7798">SURVEYOR</text>
	<path display="inline" fill="#F2F2F2" stroke="#020202" stroke-miterlimit="10" d="M661.8,182.7h-12.9c-0.2,0-0.4-0.2-0.4-0.4
		v-12.9c0-0.2,0.2-0.4,0.4-0.4h12.9c0.2,0,0.4,0.2,0.4,0.4v12.9C662.2,182.5,662,182.7,661.8,182.7z"/>
	
		<text transform="matrix(1 0 0 1 669.3271 180.2252)" display="inline" fill="#020202" font-family="'HelveticaNeue-Medium'" font-size="7.7798">GEO TECHNICAL ENGINEERING</text>
	<rect x="648.1" y="114" display="inline" fill="#F2F2F2" stroke="#020202" stroke-miterlimit="10" width="13.6" height="13.6"/>
	
		<text transform="matrix(1 0 0 1 639.6008 213.4749)" display="inline" fill="#020202" font-family="'HelveticaNeue-Medium'" font-size="10.6972">BUILDING UPGRADES</text>
	<rect x="639.6" y="219.3" display="inline" fill="none" width="189" height="21.4"/>
	<text transform="matrix(1 0 0 1 639.5978 224.8606)" display="inline"><tspan x="0" y="0" fill="#020202" font-family="'HelveticaNeue'" font-size="7.7798">The base plans allows you to receive one of our </tspan><tspan x="0" y="8.4" fill="#020202" font-family="'HelveticaNeue'" font-size="7.7798">pre-designed models designed to your site. </tspan></text>
	<path display="inline" fill="#F2F2F2" stroke="#020202" stroke-miterlimit="10" d="M661.4,259.3h-12.9c-0.2,0-0.4-0.2-0.4-0.4
		v-12.9c0-0.2,0.2-0.4,0.4-0.4h12.9c0.2,0,0.4,0.2,0.4,0.4V259C661.8,259.2,661.6,259.3,661.4,259.3z"/>
	
		<text transform="matrix(1 0 0 1 669.425 255.2747)" display="inline" fill="#020202" font-family="'HelveticaNeue'" font-size="7.7798">BASE</text>
	
		<text transform="matrix(1 0 0 1 669.425 282.3284)" display="inline" fill="#020202" font-family="'HelveticaNeue'" font-size="7.7798">CUSTOM</text>
	<path display="inline" fill="#F2F2F2" stroke="#020202" stroke-miterlimit="10" d="M661.4,314h-12.9c-0.2,0-0.4-0.2-0.4-0.4v-12.9
		c0-0.2,0.2-0.4,0.4-0.4h12.9c0.2,0,0.4,0.2,0.4,0.4v12.9C661.8,313.8,661.6,314,661.4,314z"/>
	
		<text transform="matrix(1 0 0 1 669.425 311.1917)" display="inline" fill="#020202" font-family="'HelveticaNeue-Medium'" font-size="7.7798">SURVEYOR</text>
	<path display="inline" fill="#F2F2F2" stroke="#020202" stroke-miterlimit="10" d="M661.9,341.3H649c-0.2,0-0.4-0.2-0.4-0.4V328
		c0-0.2,0.2-0.4,0.4-0.4h12.9c0.2,0,0.4,0.2,0.4,0.4V341C662.3,341.1,662.1,341.3,661.9,341.3z"/>
	
		<text transform="matrix(1 0 0 1 669.425 338.866)" display="inline" fill="#020202" font-family="'HelveticaNeue-Medium'" font-size="7.7798">GEO TECHNICAL ENGINEERING</text>
	<rect x="648.2" y="272.7" display="inline" fill="#F2F2F2" stroke="#020202" stroke-miterlimit="10" width="13.6" height="13.6"/>
	
		<text transform="matrix(1 0 0 1 639.6008 382.1916)" display="inline" fill="#020202" font-family="'HelveticaNeue-Medium'" font-size="10.6972">SITE AMENITIES</text>
	<rect x="639.6" y="388" display="inline" fill="none" width="189" height="21.4"/>
	<text transform="matrix(1 0 0 1 639.5978 393.5774)" display="inline"><tspan x="0" y="0" fill="#020202" font-family="'HelveticaNeue'" font-size="7.7798">The base plans allows you to receive one of our </tspan><tspan x="0" y="8.4" fill="#020202" font-family="'HelveticaNeue'" font-size="7.7798">pre-designed models designed to your site. </tspan></text>
	<path display="inline" fill="#F2F2F2" stroke="#020202" stroke-miterlimit="10" d="M661.4,428.1h-12.9c-0.2,0-0.4-0.2-0.4-0.4
		v-12.9c0-0.2,0.2-0.4,0.4-0.4h12.9c0.2,0,0.4,0.2,0.4,0.4v12.9C661.8,427.9,661.6,428.1,661.4,428.1z"/>
	
		<text transform="matrix(1 0 0 1 669.425 423.9914)" display="inline" fill="#020202" font-family="'HelveticaNeue'" font-size="7.7798">BASE</text>
	
		<text transform="matrix(1 0 0 1 669.425 451.0451)" display="inline" fill="#020202" font-family="'HelveticaNeue'" font-size="7.7798">CUSTOM</text>
	<path display="inline" fill="#F2F2F2" stroke="#020202" stroke-miterlimit="10" d="M661.4,482.7h-12.9c-0.2,0-0.4-0.2-0.4-0.4
		v-12.9c0-0.2,0.2-0.4,0.4-0.4h12.9c0.2,0,0.4,0.2,0.4,0.4v12.9C661.8,482.5,661.6,482.7,661.4,482.7z"/>
	
		<text transform="matrix(1 0 0 1 669.425 479.9084)" display="inline" fill="#020202" font-family="'HelveticaNeue-Medium'" font-size="7.7798">SURVEYOR</text>
	<path display="inline" fill="#F2F2F2" stroke="#020202" stroke-miterlimit="10" d="M661.9,510H649c-0.2,0-0.4-0.2-0.4-0.4v-12.9
		c0-0.2,0.2-0.4,0.4-0.4h12.9c0.2,0,0.4,0.2,0.4,0.4v12.9C662.3,509.9,662.1,510,661.9,510z"/>
	
		<text transform="matrix(1 0 0 1 669.425 507.5827)" display="inline" fill="#020202" font-family="'HelveticaNeue-Medium'" font-size="7.7798">GEO TECHNICAL ENGINEERING</text>
	<rect x="648.2" y="441.4" display="inline" fill="#F2F2F2" stroke="#020202" stroke-miterlimit="10" width="13.6" height="13.6"/>
</g>
<g id="Layer_2">
</g>
</svg>
