<?xml version="1.0" encoding="utf-8"?>
<!-- Generator: Adobe Illustrator 18.1.1, SVG Export Plug-In . SVG Version: 6.00 Build 0)  -->
<!DOCTYPE svg PUBLIC "-//W3C//DTD SVG 1.1//EN" "http://www.w3.org/Graphics/SVG/1.1/DTD/svg11.dtd">
<svg version="1.1" xmlns="http://www.w3.org/2000/svg" xmlns:xlink="http://www.w3.org/1999/xlink" x="0px" y="0px" width="159.8px"
	 height="33.5px" viewBox="0 0 159.8 33.5" enable-background="new 0 0 159.8 33.5" xml:space="preserve">
<g id="landing1">
	<g id="Main_Body">
	</g>
	<g id="info_icons">
	</g>
</g>
<g id="nav-Modal">
	<g id="Main">
	</g>
</g>
<g id="Dashboard">
	<g id="local_guides" display="none">
	</g>
</g>
<g id="Single">
</g>
<g id="Guest">
</g>
<g id="pool">
</g>
<g id="model-title">
	<g>
		<path fill="#F2F2F2" d="M7,10.2c0.9,0,1.6,0.1,2.4,0.3c0.7,0.2,1.3,0.5,1.9,0.9c0.5,0.4,0.9,0.9,1.2,1.6c0.3,0.7,0.4,1.5,0.4,2.5
			c0,1.1-0.3,2.1-0.8,2.9s-1.3,1.3-2.3,1.6V20c1.2,0.2,2.1,0.6,2.8,1.5c0.7,0.8,1,1.9,1,3.3c0,0.8-0.1,1.6-0.3,2.3
			c-0.2,0.7-0.6,1.4-1.1,1.9c-0.5,0.6-1.2,1-2,1.3c-0.8,0.3-1.8,0.5-3.1,0.5H0V10.2H7z M5.4,18.7c1.2,0,2-0.2,2.5-0.6
			c0.5-0.4,0.8-1.1,0.8-2.1S8.5,14.3,8,13.9c-0.5-0.4-1.2-0.6-2.3-0.6H4.2v5.4H5.4z M5.8,27.8c1,0,1.8-0.2,2.4-0.7
			c0.6-0.4,0.9-1.3,0.9-2.5c0-0.6-0.1-1.1-0.2-1.5c-0.2-0.4-0.4-0.7-0.7-1c-0.3-0.2-0.6-0.4-1-0.5c-0.4-0.1-0.8-0.1-1.3-0.1H4.2v6.2
			H5.8z"/>
		<path fill="#F2F2F2" d="M25.3,10.2l5.5,20.7h-4.4l-1-4.4H20l-1,4.4h-4.4l5.5-20.7H25.3z M24.8,23.1l-2-9.3h-0.1l-2,9.3H24.8z"/>
		<path fill="#F2F2F2" d="M35.6,25c0,0.5,0,0.9,0.1,1.3c0.1,0.4,0.2,0.7,0.4,1c0.2,0.3,0.5,0.5,0.9,0.6c0.4,0.2,0.8,0.2,1.3,0.2
			c0.6,0,1.2-0.2,1.7-0.6c0.5-0.4,0.8-1.1,0.8-1.9c0-0.5-0.1-0.9-0.2-1.2c-0.1-0.3-0.3-0.6-0.6-0.9c-0.3-0.3-0.7-0.5-1.1-0.7
			c-0.5-0.2-1.1-0.4-1.8-0.7c-0.9-0.3-1.7-0.6-2.4-1c-0.7-0.4-1.2-0.8-1.7-1.3c-0.5-0.5-0.8-1.1-1-1.7c-0.2-0.6-0.3-1.4-0.3-2.2
			c0-2,0.6-3.6,1.7-4.6c1.1-1,2.7-1.5,4.7-1.5c0.9,0,1.8,0.1,2.6,0.3c0.8,0.2,1.5,0.5,2,1c0.6,0.5,1,1,1.3,1.7
			c0.3,0.7,0.5,1.6,0.5,2.5v0.6h-4c0-1-0.2-1.7-0.5-2.3c-0.3-0.5-0.9-0.8-1.7-0.8c-0.5,0-0.9,0.1-1.2,0.2s-0.6,0.3-0.7,0.5
			c-0.2,0.2-0.3,0.5-0.4,0.8c-0.1,0.3-0.1,0.6-0.1,0.9c0,0.6,0.1,1.2,0.4,1.6s0.9,0.8,1.7,1.2l3.2,1.4c0.8,0.3,1.4,0.7,1.9,1.1
			c0.5,0.4,0.9,0.8,1.2,1.2c0.3,0.4,0.5,0.9,0.6,1.4c0.1,0.5,0.2,1.1,0.2,1.7c0,2.2-0.6,3.8-1.9,4.8c-1.3,1-3,1.5-5.3,1.5
			c-2.4,0-4-0.5-5.1-1.5c-1-1-1.5-2.5-1.5-4.4v-0.8h4.2V25z"/>
		<path fill="#F2F2F2" d="M58.9,13.6h-7.4v4.9h7v3.4h-7v5.6h7.7v3.4H47.3V10.2h11.6V13.6z"/>
	</g>
	<g>
		<path fill="#F2F2F2" d="M70.3,10.2l3,14.6h0.1l3-14.6h6.2v20.7h-3.8V14.4h-0.1l-3.7,16.5h-3.2L68,14.4h-0.1v16.5h-3.8V10.2H70.3z"
			/>
		<path fill="#F2F2F2" d="M85.2,16.2c0.1-1.3,0.5-2.5,1-3.4c0.5-0.9,1.2-1.7,2.1-2.2c0.9-0.5,2.2-0.8,3.7-0.8s2.8,0.3,3.7,0.8
			c0.9,0.5,1.6,1.3,2.1,2.2c0.5,0.9,0.8,2.1,1,3.4s0.2,2.8,0.2,4.3c0,1.6-0.1,3-0.2,4.4c-0.1,1.3-0.5,2.4-1,3.4s-1.2,1.7-2.1,2.2
			c-0.9,0.5-2.2,0.8-3.7,0.8s-2.8-0.3-3.7-0.8c-0.9-0.5-1.6-1.2-2.1-2.2s-0.8-2.1-1-3.4c-0.1-1.3-0.2-2.8-0.2-4.4
			C85,19,85.1,17.5,85.2,16.2z M89.3,24.1c0.1,1,0.2,1.8,0.4,2.4c0.2,0.6,0.5,1.1,0.9,1.3s0.9,0.4,1.5,0.4c0.6,0,1.1-0.1,1.5-0.4
			s0.7-0.7,0.9-1.3c0.2-0.6,0.3-1.4,0.4-2.4c0.1-1,0.1-2.2,0.1-3.6s0-2.6-0.1-3.5c-0.1-1-0.2-1.8-0.4-2.4c-0.2-0.6-0.5-1.1-0.9-1.3
			c-0.4-0.3-0.9-0.4-1.5-0.4c-0.6,0-1.1,0.1-1.5,0.4c-0.4,0.3-0.7,0.7-0.9,1.3c-0.2,0.6-0.3,1.4-0.4,2.4c-0.1,1-0.1,2.1-0.1,3.5
			S89.2,23.1,89.3,24.1z"/>
		<path fill="#F2F2F2" d="M108.6,10.2c1.4,0,2.6,0.2,3.5,0.7c0.9,0.5,1.6,1.2,2.1,2c0.5,0.9,0.8,1.9,1,3.2c0.2,1.2,0.3,2.6,0.3,4.1
			c0,1.8-0.1,3.4-0.3,4.7s-0.6,2.5-1.1,3.3c-0.5,0.9-1.3,1.5-2.2,1.9c-0.9,0.4-2.1,0.6-3.5,0.6h-6.6V10.2H108.6z M107.8,27.8
			c0.7,0,1.3-0.1,1.8-0.4c0.4-0.3,0.8-0.7,1.1-1.2c0.3-0.6,0.4-1.3,0.5-2.3c0.1-0.9,0.1-2.1,0.1-3.5c0-1.2,0-2.2-0.1-3.1
			s-0.2-1.6-0.5-2.2c-0.2-0.6-0.6-1-1.1-1.3c-0.5-0.3-1.1-0.4-1.9-0.4H106v14.6H107.8z"/>
		<path fill="#F2F2F2" d="M129.8,13.6h-7.4v4.9h7v3.4h-7v5.6h7.7v3.4h-11.9V10.2h11.6V13.6z"/>
		<path fill="#F2F2F2" d="M132.2,10.2h4.2v17.3h7.4v3.4h-11.6V10.2z"/>
		<path fill="#F2F2F2" d="M149,25c0,0.5,0,0.9,0.1,1.3c0.1,0.4,0.2,0.7,0.4,1c0.2,0.3,0.5,0.5,0.9,0.6c0.4,0.2,0.8,0.2,1.3,0.2
			c0.6,0,1.2-0.2,1.7-0.6c0.5-0.4,0.8-1.1,0.8-1.9c0-0.5-0.1-0.9-0.2-1.2c-0.1-0.3-0.3-0.6-0.6-0.9c-0.3-0.3-0.7-0.5-1.1-0.7
			c-0.5-0.2-1.1-0.4-1.8-0.7c-0.9-0.3-1.7-0.6-2.4-1c-0.7-0.4-1.2-0.8-1.7-1.3c-0.5-0.5-0.8-1.1-1-1.7c-0.2-0.6-0.3-1.4-0.3-2.2
			c0-2,0.6-3.6,1.7-4.6c1.1-1,2.7-1.5,4.7-1.5c0.9,0,1.8,0.1,2.6,0.3c0.8,0.2,1.5,0.5,2,1c0.6,0.5,1,1,1.3,1.7
			c0.3,0.7,0.5,1.6,0.5,2.5v0.6h-4c0-1-0.2-1.7-0.5-2.3c-0.3-0.5-0.9-0.8-1.7-0.8c-0.5,0-0.9,0.1-1.2,0.2s-0.6,0.3-0.7,0.5
			c-0.2,0.2-0.3,0.5-0.4,0.8c-0.1,0.3-0.1,0.6-0.1,0.9c0,0.6,0.1,1.2,0.4,1.6s0.9,0.8,1.7,1.2l3.2,1.4c0.8,0.3,1.4,0.7,1.9,1.1
			c0.5,0.4,0.9,0.8,1.2,1.2c0.3,0.4,0.5,0.9,0.6,1.4c0.1,0.5,0.2,1.1,0.2,1.7c0,2.2-0.6,3.8-1.9,4.8c-1.3,1-3,1.5-5.3,1.5
			c-2.4,0-4-0.5-5.1-1.5c-1-1-1.5-2.5-1.5-4.4v-0.8h4.2V25z"/>
	</g>
	<line fill="#4CAF50" stroke="#F2F2F2" stroke-miterlimit="10" x1="0" y1="32.7" x2="159" y2="32.7"/>
	<text transform="matrix(1 0 0 1 43.3778 9.1035)" fill="#F2F2F2" font-family="'HelveticaNeue-CondensedBold'" font-size="12">PRE-DESIGNED</text>
</g>
<g id="guest">
</g>
<g id="office">
</g>
<g id="garages">
</g>
<g id="Tree_Headers">
</g>
<g id="Dashboard_2" display="none">
</g>
<g id="Layer_2">
</g>
</svg>
