<?xml version="1.0" encoding="utf-8"?>
<!-- Generator: Adobe Illustrator 18.1.1, SVG Export Plug-In . SVG Version: 6.00 Build 0)  -->
<!DOCTYPE svg PUBLIC "-//W3C//DTD SVG 1.1//EN" "http://www.w3.org/Graphics/SVG/1.1/DTD/svg11.dtd">
<svg version="1.1" id="Layer_1" xmlns="http://www.w3.org/2000/svg" xmlns:xlink="http://www.w3.org/1999/xlink" x="0px" y="0px"
	 width="219.6px" height="98px" viewBox="0 0 219.6 98" enable-background="new 0 0 219.6 98" xml:space="preserve">
<text transform="matrix(1 0 0 1 9.087 89.6865)" fill="#727272" font-family="'HelveticaNeue-ThinItalic'" font-size="20.5307">Crafted From Concrete</text>
<g opacity="0.55">
	<g>
		<g>
			
				<image overflow="visible" width="197" height="255" xlink:href="A7E7FAF3E0FB31AA.png"  transform="matrix(0.1753 0 0 0.1753 17.0587 23.1342)">
			</image>
		</g>
	</g>
</g>
<polygon fill="#D0D2D3" points="10.6,68.1 10.6,41.2 0,41.2 11.7,29.8 11.7,13.4 22.6,13.4 22.6,19.2 32.3,9.6 64.5,41.2 54.2,41.2 
	54.2,68.1 "/>
<polygon fill="#231F20" stroke="#231F20" stroke-width="0.8154" stroke-miterlimit="10" points="12.3,66.5 12.3,39.6 4.1,39.6 
	13.4,30.5 13.4,15.1 20.9,15.1 20.9,23.1 32.3,12 60.5,39.6 52.6,39.6 52.6,66.5 "/>
<polygon fill="#81BB41" points="32.3,14.3 19.2,27.1 19.2,16.7 15,16.7 15,31.2 8.2,37.9 13.9,37.9 13.9,64.8 50.9,64.8 50.9,37.9 
	56.4,37.9 "/>
<path fill="#D0D2D3" d="M185.2,25.8l3.2,9.5c0,0,2.2,1.4,2.8,1.5c0.6,0,2.9,0,2.9,0s-3.2-8.3-3.8-8.9c-0.6-0.6-3.3-1.6-3.3-1.6"/>
<path fill="#D0D2D3" d="M188.7,12.9v8.7c0,0-0.8,2.3-1.1,2.8c-0.3,0.5-2.2,1.4-2.2,1.4s0.9-0.1,1.6-0.3c0.7-0.2,3.2-0.6,4.7-2.7
	c1.4-2.1,1.4-5.8,1-6.6c-0.4-0.8-2.8-3-2.8-3"/>
<polyline fill="#D0D2D3" points="175.7,12.9 175.7,36.8 180.1,36.8 180.1,12.3 "/>
<path fill="#D0D2D3" d="M159.6,12.4l7.7,24.4l4.7,0l-7.8-23.3c0,0-1.2-1.3-2.5-1.5"/>
<path fill="#D0D2D3" d="M172.8,42h4.1v24.4c0,0-3.9-0.3-3.9-1.9c0-1.6-0.2-3-0.2-3"/>
<path fill="#D0D2D3" d="M144.8,42l6.6,23.3c0,0,1.5,1.1,2.1,1.4c0.6,0.3,1.9,0,1.9,0l0.2-0.3l-5.7-22.8c0,0-1.6-1.3-2.1-1.5"/>
<polyline fill="#D0D2D3" points="162.9,44.1 163.4,42 166.8,42 166.8,66.7 162.5,66.7 "/>
<path fill="#D0D2D3" d="M135.3,64.5V47.9c0,0-0.4-2.4-1.4-3.4c-0.9-1-2.6-2.2-2.6-2.2s3.9,0.9,5.2,2.6c1.4,1.7,3.3,6.2,3.3,10.1
	C139.9,60.6,135.6,64.2,135.3,64.5z"/>
<path fill="#D0D2D3" d="M121.6,44.2v16.7c0,0,0.4,2.4,1.4,3.4c0.9,1,2.6,2.2,2.6,2.2s-3.9-0.9-5.2-2.6c-1.4-1.7-3.3-6.2-3.3-10.1
	C117.1,48.1,121.4,44.5,121.6,44.2z"/>
<path fill="#D0D2D3" d="M104.9,34.7V18c0,0-0.4-2.4-1.4-3.4c-0.9-1-2.6-2.2-2.6-2.2s3.9,0.9,5.2,2.6c1.4,1.7,3.3,6.2,3.3,10.1
	C109.5,30.8,105.2,34.4,104.9,34.7z"/>
<path fill="#D0D2D3" d="M91.2,14.3V31c0,0,0.4,2.4,1.4,3.4c0.9,1,2.6,2.2,2.6,2.2s-3.9-0.9-5.2-2.6c-1.4-1.7-3.3-6.2-3.3-10.1
	C86.6,18.3,91,14.7,91.2,14.3z"/>
<rect x="134.2" y="12.4" fill="#D0D2D3" width="3.9" height="24.4"/>
<rect x="114.5" y="12.4" fill="#D0D2D3" width="3.9" height="24.4"/>
<rect x="92.9" y="41.8" fill="#D0D2D3" width="3.9" height="24.8"/>
<polygon fill="#D0D2D3" points="111.9,66.6 109.9,66.8 108.1,65.9 108,41.8 111.9,41.8 "/>
<path fill="#D0D2D3" d="M66,30.4c0,0,0.2-0.7,1.9,0.4c1.7,1.1,1.3,1.3,1.7,1.8c0.6,0.7,1.7,3.4,2,3.4c0.3,0,1.7,0.9,1.7,0.9
	s-3.1-0.4-4.6-1.5c-1.6-1.1-2.5-2.6-2.5-2.6l-0.1-2"/>
<path fill="#D0D2D3" d="M69.8,13.7c0,0-2.7,2.3-1.5,4.2c1.1,1.9,2.1,2.2,2.1,2.2l2.8,0.9l7.4,3.2c0,0,2.5,3.6,2.6,4.5
	c0.1,0.9-0.5,4.9-1.6,5.9c-1.1,1-0.8,0.6-0.8,0.6s1.2-2.1,0.7-4.1c-0.5-2-1.5-2.8-2.4-3.2c-0.9-0.4-7.6-2.4-9.8-4.1
	c-2.2-1.6-3.3-3-2.7-5.9c0.6-2.9,0.2-2.5,0.9-3.3c0.7-0.8,2.2-1.5,2.2-1.5"/>
<polyline fill="#D0D2D3" points="78.7,12.7 78.7,17.2 79.3,18.6 80.8,19.2 81.6,18.5 82.6,17.7 83,16.1 82.2,14.5 80.9,13.3 "/>
<path fill="#D0D2D3" d="M196.9,30.2c0,0,0.2-0.7,1.9,0.4c1.7,1.1,1.3,1.3,1.7,1.8c0.6,0.7,1.7,3.4,2,3.4c0.3,0,1.7,0.9,1.7,0.9
	s-3.1-0.4-4.6-1.5s-2.5-2.6-2.5-2.6l-0.1-2"/>
<path fill="#D0D2D3" d="M200.8,13.8c0,0-2.7,2.3-1.5,4.2c1.1,1.9,2.1,2.2,2.1,2.2l2.8,0.9l7.4,3.2c0,0,2.5,3.6,2.6,4.5
	c0.1,0.9-0.5,4.9-1.6,5.9c-1.1,1-0.8,0.6-0.8,0.6s1.2-2.1,0.7-4.1c-0.5-2-1.5-2.8-2.4-3.2c-0.9-0.4-7.6-2.4-9.8-4.1
	c-2.2-1.6-3.3-3-2.7-5.9c0.6-2.9,0.2-2.5,0.9-3.3c0.7-0.8,2.2-1.5,2.2-1.5"/>
<g>
	<path fill="#D0D2D3" d="M26.7,59.4l0.7-6.1c-2.5-0.7-4.8-1.6-6.2-2.1c-0.3-0.1-0.6-0.2-0.8-0.3L20,50.8L18.7,46l1.6,0.6
		c0.7,0.2,1.4,0.5,2,0.7c2,0.7,4,1.4,6.2,2.1l1.9-5.8c-1.9-0.8-4-1.5-6.2-2.2l-4.7-1.6l13.9-6.1l4.4-8.5l0.8-1.4l-1,8.2l9-4l-3.9,6
		l-6.2,3l-1.2,4c4.4,2.4,6.7,5.2,6.7,8.4c0,1.6-0.7,2.9-1.9,3.7c-1.8,1.2-3.1,1.3-3.4,1.3c0,0-0.1,0-0.1,0c-1.2,0-3.8-0.2-5.5-0.5
		L26.4,61L26.7,59.4z M32.4,50.3c0.7,0.1,1.4,0.2,2,0.2c1.3,0,2.3-0.3,3-0.8c0,0,0,0,0,0c0,0,0,0,0-0.1c0-1.6-1.7-3-3.5-4.1
		l-1.4,4.3l0,0C32.6,49.8,32.5,50,32.4,50.3"/>
	<path fill="#231F20" d="M41.9,33.4l2.1-3.3l-7.8,3.5l1.8-8.3l-4,9.2l-12.1,5.3l2.5,0.9c1.7,0.5,4.3,1.3,7.1,2.5l-2.4,7.4
		c-3.3-1.1-6.3-2.2-9.1-3.2l0.7,2.7c1.1,0.4,4.2,1.6,7.4,2.5l0.3,0.1l-1.5,6.9l3.5-6.5c1.4,0.3,4.6,0.6,6,0.6c0,0,1.2,0.1,3-1.2
		c1-0.7,1.5-1.7,1.5-3c0-3.6-3.3-6.2-6.8-8l1.5-5L41.9,33.4z M38.4,49.5c0,0.4-0.1,0.7-0.4,0.9c-1.6,1.1-3.9,1.1-6.7,0.6
		c0.7-2.3,0.7-2.3,0.7-2.3l1.5-4.6C36.2,45.5,38.4,47.4,38.4,49.5 M32.4,40.3c-1.6-0.3-2.5-0.6-3.2-0.8l4.1-1.7L32.4,40.3z"/>
</g>
<path fill="#231F20" d="M78.4,12.8c-1.3-0.4-2.7-0.6-4-0.6c-3.9,0-6.4,2.6-6.4,4.8c0,1.2,0.9,2.5,3.1,3.3l6.7,2.5
	c3.8,1.4,5.5,4,5.5,7.4c0,4-2.9,7.2-8.2,7.2c-5.4,0-9.7-2.5-9.7-7.4h0.9c4.7,0,3,6.9,9,6.9c4,0,6-2.4,6-4.6c0-1.6-0.7-3.3-3.1-4.2
	l-6.8-2.5c-3.7-1.4-5.3-4-5.3-6.6c0-3.6,2.8-7.2,8.2-7.2c4.2,0,8.6,1.8,8.6,4.8c0,1.8-1.2,2.6-2.3,2.6c-1.2,0-2.3-0.9-2.3-2.6V12.8z
	 M66.4,30.4H66c0,3.3,3.4,5.9,6.6,6.3C69.9,35.5,69.7,30.4,66.4,30.4z M77.9,23.2l-6.8-2.5c-2.2-0.8-3.4-2.3-3.4-3.7
	c0-1,0.5-2.2,1.7-3.3c-1.4,0.9-2.6,2.8-2.6,5.3c0,2.4,1.4,4.9,5,6.2l6.6,2.5c2.7,1,3.6,3,3.6,4.7c0,1-0.3,1.7-0.8,2.4
	c1.1-0.9,1.8-3,1.8-4.6C82.9,26.9,81.2,24.4,77.9,23.2z M78.9,12.9v3.7c0,1.4,1,2.2,1.9,2.2c0.9,0,1.8-0.7,1.8-2.2
	C82.6,14.9,80.9,13.6,78.9,12.9z"/>
<path fill="#231F20" d="M86.5,24.6c0-6.4,3.9-12.8,11.6-12.8c7.7,0,11.6,6.4,11.6,12.7c0,6.4-3.9,12.8-11.6,12.8
	C90.3,37.3,86.5,30.9,86.5,24.6z M91,30V14.7c-2.7,2.3-4.1,6.1-4.1,9.9c0,6,3.1,10.2,7.3,11.7C92.3,35.1,91,33.1,91,30z M104.6,34.7
	V19c0-4.6-3.2-6.9-6.6-6.9c-2.7,0-4.9,0.8-6.6,2.2V30c0,4.6,3.2,6.9,6.6,6.9C100.7,36.9,102.9,36.1,104.6,34.7z M105.1,34.3
	c2.7-2.3,4.1-6,4.1-9.9c0-6-3.1-10.2-7.3-11.7c2,1.2,3.2,3.2,3.2,6.3V34.3z"/>
<path fill="#231F20" d="M131.1,37h-16.9V12h4.6v24.6h12.2V37z M114.7,12.4v24.2h3.7V12.4H114.7z"/>
<path fill="#231F20" d="M150.6,37h-16.9V12h4.6v24.6h12.2V37z M134.2,12.4v24.2h3.7V12.4H134.2z"/>
<path fill="#231F20" d="M158.8,13.5c0.4-1.2,1.3-1.8,2.6-1.8c1.4,0,2.5,0.7,3,2.1l7.7,23.2h-5l-3-9.4h-9.3l-3,9.4h-0.5L158.8,13.5z
	 M154.9,27.2h9.1l-4.5-14.4L154.9,27.2z M167.5,36.6h4l-7.6-22.8c-0.4-1.2-1.3-1.7-2.6-1.7c-0.5,0-1,0.1-1.4,0.4L167.5,36.6z"/>
<path fill="#231F20" d="M175.5,12.8c2.1-0.5,5.4-1,7.7-1c5.8,0,10.2,2.2,10.2,7.5c0,3.2-2,5.9-6.3,6.7c2.2,0.5,3.7,1.9,4.7,4.3
	l2.6,6.8h-2c-2.3,0-3.7-0.8-4.4-2.9l-2.8-8.1h-4.9v11h-4.6V12.8z M179.7,36.6V12.4c-1.4,0.2-2.8,0.4-3.7,0.7v23.5H179.7z
	 M188.5,20.3V13c-1.5-0.6-3.4-0.8-5.3-0.8c-0.9,0-2,0.1-3,0.2v13.3h3.2C186.8,25.6,188.5,24.1,188.5,20.3z M188.3,34.1
	c0.6,1.7,1.8,2.5,4,2.5h1.3l-2.4-6.4c-1.1-2.8-3.3-4.2-5.7-4.2L188.3,34.1z M188.9,13.2v7.1c0,2.4-0.6,4.4-2.9,5.4
	c4.1-0.3,6.8-2.8,6.8-6.4C192.9,16.2,191.3,14.2,188.9,13.2z"/>
<path fill="#231F20" d="M209.4,12.8c-1.3-0.4-2.7-0.6-4-0.6c-3.9,0-6.4,2.6-6.4,4.8c0,1.2,0.9,2.5,3.1,3.3l6.7,2.5
	c3.8,1.4,5.5,4,5.5,7.4c0,4-2.9,7.2-8.2,7.2c-5.4,0-9.7-2.5-9.7-7.4h0.9c4.7,0,3,6.9,9,6.9c4,0,6-2.4,6-4.6c0-1.6-0.7-3.3-3.1-4.2
	l-6.8-2.5c-3.7-1.4-5.3-4-5.3-6.6c0-3.6,2.8-7.2,8.2-7.2c4.2,0,8.6,1.8,8.6,4.8c0,1.8-1.2,2.6-2.3,2.6c-1.2,0-2.3-0.9-2.3-2.6V12.8z
	 M197.4,30.4h-0.5c0,3.3,3.4,5.9,6.6,6.3C200.9,35.5,200.7,30.4,197.4,30.4z M208.9,23.2l-6.8-2.5c-2.2-0.8-3.4-2.3-3.4-3.7
	c0-1,0.5-2.2,1.7-3.3c-1.4,0.9-2.6,2.8-2.6,5.3c0,2.4,1.4,4.9,5,6.2l6.6,2.5c2.7,1,3.6,3,3.6,4.7c0,1-0.3,1.7-0.8,2.4
	c1.1-0.9,1.8-3,1.8-4.6C213.9,26.9,212.2,24.4,208.9,23.2z M209.9,12.9v3.7c0,1.4,1,2.2,1.9,2.2c0.9,0,1.8-0.7,1.8-2.2
	C213.6,14.9,211.9,13.6,209.9,12.9z"/>
<path fill="#231F20" d="M107.6,54.7H97.1v12.1h-4.6v-25h4.6v12.5h10.5V41.7h4.6v25c-0.7,0.2-1.2,0.3-1.8,0.3c-1.6,0-2.8-0.8-2.8-3.3
	V54.7z M93,42.1v24.2h3.7V42.1H93z M108.1,42.1v21.6c0,1.9,0.9,2.8,2.4,2.8c0.4,0,0.9,0,1.3-0.2V42.1H108.1z"/>
<path fill="#231F20" d="M116.8,54.3c0-6.4,3.9-12.8,11.6-12.8c7.7,0,11.6,6.4,11.6,12.7c0,6.4-3.9,12.8-11.6,12.8
	C120.7,67,116.8,60.7,116.8,54.3z M121.4,59.7V44.4c-2.7,2.3-4.1,6.1-4.1,9.9c0,6,3.1,10.2,7.3,11.7
	C122.7,64.8,121.4,62.9,121.4,59.7z M135,64.4V48.8c0-4.6-3.2-6.9-6.6-6.9c-2.7,0-4.9,0.8-6.6,2.2v15.7c0,4.6,3.2,6.9,6.6,6.9
	C131.1,66.6,133.3,65.8,135,64.4z M135.5,64.1c2.7-2.3,4.1-6,4.1-9.9c0-6-3.1-10.2-7.3-11.7c2,1.2,3.2,3.2,3.2,6.3V64.1z"/>
<path fill="#231F20" d="M162.5,66.7V45.6l-6.7,21.2c-0.5,0.2-0.9,0.3-1.3,0.3c-2,0-3-0.9-3.7-3.4l-5.7-20.2v23.4h-0.5v-25h0.8
	c3,0,4.2,0.3,5,3.4l5.3,20.6l7.5-24h3.9v25H162.5z M155.4,66.5l-5.5-21.4c-0.7-2.5-1.6-3-4.5-3h-0.3l6,21.5c0.6,2.2,1.5,3,3.2,3
	C154.8,66.6,155.1,66.6,155.4,66.5z M162.9,44.1v22.2h3.7V42.1h-3.1L162.9,44.1z"/>
<path fill="#231F20" d="M188.5,42.1h-11.4v12.1h9.9v0.4h-9.9v11.6H189v0.4h-11.9c-2.9,0-4.6-1.7-4.6-4.6V41.7h16.1V42.1z
	 M176.6,66.3V42.1h-3.7v20C172.9,65,174.7,66.1,176.6,66.3z"/>
<path fill="#81BB41" d="M96.7,20.8c0,0-0.1,0.4-0.2,1.1c-0.1,0.6-0.3,1.1-0.6,1.4c-0.3,0.4-0.6,0.7-1.1,0.8c-0.3,0.1-0.6,0.1-0.9,0
	c-0.2-0.1-0.3-0.2-0.4-0.4c-0.1,0-0.2,0-0.3-0.1c-0.2-0.1-0.3-0.3-0.3-0.6c0.2-1.1,1-2,2.3-2.5c0.7-0.3,1.3-0.4,1.9-0.4
	C97.1,20.3,96.9,20.5,96.7,20.8z M93.6,23.7c-0.6,0.4-1.2,0.6-2,0.5L93.6,23.7z M94.2,25.8c-0.5-0.4-1.1-0.7-1.8-0.9
	c-0.4-0.1-0.7-0.2-0.9-0.2L94.2,25.8z M98.2,30.6c0,0,0-0.6-0.1-1.7c0-0.9-0.2-1.6-0.5-2.2c-0.3-0.7-0.8-1.1-1.4-1.4
	c-0.4-0.2-0.8-0.3-1.2-0.2c-0.2,0-0.4,0.1-0.5,0.3c-0.1,0.1-0.1,0.2-0.1,0.3c-0.1,0-0.3,0-0.4,0c-0.3,0.1-0.5,0.4-0.5,0.9
	c0,1.7,1,3.1,2.8,4.1c0.9,0.5,1.8,0.9,2.7,1C98.5,31.5,98.3,31.1,98.2,30.6z"/>
<path fill="#81BB41" d="M120.9,32.4c0,0,0.4,0.1,1.1,0.1c0.6,0.1,1,0.2,1.4,0.4c0.4,0.2,0.7,0.6,0.8,1c0.1,0.3,0.1,0.6,0.1,0.8
	c0,0.2-0.2,0.3-0.4,0.4c0,0.1,0,0.2,0,0.3c-0.1,0.2-0.3,0.3-0.6,0.3c-1.1-0.1-1.9-0.8-2.5-2c-0.3-0.6-0.5-1.2-0.5-1.8
	C120.3,32.2,120.6,32.3,120.9,32.4z M123.8,35.2c0.4,0.5,0.6,1.1,0.6,1.9L123.8,35.2z M125.8,34.5c-0.4,0.5-0.6,1.1-0.8,1.8
	c-0.1,0.3-0.1,0.7-0.1,0.9L125.8,34.5z M130,30.4c0,0-0.6,0.1-1.6,0.2c-0.8,0.1-1.5,0.3-2.1,0.6c-0.6,0.3-1,0.8-1.2,1.4
	c-0.2,0.4-0.2,0.8-0.1,1.2c0,0.2,0.1,0.3,0.3,0.5c0.1,0.1,0.2,0.1,0.2,0.1c0,0.1,0,0.3,0.1,0.4c0.1,0.3,0.4,0.4,0.9,0.5
	c1.6-0.2,2.9-1.1,3.7-2.9c0.4-0.9,0.7-1.8,0.8-2.7C130.9,30,130.5,30.2,130,30.4z"/>
<path fill="#81BB41" d="M156,48.3c0,0,0.2-0.2,0.7-0.7c0.4-0.4,0.7-0.6,1.1-0.7c0.4-0.2,0.8-0.2,1.1,0c0.3,0.1,0.5,0.2,0.6,0.4
	c0.1,0.1,0.1,0.3,0.1,0.5c0.1,0,0.1,0.1,0.2,0.2c0.1,0.2,0,0.4-0.1,0.6c-0.7,0.7-1.6,0.9-2.8,0.7c-0.6-0.1-1.1-0.3-1.6-0.6
	C155.5,48.5,155.7,48.5,156,48.3z M159.5,47.8c0.6,0,1.1,0.2,1.6,0.6L159.5,47.8z M160.1,46c0.1,0.5,0.4,1,0.8,1.5
	c0.2,0.2,0.4,0.4,0.6,0.6L160.1,46z M159.5,40.8c0,0-0.2,0.4-0.7,1.2c-0.4,0.6-0.6,1.2-0.7,1.8c-0.1,0.6,0,1.1,0.3,1.6
	c0.2,0.3,0.5,0.6,0.8,0.7c0.2,0.1,0.3,0.1,0.5,0c0.1,0,0.2-0.1,0.2-0.1c0.1,0.1,0.2,0.2,0.3,0.2c0.3,0.1,0.5-0.1,0.8-0.4
	c0.8-1.2,0.8-2.6,0-4.2c-0.4-0.8-0.9-1.5-1.4-2C159.7,40,159.7,40.3,159.5,40.8z"/>
<path fill="#81BB41" d="M67.4,15.1c-0.2,0.1-0.4,0.3-0.6,0.5c-0.3,0.3-0.5,0.4-0.6,0.5c-0.5,0.4-1,0.6-1.5,0.6c-0.4,0-0.9,0-1.8-0.2
	c-0.8-0.1-1.4-0.2-1.9-0.1c0.6-0.1,1-0.4,1.3-0.9c0.4-0.8,0.7-1.2,0.8-1.3c0.8-0.7,2-0.6,3.7,0.1c-0.7-0.2-1.3-0.2-2,0.1
	c-0.6,0.2-1.1,0.6-1.5,1.1c0.6-0.4,1.3-0.7,2.1-0.7c0.8-0.1,1.5,0,2.3,0.2L67.4,15.1z M67,13.5c-0.2,0-0.5,0-0.9,0
	c-0.5,0-0.7,0-0.8,0c-0.6,0-1.2-0.1-1.7-0.4c-0.3-0.2-0.7-0.6-1.3-1.1c-0.5-0.5-1-0.9-1.5-1.1c0.5,0.3,1.1,0.3,1.7,0.1
	c0.9-0.3,1.4-0.5,1.6-0.5c1.1-0.1,2.1,0.7,2.9,2.2c-0.4-0.5-0.9-0.9-1.7-1.1c-0.7-0.2-1.4-0.2-2-0.1c0.8,0.1,1.6,0.3,2.3,0.7
	c0.7,0.4,1.3,0.8,1.7,1.4L67,13.5z M67.5,12.2c-0.1-0.2-0.3-0.4-0.6-0.6c-0.3-0.3-0.5-0.5-0.6-0.5c-0.4-0.4-0.7-0.9-0.8-1.4
	c0-0.3,0-0.8,0.1-1.5c0.1-0.7,0.1-1.2,0-1.6c0.1,0.5,0.5,0.9,1.1,1.2c0.9,0.4,1.4,0.7,1.5,0.8c0.8,0.7,0.8,1.8,0,3.2
	c0.2-0.6,0.1-1.1-0.2-1.7c-0.3-0.6-0.7-1-1.3-1.4c0.5,0.6,0.8,1.2,1,1.9c0.1,0.7,0.1,1.3-0.2,2L67.5,12.2z M69.9,12.6
	c0.2-0.1,0.4-0.2,0.7-0.4c0.4-0.2,0.6-0.3,0.7-0.3c0.5-0.3,0.9-0.6,1.1-1c0.1-0.3,0.3-0.8,0.3-1.5c0.1-0.7,0.2-1.2,0.5-1.5
	c-0.2,0.4-0.7,0.7-1.4,0.8c-1,0.1-1.5,0.2-1.7,0.3c-1,0.4-1.3,1.4-1,3.1c0-0.6,0.2-1.1,0.7-1.6c0.4-0.4,1-0.7,1.7-0.9
	c-0.6,0.4-1.1,0.9-1.5,1.5c-0.3,0.6-0.5,1.3-0.4,1.9L69.9,12.6z"/>
<path fill="#81BB41" d="M136.2,11.9c-0.1,0-0.2-0.1-0.4-0.1c-0.2-0.1-0.3-0.1-0.4-0.1c-0.3-0.1-0.5-0.2-0.7-0.5
	c-0.1-0.1-0.3-0.4-0.5-0.8c-0.2-0.4-0.4-0.7-0.6-0.8c0.2,0.2,0.5,0.3,0.8,0.3c0.5-0.1,0.7-0.1,0.8-0.1c0.5,0.1,0.9,0.7,1.1,1.7
	c-0.1-0.3-0.3-0.6-0.6-0.8c-0.3-0.2-0.6-0.3-0.9-0.3c0.4,0.1,0.7,0.4,1,0.7c0.3,0.3,0.5,0.7,0.6,1.1L136.2,11.9z M136.8,11.2
	c-0.1-0.1-0.2-0.2-0.3-0.4c-0.2-0.2-0.2-0.3-0.3-0.4c-0.2-0.3-0.3-0.6-0.3-0.9c0-0.2,0-0.5,0.1-0.9c0.1-0.4,0.1-0.7,0-1
	c0,0.3,0.2,0.6,0.5,0.8c0.4,0.3,0.7,0.5,0.7,0.6c0.4,0.5,0.4,1.1-0.1,1.9c0.1-0.3,0.1-0.7-0.1-1c-0.1-0.4-0.3-0.7-0.6-0.9
	c0.2,0.4,0.4,0.8,0.4,1.2c0.1,0.4,0,0.8-0.1,1.2L136.8,11.2z M137.5,11.1c0-0.1,0.1-0.3,0.1-0.4c0-0.2,0-0.4,0-0.4
	c0.1-0.3,0.2-0.6,0.4-0.8c0.1-0.1,0.4-0.3,0.7-0.4c0.3-0.2,0.6-0.3,0.7-0.5c-0.2,0.2-0.2,0.5-0.2,0.8c0.1,0.5,0.1,0.8,0.1,0.9
	c-0.1,0.6-0.5,0.9-1.4,1c0.3-0.1,0.5-0.3,0.7-0.6c0.2-0.3,0.2-0.6,0.2-1c-0.1,0.4-0.3,0.7-0.5,1c-0.3,0.3-0.6,0.5-0.9,0.5
	L137.5,11.1z M138.1,12.2c0.1,0,0.2,0.1,0.4,0.2c0.2,0.1,0.3,0.2,0.4,0.2c0.3,0.2,0.6,0.2,0.8,0.2c0.2,0,0.4-0.1,0.8-0.3
	c0.3-0.2,0.6-0.3,0.8-0.3c-0.3,0-0.5-0.1-0.8-0.4c-0.3-0.4-0.6-0.6-0.6-0.7c-0.5-0.3-1-0.1-1.6,0.5c0.2-0.2,0.5-0.3,0.9-0.2
	c0.3,0.1,0.6,0.2,0.9,0.5c-0.4-0.2-0.7-0.2-1.1-0.2c-0.4,0-0.7,0.2-1,0.4L138.1,12.2z"/>
<path fill="#81BB41" d="M123.3,65.2c0-0.6,0.2-1.1,0.3-1.6c0.1-0.3,0.3-0.6,0.5-0.8c0.2-0.2,0.5-0.4,0.7-0.6c0.3-0.2,0.6-0.3,1-0.5
	c0.4-0.1,0.7-0.2,0.6-0.2c0.3-0.1,0.7-0.2,0.9-0.4c0.2-0.1,0.5-0.3,0.8-0.4c0.2-0.1,0.3-0.2,0.3-0.2c0,0-0.1,0-0.3,0.2
	c-0.3,0.1-0.5,0.2-0.8,0.3c-0.3,0.1-0.6,0.2-0.9,0.2c-0.3,0.1-0.5,0.1-0.7,0.2c-0.5,0.2-0.8,0.3-1.1,0.5c-0.6,0.4-1.1,0.9-1.5,1.4
	c-0.2,0.3-0.3,0.7-0.4,1.1c-0.2-0.1-0.4-0.3-0.4-0.6c-0.1-0.4,0-0.9,0.1-1.4c0.3-0.7,0.7-1.3,1.5-1.6c0.7-0.4,1.5-0.6,2.5-0.7
	c1.2-0.2,1.9-0.2,1.9-0.3c0.6-0.2,1-0.5,1.2-0.8c-0.1,1-0.4,2-1,3.1c-0.5,0.9-1,1.6-1.7,2.2c-0.8,0.7-1.8,1.1-2.8,1.2
	C123.8,65.6,123.5,65.4,123.3,65.2z"/>
<path fill="#81BB41" d="M160.5,27.1c-0.4-0.2-0.6-0.4-0.9-0.6c-0.2-0.2-0.3-0.4-0.3-0.6c-0.1-0.2-0.1-0.4-0.1-0.6c0-0.2,0-0.5,0-0.7
	c0-0.3,0-0.5,0-0.5c0-0.2,0-0.5,0-0.7c0-0.2,0-0.4,0-0.6c0-0.2,0-0.3,0-0.2c0,0,0,0.1,0,0.2c0,0.2,0,0.4,0,0.6c0,0.2,0,0.4-0.1,0.6
	c0,0.2-0.1,0.3-0.1,0.5c0,0.3,0,0.6,0,0.8c0,0.5,0.2,0.9,0.5,1.3c0.1,0.2,0.3,0.4,0.6,0.5c-0.1,0.1-0.3,0.2-0.5,0.1
	c-0.3-0.1-0.5-0.2-0.8-0.5c-0.4-0.4-0.6-0.8-0.6-1.4c0-0.5,0.1-1.1,0.3-1.7c0.3-0.8,0.4-1.2,0.4-1.2c0.1-0.4,0-0.7-0.2-1
	c0.6,0.4,1.1,0.8,1.6,1.4c0.4,0.5,0.7,1.1,0.9,1.6c0.2,0.7,0.2,1.4-0.1,2.1C160.9,26.9,160.7,27,160.5,27.1z"/>
<path fill="#81BB41" d="M103.1,45.6c0-0.3-0.1-0.6-0.3-0.7c-0.2-0.2-0.5-0.4-1-0.6c1.1,0,2,0.5,2.8,1.5c0.8,1,1,2,0.9,3
	c0.1-0.1,0.2-0.3,0.3-0.6c0.1-0.3,0.2-0.5,0.3-0.6c0.2,0.7,0.3,1.4,0.2,2.1c-0.1,0.8-0.4,1.4-0.9,1.9c0.2,0,0.4,0,0.6-0.2
	c0.1-0.1,0.4-0.3,0.7-0.7c-0.6,1.3-1.6,2.6-3.1,3.7c0.6-1.6,0.9-2.6,0.9-2.9c0.1-1-0.1-1.9-0.7-3c0.4,0.9,0.5,2,0.3,3.2
	c-0.2,1.2-0.8,2.2-1.6,2.8c0-0.3-0.4-1.1-1-2.3c-0.5-0.9-0.6-1.8-0.4-2.6c0.2,0.1,0.5,0.5,1,1.2c0.5,0.7,0.8,1.1,1.1,1.1
	c-0.2-0.2-0.8-1.1-1.7-2.8c0,0,0.1-0.1,0.3-0.3c0.2-0.3,0.4-0.6,0.6-0.9C102.9,47,103.2,46.2,103.1,45.6z"/>
<path fill="#81BB41" d="M173.5,8c-0.1-0.1-0.2-0.2-0.4-0.3c-0.2,0-0.4,0-0.7,0c0.6-0.4,1.2-0.4,1.9-0.2c0.7,0.2,1.2,0.6,1.4,1.2
	c0-0.1,0-0.2-0.1-0.4c0-0.2-0.1-0.3-0.1-0.4c0.4,0.3,0.6,0.6,0.8,1c0.2,0.4,0.3,0.9,0.2,1.3c0.1,0,0.2-0.1,0.2-0.3
	c0-0.1,0.1-0.3,0.1-0.6c0.2,0.9,0,1.9-0.3,3c-0.2-1-0.4-1.6-0.5-1.8c-0.3-0.5-0.7-1-1.4-1.3c0.5,0.3,0.9,0.8,1.2,1.5
	c0.3,0.7,0.3,1.4,0.2,2c-0.1-0.1-0.5-0.4-1.3-0.8c-0.6-0.3-0.9-0.7-1.1-1.2c0.1,0,0.4,0.1,0.9,0.3c0.5,0.2,0.8,0.3,0.9,0.2
	c-0.2,0-0.8-0.3-1.8-0.9c0,0,0-0.1,0-0.3c0-0.2,0-0.4,0-0.7C173.8,8.8,173.7,8.3,173.5,8z"/>
<path fill="#81BB41" d="M183.6,60.2c0.2-0.2,0.3-0.5,0.4-0.7c0-0.3,0-0.6-0.2-1.1c0.7,0.8,1,1.8,0.8,3.1c-0.2,1.2-0.7,2.1-1.6,2.7
	c0.2,0,0.4-0.1,0.6-0.2c0.3-0.1,0.5-0.2,0.6-0.2c-0.4,0.7-0.8,1.2-1.4,1.6c-0.6,0.5-1.3,0.7-2,0.7c0.1,0.2,0.3,0.2,0.5,0.3
	c0.2,0,0.5,0,0.9,0c-1.4,0.5-3,0.6-4.9,0.3c1.6-0.7,2.5-1.1,2.7-1.3c0.8-0.6,1.3-1.4,1.6-2.6c-0.4,0.9-1,1.7-2.1,2.4
	c-1.1,0.7-2.1,0.9-3.1,0.8c0.2-0.2,0.5-1,1-2.3c0.4-1,0.9-1.7,1.6-2.1c0.1,0.2,0,0.7-0.2,1.5c-0.2,0.8-0.2,1.4-0.1,1.6
	c0-0.3,0.3-1.3,0.9-3.2c0,0,0.2,0,0.4,0c0.3,0,0.7-0.1,1-0.2C182.5,61,183.2,60.7,183.6,60.2z"/>
</svg>
