<?xml version="1.0" encoding="utf-8"?>
<!-- Generator: Adobe Illustrator 18.1.1, SVG Export Plug-In . SVG Version: 6.00 Build 0)  -->
<!DOCTYPE svg PUBLIC "-//W3C//DTD SVG 1.1//EN" "http://www.w3.org/Graphics/SVG/1.1/DTD/svg11.dtd">
<svg version="1.1" xmlns="http://www.w3.org/2000/svg" xmlns:xlink="http://www.w3.org/1999/xlink" x="0px" y="0px" width="99.7px"
	 height="24.9px" viewBox="0 0 99.7 24.9" enable-background="new 0 0 99.7 24.9" xml:space="preserve">
<g id="landing1">
	<g id="Main_Body">
	</g>
	<g id="info_icons">
		<g>
			<path fill="#727272" d="M10.8,5.4c-0.4-0.8-1.1-1.1-2.2-1.1C8,4.3,7.6,4.4,7.2,4.7C6.8,5,6.5,5.5,6.3,6.2
				C6.1,6.9,5.9,7.8,5.9,8.9c-0.1,1.1-0.1,2.5-0.1,4.1c0,1.7,0.1,3.1,0.2,4.2c0.1,1.1,0.3,1.9,0.5,2.5c0.2,0.6,0.6,1,0.9,1.2
				c0.4,0.2,0.8,0.3,1.3,0.3c0.4,0,0.8-0.1,1.1-0.2c0.4-0.1,0.7-0.4,0.9-0.8c0.3-0.4,0.5-1,0.6-1.8c0.1-0.8,0.2-1.8,0.2-3h4.6
				c0,1.2-0.1,2.4-0.3,3.5s-0.5,2.1-1.1,2.9c-0.5,0.8-1.3,1.5-2.2,2c-0.9,0.5-2.2,0.7-3.7,0.7c-1.7,0-3.1-0.3-4.1-0.8
				c-1-0.6-1.8-1.4-2.4-2.4S1.5,19,1.4,17.5c-0.2-1.5-0.2-3.1-0.2-4.8C1.1,11,1.2,9.4,1.4,8c0.2-1.5,0.5-2.7,1.1-3.8
				s1.3-1.9,2.4-2.4s2.4-0.9,4.1-0.9c1.6,0,2.9,0.3,3.9,0.8c0.9,0.5,1.7,1.2,2.1,2c0.5,0.8,0.8,1.7,0.9,2.7C15.9,7.3,16,8.2,16,9
				h-4.6C11.4,7.4,11.2,6.2,10.8,5.4z"/>
			<path fill="#727272" d="M18.4,11.7c0.2-1.1,0.6-2.1,1.2-2.8s1.2-1.3,2.1-1.7c0.9-0.4,1.9-0.6,3.2-0.6c1.3,0,2.4,0.2,3.3,0.5
				C29,7.4,29.7,8,30.2,8.7c0.5,0.8,0.9,1.7,1.1,2.8c0.2,1.1,0.3,2.5,0.3,4c0,1.5-0.1,2.8-0.4,3.9s-0.6,2.1-1.2,2.8
				c-0.5,0.8-1.2,1.3-2.1,1.7c-0.9,0.4-1.9,0.5-3.2,0.5c-1.3,0-2.4-0.1-3.3-0.5c-0.9-0.4-1.6-0.9-2.1-1.7c-0.5-0.8-0.9-1.7-1.1-2.8
				c-0.2-1.1-0.3-2.5-0.3-4C18.1,14.1,18.2,12.8,18.4,11.7z M22.6,18c0,0.7,0.1,1.4,0.3,1.9c0.2,0.5,0.4,0.9,0.7,1.2
				c0.3,0.3,0.7,0.4,1.3,0.4c0.9,0,1.5-0.5,1.9-1.4c0.3-0.9,0.5-2.5,0.5-4.6c0-2.2-0.2-3.7-0.5-4.6c-0.3-0.9-1-1.4-1.9-1.4
				c-0.5,0-1,0.1-1.3,0.4c-0.3,0.3-0.6,0.7-0.7,1.2c-0.2,0.5-0.3,1.2-0.3,1.9c0,0.7-0.1,1.6-0.1,2.4C22.5,16.4,22.5,17.2,22.6,18z"
				/>
			<path fill="#727272" d="M38.2,6.9v2h0.1c0.5-0.9,1.1-1.5,1.8-1.9c0.7-0.4,1.6-0.6,2.6-0.6c1.4,0,2.5,0.4,3.2,1.2
				c0.8,0.8,1.1,2,1.1,3.7v12.8h-4.4V12.3c0-0.9-0.1-1.5-0.4-1.9c-0.3-0.4-0.8-0.5-1.4-0.5c-1.6,0-2.3,1-2.3,2.8v11.4H34V6.9H38.2z"
				/>
			<path fill="#727272" d="M55.4,2v4.9H58v3h-2.6v9.3c0,0.7,0.1,1.2,0.3,1.5c0.2,0.3,0.6,0.4,1.3,0.4c0.2,0,0.3,0,0.5,0
				c0.2,0,0.3,0,0.5,0v3.1c-0.5,0-1,0-1.4,0c-0.5,0-0.9,0-1.5,0c-0.9,0-1.6-0.1-2.1-0.2s-1-0.4-1.2-0.7c-0.3-0.4-0.5-0.8-0.6-1.4
				S51,20.7,51,19.8V10h-2.2v-3H51V2H55.4z"/>
			<path fill="#727272" d="M59.5,11.8c0-1,0.2-1.8,0.5-2.5c0.3-0.7,0.8-1.2,1.3-1.6s1.2-0.7,1.9-0.9c0.7-0.2,1.5-0.3,2.4-0.3
				c1.3,0,2.4,0.1,3.2,0.4c0.8,0.3,1.4,0.6,1.9,1.1c0.4,0.5,0.8,1,0.9,1.7c0.2,0.7,0.2,1.4,0.2,2.1v9.1c0,0.8,0,1.4,0.1,1.9
				c0.1,0.4,0.2,0.9,0.4,1.4h-4.2c-0.1-0.3-0.3-0.6-0.3-0.9s-0.1-0.6-0.2-0.9h-0.1c-0.5,0.9-1.1,1.5-1.8,1.7s-1.5,0.4-2.6,0.4
				c-0.8,0-1.4-0.1-2-0.4c-0.5-0.3-1-0.6-1.3-1.1c-0.3-0.5-0.6-1-0.7-1.6c-0.1-0.6-0.2-1.2-0.2-1.7c0-0.8,0.1-1.5,0.3-2.1
				c0.2-0.6,0.4-1.1,0.8-1.5s0.8-0.8,1.3-1c0.5-0.3,1.2-0.5,2-0.7l2.5-0.7c0.7-0.2,1.1-0.4,1.4-0.7c0.3-0.3,0.4-0.7,0.4-1.3
				c0-0.7-0.2-1.2-0.5-1.6c-0.3-0.4-0.8-0.6-1.6-0.6c-0.7,0-1.2,0.2-1.5,0.6s-0.5,0.9-0.5,1.6v0.5h-4V11.8z M66.6,16.1
				c-0.3,0.1-0.7,0.2-0.9,0.3c-0.9,0.2-1.5,0.5-1.9,1c-0.4,0.4-0.6,1.1-0.6,1.8c0,0.7,0.1,1.2,0.4,1.7c0.3,0.5,0.7,0.7,1.3,0.7
				c0.3,0,0.6,0,0.9-0.1c0.3-0.1,0.6-0.2,0.9-0.5c0.3-0.2,0.5-0.5,0.7-0.8c0.2-0.3,0.3-0.7,0.3-1.2v-3.4
				C67.2,15.8,66.9,16,66.6,16.1z"/>
			<path fill="#727272" d="M83.1,11.9c-0.1-0.4-0.1-0.8-0.3-1.1c-0.1-0.3-0.3-0.6-0.6-0.8c-0.3-0.2-0.6-0.3-1-0.3
				c-0.5,0-1,0.1-1.3,0.4s-0.6,0.6-0.8,1.1c-0.2,0.5-0.3,1.1-0.4,1.8c-0.1,0.7-0.1,1.6-0.1,2.6c0,1.1,0,2,0.1,2.7
				c0.1,0.8,0.2,1.4,0.4,1.9s0.4,0.8,0.7,1.1c0.3,0.2,0.7,0.3,1.2,0.3c0.7,0,1.3-0.3,1.6-1c0.3-0.6,0.5-1.7,0.5-3.1h4.2
				c0,2.3-0.5,4-1.5,5.2c-1,1.2-2.7,1.8-5,1.8c-1.1,0-2.1-0.1-2.9-0.4s-1.5-0.7-2-1.4c-0.5-0.7-1-1.6-1.2-2.8
				c-0.3-1.2-0.4-2.6-0.4-4.3c0-1.8,0.2-3.2,0.5-4.4c0.3-1.2,0.8-2.1,1.4-2.8c0.6-0.7,1.4-1.2,2.2-1.5c0.9-0.3,1.8-0.4,2.8-0.4
				c2,0,3.6,0.6,4.6,1.8c1,1.2,1.6,2.8,1.6,4.9h-4.2C83.2,12.7,83.1,12.3,83.1,11.9z"/>
			<path fill="#727272" d="M95.1,2v4.9h2.6v3h-2.6v9.3c0,0.7,0.1,1.2,0.3,1.5c0.2,0.3,0.6,0.4,1.3,0.4c0.2,0,0.3,0,0.5,0
				c0.2,0,0.3,0,0.5,0v3.1c-0.5,0-1,0-1.4,0c-0.5,0-0.9,0-1.5,0c-0.9,0-1.6-0.1-2.1-0.2s-1-0.4-1.2-0.7c-0.3-0.4-0.5-0.8-0.6-1.4
				s-0.2-1.3-0.2-2.2V10h-2.2v-3h2.2V2H95.1z"/>
		</g>
	</g>
</g>
<g id="nav-Modal" display="none">
	<g id="Main" display="inline">
	</g>
</g>
<g id="Dashboard" display="none">
	<g id="local_guides">
	</g>
</g>
<g id="Dashboard_2" display="none">
</g>
<g id="Layer_2" display="none">
</g>
</svg>
