<?xml version="1.0" encoding="utf-8"?>
<!-- Generator: Adobe Illustrator 18.1.1, SVG Export Plug-In . SVG Version: 6.00 Build 0)  -->
<!DOCTYPE svg PUBLIC "-//W3C//DTD SVG 1.1//EN" "http://www.w3.org/Graphics/SVG/1.1/DTD/svg11.dtd">
<svg version="1.1" xmlns="http://www.w3.org/2000/svg" xmlns:xlink="http://www.w3.org/1999/xlink" x="0px" y="0px" width="515.3px"
	 height="59.4px" viewBox="0 0 515.3 59.4" enable-background="new 0 0 515.3 59.4" xml:space="preserve">
<g id="landing1">
	<g id="Main_Body">
		<g>
			<defs>
				<rect id="SVGID_2_" x="-1302" y="-113" width="1279" height="497.1"/>
			</defs>
			<clipPath id="SVGID_1_">
				<use xlink:href="#SVGID_2_"  overflow="visible"/>
			</clipPath>
			<g clip-path="url(#SVGID_1_)">
				
					<image overflow="visible" width="4096" height="2160" xlink:href="../../../../Dropbox/Client Account Files/Sollars Home/Graphics/Stock Images/Product Families/Single Story Home Product Images_Rev2/White Eichler.jpg"  transform="matrix(0.3344 0 0 0.3178 -1357.9888 -47.1725)">
				</image>
			</g>
		</g>
	</g>
	<g id="info_icons">
		<g>
			<path fill="#727272" d="M0.6,57.8v-35h14.2c3.4,0,6,0.8,7.8,2.4c1.9,1.6,2.8,4,2.8,7.2c0,1.5-0.3,2.9-0.8,4.1
				c-0.6,1.2-1.3,2.2-2.3,3c-1,0.8-2.1,1.4-3.5,1.8c-1.4,0.4-2.9,0.6-4.5,0.6H1.6v15.9H0.6z M14.8,40.8c1.4,0,2.6-0.2,3.8-0.6
				s2.2-0.9,3.1-1.7c0.9-0.7,1.5-1.6,2-2.7c0.5-1,0.7-2.3,0.7-3.6c0-2.8-0.8-4.9-2.4-6.4c-1.6-1.5-4-2.2-7.3-2.2H1.6v17.1H14.8z"/>
			<path fill="#727272" d="M28.8,57.8v-35h14.3c3.7,0,6.3,0.7,8,2.2c1.7,1.5,2.6,3.7,2.6,6.8c0.1,2.4-0.6,4.3-1.9,5.9
				c-1.3,1.6-3.2,2.6-5.6,3.2v0.1c1.5,0.2,2.7,0.5,3.6,1.1c0.9,0.5,1.6,1.2,2.1,2c0.5,0.8,0.8,1.8,1,2.9c0.2,1.1,0.2,2.4,0.2,3.8
				c0,0.5,0,1.1,0,1.8c0,0.7,0.1,1.5,0.1,2.2c0.1,0.7,0.1,1.4,0.2,2c0.1,0.6,0.2,1,0.4,1.2h-1.1c-0.2-0.4-0.3-0.8-0.4-1.4
				c-0.1-0.6-0.2-1.2-0.2-1.9s-0.1-1.4-0.1-2.1c0-0.7,0-1.3,0-1.9c0-1.4-0.1-2.7-0.3-3.8c-0.2-1.1-0.6-2.1-1.3-2.8
				c-0.7-0.8-1.6-1.4-2.8-1.8c-1.2-0.4-2.8-0.6-4.9-0.6H29.8v16.4H28.8z M42.8,40.4c1.3,0,2.6-0.2,3.7-0.5c1.2-0.3,2.2-0.8,3.2-1.6
				c0.9-0.7,1.6-1.6,2.2-2.7c0.6-1.1,0.8-2.4,0.8-3.9c0-2.5-0.8-4.4-2.3-5.8c-1.5-1.4-3.9-2.1-7.2-2.1H29.8v16.6H42.8z"/>
			<path fill="#727272" d="M82.1,56.8v1H58.7v-35h23.2v1H59.7V39h20.9v1H59.7v16.8H82.1z"/>
			<path fill="#727272" d="M94.8,44.1v1h-8.6v-1H94.8z"/>
			<path fill="#727272" d="M113.6,22.8c1.7,0,3.5,0.3,5.3,0.8c1.8,0.5,3.4,1.5,4.8,2.8c1.4,1.3,2.6,3.1,3.5,5.4s1.3,5.1,1.3,8.5
				c0,3.1-0.5,5.8-1.4,8c-0.9,2.2-2.1,4-3.7,5.4c-1.5,1.4-3.3,2.4-5.2,3.1c-2,0.7-4,1-6.1,1h-10.7v-35H113.6z M112.3,56.8
				c2.1,0,4-0.3,5.9-1c1.8-0.7,3.5-1.7,4.9-3c1.4-1.4,2.5-3.1,3.3-5.1c0.8-2.1,1.2-4.5,1.2-7.3c0-3.3-0.4-6-1.2-8.1
				c-0.8-2.1-1.9-3.8-3.2-5.1c-1.3-1.3-2.9-2.1-4.5-2.6c-1.7-0.5-3.4-0.7-5.2-0.7h-11v33H112.3z"/>
			<path fill="#727272" d="M156.5,56.8v1h-23.4v-35h23.2v1h-22.2V39H155v1h-20.9v16.8H156.5z"/>
			<path fill="#727272" d="M181.8,28c-0.6-1.2-1.4-2.2-2.4-3c-1-0.8-2.2-1.3-3.6-1.6c-1.4-0.3-2.8-0.5-4.4-0.5
				c-1.2,0-2.5,0.1-3.8,0.4c-1.3,0.2-2.5,0.7-3.6,1.3c-1.1,0.6-1.9,1.4-2.6,2.5c-0.7,1-1,2.3-1,3.9c0,1.6,0.4,2.8,1.1,3.8
				c0.7,0.9,1.6,1.7,2.7,2.3s2.4,1,3.8,1.4c1.4,0.3,2.9,0.7,4.4,1c1.6,0.4,3.2,0.8,4.6,1.2c1.5,0.4,2.7,0.9,3.8,1.6
				c1.1,0.7,1.9,1.5,2.6,2.6c0.6,1.1,1,2.5,1,4.4c0,1.7-0.4,3.1-1.1,4.3c-0.7,1.2-1.7,2.1-2.8,2.9c-1.2,0.8-2.5,1.3-4,1.7
				c-1.5,0.3-3,0.5-4.5,0.5c-2,0-3.8-0.2-5.5-0.7c-1.7-0.5-3.1-1.2-4.4-2.2c-1.2-1-2.2-2.3-2.8-3.8c-0.7-1.6-1-3.5-1-5.7h1
				c0,2.1,0.3,3.9,0.9,5.3c0.6,1.5,1.5,2.6,2.6,3.6c1.1,0.9,2.5,1.6,4,2c1.6,0.4,3.3,0.6,5.1,0.6c1.4,0,2.7-0.2,4.1-0.5
				c1.4-0.3,2.6-0.8,3.7-1.5s2-1.6,2.6-2.6c0.7-1.1,1-2.4,1-3.9c0-1.8-0.4-3.2-1.2-4.2s-1.7-1.8-2.9-2.5c-1.2-0.6-2.5-1.1-4-1.4
				c-1.5-0.3-2.9-0.6-4.2-1c-1.4-0.3-2.8-0.7-4.2-1c-1.4-0.4-2.7-0.9-3.8-1.5c-1.1-0.6-2-1.5-2.7-2.5c-0.7-1.1-1-2.4-1-4.1
				c0-1.7,0.4-3.2,1.1-4.3c0.7-1.2,1.6-2.1,2.8-2.8s2.4-1.2,3.8-1.5s2.8-0.4,4.2-0.4c1.7,0,3.3,0.2,4.8,0.6c1.5,0.4,2.7,1,3.8,1.8
				c1.1,0.8,2,1.9,2.6,3.3c0.7,1.4,1,3,1.1,5h-1C182.7,30.8,182.4,29.3,181.8,28z"/>
			<path fill="#727272" d="M190.3,22.8v35h-1v-35H190.3z"/>
			<path fill="#727272" d="M211.4,41.4H226v16.4h-1v-8.7h-0.1c-0.9,3-2.6,5.3-5.1,7s-5.4,2.5-8.9,2.5c-2.7,0-5-0.5-7.1-1.4
				c-2.1-1-3.8-2.3-5.1-3.9c-1.4-1.6-2.4-3.6-3.1-5.8c-0.7-2.2-1.1-4.6-1.1-7.1c0-2.5,0.4-4.9,1.1-7.2c0.8-2.2,1.8-4.2,3.2-5.8
				c1.4-1.6,3.1-2.9,5.1-3.9c2-0.9,4.3-1.4,6.9-1.4c2,0,3.8,0.3,5.4,0.8c1.6,0.6,3.1,1.3,4.4,2.4c1.3,1,2.3,2.3,3.1,3.7
				c0.8,1.4,1.3,3.1,1.6,4.9h-1c-0.3-1.6-0.8-3.1-1.6-4.4c-0.8-1.3-1.7-2.5-2.9-3.4c-1.2-0.9-2.5-1.7-4-2.2c-1.5-0.5-3.2-0.8-5-0.8
				c-2.5,0-4.6,0.5-6.5,1.4c-1.9,0.9-3.5,2.2-4.9,3.7c-1.3,1.6-2.3,3.4-3,5.5c-0.7,2.1-1,4.4-1,6.7c0,2.4,0.3,4.6,1,6.7
				s1.6,3.9,2.9,5.5c1.3,1.6,2.9,2.8,4.9,3.7c1.9,0.9,4.2,1.4,6.8,1.4c1.9,0,3.7-0.3,5.4-1c1.7-0.7,3.2-1.6,4.4-2.8
				c1.3-1.2,2.2-2.6,3-4.3c0.7-1.6,1.1-3.4,1.1-5.4v-1.8h-13.6V41.4z"/>
			<path fill="#727272" d="M232.5,22.8l23.9,33.8h0.1V22.8h1v35H256L232.1,24H232v33.8h-1v-35H232.5z"/>
			<path fill="#727272" d="M286.2,56.8v1h-23.4v-35H286v1h-22.2V39h20.9v1h-20.9v16.8H286.2z"/>
			<path fill="#727272" d="M301.3,22.8c1.7,0,3.5,0.3,5.3,0.8c1.8,0.5,3.4,1.5,4.8,2.8c1.4,1.3,2.6,3.1,3.5,5.4s1.3,5.1,1.3,8.5
				c0,3.1-0.5,5.8-1.4,8c-0.9,2.2-2.1,4-3.7,5.4c-1.5,1.4-3.3,2.4-5.2,3.1c-2,0.7-4,1-6.1,1h-10.7v-35H301.3z M300,56.8
				c2.1,0,4-0.3,5.9-1c1.8-0.7,3.5-1.7,4.9-3c1.4-1.4,2.5-3.1,3.3-5.1c0.8-2.1,1.2-4.5,1.2-7.3c0-3.3-0.4-6-1.2-8.1
				c-0.8-2.1-1.9-3.8-3.2-5.1c-1.3-1.3-2.8-2.1-4.5-2.6s-3.4-0.7-5.2-0.7h-11v33H300z"/>
			<path fill="#727272" d="M367.4,22.8v35h-1V24h-0.1l-14.8,33.8h-1.1L335.5,24h-0.1v33.8h-1v-35h1.6l14.8,33.7h0.1l14.8-33.7H367.4
				z"/>
			<path fill="#727272" d="M371.6,40.3c0-2.5,0.4-4.8,1.1-7.1c0.7-2.2,1.7-4.2,3.1-5.8c1.4-1.7,3-3,5-4c2-1,4.3-1.5,6.9-1.5
				c2.6,0,4.9,0.5,6.9,1.5c2,1,3.7,2.3,5,4c1.4,1.7,2.4,3.6,3.1,5.8c0.7,2.2,1.1,4.6,1.1,7.1c0,2.5-0.4,4.8-1.1,7.1
				c-0.7,2.2-1.7,4.2-3.1,5.8c-1.4,1.7-3,3-5,3.9c-2,1-4.3,1.4-6.9,1.4c-2.6,0-4.9-0.5-6.9-1.4c-2-1-3.7-2.3-5-3.9
				c-1.4-1.7-2.4-3.6-3.1-5.8C371.9,45.1,371.6,42.7,371.6,40.3z M372.6,40.3c0,2.5,0.4,4.8,1.1,7c0.7,2.1,1.7,4,3,5.5
				c1.3,1.5,2.9,2.7,4.7,3.6c1.9,0.9,4,1.3,6.3,1.3c2.4,0,4.5-0.4,6.3-1.3c1.9-0.9,3.4-2.1,4.7-3.6c1.3-1.5,2.3-3.4,3-5.5
				c0.7-2.1,1.1-4.4,1.1-7c0-2.5-0.4-4.8-1.1-7c-0.7-2.1-1.7-4-3-5.5c-1.3-1.5-2.9-2.7-4.7-3.6c-1.9-0.9-4-1.3-6.3-1.3
				c-2.4,0-4.5,0.4-6.3,1.3c-1.9,0.9-3.4,2.1-4.7,3.6c-1.3,1.5-2.3,3.4-3,5.5C373,35.4,372.6,37.7,372.6,40.3z"/>
			<path fill="#727272" d="M420.2,22.8c1.7,0,3.5,0.3,5.3,0.8c1.8,0.5,3.4,1.5,4.8,2.8c1.4,1.3,2.6,3.1,3.5,5.4s1.3,5.1,1.3,8.5
				c0,3.1-0.5,5.8-1.4,8c-0.9,2.2-2.1,4-3.7,5.4c-1.5,1.4-3.3,2.4-5.2,3.1c-2,0.7-4,1-6.1,1H408v-35H420.2z M419,56.8
				c2.1,0,4-0.3,5.9-1c1.8-0.7,3.5-1.7,4.9-3c1.4-1.4,2.5-3.1,3.3-5.1c0.8-2.1,1.2-4.5,1.2-7.3c0-3.3-0.4-6-1.2-8.1
				c-0.8-2.1-1.9-3.8-3.2-5.1c-1.3-1.3-2.8-2.1-4.5-2.6s-3.4-0.7-5.2-0.7h-11v33H419z"/>
			<path fill="#727272" d="M463.2,56.8v1h-23.4v-35H463v1h-22.2V39h20.9v1h-20.9v16.8H463.2z"/>
			<path fill="#727272" d="M487.5,57.8H466v-35h1v34h20.4V57.8z"/>
			<path fill="#727272" d="M512,28c-0.6-1.2-1.4-2.2-2.4-3c-1-0.8-2.2-1.3-3.6-1.6c-1.4-0.3-2.8-0.5-4.4-0.5c-1.2,0-2.5,0.1-3.8,0.4
				c-1.3,0.2-2.5,0.7-3.6,1.3c-1.1,0.6-1.9,1.4-2.6,2.5c-0.7,1-1,2.3-1,3.9c0,1.6,0.4,2.8,1.1,3.8c0.7,0.9,1.6,1.7,2.7,2.3
				s2.4,1,3.8,1.4c1.4,0.3,2.9,0.7,4.4,1c1.6,0.4,3.2,0.8,4.6,1.2c1.5,0.4,2.7,0.9,3.8,1.6c1.1,0.7,1.9,1.5,2.6,2.6s1,2.5,1,4.4
				c0,1.7-0.4,3.1-1.1,4.3c-0.7,1.2-1.7,2.1-2.8,2.9c-1.2,0.8-2.5,1.3-4,1.7c-1.5,0.3-3,0.5-4.5,0.5c-2,0-3.8-0.2-5.5-0.7
				s-3.1-1.2-4.4-2.2c-1.2-1-2.2-2.3-2.8-3.8c-0.7-1.6-1-3.5-1-5.7h1c0,2.1,0.3,3.9,0.9,5.3c0.6,1.5,1.5,2.6,2.6,3.6
				c1.1,0.9,2.5,1.6,4,2c1.6,0.4,3.3,0.6,5.1,0.6c1.4,0,2.7-0.2,4.1-0.5c1.4-0.3,2.6-0.8,3.7-1.5s2-1.6,2.6-2.6s1-2.4,1-3.9
				c0-1.8-0.4-3.2-1.2-4.2c-0.8-1-1.7-1.8-2.9-2.5c-1.2-0.6-2.5-1.1-4-1.4c-1.5-0.3-2.9-0.6-4.2-1c-1.4-0.3-2.8-0.7-4.2-1
				c-1.4-0.4-2.7-0.9-3.8-1.5c-1.1-0.6-2-1.5-2.7-2.5c-0.7-1.1-1-2.4-1-4.1c0-1.7,0.4-3.2,1.1-4.3c0.7-1.2,1.6-2.1,2.8-2.8
				c1.1-0.7,2.4-1.2,3.8-1.5c1.4-0.3,2.8-0.4,4.2-0.4c1.7,0,3.3,0.2,4.8,0.6c1.5,0.4,2.7,1,3.8,1.8c1.1,0.8,2,1.9,2.6,3.3
				c0.7,1.4,1,3,1.1,5h-1C512.9,30.8,512.6,29.3,512,28z"/>
		</g>
		<g>
			<path fill="#4CAF50" d="M186.8,0.3h4v20h-4V0.3z"/>
			<path fill="#4CAF50" d="M203.4,14L203.4,14l0.1-13.7h3.7v20h-4.6l-4.9-14h-0.1v14h-3.7v-20h4.6L203.4,14z"/>
			<path fill="#4CAF50" d="M221.7,3.6h-4.4v16.7h-4V3.6h-4.4V0.3h12.8V3.6z"/>
			<path fill="#4CAF50" d="M234.6,3.6h-7.1v4.7h6.7v3.3h-6.7v5.4h7.4v3.3h-11.5v-20h11.2V3.6z"/>
			<path fill="#4CAF50" d="M244.3,0.3c1.7,0,3,0.4,3.9,1.3s1.4,2.1,1.4,3.9c0,1.3-0.3,2.4-0.8,3.3s-1.4,1.4-2.5,1.6v0.1
				c1,0.1,1.7,0.5,2.2,1c0.5,0.5,0.8,1.3,0.9,2.4c0,0.4,0.1,0.8,0.1,1.2c0,0.4,0,0.9,0.1,1.5c0,1.1,0.1,1.9,0.2,2.4
				c0.1,0.6,0.4,0.9,0.7,1.1v0.2H246c-0.2-0.3-0.3-0.6-0.4-1c-0.1-0.4-0.1-0.7-0.1-1.1l-0.1-3.8c0-0.8-0.2-1.4-0.6-1.8
				c-0.4-0.4-1-0.7-1.8-0.7h-2.2v8.5h-4v-20H244.3z M242.6,9c1,0,1.7-0.2,2.2-0.7c0.5-0.5,0.8-1.2,0.8-2.3c0-1.8-0.9-2.8-2.8-2.8
				h-1.9V9H242.6z"/>
			<path fill="#4CAF50" d="M261.3,0.3l5.3,20h-4.2l-0.9-4.2h-5.3l-0.9,4.2H251l5.3-20H261.3z M260.8,12.7l-1.9-9h-0.1l-1.9,9H260.8z
				"/>
			<path fill="#4CAF50" d="M276,3.8c-0.3-0.7-1-1-1.9-1c-0.5,0-0.9,0.1-1.2,0.4c-0.3,0.3-0.6,0.7-0.8,1.3c-0.2,0.6-0.3,1.4-0.4,2.4
				s-0.1,2.2-0.1,3.6c0,1.5,0.1,2.7,0.2,3.7c0.1,0.9,0.3,1.7,0.5,2.2c0.2,0.5,0.5,0.9,0.8,1c0.3,0.2,0.7,0.3,1.1,0.3
				c0.4,0,0.7-0.1,1-0.2s0.6-0.4,0.8-0.7c0.2-0.4,0.4-0.9,0.5-1.5c0.1-0.7,0.2-1.5,0.2-2.6h4c0,1.1-0.1,2.1-0.3,3.1
				c-0.2,1-0.5,1.8-0.9,2.5c-0.5,0.7-1.1,1.3-1.9,1.7c-0.8,0.4-1.9,0.6-3.2,0.6c-1.5,0-2.7-0.2-3.6-0.7s-1.6-1.2-2.1-2.1
				c-0.5-0.9-0.8-2-0.9-3.3c-0.1-1.3-0.2-2.7-0.2-4.2c0-1.5,0.1-2.9,0.2-4.2c0.1-1.3,0.4-2.4,0.9-3.3c0.5-0.9,1.2-1.6,2.1-2.1
				s2.1-0.8,3.6-0.8c1.4,0,2.6,0.2,3.4,0.7c0.8,0.5,1.5,1.1,1.9,1.8s0.7,1.5,0.8,2.3c0.1,0.8,0.2,1.6,0.2,2.3h-4
				C276.5,5.6,276.4,4.5,276,3.8z"/>
			<path fill="#4CAF50" d="M294.7,3.6h-4.4v16.7h-4V3.6H282V0.3h12.8V3.6z"/>
			<path fill="#4CAF50" d="M296.7,0.3h4v20h-4V0.3z"/>
			<path fill="#4CAF50" d="M309.5,15L309.5,15l3.1-14.8h4.2l-4.6,20H307l-4.6-20h4.3L309.5,15z"/>
			<path fill="#4CAF50" d="M329.4,3.6h-7.1v4.7h6.7v3.3h-6.7v5.4h7.4v3.3h-11.5v-20h11.2V3.6z"/>
		</g>
	</g>
</g>
<g id="nav-Modal" display="none">
	<g id="Main" display="inline">
	</g>
</g>
<g id="Dashboard" display="none">
	<g id="local_guides">
	</g>
</g>
<g id="Dashboard_2" display="none">
</g>
<g id="Layer_2" display="none">
</g>
</svg>
