<?xml version="1.0" encoding="utf-8"?>
<!-- Generator: Adobe Illustrator 18.1.1, SVG Export Plug-In . SVG Version: 6.00 Build 0)  -->
<!DOCTYPE svg PUBLIC "-//W3C//DTD SVG 1.1//EN" "http://www.w3.org/Graphics/SVG/1.1/DTD/svg11.dtd">
<svg version="1.1" xmlns="http://www.w3.org/2000/svg" xmlns:xlink="http://www.w3.org/1999/xlink" x="0px" y="0px" width="223.9px"
	 height="76.2px" viewBox="0 0 223.9 76.2" enable-background="new 0 0 223.9 76.2" xml:space="preserve">
<g id="landing1">
	<g id="Main_Body">
	</g>
	<g id="info_icons">
	</g>
</g>
<g id="nav-Modal" display="none">
	<g id="Main" display="inline">
	</g>
</g>
<g id="Dashboard">
	<g id="local_guides" display="none">
	</g>
</g>
<g id="Tree_Headers">
	<rect x="-118.5" y="-46.3" display="none" fill="#020202" width="467" height="178.8"/>
	<line fill="none" stroke="#4caf50" stroke-width="2" stroke-miterlimit="10" x1="0.5" y1="74.1" x2="222.5" y2="74.1"/>
	<g>
		<path fill="#F2F2F2" d="M12.8,0.7c2.1,0,3.8,0.3,5.1,1c1.3,0.7,2.3,1.7,3,2.9c0.7,1.3,1.2,2.8,1.4,4.6s0.4,3.8,0.4,6
			c0,2.6-0.2,4.9-0.5,6.9s-0.9,3.5-1.7,4.8c-0.8,1.3-1.8,2.2-3.2,2.8s-3,0.9-5,0.9H2.9v-30H12.8z M11.7,26.2c1.1,0,1.9-0.2,2.6-0.5
			c0.6-0.4,1.2-1,1.5-1.8c0.4-0.8,0.6-1.9,0.8-3.3c0.1-1.4,0.2-3.1,0.2-5.1c0-1.7-0.1-3.2-0.2-4.5c-0.1-1.3-0.3-2.4-0.7-3.2
			c-0.3-0.9-0.9-1.5-1.6-1.9c-0.7-0.4-1.6-0.7-2.8-0.7H9v21.1H11.7z"/>
		<path fill="#F2F2F2" d="M43.5,5.6H32.8v7.1h10.1v5H32.8v8.1h11.1v5H26.7v-30h16.8V5.6z"/>
		<path fill="#F2F2F2" d="M51.8,22.2c0,0.7,0.1,1.3,0.2,1.9c0.1,0.6,0.3,1.1,0.6,1.4c0.3,0.4,0.7,0.7,1.2,0.9c0.5,0.2,1.2,0.3,2,0.3
			c0.9,0,1.8-0.3,2.5-0.9c0.7-0.6,1.1-1.5,1.1-2.8c0-0.7-0.1-1.3-0.3-1.7c-0.2-0.5-0.5-0.9-0.9-1.3c-0.4-0.4-1-0.7-1.7-1.1
			c-0.7-0.3-1.5-0.7-2.5-1c-1.3-0.4-2.5-0.9-3.5-1.5c-1-0.5-1.8-1.2-2.5-1.9c-0.7-0.7-1.1-1.5-1.4-2.5c-0.3-0.9-0.5-2-0.5-3.3
			c0-3,0.8-5.2,2.5-6.6c1.7-1.5,3.9-2.2,6.8-2.2c1.3,0,2.6,0.1,3.7,0.4c1.1,0.3,2.1,0.8,2.9,1.4s1.5,1.5,1.9,2.5
			c0.5,1,0.7,2.2,0.7,3.7V9H59c0-1.4-0.3-2.5-0.8-3.3c-0.5-0.8-1.3-1.2-2.5-1.2c-0.7,0-1.2,0.1-1.7,0.3c-0.4,0.2-0.8,0.5-1.1,0.8
			c-0.3,0.3-0.4,0.7-0.5,1.1S52.2,7.6,52.2,8c0,0.9,0.2,1.7,0.6,2.3c0.4,0.6,1.2,1.2,2.5,1.7l4.7,2c1.1,0.5,2.1,1,2.8,1.6
			c0.7,0.5,1.3,1.1,1.7,1.8c0.4,0.6,0.7,1.3,0.9,2.1c0.2,0.8,0.3,1.6,0.3,2.5c0,3.2-0.9,5.5-2.8,6.9c-1.8,1.4-4.4,2.2-7.7,2.2
			c-3.4,0-5.9-0.7-7.3-2.2c-1.5-1.5-2.2-3.6-2.2-6.4v-1.2h6V22.2z"/>
		<path fill="#F2F2F2" d="M69,0.7h6v30h-6V0.7z"/>
		<path fill="#F2F2F2" d="M92.7,7.9c-0.1-0.6-0.3-1.1-0.6-1.6S91.5,5.4,91,5c-0.4-0.3-1-0.5-1.6-0.5c-1.5,0-2.5,0.8-3.2,2.4
			c-0.6,1.6-1,4.3-1,8.1c0,1.8,0.1,3.4,0.2,4.9c0.1,1.5,0.3,2.7,0.6,3.7c0.3,1,0.7,1.8,1.3,2.4s1.3,0.8,2.1,0.8
			c0.4,0,0.8-0.1,1.2-0.3c0.4-0.2,0.8-0.5,1.2-0.9c0.4-0.4,0.7-0.9,0.9-1.5c0.3-0.6,0.4-1.3,0.4-2.1V19h-4v-4.5H99v16.2h-4.5v-2.8
			h-0.1c-0.7,1.2-1.6,2-2.6,2.5c-1,0.5-2.2,0.7-3.7,0.7c-1.8,0-3.4-0.3-4.5-1c-1.2-0.6-2.1-1.6-2.7-3c-0.7-1.3-1.1-3-1.3-5
			c-0.2-2-0.3-4.3-0.3-6.9c0-2.5,0.2-4.7,0.5-6.6c0.3-1.9,0.9-3.5,1.7-4.8c0.8-1.3,1.8-2.2,3.1-2.9c1.3-0.6,2.9-1,4.8-1
			c3.3,0,5.7,0.8,7.1,2.5c1.5,1.6,2.2,4,2.2,7h-5.8C92.9,9,92.8,8.5,92.7,7.9z"/>
		<path fill="#F2F2F2" d="M117.2,21.2L117.2,21.2l0.1-20.5h5.5v30H116l-7.4-21h-0.1v21h-5.5v-30h7L117.2,21.2z"/>
		<path fill="#F2F2F2" d="M153.7,18.5c0.2-0.9,0.3-1.6,0.3-2.3h5.2c0,1.6-0.3,3.2-0.9,4.7c-0.6,1.5-1.3,2.9-2.2,4.2l3.9,5.5h-6.4
			l-1.7-2.3c-0.8,0.9-1.8,1.6-3,2.1c-1.3,0.5-2.7,0.7-4.2,0.7c-1.9,0-3.4-0.3-4.6-0.8c-1.2-0.5-2.1-1.3-2.8-2.1
			c-0.7-0.9-1.1-1.8-1.4-2.8s-0.4-1.9-0.4-2.8c0-1.8,0.5-3.4,1.6-4.8c1.1-1.4,2.6-2.7,4.4-3.9l-1-1.6c-0.4-0.6-0.8-1.2-1-1.6
			c-0.3-0.5-0.5-0.9-0.6-1.3s-0.2-0.8-0.3-1.2c-0.1-0.4-0.1-0.8-0.1-1.2c0-1,0.2-1.9,0.6-2.6c0.4-0.8,0.9-1.4,1.6-2s1.5-1,2.4-1.3
			c0.9-0.3,2-0.4,3.1-0.4c1.3,0,2.4,0.2,3.3,0.5c0.9,0.3,1.7,0.8,2.3,1.3c0.6,0.6,1.1,1.2,1.4,2c0.3,0.8,0.4,1.6,0.4,2.4
			c0,1.5-0.4,2.9-1.3,4.1c-0.9,1.2-2.2,2.4-3.9,3.7l4.5,6.1C153.2,20.2,153.5,19.4,153.7,18.5z M142,20c-0.4,0.8-0.7,1.6-0.7,2.6
			c0,0.4,0.1,0.9,0.3,1.4c0.2,0.5,0.4,0.9,0.8,1.3c0.3,0.4,0.8,0.7,1.3,0.9c0.5,0.2,1.1,0.4,1.8,0.4c1.6,0,2.9-0.6,3.9-1.9l-5-7.1
			C143.2,18.4,142.4,19.3,142,20z M145,10.1l0.7,1l1.1-0.9c0.7-0.6,1.2-1.1,1.4-1.7c0.3-0.5,0.4-1.1,0.4-1.6c0-0.8-0.2-1.4-0.7-1.9
			c-0.5-0.4-1.1-0.7-1.9-0.7c-0.7,0-1.3,0.2-1.8,0.6c-0.5,0.4-0.7,1-0.7,1.8C143.5,7.7,144,8.7,145,10.1z"/>
		<path fill="#F2F2F2" d="M19.4,41.6H8.7v7.1h10.1v5H8.7v8.1h11.1v5H2.6v-30h16.8V41.6z"/>
		<path fill="#F2F2F2" d="M37.1,57.2L37.1,57.2l0.1-20.5h5.5v30h-6.9l-7.4-21h-0.1v21h-5.5v-30h7L37.1,57.2z"/>
		<path fill="#F2F2F2" d="M60.1,43.9c-0.1-0.6-0.3-1.1-0.6-1.6c-0.3-0.5-0.6-0.9-1.1-1.2c-0.4-0.3-1-0.5-1.6-0.5
			c-1.5,0-2.5,0.8-3.2,2.4c-0.6,1.6-1,4.3-1,8.1c0,1.8,0.1,3.4,0.2,4.9s0.3,2.7,0.6,3.7c0.3,1,0.7,1.8,1.3,2.4s1.3,0.8,2.1,0.8
			c0.4,0,0.8-0.1,1.2-0.3c0.4-0.2,0.8-0.5,1.2-0.9c0.4-0.4,0.7-0.9,0.9-1.5c0.3-0.6,0.4-1.3,0.4-2.1V55h-4v-4.5h9.8v16.2h-4.5v-2.8
			h-0.1c-0.7,1.2-1.6,2-2.6,2.5c-1,0.5-2.2,0.7-3.7,0.7c-1.8,0-3.4-0.3-4.5-1c-1.2-0.6-2.1-1.6-2.7-3c-0.7-1.3-1.1-3-1.3-5
			c-0.2-2-0.3-4.3-0.3-6.9c0-2.5,0.2-4.7,0.5-6.6s0.9-3.5,1.7-4.8c0.8-1.3,1.8-2.2,3.1-2.9c1.3-0.6,2.9-1,4.8-1
			c3.3,0,5.7,0.8,7.1,2.5c1.5,1.6,2.2,4,2.2,7h-5.8C60.3,45,60.2,44.5,60.1,43.9z"/>
		<path fill="#F2F2F2" d="M70.6,36.7h6v30h-6V36.7z"/>
		<path fill="#F2F2F2" d="M95.4,57.2L95.4,57.2l0.1-20.5h5.5v30h-6.9l-7.4-21h-0.1v21h-5.5v-30h7L95.4,57.2z"/>
		<path fill="#F2F2F2" d="M122,41.6h-10.7v7.1h10.1v5h-10.1v8.1h11.1v5h-17.2v-30H122V41.6z"/>
		<path fill="#F2F2F2" d="M142.2,41.6h-10.7v7.1h10.1v5h-10.1v8.1h11.1v5h-17.2v-30h16.8V41.6z"/>
		<path fill="#F2F2F2" d="M156.8,36.7c2.5,0,4.5,0.6,5.9,1.9c1.4,1.3,2.1,3.2,2.1,5.8c0,2-0.4,3.7-1.2,4.9c-0.8,1.3-2.1,2.1-3.8,2.5
			v0.1c1.5,0.2,2.6,0.7,3.3,1.5c0.7,0.8,1.1,2,1.3,3.7c0.1,0.6,0.1,1.2,0.1,1.8c0,0.7,0.1,1.4,0.1,2.2c0.1,1.6,0.1,2.8,0.3,3.7
			c0.2,0.8,0.5,1.4,1.1,1.7v0.3h-6.6c-0.3-0.4-0.5-0.9-0.6-1.4s-0.1-1.1-0.2-1.7l-0.2-5.8c-0.1-1.2-0.3-2.1-0.9-2.8
			c-0.5-0.7-1.4-1-2.7-1h-3.2v12.7h-6v-30H156.8z M154.2,49.8c1.5,0,2.6-0.3,3.4-1c0.8-0.7,1.2-1.8,1.2-3.5c0-2.8-1.4-4.2-4.2-4.2
			h-2.9v8.7H154.2z"/>
		<path fill="#F2F2F2" d="M169.3,36.7h6v30h-6V36.7z"/>
		<path fill="#F2F2F2" d="M194.1,57.2L194.1,57.2l0.1-20.5h5.5v30h-6.9l-7.4-21h-0.1v21h-5.5v-30h7L194.1,57.2z"/>
		<path fill="#F2F2F2" d="M217.1,43.9c-0.1-0.6-0.3-1.1-0.6-1.6c-0.3-0.5-0.6-0.9-1.1-1.2c-0.4-0.3-1-0.5-1.6-0.5
			c-1.5,0-2.5,0.8-3.1,2.4c-0.6,1.6-1,4.3-1,8.1c0,1.8,0.1,3.4,0.2,4.9c0.1,1.5,0.3,2.7,0.6,3.7c0.3,1,0.7,1.8,1.3,2.4
			s1.3,0.8,2.1,0.8c0.4,0,0.8-0.1,1.2-0.3c0.4-0.2,0.8-0.5,1.2-0.9c0.4-0.4,0.7-0.9,0.9-1.5c0.3-0.6,0.4-1.3,0.4-2.1V55h-4v-4.5h9.8
			v16.2h-4.5v-2.8h-0.1c-0.7,1.2-1.6,2-2.6,2.5c-1,0.5-2.2,0.7-3.7,0.7c-1.8,0-3.4-0.3-4.5-1c-1.2-0.6-2.1-1.6-2.7-3
			c-0.7-1.3-1.1-3-1.3-5c-0.2-2-0.3-4.3-0.3-6.9c0-2.5,0.2-4.7,0.5-6.6c0.3-1.9,0.9-3.5,1.7-4.8c0.8-1.3,1.8-2.2,3.1-2.9
			c1.3-0.6,2.9-1,4.8-1c3.3,0,5.7,0.8,7.1,2.5c1.5,1.6,2.2,4,2.2,7h-5.8C217.3,45,217.2,44.5,217.1,43.9z"/>
	</g>
</g>
<g id="Dashboard_2" display="none">
</g>
<g id="Layer_2" display="none">
</g>
</svg>
