<?xml version="1.0" encoding="utf-8"?>
<!-- Generator: Adobe Illustrator 18.1.1, SVG Export Plug-In . SVG Version: 6.00 Build 0)  -->
<!DOCTYPE svg PUBLIC "-//W3C//DTD SVG 1.1//EN" "http://www.w3.org/Graphics/SVG/1.1/DTD/svg11.dtd">
<svg version="1.1" xmlns="http://www.w3.org/2000/svg" xmlns:xlink="http://www.w3.org/1999/xlink" x="0px" y="0px" width="185px"
	 height="82px" viewBox="0 0 185 82" enable-background="new 0 0 185 82" xml:space="preserve">
<g id="landing1">
	<g id="Main_Body">
	</g>
	<g id="info_icons">
	</g>
</g>
<g id="nav-Modal" display="none">
	<g id="Main" display="inline">
	</g>
</g>
<g id="Dashboard">
	<g id="local_guides" display="none">
	</g>
	<line fill="none" stroke="#4caf50" stroke-width="2" stroke-miterlimit="10" x1="2.7" y1="77.3" x2="181.7" y2="77.3"/>
	<g>
		<path fill="#F2F2F2" d="M14.9,4.8c1.2,0,2.4,0.1,3.4,0.4s2,0.7,2.7,1.3s1.3,1.4,1.8,2.4c0.4,1,0.6,2.2,0.6,3.6
			c0,1.6-0.4,3-1.1,4.2c-0.8,1.2-1.9,2-3.4,2.4V19c1.7,0.2,3,0.9,4,2.1c1,1.2,1.5,2.8,1.5,4.8c0,1.2-0.2,2.3-0.5,3.4
			c-0.3,1.1-0.8,2-1.6,2.8c-0.7,0.8-1.7,1.4-2.9,1.9c-1.2,0.5-2.7,0.7-4.4,0.7H4.8v-30H14.9z M12.5,17.1c1.7,0,2.9-0.3,3.7-0.9
			c0.8-0.6,1.2-1.6,1.2-3c0-1.4-0.4-2.4-1.1-3c-0.7-0.6-1.8-0.9-3.3-0.9h-2.2v7.9H12.5z M13.2,30.3c1.5,0,2.6-0.3,3.5-1
			c0.9-0.6,1.3-1.8,1.3-3.6c0-0.9-0.1-1.6-0.4-2.2c-0.2-0.6-0.6-1-1-1.4c-0.4-0.3-0.9-0.6-1.4-0.7c-0.6-0.1-1.2-0.2-1.8-0.2h-2.6v9
			H13.2z"/>
		<path fill="#F2F2F2" d="M33.8,25.7c0,0.8,0,1.4,0.1,2.1c0.1,0.6,0.3,1.2,0.5,1.6s0.6,0.8,1.1,1.1c0.5,0.3,1,0.4,1.7,0.4
			c0.7,0,1.3-0.1,1.8-0.4c0.4-0.3,0.8-0.6,1.1-1.1s0.4-1,0.5-1.6c0.1-0.6,0.1-1.3,0.1-2.1V4.8h6v20.9c0,1.9-0.3,3.5-0.8,4.7
			c-0.5,1.2-1.2,2.2-2.1,3c-0.9,0.7-1.9,1.2-3.1,1.5c-1.1,0.3-2.3,0.4-3.6,0.4c-1.2,0-2.4-0.1-3.6-0.3c-1.1-0.2-2.2-0.7-3.1-1.4
			c-0.9-0.7-1.6-1.7-2.1-2.9c-0.5-1.3-0.8-2.9-0.8-4.9V4.8h6V25.7z"/>
		<path fill="#F2F2F2" d="M51,4.8h6v30h-6V4.8z"/>
		<path fill="#F2F2F2" d="M61.6,4.8h6v25h10.7v5H61.6V4.8z"/>
		<path fill="#F2F2F2" d="M91.2,4.8c2.1,0,3.8,0.3,5.1,1c1.3,0.7,2.3,1.7,3,2.9c0.7,1.3,1.2,2.8,1.4,4.6c0.3,1.8,0.4,3.8,0.4,6
			c0,2.6-0.2,4.9-0.5,6.9c-0.3,1.9-0.9,3.5-1.7,4.8c-0.8,1.3-1.8,2.2-3.2,2.8c-1.3,0.6-3,0.9-5,0.9h-9.5v-30H91.2z M90,30.3
			c1.1,0,1.9-0.2,2.6-0.5c0.6-0.4,1.2-1,1.5-1.8c0.4-0.8,0.6-1.9,0.8-3.3c0.1-1.4,0.2-3.1,0.2-5.1c0-1.7-0.1-3.2-0.2-4.5
			c-0.1-1.3-0.3-2.4-0.7-3.2c-0.4-0.9-0.9-1.5-1.6-1.9C92,9.4,91,9.2,89.9,9.2h-2.6v21.1H90z"/>
		<path fill="#F2F2F2" d="M105.4,4.8h6v30h-6V4.8z"/>
		<path fill="#F2F2F2" d="M130.2,25.3L130.2,25.3l0.1-20.5h5.5v30H129l-7.4-21h-0.1v21h-5.5v-30h7L130.2,25.3z"/>
		<path fill="#F2F2F2" d="M153.2,11.9c-0.1-0.6-0.3-1.1-0.6-1.6c-0.3-0.5-0.6-0.9-1.1-1.2c-0.4-0.3-1-0.5-1.6-0.5
			c-1.5,0-2.5,0.8-3.1,2.4c-0.6,1.6-1,4.3-1,8.1c0,1.8,0.1,3.4,0.2,4.9c0.1,1.5,0.3,2.7,0.6,3.7c0.3,1,0.7,1.8,1.3,2.4
			c0.5,0.5,1.3,0.8,2.1,0.8c0.4,0,0.8-0.1,1.2-0.3c0.4-0.2,0.8-0.5,1.2-0.9c0.4-0.4,0.7-0.9,0.9-1.5s0.4-1.3,0.4-2.1V23h-4v-4.5h9.8
			v16.2H155V32H155c-0.7,1.2-1.6,2-2.6,2.5s-2.2,0.7-3.7,0.7c-1.8,0-3.4-0.3-4.5-1c-1.2-0.6-2.1-1.6-2.7-3c-0.7-1.3-1.1-3-1.3-5
			c-0.2-2-0.3-4.3-0.3-6.9c0-2.5,0.2-4.7,0.5-6.6c0.3-1.9,0.9-3.5,1.7-4.8c0.8-1.3,1.8-2.2,3.1-2.9c1.3-0.6,2.9-1,4.8-1
			c3.3,0,5.7,0.8,7.1,2.5c1.5,1.6,2.2,4,2.2,7h-5.8C153.4,13.1,153.3,12.5,153.2,11.9z"/>
		<path fill="#F2F2F2" d="M10.4,61.7c0,0.8,0,1.4,0.1,2.1c0.1,0.6,0.3,1.2,0.5,1.6s0.6,0.8,1.1,1.1c0.5,0.3,1,0.4,1.7,0.4
			c0.7,0,1.3-0.1,1.8-0.4c0.4-0.3,0.8-0.6,1.1-1.1s0.4-1,0.5-1.6c0.1-0.6,0.1-1.3,0.1-2.1V40.8h6v20.9c0,1.9-0.3,3.5-0.8,4.7
			c-0.5,1.2-1.2,2.2-2.1,3c-0.9,0.7-1.9,1.2-3.1,1.5c-1.1,0.3-2.3,0.4-3.6,0.4c-1.2,0-2.4-0.1-3.6-0.3c-1.1-0.2-2.2-0.7-3.1-1.4
			c-0.9-0.7-1.6-1.7-2.1-2.9c-0.5-1.3-0.8-2.9-0.8-4.9V40.8h6V61.7z"/>
		<path fill="#F2F2F2" d="M37.9,40.8c1.5,0,2.8,0.3,3.9,0.8c1.1,0.5,1.9,1.2,2.5,2c0.6,0.8,1.1,1.8,1.4,2.9c0.3,1.1,0.4,2.2,0.4,3.3
			c0,1.5-0.2,2.9-0.7,4c-0.5,1.1-1.1,2.1-1.9,2.8c-0.8,0.7-1.8,1.3-3,1.6c-1.2,0.4-2.5,0.5-3.9,0.5h-3.2v12h-6v-30H37.9z M36.1,54.3
			c1.2,0,2.2-0.4,2.9-1.1c0.7-0.7,1.1-1.9,1.1-3.4c0-1.5-0.3-2.7-1-3.4c-0.6-0.8-1.7-1.2-3.2-1.2h-2.5v9.1H36.1z"/>
		<path fill="#F2F2F2" d="M62.3,47.9c-0.1-0.6-0.3-1.1-0.6-1.6c-0.3-0.5-0.6-0.9-1.1-1.2c-0.4-0.3-1-0.5-1.6-0.5
			c-1.5,0-2.5,0.8-3.2,2.4c-0.6,1.6-1,4.3-1,8.1c0,1.8,0.1,3.4,0.2,4.9c0.1,1.5,0.3,2.7,0.6,3.7c0.3,1,0.7,1.8,1.3,2.4
			s1.3,0.8,2.1,0.8c0.4,0,0.8-0.1,1.2-0.3c0.4-0.2,0.8-0.5,1.2-0.9c0.4-0.4,0.7-0.9,0.9-1.5c0.3-0.6,0.4-1.3,0.4-2.1V59h-4v-4.5h9.8
			v16.2h-4.5V68h-0.1c-0.7,1.2-1.6,2-2.6,2.5s-2.2,0.7-3.7,0.7c-1.8,0-3.4-0.3-4.5-1c-1.2-0.6-2.1-1.6-2.7-3c-0.7-1.3-1.1-3-1.3-5
			c-0.2-2-0.3-4.3-0.3-6.9c0-2.5,0.2-4.7,0.5-6.6c0.3-1.9,0.9-3.5,1.7-4.8c0.8-1.3,1.8-2.2,3.1-2.9c1.3-0.6,2.9-1,4.8-1
			c3.3,0,5.7,0.8,7.1,2.5c1.5,1.6,2.2,4,2.2,7h-5.8C62.5,49.1,62.4,48.5,62.3,47.9z"/>
		<path fill="#F2F2F2" d="M83.7,40.8c2.5,0,4.5,0.6,5.9,1.9c1.4,1.3,2.1,3.2,2.1,5.8c0,2-0.4,3.7-1.2,4.9c-0.8,1.3-2.1,2.1-3.8,2.5
			V56c1.5,0.2,2.6,0.7,3.3,1.5c0.7,0.8,1.1,2,1.3,3.7c0.1,0.6,0.1,1.2,0.1,1.8c0,0.7,0.1,1.4,0.1,2.2c0.1,1.6,0.1,2.8,0.3,3.7
			c0.2,0.8,0.5,1.4,1.1,1.7v0.3h-6.6c-0.3-0.4-0.5-0.9-0.6-1.4c-0.1-0.5-0.1-1.1-0.2-1.7l-0.2-5.8c-0.1-1.2-0.4-2.1-0.9-2.8
			c-0.5-0.7-1.4-1-2.7-1h-3.2v12.7h-6v-30H83.7z M81.1,53.9c1.5,0,2.6-0.3,3.4-1c0.8-0.7,1.2-1.8,1.2-3.5c0-2.8-1.4-4.2-4.2-4.2
			h-2.9v8.7H81.1z"/>
		<path fill="#F2F2F2" d="M109.2,40.8l7.9,30h-6.3l-1.4-6.3h-8l-1.4,6.3h-6.3l7.9-30H109.2z M108.4,59.5L105.5,46h-0.1l-2.9,13.5
			H108.4z"/>
		<path fill="#F2F2F2" d="M129.4,40.8c2.1,0,3.8,0.3,5.1,1c1.3,0.7,2.3,1.7,3,2.9c0.7,1.3,1.2,2.8,1.4,4.6c0.3,1.8,0.4,3.8,0.4,6
			c0,2.6-0.2,4.9-0.5,6.9c-0.3,1.9-0.9,3.5-1.7,4.8c-0.8,1.3-1.8,2.2-3.2,2.8c-1.3,0.6-3,0.9-5,0.9h-9.5v-30H129.4z M128.2,66.3
			c1.1,0,1.9-0.2,2.6-0.5c0.6-0.4,1.2-1,1.5-1.8c0.4-0.8,0.6-1.9,0.8-3.3c0.1-1.4,0.2-3.1,0.2-5.1c0-1.7-0.1-3.2-0.2-4.5
			c-0.1-1.3-0.3-2.4-0.7-3.2c-0.4-0.9-0.9-1.5-1.6-1.9c-0.7-0.4-1.6-0.7-2.8-0.7h-2.6v21.1H128.2z"/>
		<path fill="#F2F2F2" d="M160.1,45.7h-10.7v7.1h10.1v5h-10.1v8.1h11.1v5h-17.2v-30h16.8V45.7z"/>
		<path fill="#F2F2F2" d="M168.4,62.3c0,0.7,0.1,1.3,0.2,1.9c0.1,0.6,0.3,1.1,0.6,1.4c0.3,0.4,0.7,0.7,1.2,0.9
			c0.5,0.2,1.2,0.3,2,0.3c0.9,0,1.8-0.3,2.5-0.9c0.7-0.6,1.1-1.5,1.1-2.8c0-0.7-0.1-1.3-0.3-1.7c-0.2-0.5-0.5-0.9-0.9-1.3
			c-0.4-0.4-1-0.7-1.7-1.1c-0.7-0.3-1.5-0.7-2.5-1c-1.3-0.4-2.5-0.9-3.5-1.5c-1-0.5-1.8-1.2-2.5-1.9c-0.7-0.7-1.1-1.5-1.4-2.5
			c-0.3-0.9-0.5-2-0.5-3.3c0-3,0.8-5.2,2.5-6.6c1.7-1.5,3.9-2.2,6.8-2.2c1.3,0,2.6,0.1,3.7,0.4c1.1,0.3,2.1,0.8,2.9,1.4
			c0.8,0.7,1.5,1.5,1.9,2.5c0.5,1,0.7,2.2,0.7,3.7v0.8h-5.8c0-1.4-0.3-2.5-0.8-3.3c-0.5-0.8-1.3-1.2-2.5-1.2c-0.7,0-1.2,0.1-1.7,0.3
			c-0.4,0.2-0.8,0.5-1.1,0.8c-0.3,0.3-0.4,0.7-0.5,1.1c-0.1,0.4-0.1,0.9-0.1,1.3c0,0.9,0.2,1.7,0.6,2.3c0.4,0.6,1.2,1.2,2.5,1.7
			l4.7,2c1.1,0.5,2.1,1,2.8,1.6c0.7,0.5,1.3,1.1,1.7,1.8c0.4,0.6,0.7,1.3,0.9,2.1c0.2,0.8,0.3,1.6,0.3,2.5c0,3.2-0.9,5.5-2.8,6.9
			c-1.8,1.4-4.4,2.2-7.7,2.2c-3.4,0-5.9-0.7-7.3-2.2c-1.5-1.5-2.2-3.6-2.2-6.4v-1.2h6V62.3z"/>
	</g>
</g>
<g id="Tree_Headers">
</g>
<g id="Dashboard_2" display="none">
</g>
<g id="Layer_2" display="none">
</g>
</svg>
