<?xml version="1.0" encoding="utf-8"?>
<!-- Generator: Adobe Illustrator 18.1.1, SVG Export Plug-In . SVG Version: 6.00 Build 0)  -->
<!DOCTYPE svg PUBLIC "-//W3C//DTD SVG 1.1//EN" "http://www.w3.org/Graphics/SVG/1.1/DTD/svg11.dtd">
<svg version="1.1" xmlns="http://www.w3.org/2000/svg" xmlns:xlink="http://www.w3.org/1999/xlink" x="0px" y="0px" width="184.8px"
	 height="82px" viewBox="0 0 184.8 82" enable-background="new 0 0 184.8 82" xml:space="preserve">
<g id="landing1">
	<g id="Main_Body">
	</g>
	<g id="info_icons">
	</g>
</g>
<g id="nav-Modal" display="none">
	<g id="Main" display="inline">
	</g>
</g>
<g id="Dashboard">
	<g id="local_guides" display="none">
	</g>
	<line fill="none" stroke="#4caf50" stroke-width="2" stroke-miterlimit="10" x1="0.8" y1="76.3" x2="181.8" y2="76.3"/>
	<g>
		<path fill="#F2F2F2" d="M7.8,26.3c0,0.7,0.1,1.3,0.2,1.9c0.1,0.6,0.3,1.1,0.6,1.4c0.3,0.4,0.7,0.7,1.2,0.9c0.5,0.2,1.2,0.3,2,0.3
			c0.9,0,1.8-0.3,2.5-0.9c0.7-0.6,1.1-1.5,1.1-2.8c0-0.7-0.1-1.3-0.3-1.7c-0.2-0.5-0.5-0.9-0.9-1.3c-0.4-0.4-1-0.7-1.7-1.1
			s-1.5-0.7-2.5-1c-1.3-0.4-2.5-0.9-3.5-1.5c-1-0.5-1.8-1.2-2.5-1.9c-0.7-0.7-1.1-1.5-1.4-2.5c-0.3-0.9-0.5-2-0.5-3.3
			c0-3,0.8-5.2,2.5-6.6c1.7-1.5,3.9-2.2,6.8-2.2c1.3,0,2.6,0.1,3.7,0.4c1.1,0.3,2.1,0.8,2.9,1.4c0.8,0.7,1.5,1.5,1.9,2.5
			c0.5,1,0.7,2.2,0.7,3.7v0.8h-5.8c0-1.4-0.3-2.5-0.8-3.3c-0.5-0.8-1.3-1.2-2.5-1.2c-0.7,0-1.2,0.1-1.7,0.3C9.5,9.1,9.2,9.4,8.9,9.7
			c-0.3,0.3-0.4,0.7-0.5,1.1c-0.1,0.4-0.1,0.9-0.1,1.3c0,0.9,0.2,1.7,0.6,2.3c0.4,0.6,1.2,1.2,2.5,1.7l4.7,2c1.1,0.5,2.1,1,2.8,1.6
			c0.7,0.5,1.3,1.1,1.7,1.8c0.4,0.6,0.7,1.3,0.9,2.1c0.2,0.8,0.3,1.6,0.3,2.5c0,3.2-0.9,5.5-2.8,6.9c-1.8,1.4-4.4,2.2-7.7,2.2
			c-3.4,0-5.9-0.7-7.3-2.2c-1.5-1.5-2.2-3.6-2.2-6.4v-1.2h6V26.3z"/>
		<path fill="#F2F2F2" d="M25,4.8h6v30h-6V4.8z"/>
		<path fill="#F2F2F2" d="M53.1,9.7h-6.6v25h-6v-25H34v-5h19.2V9.7z"/>
		<path fill="#F2F2F2" d="M72.5,9.7H61.8v7.1h10.1v5H61.8v8.1h11.1v5H55.7v-30h16.8V9.7z"/>
		<path fill="#F2F2F2" d="M16.2,40.8l7.9,30h-6.3l-1.4-6.3h-8l-1.4,6.3H0.8l7.9-30H16.2z M15.4,59.5L12.6,46h-0.1L9.6,59.5H15.4z"/>
		<path fill="#F2F2F2" d="M35.4,40.8l4.3,21.2h0.1l4.3-21.2H53v30h-5.5V46.8h-0.1l-5.3,23.9h-4.7L32,46.8H32v23.9h-5.5v-30H35.4z"/>
		<path fill="#F2F2F2" d="M74.1,45.7H63.4v7.1h10.1v5H63.4v8.1h11.1v5H57.4v-30h16.8V45.7z"/>
		<path fill="#F2F2F2" d="M91.8,61.3L91.8,61.3l0.1-20.5h5.5v30h-6.9l-7.4-21h-0.1v21h-5.5v-30h7L91.8,61.3z"/>
		<path fill="#F2F2F2" d="M102,40.8h6v30h-6V40.8z"/>
		<path fill="#F2F2F2" d="M130.1,45.7h-6.6v25h-6v-25h-6.6v-5h19.2V45.7z"/>
		<path fill="#F2F2F2" d="M133,40.8h6v30h-6V40.8z"/>
		<path fill="#F2F2F2" d="M160.3,45.7h-10.7v7.1h10.1v5h-10.1v8.1h11.1v5h-17.2v-30h16.8V45.7z"/>
		<path fill="#F2F2F2" d="M168.6,62.3c0,0.7,0.1,1.3,0.2,1.9c0.1,0.6,0.3,1.1,0.6,1.4c0.3,0.4,0.7,0.7,1.2,0.9
			c0.5,0.2,1.2,0.3,2,0.3c0.9,0,1.8-0.3,2.5-0.9c0.7-0.6,1.1-1.5,1.1-2.8c0-0.7-0.1-1.3-0.3-1.7c-0.2-0.5-0.5-0.9-0.9-1.3
			c-0.4-0.4-1-0.7-1.7-1.1c-0.7-0.3-1.5-0.7-2.5-1c-1.3-0.4-2.5-0.9-3.5-1.5c-1-0.5-1.8-1.2-2.5-1.9c-0.7-0.7-1.1-1.5-1.4-2.5
			c-0.3-0.9-0.5-2-0.5-3.3c0-3,0.8-5.2,2.5-6.6c1.7-1.5,3.9-2.2,6.8-2.2c1.3,0,2.6,0.1,3.7,0.4c1.1,0.3,2.1,0.8,2.9,1.4
			c0.8,0.7,1.5,1.5,1.9,2.5c0.5,1,0.7,2.2,0.7,3.7v0.8h-5.8c0-1.4-0.3-2.5-0.8-3.3c-0.5-0.8-1.3-1.2-2.5-1.2c-0.7,0-1.2,0.1-1.7,0.3
			c-0.4,0.2-0.8,0.5-1.1,0.8c-0.3,0.3-0.4,0.7-0.5,1.1c-0.1,0.4-0.1,0.9-0.1,1.3c0,0.9,0.2,1.7,0.6,2.3c0.4,0.6,1.2,1.2,2.5,1.7
			l4.7,2c1.1,0.5,2.1,1,2.8,1.6c0.7,0.5,1.3,1.1,1.7,1.8c0.4,0.6,0.7,1.3,0.9,2.1c0.2,0.8,0.3,1.6,0.3,2.5c0,3.2-0.9,5.5-2.8,6.9
			c-1.8,1.4-4.4,2.2-7.7,2.2c-3.4,0-5.9-0.7-7.3-2.2c-1.5-1.5-2.2-3.6-2.2-6.4v-1.2h6V62.3z"/>
	</g>
</g>
<g id="Tree_Headers">
</g>
<g id="Dashboard_2" display="none">
</g>
<g id="Layer_2" display="none">
</g>
</svg>
