<?xml version="1.0" encoding="utf-8"?>
<!-- Generator: Adobe Illustrator 18.1.1, SVG Export Plug-In . SVG Version: 6.00 Build 0)  -->
<!DOCTYPE svg PUBLIC "-//W3C//DTD SVG 1.1//EN" "http://www.w3.org/Graphics/SVG/1.1/DTD/svg11.dtd">
<svg version="1.1" xmlns="http://www.w3.org/2000/svg" xmlns:xlink="http://www.w3.org/1999/xlink" x="0px" y="0px" width="255.9px"
	 height="40.5px" viewBox="0 0 255.9 40.5" enable-background="new 0 0 255.9 40.5" xml:space="preserve">
<g id="landing1">
	<g id="Main_Body">
	</g>
	<g id="info_icons">
	</g>
</g>
<g id="nav-Modal" display="none">
	<g id="Main" display="inline">
	</g>
</g>
<g id="Dashboard">
	<g id="local_guides" display="none">
	</g>
	<g>
		<path fill="#F2F2F2" d="M7.6,1.1l2.6,12.6h0l2.6-12.6h5.3V19h-3.3V4.7h0L11.5,19H8.7L5.6,4.7h0V19H2.2V1.1H7.6z"/>
		<path fill="#F2F2F2" d="M20.4,6.3c0.1-1.1,0.4-2.1,0.8-2.9c0.4-0.8,1-1.5,1.8-1.9C23.9,1,25,0.8,26.3,0.8c1.3,0,2.4,0.2,3.2,0.7
			c0.8,0.5,1.4,1.1,1.8,1.9c0.4,0.8,0.7,1.8,0.8,2.9s0.2,2.4,0.2,3.7c0,1.4-0.1,2.6-0.2,3.8s-0.4,2.1-0.8,2.9
			c-0.4,0.8-1,1.4-1.8,1.9c-0.8,0.4-1.9,0.7-3.2,0.7c-1.4,0-2.4-0.2-3.2-0.7c-0.8-0.4-1.4-1.1-1.8-1.9c-0.4-0.8-0.7-1.8-0.8-2.9
			s-0.2-2.4-0.2-3.8C20.3,8.7,20.3,7.4,20.4,6.3z M23.9,13.1c0.1,0.8,0.2,1.5,0.4,2c0.2,0.5,0.4,0.9,0.8,1.2
			c0.3,0.2,0.8,0.4,1.3,0.4c0.5,0,1-0.1,1.3-0.4c0.3-0.2,0.6-0.6,0.8-1.2c0.2-0.5,0.3-1.2,0.4-2c0.1-0.8,0.1-1.9,0.1-3.1
			s0-2.2-0.1-3c-0.1-0.8-0.2-1.5-0.4-2.1c-0.2-0.5-0.4-0.9-0.8-1.2c-0.3-0.2-0.8-0.4-1.3-0.4c-0.5,0-1,0.1-1.3,0.4
			c-0.3,0.2-0.6,0.6-0.8,1.2C24.1,5.5,24,6.1,23.9,7c-0.1,0.8-0.1,1.8-0.1,3S23.9,12.2,23.9,13.1z"/>
		<path fill="#F2F2F2" d="M40.6,1.1c1.2,0,2.3,0.2,3,0.6c0.8,0.4,1.4,1,1.8,1.8c0.4,0.8,0.7,1.7,0.9,2.7s0.2,2.3,0.2,3.6
			c0,1.6-0.1,2.9-0.3,4.1c-0.2,1.2-0.5,2.1-1,2.9c-0.5,0.8-1.1,1.3-1.9,1.7c-0.8,0.4-1.8,0.5-3,0.5h-5.7V1.1H40.6z M39.9,16.3
			c0.6,0,1.1-0.1,1.5-0.3s0.7-0.6,0.9-1.1s0.4-1.2,0.5-2c0.1-0.8,0.1-1.8,0.1-3c0-1,0-1.9-0.1-2.7c-0.1-0.8-0.2-1.4-0.4-1.9
			c-0.2-0.5-0.5-0.9-0.9-1.2c-0.4-0.3-1-0.4-1.6-0.4h-1.5v12.5H39.9z"/>
		<path fill="#F2F2F2" d="M58.9,4.1h-6.4v4.2h6v3h-6V16h6.6v3H48.9V1.1h10V4.1z"/>
		<path fill="#F2F2F2" d="M60.9,1.1h3.6V16h6.4v3h-10V1.1z"/>
	</g>
	<g>
		<path fill="#FFFFFF" d="M13.1,26.2c0-0.8-0.2-1.4-0.5-2s-0.7-1-1.2-1.4s-1.1-0.7-1.8-0.9c-0.7-0.2-1.4-0.3-2.3-0.3
			c-0.5,0-1,0.1-1.6,0.2c-0.6,0.1-1.1,0.3-1.6,0.6c-0.5,0.3-0.9,0.7-1.2,1.2c-0.3,0.5-0.5,1.1-0.5,1.8c0,0.7,0.2,1.3,0.5,1.8
			c0.4,0.5,0.8,0.8,1.4,1.1c0.6,0.3,1.2,0.5,2,0.7c0.7,0.2,1.5,0.3,2.2,0.5c0.8,0.1,1.5,0.3,2.2,0.5c0.7,0.2,1.4,0.5,1.9,0.9
			c0.6,0.4,1,0.8,1.4,1.4s0.5,1.3,0.5,2.2c0,0.9-0.2,1.7-0.6,2.3c-0.4,0.6-0.9,1.2-1.5,1.5c-0.6,0.4-1.3,0.7-2,0.9
			c-0.7,0.2-1.5,0.3-2.1,0.3c-1,0-2-0.1-3-0.3c-0.9-0.2-1.7-0.6-2.4-1.1c-0.7-0.5-1.2-1.2-1.6-2c-0.4-0.8-0.6-1.8-0.6-2.9H2
			c-0.1,1,0.1,1.8,0.4,2.5c0.3,0.7,0.8,1.2,1.4,1.7c0.6,0.4,1.3,0.7,2.1,0.9c0.8,0.2,1.6,0.3,2.5,0.3c0.5,0,1.1-0.1,1.7-0.2
			c0.6-0.1,1.2-0.4,1.7-0.7c0.5-0.3,0.9-0.7,1.3-1.2c0.3-0.5,0.5-1.2,0.5-1.9c0-0.8-0.2-1.4-0.5-1.8s-0.8-0.9-1.4-1.2
			c-0.6-0.3-1.2-0.5-2-0.7c-0.7-0.2-1.5-0.3-2.2-0.5C6.7,30,6,29.9,5.2,29.7c-0.7-0.2-1.4-0.5-2-0.8c-0.6-0.3-1-0.8-1.4-1.3
			c-0.4-0.5-0.5-1.2-0.5-2.1c0-0.8,0.2-1.6,0.5-2.2c0.4-0.6,0.8-1.1,1.4-1.5s1.2-0.7,1.9-0.8c0.7-0.2,1.4-0.3,2.1-0.3
			c0.9,0,1.8,0.1,2.6,0.3c0.8,0.2,1.5,0.5,2.1,1s1.1,1,1.5,1.7c0.4,0.7,0.6,1.5,0.6,2.5H13.1z"/>
		<path fill="#FFFFFF" d="M17.2,21.1h1.1V39h-1.1V21.1z"/>
		<path fill="#FFFFFF" d="M21.5,21.1h1.4l11.3,16.4h0V21.1h1.1V39H34L22.6,22.5h-0.1V39h-1.1V21.1z"/>
		<path fill="#FFFFFF" d="M37.8,30.1c0-1.3,0.2-2.5,0.6-3.6s0.9-2.1,1.6-3c0.7-0.9,1.6-1.6,2.6-2.1c1-0.5,2.2-0.8,3.6-0.8
			c0.9,0,1.8,0.1,2.6,0.4c0.8,0.3,1.6,0.7,2.2,1.2c0.7,0.5,1.2,1.1,1.7,1.9s0.8,1.6,0.9,2.5h-1c-0.4-1.6-1.2-2.8-2.2-3.7
			c-1.1-0.9-2.5-1.3-4.1-1.3c-1.2,0-2.3,0.2-3.2,0.7c-0.9,0.5-1.7,1.1-2.3,1.9s-1.1,1.7-1.4,2.7c-0.3,1-0.5,2.1-0.5,3.2
			c0,1.1,0.2,2.2,0.5,3.2s0.8,1.9,1.4,2.6s1.4,1.3,2.3,1.8s2,0.7,3.2,0.7c1.1,0,2-0.2,2.9-0.5c0.9-0.4,1.6-0.8,2.2-1.5
			c0.6-0.6,1-1.4,1.3-2.3s0.4-1.9,0.4-3h-6.6v-1h7.5V39h-1v-3.8h0c-0.2,0.6-0.5,1.2-1,1.8c-0.4,0.5-0.9,1-1.5,1.3
			c-0.6,0.4-1.2,0.6-2,0.8s-1.5,0.3-2.3,0.3c-1.4,0-2.5-0.2-3.6-0.7s-1.9-1.1-2.6-2c-0.7-0.8-1.3-1.8-1.6-2.9
			C37.9,32.6,37.8,31.4,37.8,30.1z"/>
		<path fill="#FFFFFF" d="M56.9,21.1H58V38h10.1v1H56.9V21.1z"/>
		<path fill="#FFFFFF" d="M69.4,21.1h12v0.9H70.5v7.2h10.2v1H70.5V38h11v1H69.4V21.1z"/>
		<path fill="#FFFFFF" d="M90.4,21.1h11.2v0.9H91.5v7.2h9.1v1h-9.1V39h-1.1V21.1z"/>
		<path fill="#FFFFFF" d="M107.2,21.1h1.2l7,17.8h-1.2l-2.2-5.7h-8.6l-2.3,5.7H100L107.2,21.1z M111.7,32.3l-3.8-10.1h0l-4,10.1
			H111.7z"/>
		<path fill="#FFFFFF" d="M116.7,21.1h1.6l7,16.6h0l6.9-16.6h1.6V39h-1.1V22.5h0L125.8,39h-1.1l-6.9-16.5h-0.1V39h-1.1V21.1z"/>
		<path fill="#FFFFFF" d="M136.9,21.1h1.1V39h-1.1V21.1z"/>
		<path fill="#FFFFFF" d="M141.2,21.1h1.1V38h10.1v1h-11.2V21.1z"/>
		<path fill="#FFFFFF" d="M163.3,21.1h1.2l-7.2,10.4V39h-1.1v-7.5l-7.1-10.4h1.2l6.4,9.4L163.3,21.1z"/>
		<path fill="#FFFFFF" d="M172.5,21.1h1.1v8.1H185v-8.1h1.1V39H185v-8.8h-11.4V39h-1.1V21.1z"/>
		<path fill="#FFFFFF" d="M205.4,30c0,1.3-0.2,2.5-0.6,3.7s-0.9,2.1-1.7,3c-0.7,0.8-1.6,1.5-2.7,2c-1.1,0.5-2.2,0.7-3.6,0.7
			s-2.5-0.2-3.6-0.7c-1.1-0.5-2-1.1-2.7-2c-0.7-0.8-1.3-1.8-1.7-3c-0.4-1.1-0.6-2.4-0.6-3.7s0.2-2.5,0.6-3.7c0.4-1.1,0.9-2.1,1.7-3
			c0.7-0.8,1.6-1.5,2.7-2c1.1-0.5,2.3-0.7,3.6-0.7s2.5,0.2,3.6,0.7c1,0.5,1.9,1.1,2.7,2c0.7,0.8,1.3,1.8,1.7,3
			C205.2,27.5,205.4,28.7,205.4,30z M189.5,30c0,1.1,0.2,2.2,0.5,3.2c0.3,1,0.8,1.9,1.5,2.7c0.6,0.8,1.4,1.4,2.3,1.8s2,0.7,3.1,0.7
			s2.2-0.2,3.1-0.7c0.9-0.5,1.7-1.1,2.3-1.8c0.6-0.8,1.1-1.6,1.4-2.7s0.5-2.1,0.5-3.2c0-1.2-0.2-2.2-0.5-3.2s-0.8-1.9-1.4-2.7
			c-0.6-0.8-1.4-1.4-2.3-1.8c-0.9-0.4-1.9-0.7-3.1-0.7s-2.2,0.2-3.1,0.7c-0.9,0.5-1.7,1.1-2.3,1.8c-0.6,0.8-1.1,1.6-1.5,2.7
			C189.7,27.8,189.5,28.9,189.5,30z"/>
		<path fill="#FFFFFF" d="M207.8,21.1h1.6l7,16.6h0l6.9-16.6h1.6V39h-1.1V22.5h0L216.9,39h-1.1l-6.9-16.5h-0.1V39h-1.1V21.1z"/>
		<path fill="#FFFFFF" d="M228,21.1h12v0.9h-10.9v7.2h10.2v1h-10.2V38h11v1H228V21.1z"/>
		<path fill="#FFFFFF" d="M253.6,26.2c0-0.8-0.2-1.4-0.5-2s-0.7-1-1.2-1.4s-1.1-0.7-1.8-0.9c-0.7-0.2-1.4-0.3-2.3-0.3
			c-0.5,0-1,0.1-1.6,0.2c-0.6,0.1-1.1,0.3-1.6,0.6c-0.5,0.3-0.9,0.7-1.2,1.2c-0.3,0.5-0.5,1.1-0.5,1.8c0,0.7,0.2,1.3,0.5,1.8
			c0.4,0.5,0.8,0.8,1.4,1.1c0.6,0.3,1.2,0.5,2,0.7c0.7,0.2,1.5,0.3,2.2,0.5c0.8,0.1,1.5,0.3,2.2,0.5c0.7,0.2,1.4,0.5,1.9,0.9
			c0.6,0.4,1,0.8,1.4,1.4s0.5,1.3,0.5,2.2c0,0.9-0.2,1.7-0.6,2.3c-0.4,0.6-0.9,1.2-1.5,1.5c-0.6,0.4-1.3,0.7-2,0.9
			c-0.7,0.2-1.5,0.3-2.1,0.3c-1,0-2-0.1-3-0.3c-0.9-0.2-1.7-0.6-2.4-1.1c-0.7-0.5-1.2-1.2-1.6-2c-0.4-0.8-0.6-1.8-0.6-2.9h1.1
			c-0.1,1,0.1,1.8,0.4,2.5c0.3,0.7,0.8,1.2,1.4,1.7c0.6,0.4,1.3,0.7,2.1,0.9c0.8,0.2,1.6,0.3,2.5,0.3c0.5,0,1.1-0.1,1.7-0.2
			c0.6-0.1,1.2-0.4,1.7-0.7c0.5-0.3,0.9-0.7,1.3-1.2c0.3-0.5,0.5-1.2,0.5-1.9c0-0.8-0.2-1.4-0.5-1.8s-0.8-0.9-1.4-1.2
			c-0.6-0.3-1.2-0.5-2-0.7c-0.7-0.2-1.5-0.3-2.2-0.5c-0.8-0.1-1.5-0.3-2.2-0.5c-0.7-0.2-1.4-0.5-2-0.8c-0.6-0.3-1-0.8-1.4-1.3
			c-0.4-0.5-0.5-1.2-0.5-2.1c0-0.8,0.2-1.6,0.5-2.2c0.4-0.6,0.8-1.1,1.4-1.5s1.2-0.7,1.9-0.8c0.7-0.2,1.4-0.3,2.1-0.3
			c0.9,0,1.8,0.1,2.6,0.3c0.8,0.2,1.5,0.5,2.1,1s1.1,1,1.5,1.7c0.4,0.7,0.6,1.5,0.6,2.5H253.6z"/>
	</g>
</g>
<g id="Dashboard_2" display="none">
</g>
<g id="Layer_2" display="none">
</g>
</svg>
