<?xml version="1.0" encoding="utf-8"?>
<!-- Generator: Adobe Illustrator 18.1.1, SVG Export Plug-In . SVG Version: 6.00 Build 0)  -->
<!DOCTYPE svg PUBLIC "-//W3C//DTD SVG 1.1//EN" "http://www.w3.org/Graphics/SVG/1.1/DTD/svg11.dtd">
<svg version="1.1" xmlns="http://www.w3.org/2000/svg" xmlns:xlink="http://www.w3.org/1999/xlink" x="0px" y="0px" width="140px"
	 height="27.3px" viewBox="0 0 140 27.3" enable-background="new 0 0 140 27.3" xml:space="preserve">
<g id="landing1">
	<g id="Main_Body">
	</g>
	<g id="info_icons">
		<g>
			<path fill="#727272" d="M11.1,2.7c1.6,0,2.9,0.3,3.9,0.8c1,0.5,1.7,1.3,2.3,2.2c0.5,1,0.9,2.1,1.1,3.5c0.2,1.4,0.3,2.9,0.3,4.6
				c0,2-0.1,3.8-0.4,5.2c-0.2,1.5-0.7,2.7-1.3,3.7s-1.4,1.7-2.4,2.1c-1,0.5-2.3,0.7-3.8,0.7H3.5V2.7H11.1z M10.2,22.1
				c0.8,0,1.5-0.1,2-0.4c0.5-0.3,0.9-0.7,1.2-1.4c0.3-0.6,0.5-1.5,0.6-2.5c0.1-1,0.1-2.3,0.1-3.9c0-1.3,0-2.4-0.1-3.4
				c-0.1-1-0.3-1.8-0.5-2.4c-0.3-0.7-0.7-1.1-1.2-1.5C11.6,6.2,10.9,6,10.1,6h-2v16.1H10.2z"/>
			<path fill="#727272" d="M21.5,13.1c0-1,0.2-1.8,0.5-2.5c0.3-0.7,0.8-1.2,1.3-1.6s1.2-0.7,1.9-0.9c0.7-0.2,1.5-0.3,2.4-0.3
				c1.3,0,2.4,0.1,3.2,0.4c0.8,0.3,1.4,0.6,1.9,1.1c0.4,0.5,0.8,1,0.9,1.7c0.2,0.7,0.2,1.4,0.2,2.1v9.1c0,0.8,0,1.4,0.1,1.9
				c0.1,0.4,0.2,0.9,0.4,1.4h-4.2c-0.1-0.3-0.3-0.6-0.3-0.9s-0.1-0.6-0.2-0.9h-0.1c-0.5,0.9-1.1,1.5-1.8,1.7s-1.5,0.4-2.6,0.4
				c-0.8,0-1.4-0.1-2-0.4c-0.5-0.3-1-0.6-1.3-1.1c-0.3-0.5-0.6-1-0.7-1.6c-0.1-0.6-0.2-1.2-0.2-1.7c0-0.8,0.1-1.5,0.3-2.1
				c0.2-0.6,0.4-1.1,0.8-1.5s0.8-0.8,1.3-1c0.5-0.3,1.2-0.5,2-0.7l2.5-0.7c0.7-0.2,1.1-0.4,1.4-0.7c0.3-0.3,0.4-0.7,0.4-1.3
				c0-0.7-0.2-1.2-0.5-1.6c-0.3-0.4-0.8-0.6-1.6-0.6c-0.7,0-1.2,0.2-1.5,0.6s-0.5,0.9-0.5,1.6v0.5h-4V13.1z M28.6,17.5
				c-0.3,0.1-0.7,0.2-0.9,0.3c-0.9,0.2-1.5,0.5-1.9,1c-0.4,0.4-0.6,1.1-0.6,1.8c0,0.7,0.1,1.2,0.4,1.7c0.3,0.5,0.7,0.7,1.3,0.7
				c0.3,0,0.6,0,0.9-0.1c0.3-0.1,0.6-0.2,0.9-0.5c0.3-0.2,0.5-0.5,0.7-0.8c0.2-0.3,0.3-0.7,0.3-1.2v-3.4
				C29.3,17.1,28.9,17.3,28.6,17.5z"/>
			<path fill="#727272" d="M40.1,20.4c0,0.7,0.2,1.3,0.6,1.8c0.4,0.5,1,0.7,1.7,0.7c0.7,0,1.2-0.2,1.6-0.5c0.4-0.3,0.6-0.9,0.6-1.5
				c0-0.6-0.2-1-0.5-1.3s-0.7-0.5-1.1-0.7L40,17.8c-1.2-0.4-2.1-1-2.8-1.8c-0.6-0.8-0.9-1.8-0.9-3c0-0.7,0.1-1.4,0.4-2
				c0.2-0.6,0.6-1.2,1.1-1.6c0.5-0.5,1.2-0.8,2-1.1c0.8-0.3,1.8-0.4,2.9-0.4c2,0,3.5,0.4,4.4,1.3s1.4,2.1,1.4,3.6v0.7h-4
				c0-0.9-0.1-1.6-0.4-2s-0.8-0.6-1.5-0.6c-0.6,0-1,0.2-1.5,0.5c-0.4,0.3-0.6,0.8-0.6,1.4c0,0.4,0.1,0.8,0.4,1.2
				c0.3,0.3,0.8,0.6,1.5,0.9l2.7,0.9c1.4,0.5,2.4,1.1,2.9,1.8c0.6,0.8,0.9,1.8,0.9,3.1c0,0.9-0.2,1.7-0.5,2.4
				c-0.3,0.7-0.8,1.2-1.3,1.7c-0.6,0.4-1.2,0.8-2,1c-0.8,0.2-1.6,0.3-2.6,0.3c-1.2,0-2.3-0.1-3.1-0.4s-1.5-0.6-2-1.1
				c-0.5-0.5-0.8-1-1-1.7c-0.2-0.7-0.3-1.4-0.3-2.3v-0.6h4V20.4z"/>
			<path fill="#727272" d="M55.5,2.7V10h0.1c0.9-1.5,2.3-2.2,4.2-2.2c1.4,0,2.5,0.4,3.2,1.2c0.8,0.8,1.1,2,1.1,3.7v12.8h-4.4V13.6
				c0-0.9-0.1-1.5-0.4-1.9c-0.3-0.4-0.8-0.5-1.4-0.5c-1.6,0-2.3,1-2.3,2.8v11.4h-4.4V2.7H55.5z"/>
			<path fill="#727272" d="M71.5,2.7v7.2h0.1c0.5-0.7,1-1.2,1.6-1.5c0.6-0.3,1.3-0.5,2.1-0.5c1.8,0,3.1,0.7,4,2.1
				c0.9,1.4,1.3,3.7,1.3,6.9c0,3.2-0.4,5.5-1.3,6.9c-0.9,1.4-2.2,2.1-4,2.1c-0.9,0-1.6-0.2-2.3-0.5c-0.6-0.3-1.2-0.9-1.6-1.7h-0.1
				v1.8h-4.2V2.7H71.5z M72,21.1c0.3,0.9,0.9,1.4,1.9,1.4c1,0,1.6-0.5,1.9-1.4c0.3-0.9,0.4-2.4,0.4-4.2c0-1.9-0.1-3.3-0.4-4.2
				c-0.3-0.9-0.9-1.4-1.9-1.4c-1,0-1.6,0.5-1.9,1.4c-0.3,0.9-0.4,2.4-0.4,4.2C71.5,18.8,71.7,20.2,72,21.1z"/>
			<path fill="#727272" d="M82.9,13c0.2-1.1,0.6-2.1,1.2-2.8s1.2-1.3,2.1-1.7C87,8,88.1,7.8,89.3,7.8c1.3,0,2.4,0.2,3.3,0.5
				c0.9,0.4,1.6,0.9,2.1,1.7c0.5,0.8,0.9,1.7,1.1,2.8c0.2,1.1,0.3,2.5,0.3,4c0,1.5-0.1,2.8-0.4,3.9s-0.6,2.1-1.2,2.8
				c-0.5,0.8-1.2,1.3-2.1,1.7c-0.9,0.4-1.9,0.5-3.2,0.5c-1.3,0-2.4-0.1-3.3-0.5c-0.9-0.4-1.6-0.9-2.1-1.7c-0.5-0.8-0.9-1.7-1.1-2.8
				c-0.2-1.1-0.3-2.5-0.3-4C82.5,15.4,82.7,14.1,82.9,13z M87,19.3c0,0.7,0.1,1.4,0.3,1.9c0.2,0.5,0.4,0.9,0.7,1.2
				c0.3,0.3,0.7,0.4,1.3,0.4c0.9,0,1.5-0.5,1.9-1.4c0.3-0.9,0.5-2.5,0.5-4.6c0-2.2-0.2-3.7-0.5-4.6c-0.3-0.9-1-1.4-1.9-1.4
				c-0.5,0-1,0.1-1.3,0.4c-0.3,0.3-0.6,0.7-0.7,1.2c-0.2,0.5-0.3,1.2-0.3,1.9c0,0.7-0.1,1.6-0.1,2.4C87,17.8,87,18.6,87,19.3z"/>
			<path fill="#727272" d="M98.4,13.1c0-1,0.2-1.8,0.5-2.5c0.3-0.7,0.8-1.2,1.3-1.6s1.2-0.7,1.9-0.9c0.7-0.2,1.5-0.3,2.4-0.3
				c1.3,0,2.4,0.1,3.2,0.4c0.8,0.3,1.4,0.6,1.9,1.1c0.4,0.5,0.8,1,0.9,1.7c0.2,0.7,0.2,1.4,0.2,2.1v9.1c0,0.8,0,1.4,0.1,1.9
				c0.1,0.4,0.2,0.9,0.4,1.4h-4.2c-0.1-0.3-0.3-0.6-0.3-0.9s-0.1-0.6-0.2-0.9h-0.1c-0.5,0.9-1.1,1.5-1.8,1.7s-1.5,0.4-2.6,0.4
				c-0.8,0-1.4-0.1-2-0.4c-0.5-0.3-1-0.6-1.3-1.1c-0.3-0.5-0.6-1-0.7-1.6c-0.1-0.6-0.2-1.2-0.2-1.7c0-0.8,0.1-1.5,0.3-2.1
				c0.2-0.6,0.4-1.1,0.8-1.5s0.8-0.8,1.3-1c0.5-0.3,1.2-0.5,2-0.7l2.5-0.7c0.7-0.2,1.1-0.4,1.4-0.7c0.3-0.3,0.4-0.7,0.4-1.3
				c0-0.7-0.2-1.2-0.5-1.6c-0.3-0.4-0.8-0.6-1.6-0.6c-0.7,0-1.2,0.2-1.5,0.6s-0.5,0.9-0.5,1.6v0.5h-4V13.1z M105.6,17.5
				c-0.3,0.1-0.7,0.2-0.9,0.3c-0.9,0.2-1.5,0.5-1.9,1c-0.4,0.4-0.6,1.1-0.6,1.8c0,0.7,0.1,1.2,0.4,1.7c0.3,0.5,0.7,0.7,1.3,0.7
				c0.3,0,0.6,0,0.9-0.1c0.3-0.1,0.6-0.2,0.9-0.5c0.3-0.2,0.5-0.5,0.7-0.8c0.2-0.3,0.3-0.7,0.3-1.2v-3.4
				C106.2,17.1,105.9,17.3,105.6,17.5z"/>
			<path fill="#727272" d="M118.1,8.3v2.3h0.1c0.4-0.8,1-1.5,1.6-2c0.6-0.5,1.4-0.8,2.3-0.8c0.1,0,0.3,0,0.4,0c0.1,0,0.3,0,0.4,0
				v4.2c-0.2,0-0.5,0-0.7,0c-0.2,0-0.5,0-0.7,0c-0.4,0-0.8,0.1-1.2,0.2c-0.4,0.1-0.7,0.3-1.1,0.5c-0.3,0.2-0.6,0.6-0.8,1
				c-0.2,0.4-0.3,0.9-0.3,1.5v10.3h-4.4V8.3H118.1z"/>
			<path fill="#727272" d="M133.3,23.7c-0.5,0.8-1,1.4-1.6,1.7c-0.6,0.3-1.4,0.5-2.3,0.5c-1.8,0-3.1-0.7-4-2.1
				c-0.9-1.4-1.3-3.7-1.3-6.9c0-3.2,0.4-5.5,1.3-6.9c0.9-1.4,2.2-2.1,4-2.1c0.8,0,1.5,0.2,2.1,0.5c0.6,0.3,1.1,0.9,1.6,1.5h0.1V2.7
				h4.4v22.8h-4.2L133.3,23.7L133.3,23.7z M129,21.1c0.3,0.9,0.9,1.4,1.9,1.4c1,0,1.6-0.5,1.9-1.4c0.3-0.9,0.4-2.4,0.4-4.2
				c0-1.9-0.1-3.3-0.4-4.2c-0.3-0.9-0.9-1.4-1.9-1.4c-1,0-1.6,0.5-1.9,1.4c-0.3,0.9-0.4,2.4-0.4,4.2C128.5,18.8,128.7,20.2,129,21.1
				z"/>
		</g>
	</g>
</g>
<g id="nav-Modal" display="none">
	<g id="Main" display="inline">
	</g>
</g>
<g id="Dashboard" display="none">
	<g id="local_guides">
	</g>
</g>
<g id="Dashboard_2" display="none">
</g>
<g id="Layer_2">
</g>
</svg>
