<?xml version="1.0" encoding="utf-8"?>
<!-- Generator: Adobe Illustrator 18.1.1, SVG Export Plug-In . SVG Version: 6.00 Build 0)  -->
<!DOCTYPE svg PUBLIC "-//W3C//DTD SVG 1.1//EN" "http://www.w3.org/Graphics/SVG/1.1/DTD/svg11.dtd">
<svg version="1.1" xmlns="http://www.w3.org/2000/svg" xmlns:xlink="http://www.w3.org/1999/xlink" x="0px" y="0px" width="212px"
	 height="82px" viewBox="0 0 212 82" enable-background="new 0 0 212 82" xml:space="preserve">
<g id="landing1">
	<g id="Main_Body">
	</g>
	<g id="info_icons">
	</g>
</g>
<g id="nav-Modal" display="none">
	<g id="Main" display="inline">
	</g>
</g>
<g id="Dashboard">
	<g id="local_guides" display="none">
	</g>
	<g>
		<path fill="#F2F2F2" d="M11.6,26c0,0.7,0.1,1.3,0.2,1.9c0.1,0.6,0.3,1.1,0.6,1.4c0.3,0.4,0.7,0.7,1.2,0.9c0.5,0.2,1.2,0.3,2,0.3
			c0.9,0,1.8-0.3,2.5-0.9c0.7-0.6,1.1-1.5,1.1-2.8c0-0.7-0.1-1.3-0.3-1.7c-0.2-0.5-0.5-0.9-0.9-1.3c-0.4-0.4-1-0.7-1.7-1.1
			c-0.7-0.3-1.5-0.7-2.5-1c-1.3-0.4-2.5-0.9-3.5-1.5c-1-0.5-1.8-1.2-2.5-1.9c-0.7-0.7-1.1-1.5-1.4-2.5C6.2,15,6,13.9,6,12.7
			c0-3,0.8-5.2,2.5-6.6c1.7-1.5,3.9-2.2,6.8-2.2c1.3,0,2.6,0.1,3.7,0.4c1.1,0.3,2.1,0.8,2.9,1.4c0.8,0.7,1.5,1.5,1.9,2.5
			c0.5,1,0.7,2.2,0.7,3.7v0.8h-5.8c0-1.4-0.3-2.5-0.8-3.3c-0.5-0.8-1.3-1.2-2.5-1.2c-0.7,0-1.2,0.1-1.7,0.3
			c-0.4,0.2-0.8,0.5-1.1,0.8c-0.3,0.3-0.4,0.7-0.5,1.1c-0.1,0.4-0.1,0.9-0.1,1.3c0,0.9,0.2,1.7,0.6,2.3c0.4,0.6,1.2,1.2,2.5,1.7
			l4.7,2c1.1,0.5,2.1,1,2.8,1.6c0.7,0.5,1.3,1.1,1.7,1.8c0.4,0.6,0.7,1.3,0.9,2.1c0.2,0.8,0.3,1.6,0.3,2.5c0,3.2-0.9,5.5-2.8,6.9
			c-1.8,1.4-4.4,2.2-7.7,2.2c-3.4,0-5.9-0.7-7.3-2.2c-1.5-1.5-2.2-3.6-2.2-6.4v-1.2h6V26z"/>
		<path fill="#F2F2F2" d="M28.9,4.5h6v30h-6V4.5z"/>
		<path fill="#F2F2F2" d="M57,9.4h-6.6v25h-6v-25h-6.6v-5H57V9.4z"/>
		<path fill="#F2F2F2" d="M76.3,9.4H65.6v7.1h10.1v5H65.6v8.1h11.1v5H59.6v-30h16.8V9.4z"/>
		<path fill="#F2F2F2" d="M18.8,45.8c-0.5-1-1.5-1.5-2.8-1.5c-0.8,0-1.4,0.2-1.9,0.6c-0.5,0.4-0.9,1.1-1.2,2
			c-0.3,0.9-0.5,2.1-0.6,3.6c-0.1,1.5-0.2,3.3-0.2,5.4c0,2.3,0.1,4.1,0.2,5.5c0.2,1.4,0.4,2.5,0.7,3.3c0.3,0.8,0.7,1.3,1.2,1.6
			c0.5,0.3,1.1,0.4,1.7,0.4c0.5,0,1-0.1,1.5-0.3c0.5-0.2,0.9-0.5,1.2-1.1s0.6-1.3,0.8-2.3c0.2-1,0.3-2.3,0.3-3.9h6
			c0,1.6-0.1,3.2-0.4,4.6c-0.3,1.5-0.7,2.7-1.4,3.8c-0.7,1.1-1.7,1.9-2.9,2.6c-1.2,0.6-2.9,0.9-4.9,0.9c-2.3,0-4.1-0.4-5.4-1.1
			c-1.3-0.7-2.4-1.8-3.1-3.1c-0.7-1.4-1.2-3-1.4-4.9c-0.2-1.9-0.3-4-0.3-6.3c0-2.3,0.1-4.4,0.3-6.3c0.2-1.9,0.7-3.6,1.4-4.9
			c0.7-1.4,1.7-2.4,3.1-3.2c1.3-0.8,3.2-1.2,5.4-1.2c2.2,0,3.9,0.4,5.1,1.1c1.2,0.7,2.2,1.6,2.8,2.7c0.6,1.1,1,2.2,1.2,3.5
			c0.2,1.2,0.2,2.4,0.2,3.5h-6C19.6,48.4,19.3,46.8,18.8,45.8z"/>
		<path fill="#F2F2F2" d="M29,49.2c0.2-1.9,0.7-3.6,1.4-4.9c0.7-1.4,1.7-2.4,3.1-3.2c1.3-0.8,3.2-1.2,5.4-1.2c2.3,0,4.1,0.4,5.4,1.2
			c1.3,0.8,2.4,1.8,3.1,3.2c0.7,1.4,1.2,3,1.4,4.9c0.2,1.9,0.3,4,0.3,6.3c0,2.3-0.1,4.4-0.3,6.3c-0.2,1.9-0.7,3.5-1.4,4.9
			c-0.7,1.4-1.7,2.4-3.1,3.1c-1.3,0.7-3.2,1.1-5.4,1.1c-2.3,0-4.1-0.4-5.4-1.1c-1.3-0.7-2.4-1.8-3.1-3.1c-0.7-1.4-1.2-3-1.4-4.9
			c-0.2-1.9-0.3-4-0.3-6.3C28.7,53.2,28.8,51.1,29,49.2z M34.9,60.6c0.1,1.4,0.3,2.6,0.6,3.4c0.3,0.9,0.7,1.5,1.3,1.9
			c0.5,0.4,1.3,0.6,2.2,0.6s1.6-0.2,2.2-0.6c0.5-0.4,1-1,1.3-1.9c0.3-0.9,0.5-2,0.6-3.4c0.1-1.4,0.1-3.1,0.1-5.1c0-2,0-3.7-0.1-5.1
			c-0.1-1.4-0.3-2.5-0.6-3.4c-0.3-0.9-0.7-1.5-1.3-2c-0.5-0.4-1.3-0.6-2.2-0.6s-1.6,0.2-2.2,0.6c-0.5,0.4-1,1.1-1.3,2
			c-0.3,0.9-0.5,2-0.6,3.4c-0.1,1.4-0.1,3.1-0.1,5.1C34.7,57.5,34.8,59.2,34.9,60.6z"/>
		<path fill="#F2F2F2" d="M67,61L67,61L67,40.5h5.5v30h-6.9l-7.4-21h-0.1v21h-5.5v-30h7L67,61z"/>
		<path fill="#F2F2F2" d="M87,40.5c2.1,0,3.8,0.3,5.1,1c1.3,0.7,2.3,1.7,3,2.9c0.7,1.3,1.2,2.8,1.4,4.6c0.3,1.8,0.4,3.8,0.4,6
			c0,2.6-0.2,4.9-0.5,6.9c-0.3,1.9-0.9,3.5-1.7,4.8c-0.8,1.3-1.8,2.2-3.2,2.8c-1.3,0.6-3,0.9-5,0.9h-9.5v-30H87z M85.8,66
			c1.1,0,1.9-0.2,2.6-0.5c0.6-0.4,1.2-1,1.5-1.8c0.4-0.8,0.6-1.9,0.8-3.3c0.1-1.4,0.2-3.1,0.2-5.1c0-1.7-0.1-3.2-0.2-4.5
			c-0.1-1.3-0.3-2.4-0.7-3.2c-0.4-0.9-0.9-1.5-1.6-1.9c-0.7-0.4-1.6-0.7-2.8-0.7h-2.6V66H85.8z"/>
		<path fill="#F2F2F2" d="M101.2,40.5h6v30h-6V40.5z"/>
		<path fill="#F2F2F2" d="M129.3,45.4h-6.6v25h-6v-25h-6.6v-5h19.2V45.4z"/>
		<path fill="#F2F2F2" d="M132.2,40.5h6v30h-6V40.5z"/>
		<path fill="#F2F2F2" d="M142.4,49.2c0.2-1.9,0.7-3.6,1.4-4.9c0.7-1.4,1.7-2.4,3.1-3.2c1.3-0.8,3.2-1.2,5.4-1.2
			c2.3,0,4.1,0.4,5.4,1.2c1.3,0.8,2.4,1.8,3.1,3.2c0.7,1.4,1.2,3,1.4,4.9c0.2,1.9,0.3,4,0.3,6.3c0,2.3-0.1,4.4-0.3,6.3
			c-0.2,1.9-0.7,3.5-1.4,4.9c-0.7,1.4-1.7,2.4-3.1,3.1c-1.3,0.7-3.1,1.1-5.4,1.1c-2.3,0-4.1-0.4-5.4-1.1c-1.3-0.7-2.4-1.8-3.1-3.1
			c-0.7-1.4-1.2-3-1.4-4.9c-0.2-1.9-0.3-4-0.3-6.3C142.1,53.2,142.2,51.1,142.4,49.2z M148.3,60.6c0.1,1.4,0.3,2.6,0.6,3.4
			c0.3,0.9,0.7,1.5,1.3,1.9c0.5,0.4,1.3,0.6,2.2,0.6s1.6-0.2,2.2-0.6c0.5-0.4,1-1,1.3-1.9c0.3-0.9,0.5-2,0.6-3.4
			c0.1-1.4,0.1-3.1,0.1-5.1c0-2,0-3.7-0.1-5.1c-0.1-1.4-0.3-2.5-0.6-3.4c-0.3-0.9-0.7-1.5-1.3-2c-0.5-0.4-1.3-0.6-2.2-0.6
			s-1.6,0.2-2.2,0.6c-0.5,0.4-1,1.1-1.3,2c-0.3,0.9-0.5,2-0.6,3.4c-0.1,1.4-0.1,3.1-0.1,5.1C148.1,57.5,148.2,59.2,148.3,60.6z"/>
		<path fill="#F2F2F2" d="M180.4,61L180.4,61l0.1-20.5h5.5v30h-6.9l-7.4-21h-0.1v21h-5.5v-30h7L180.4,61z"/>
		<path fill="#F2F2F2" d="M195.1,62c0,0.7,0.1,1.3,0.2,1.9c0.1,0.6,0.3,1.1,0.6,1.4c0.3,0.4,0.7,0.7,1.2,0.9c0.5,0.2,1.2,0.3,2,0.3
			c0.9,0,1.8-0.3,2.5-0.9c0.7-0.6,1.1-1.5,1.1-2.8c0-0.7-0.1-1.3-0.3-1.7c-0.2-0.5-0.5-0.9-0.9-1.3c-0.4-0.4-1-0.7-1.7-1.1
			c-0.7-0.3-1.5-0.7-2.5-1c-1.3-0.4-2.5-0.9-3.5-1.5c-1-0.5-1.8-1.2-2.5-1.9c-0.7-0.7-1.1-1.5-1.4-2.5c-0.3-0.9-0.5-2-0.5-3.3
			c0-3,0.8-5.2,2.5-6.6c1.7-1.5,3.9-2.2,6.8-2.2c1.3,0,2.6,0.1,3.7,0.4c1.1,0.3,2.1,0.8,2.9,1.4c0.8,0.7,1.5,1.5,1.9,2.5
			c0.5,1,0.7,2.2,0.7,3.7v0.8h-5.8c0-1.4-0.3-2.5-0.8-3.3c-0.5-0.8-1.3-1.2-2.5-1.2c-0.7,0-1.2,0.1-1.7,0.3
			c-0.4,0.2-0.8,0.5-1.1,0.8c-0.3,0.3-0.4,0.7-0.5,1.1c-0.1,0.4-0.1,0.9-0.1,1.3c0,0.9,0.2,1.7,0.6,2.3c0.4,0.6,1.2,1.2,2.5,1.7
			l4.7,2c1.1,0.5,2.1,1,2.8,1.6c0.7,0.5,1.3,1.1,1.7,1.8c0.4,0.6,0.7,1.3,0.9,2.1c0.2,0.8,0.3,1.6,0.3,2.5c0,3.2-0.9,5.5-2.8,6.9
			c-1.8,1.4-4.4,2.2-7.7,2.2c-3.4,0-5.9-0.7-7.3-2.2c-1.5-1.5-2.2-3.6-2.2-6.4v-1.2h6V62z"/>
	</g>
	<line fill="none" stroke="#4caf50" stroke-width="2" stroke-miterlimit="10" x1="4.7" y1="77.3" x2="208.7" y2="77.3"/>
</g>
<g id="Tree_Headers">
</g>
<g id="Dashboard_2" display="none">
</g>
<g id="Layer_2" display="none">
</g>
</svg>
