<?xml version="1.0" encoding="utf-8"?>
<!-- Generator: Adobe Illustrator 18.1.1, SVG Export Plug-In . SVG Version: 6.00 Build 0)  -->
<!DOCTYPE svg PUBLIC "-//W3C//DTD SVG 1.1//EN" "http://www.w3.org/Graphics/SVG/1.1/DTD/svg11.dtd">
<svg version="1.1" xmlns="http://www.w3.org/2000/svg" xmlns:xlink="http://www.w3.org/1999/xlink" x="0px" y="0px" width="1280px"
	 height="800px" viewBox="0 0 1280 800" enable-background="new 0 0 1280 800" xml:space="preserve">
<g id="landing1">
	<rect x="1089.5" y="498" fill="#EBEBEB" width="190.5" height="263.7"/>
	<rect y="498.2" fill="#EBEBEB" width="190.5" height="263.7"/>
	<line fill="none" stroke="#999999" stroke-miterlimit="10" x1="638.5" y1="518" x2="638.5" y2="762"/>
	<g id="Main_Body">
		<linearGradient id="SVGID_1_" gradientUnits="userSpaceOnUse" x1="640" y1="-2.873367e-08" x2="640" y2="800">
			<stop  offset="0" style="stop-color:#FFFFFF"/>
			<stop  offset="1" style="stop-color:#F2F2F2"/>
		</linearGradient>
		<rect display="none" fill="url(#SVGID_1_)" stroke="#000000" stroke-miterlimit="10" width="1280" height="800"/>
		<g>
			<defs>
				<rect id="SVGID_2_" x="1" y="1" width="1279" height="497.1"/>
			</defs>
			<clipPath id="SVGID_3_">
				<use xlink:href="#SVGID_2_"  overflow="visible"/>
			</clipPath>
			<g clip-path="url(#SVGID_3_)">
				
					<image overflow="visible" width="4096" height="2160" xlink:href="../../../../Dropbox/Client Account Files/Sollars Home/Graphics/Stock Images/Product Families/Single Story Home Product Images_Rev2/White Eichler.jpg"  transform="matrix(0.3344 0 0 0.3178 -54.9887 66.8275)">
				</image>
			</g>
			<rect x="1" y="14.6" opacity="0.96" clip-path="url(#SVGID_3_)" fill="#F2F2F2" width="1279" height="203.9"/>
		</g>
		<g>
			
				<image overflow="visible" opacity="0.6" width="1286" height="68" xlink:href="8272ABA1B130BD72.png"  transform="matrix(1 0 0 1 -3 -2)">
			</image>
			<g>
				<rect fill="#FFFFFF" width="1280" height="61.1"/>
			</g>
		</g>
		<line fill="none" stroke="#4CAF50" stroke-width="4" stroke-miterlimit="10" x1="-1" y1="217" x2="1279" y2="217"/>
		<path fill="#D0D2D3" d="M639.9,39.9l3.2,9.5c0,0,2.2,1.4,2.8,1.5c0.6,0,2.9,0,2.9,0s-3.2-8.3-3.8-8.9c-0.6-0.6-3.3-1.6-3.3-1.6"/>
		<path fill="#D0D2D3" d="M643.4,27v8.7c0,0-0.8,2.3-1.1,2.8c-0.3,0.5-2.2,1.4-2.2,1.4s0.9-0.1,1.6-0.3c0.7-0.2,3.2-0.6,4.7-2.7
			c1.4-2.1,1.4-5.8,1-6.6c-0.4-0.8-2.8-3-2.8-3"/>
		<polyline fill="#D0D2D3" points="630.4,27 630.4,50.9 634.8,50.9 634.8,26.4 		"/>
		<path fill="#D0D2D3" d="M614.3,26.5l7.7,24.4h4.7l-7.8-23.3c0,0-1.2-1.3-2.5-1.5"/>
		<path fill="#D0D2D3" d="M759.6,26.6h4.1V51c0,0-3.9-0.3-3.9-1.9s-0.2-3-0.2-3"/>
		<path fill="#D0D2D3" d="M731.6,26.6l6.6,23.3c0,0,1.5,1.1,2.1,1.4c0.6,0.3,1.9,0,1.9,0l0.2-0.3l-5.7-22.8c0,0-1.6-1.3-2.1-1.5"/>
		<polyline fill="#D0D2D3" points="749.7,28.7 750.2,26.6 753.6,26.6 753.6,51.3 749.3,51.3 		"/>
		<path fill="#D0D2D3" d="M722.1,49.1V32.5c0,0-0.4-2.4-1.4-3.4c-0.9-1-2.6-2.2-2.6-2.2s3.9,0.9,5.2,2.6c1.4,1.7,3.3,6.2,3.3,10.1
			C726.7,45.2,722.4,48.8,722.1,49.1z"/>
		<path fill="#D0D2D3" d="M708.4,28.8v16.7c0,0,0.4,2.4,1.4,3.4c0.9,1,2.6,2.2,2.6,2.2s-3.9-0.9-5.2-2.6c-1.4-1.7-3.3-6.2-3.3-10.1
			C703.9,32.7,708.2,29.1,708.4,28.8z"/>
		<path fill="#D0D2D3" d="M559.6,48.8V32.1c0,0-0.4-2.4-1.4-3.4c-0.9-1-2.6-2.2-2.6-2.2s3.9,0.9,5.2,2.6c1.4,1.7,3.3,6.2,3.3,10.1
			C564.2,44.9,559.9,48.5,559.6,48.8z"/>
		<path fill="#D0D2D3" d="M545.9,28.4v16.7c0,0,0.4,2.4,1.4,3.4c0.9,1,2.6,2.2,2.6,2.2s-3.9-0.9-5.2-2.6c-1.4-1.7-3.3-6.2-3.3-10.1
			C541.3,32.4,545.7,28.8,545.9,28.4z"/>
		<rect x="588.9" y="26.5" fill="#D0D2D3" width="3.9" height="24.4"/>
		<rect x="569.2" y="26.5" fill="#D0D2D3" width="3.9" height="24.4"/>
		<rect x="679.7" y="26.4" fill="#D0D2D3" width="3.9" height="24.8"/>
		<polygon fill="#D0D2D3" points="698.7,51.2 696.7,51.4 694.9,50.5 694.8,26.4 698.7,26.4 		"/>
		<path fill="#D0D2D3" d="M520.7,44.5c0,0,0.2-0.7,1.9,0.4c1.7,1.1,1.3,1.3,1.7,1.8c0.6,0.7,1.7,3.4,2,3.4c0.3,0,1.7,0.9,1.7,0.9
			s-3.1-0.4-4.6-1.5c-1.6-1.1-2.5-2.6-2.5-2.6l-0.1-2"/>
		<path fill="#D0D2D3" d="M524.5,27.8c0,0-2.7,2.3-1.5,4.2c1.1,1.9,2.1,2.2,2.1,2.2l2.8,0.9l7.4,3.2c0,0,2.5,3.6,2.6,4.5
			c0.1,0.9-0.5,4.9-1.6,5.9c-1.1,1-0.8,0.6-0.8,0.6s1.2-2.1,0.7-4.1s-1.5-2.8-2.4-3.2c-0.9-0.4-7.6-2.4-9.8-4.1
			c-2.2-1.6-3.3-3-2.7-5.9c0.6-2.9,0.2-2.5,0.9-3.3c0.7-0.8,2.2-1.5,2.2-1.5"/>
		<polyline fill="#D0D2D3" points="533.4,26.8 533.4,31.3 534,32.7 535.5,33.3 536.3,32.6 537.3,31.8 537.7,30.2 536.9,28.6 
			535.6,27.4 		"/>
		<path fill="#D0D2D3" d="M651.6,44.3c0,0,0.2-0.7,1.9,0.4c1.7,1.1,1.3,1.3,1.7,1.8c0.6,0.7,1.7,3.4,2,3.4s1.7,0.9,1.7,0.9
			s-3.1-0.4-4.6-1.5c-1.5-1.1-2.5-2.6-2.5-2.6l-0.1-2"/>
		<path fill="#D0D2D3" d="M655.5,27.9c0,0-2.7,2.3-1.5,4.2c1.1,1.9,2.1,2.2,2.1,2.2l2.8,0.9l7.4,3.2c0,0,2.5,3.6,2.6,4.5
			c0.1,0.9-0.5,4.9-1.6,5.9s-0.8,0.6-0.8,0.6s1.2-2.1,0.7-4.1s-1.5-2.8-2.4-3.2c-0.9-0.4-7.6-2.4-9.8-4.1c-2.2-1.6-3.3-3-2.7-5.9
			c0.6-2.9,0.2-2.5,0.9-3.3c0.7-0.8,2.2-1.5,2.2-1.5"/>
		<path fill="#231F20" d="M533.1,26.9c-1.3-0.4-2.7-0.6-4-0.6c-3.9,0-6.4,2.6-6.4,4.8c0,1.2,0.9,2.5,3.1,3.3l6.7,2.5
			c3.8,1.4,5.5,4,5.5,7.4c0,4-2.9,7.2-8.2,7.2c-5.4,0-9.7-2.5-9.7-7.4h0.9c4.7,0,3,6.9,9,6.9c4,0,6-2.4,6-4.6c0-1.6-0.7-3.3-3.1-4.2
			l-6.8-2.5c-3.7-1.4-5.3-4-5.3-6.6c0-3.6,2.8-7.2,8.2-7.2c4.2,0,8.6,1.8,8.6,4.8c0,1.8-1.2,2.6-2.3,2.6c-1.2,0-2.3-0.9-2.3-2.6
			v-3.8H533.1z M521.1,44.5h-0.4c0,3.3,3.4,5.9,6.6,6.3C524.6,49.6,524.4,44.5,521.1,44.5z M532.6,37.3l-6.8-2.5
			c-2.2-0.8-3.4-2.3-3.4-3.7c0-1,0.5-2.2,1.7-3.3c-1.4,0.9-2.6,2.8-2.6,5.3c0,2.4,1.4,4.9,5,6.2l6.6,2.5c2.7,1,3.6,3,3.6,4.7
			c0,1-0.3,1.7-0.8,2.4c1.1-0.9,1.8-3,1.8-4.6C537.6,41,535.9,38.5,532.6,37.3z M533.6,27v3.7c0,1.4,1,2.2,1.9,2.2s1.8-0.7,1.8-2.2
			C537.3,29,535.6,27.7,533.6,27z"/>
		<path fill="#231F20" d="M541.2,38.7c0-6.4,3.9-12.8,11.6-12.8c7.7,0,11.6,6.4,11.6,12.7c0,6.4-3.9,12.8-11.6,12.8
			C545,51.4,541.2,45,541.2,38.7z M545.7,44.1V28.8c-2.7,2.3-4.1,6.1-4.1,9.9c0,6,3.1,10.2,7.3,11.7C547,49.2,545.7,47.2,545.7,44.1
			z M559.3,48.8V33.1c0-4.6-3.2-6.9-6.6-6.9c-2.7,0-4.9,0.8-6.6,2.2v15.7c0,4.6,3.2,6.9,6.6,6.9C555.4,51,557.6,50.2,559.3,48.8z
			 M559.8,48.4c2.7-2.3,4.1-6,4.1-9.9c0-6-3.1-10.2-7.3-11.7c2,1.2,3.2,3.2,3.2,6.3V48.4z"/>
		<path fill="#231F20" d="M585.8,51.1h-16.9v-25h4.6v24.6h12.2L585.8,51.1L585.8,51.1z M569.4,26.5v24.2h3.7V26.5H569.4z"/>
		<path fill="#231F20" d="M605.3,51.1h-16.9v-25h4.6v24.6h12.2L605.3,51.1L605.3,51.1z M588.9,26.5v24.2h3.7V26.5H588.9z"/>
		<path fill="#231F20" d="M613.5,27.6c0.4-1.2,1.3-1.8,2.6-1.8c1.4,0,2.5,0.7,3,2.1l7.7,23.2h-5l-3-9.4h-9.3l-3,9.4H606L613.5,27.6z
			 M609.6,41.3h9.1l-4.5-14.4L609.6,41.3z M622.2,50.7h4l-7.6-22.8c-0.4-1.2-1.3-1.7-2.6-1.7c-0.5,0-1,0.1-1.4,0.4L622.2,50.7z"/>
		<path fill="#231F20" d="M630.2,26.9c2.1-0.5,5.4-1,7.7-1c5.8,0,10.2,2.2,10.2,7.5c0,3.2-2,5.9-6.3,6.7c2.2,0.5,3.7,1.9,4.7,4.3
			l2.6,6.8h-2c-2.3,0-3.7-0.8-4.4-2.9l-2.8-8.1H635v11h-4.6V26.9H630.2z M634.4,50.7V26.5c-1.4,0.2-2.8,0.4-3.7,0.7v23.5H634.4z
			 M643.2,34.4v-7.3c-1.5-0.6-3.4-0.8-5.3-0.8c-0.9,0-2,0.1-3,0.2v13.3h3.2C641.5,39.7,643.2,38.2,643.2,34.4z M643,48.2
			c0.6,1.7,1.8,2.5,4,2.5h1.3l-2.4-6.4c-1.1-2.8-3.3-4.2-5.7-4.2L643,48.2z M643.6,27.3v7.1c0,2.4-0.6,4.4-2.9,5.4
			c4.1-0.3,6.8-2.8,6.8-6.4C647.6,30.3,646,28.3,643.6,27.3z"/>
		<path fill="#231F20" d="M664.1,26.9c-1.3-0.4-2.7-0.6-4-0.6c-3.9,0-6.4,2.6-6.4,4.8c0,1.2,0.9,2.5,3.1,3.3l6.7,2.5
			c3.8,1.4,5.5,4,5.5,7.4c0,4-2.9,7.2-8.2,7.2c-5.4,0-9.7-2.5-9.7-7.4h0.9c4.7,0,3,6.9,9,6.9c4,0,6-2.4,6-4.6c0-1.6-0.7-3.3-3.1-4.2
			l-6.8-2.5c-3.7-1.4-5.3-4-5.3-6.6c0-3.6,2.8-7.2,8.2-7.2c4.2,0,8.6,1.8,8.6,4.8c0,1.8-1.2,2.6-2.3,2.6c-1.2,0-2.3-0.9-2.3-2.6
			L664.1,26.9L664.1,26.9z M652.1,44.5h-0.5c0,3.3,3.4,5.9,6.6,6.3C655.6,49.6,655.4,44.5,652.1,44.5z M663.6,37.3l-6.8-2.5
			c-2.2-0.8-3.4-2.3-3.4-3.7c0-1,0.5-2.2,1.7-3.3c-1.4,0.9-2.6,2.8-2.6,5.3c0,2.4,1.4,4.9,5,6.2l6.6,2.5c2.7,1,3.6,3,3.6,4.7
			c0,1-0.3,1.7-0.8,2.4c1.1-0.9,1.8-3,1.8-4.6C668.6,41,666.9,38.5,663.6,37.3z M664.6,27v3.7c0,1.4,1,2.2,1.9,2.2s1.8-0.7,1.8-2.2
			C668.3,29,666.6,27.7,664.6,27z"/>
		<path fill="#231F20" d="M694.4,39.3h-10.5v12.1h-4.6v-25h4.6v12.5h10.5V26.3h4.6v25c-0.7,0.2-1.2,0.3-1.8,0.3
			c-1.6,0-2.8-0.8-2.8-3.3V39.3z M679.8,26.7v24.2h3.7V26.7H679.8z M694.9,26.7v21.6c0,1.9,0.9,2.8,2.4,2.8c0.4,0,0.9,0,1.3-0.2
			V26.7H694.9z"/>
		<path fill="#231F20" d="M703.6,38.9c0-6.4,3.9-12.8,11.6-12.8s11.6,6.4,11.6,12.7c0,6.4-3.9,12.8-11.6,12.8S703.6,45.3,703.6,38.9
			z M708.2,44.3V29c-2.7,2.3-4.1,6.1-4.1,9.9c0,6,3.1,10.2,7.3,11.7C709.5,49.4,708.2,47.5,708.2,44.3z M721.8,49V33.4
			c0-4.6-3.2-6.9-6.6-6.9c-2.7,0-4.9,0.8-6.6,2.2v15.7c0,4.6,3.2,6.9,6.6,6.9C717.9,51.2,720.1,50.4,721.8,49z M722.3,48.7
			c2.7-2.3,4.1-6,4.1-9.9c0-6-3.1-10.2-7.3-11.7c2,1.2,3.2,3.2,3.2,6.3V48.7z"/>
		<path fill="#231F20" d="M749.3,51.3V30.2l-6.7,21.2c-0.5,0.2-0.9,0.3-1.3,0.3c-2,0-3-0.9-3.7-3.4l-5.7-20.2v23.4h-0.5v-25h0.8
			c3,0,4.2,0.3,5,3.4l5.3,20.6l7.5-24h3.9v25h-4.6V51.3z M742.2,51.1l-5.5-21.4c-0.7-2.5-1.6-3-4.5-3h-0.3l6,21.5
			c0.6,2.2,1.5,3,3.2,3C741.6,51.2,741.9,51.2,742.2,51.1z M749.7,28.7v22.2h3.7V26.7h-3.1L749.7,28.7z"/>
		<path fill="#231F20" d="M775.3,26.7h-11.4v12.1h9.9v0.4h-9.9v11.6h11.9v0.4h-11.9c-2.9,0-4.6-1.7-4.6-4.6V26.3h16.1v0.4
			L775.3,26.7z M763.4,50.9V26.7h-3.7v20C759.7,49.6,761.5,50.7,763.4,50.9z"/>
		<path fill="#81BB41" d="M551.4,34.9c0,0-0.1,0.4-0.2,1.1c-0.1,0.6-0.3,1.1-0.6,1.4c-0.3,0.4-0.6,0.7-1.1,0.8
			c-0.3,0.1-0.6,0.1-0.9,0c-0.2-0.1-0.3-0.2-0.4-0.4c-0.1,0-0.2,0-0.3-0.1c-0.2-0.1-0.3-0.3-0.3-0.6c0.2-1.1,1-2,2.3-2.5
			c0.7-0.3,1.3-0.4,1.9-0.4C551.8,34.4,551.6,34.6,551.4,34.9z M548.3,37.8c-0.6,0.4-1.2,0.6-2,0.5L548.3,37.8z M548.9,39.9
			c-0.5-0.4-1.1-0.7-1.8-0.9c-0.4-0.1-0.7-0.2-0.9-0.2L548.9,39.9z M552.9,44.7c0,0,0-0.6-0.1-1.7c0-0.9-0.2-1.6-0.5-2.2
			c-0.3-0.7-0.8-1.1-1.4-1.4c-0.4-0.2-0.8-0.3-1.2-0.2c-0.2,0-0.4,0.1-0.5,0.3c-0.1,0.1-0.1,0.2-0.1,0.3c-0.1,0-0.3,0-0.4,0
			c-0.3,0.1-0.5,0.4-0.5,0.9c0,1.7,1,3.1,2.8,4.1c0.9,0.5,1.8,0.9,2.7,1C553.2,45.6,553,45.2,552.9,44.7z"/>
		<path fill="#81BB41" d="M575.6,46.5c0,0,0.4,0.1,1.1,0.1c0.6,0.1,1,0.2,1.4,0.4c0.4,0.2,0.7,0.6,0.8,1c0.1,0.3,0.1,0.6,0.1,0.8
			c0,0.2-0.2,0.3-0.4,0.4c0,0.1,0,0.2,0,0.3c-0.1,0.2-0.3,0.3-0.6,0.3c-1.1-0.1-1.9-0.8-2.5-2c-0.3-0.6-0.5-1.2-0.5-1.8
			C575,46.3,575.3,46.4,575.6,46.5z M578.5,49.3c0.4,0.5,0.6,1.1,0.6,1.9L578.5,49.3z M580.5,48.6c-0.4,0.5-0.6,1.1-0.8,1.8
			c-0.1,0.3-0.1,0.7-0.1,0.9L580.5,48.6z M584.7,44.5c0,0-0.6,0.1-1.6,0.2c-0.8,0.1-1.5,0.3-2.1,0.6c-0.6,0.3-1,0.8-1.2,1.4
			c-0.2,0.4-0.2,0.8-0.1,1.2c0,0.2,0.1,0.3,0.3,0.5c0.1,0.1,0.2,0.1,0.2,0.1c0,0.1,0,0.3,0.1,0.4c0.1,0.3,0.4,0.4,0.9,0.5
			c1.6-0.2,2.9-1.1,3.7-2.9c0.4-0.9,0.7-1.8,0.8-2.7C585.6,44.1,585.2,44.3,584.7,44.5z"/>
		<path fill="#81BB41" d="M742.8,32.9c0,0,0.2-0.2,0.7-0.7c0.4-0.4,0.7-0.6,1.1-0.7c0.4-0.2,0.8-0.2,1.1,0c0.3,0.1,0.5,0.2,0.6,0.4
			c0.1,0.1,0.1,0.3,0.1,0.5c0.1,0,0.1,0.1,0.2,0.2c0.1,0.2,0,0.4-0.1,0.6c-0.7,0.7-1.6,0.9-2.8,0.7c-0.6-0.1-1.1-0.3-1.6-0.6
			C742.3,33.1,742.5,33.1,742.8,32.9z M746.3,32.4c0.6,0,1.1,0.2,1.6,0.6L746.3,32.4z M746.9,30.6c0.1,0.5,0.4,1,0.8,1.5
			c0.2,0.2,0.4,0.4,0.6,0.6L746.9,30.6z M746.3,25.4c0,0-0.2,0.4-0.7,1.2c-0.4,0.6-0.6,1.2-0.7,1.8c-0.1,0.6,0,1.1,0.3,1.6
			c0.2,0.3,0.5,0.6,0.8,0.7c0.2,0.1,0.3,0.1,0.5,0c0.1,0,0.2-0.1,0.2-0.1c0.1,0.1,0.2,0.2,0.3,0.2c0.3,0.1,0.5-0.1,0.8-0.4
			c0.8-1.2,0.8-2.6,0-4.2c-0.4-0.8-0.9-1.5-1.4-2C746.5,24.6,746.5,24.9,746.3,25.4z"/>
		<path fill="#81BB41" d="M522.1,29.2c-0.2,0.1-0.4,0.3-0.6,0.5c-0.3,0.3-0.5,0.4-0.6,0.5c-0.5,0.4-1,0.6-1.5,0.6
			c-0.4,0-0.9,0-1.8-0.2c-0.8-0.1-1.4-0.2-1.9-0.1c0.6-0.1,1-0.4,1.3-0.9c0.4-0.8,0.7-1.2,0.8-1.3c0.8-0.7,2-0.6,3.7,0.1
			c-0.7-0.2-1.3-0.2-2,0.1c-0.6,0.2-1.1,0.6-1.5,1.1c0.6-0.4,1.3-0.7,2.1-0.7c0.8-0.1,1.5,0,2.3,0.2L522.1,29.2z M521.7,27.6
			c-0.2,0-0.5,0-0.9,0c-0.5,0-0.7,0-0.8,0c-0.6,0-1.2-0.1-1.7-0.4c-0.3-0.2-0.7-0.6-1.3-1.1c-0.5-0.5-1-0.9-1.5-1.1
			c0.5,0.3,1.1,0.3,1.7,0.1c0.9-0.3,1.4-0.5,1.6-0.5c1.1-0.1,2.1,0.7,2.9,2.2c-0.4-0.5-0.9-0.9-1.7-1.1c-0.7-0.2-1.4-0.2-2-0.1
			c0.8,0.1,1.6,0.3,2.3,0.7c0.7,0.4,1.3,0.8,1.7,1.4L521.7,27.6z M522.2,26.3c-0.1-0.2-0.3-0.4-0.6-0.6c-0.3-0.3-0.5-0.5-0.6-0.5
			c-0.4-0.4-0.7-0.9-0.8-1.4c0-0.3,0-0.8,0.1-1.5c0.1-0.7,0.1-1.2,0-1.6c0.1,0.5,0.5,0.9,1.1,1.2c0.9,0.4,1.4,0.7,1.5,0.8
			c0.8,0.7,0.8,1.8,0,3.2c0.2-0.6,0.1-1.1-0.2-1.7c-0.3-0.6-0.7-1-1.3-1.4c0.5,0.6,0.8,1.2,1,1.9c0.1,0.7,0.1,1.3-0.2,2V26.3z
			 M524.6,26.7c0.2-0.1,0.4-0.2,0.7-0.4c0.4-0.2,0.6-0.3,0.7-0.3c0.5-0.3,0.9-0.6,1.1-1c0.1-0.3,0.3-0.8,0.3-1.5
			c0.1-0.7,0.2-1.2,0.5-1.5c-0.2,0.4-0.7,0.7-1.4,0.8c-1,0.1-1.5,0.2-1.7,0.3c-1,0.4-1.3,1.4-1,3.1c0-0.6,0.2-1.1,0.7-1.6
			c0.4-0.4,1-0.7,1.7-0.9c-0.6,0.4-1.1,0.9-1.5,1.5c-0.3,0.6-0.5,1.3-0.4,1.9L524.6,26.7z"/>
		<path fill="#81BB41" d="M590.9,26c-0.1,0-0.2-0.1-0.4-0.1c-0.2-0.1-0.3-0.1-0.4-0.1c-0.3-0.1-0.5-0.2-0.7-0.5
			c-0.1-0.1-0.3-0.4-0.5-0.8s-0.4-0.7-0.6-0.8c0.2,0.2,0.5,0.3,0.8,0.3c0.5-0.1,0.7-0.1,0.8-0.1c0.5,0.1,0.9,0.7,1.1,1.7
			c-0.1-0.3-0.3-0.6-0.6-0.8c-0.3-0.2-0.6-0.3-0.9-0.3c0.4,0.1,0.7,0.4,1,0.7c0.3,0.3,0.5,0.7,0.6,1.1L590.9,26z M591.5,25.3
			c-0.1-0.1-0.2-0.2-0.3-0.4c-0.2-0.2-0.2-0.3-0.3-0.4c-0.2-0.3-0.3-0.6-0.3-0.9c0-0.2,0-0.5,0.1-0.9c0.1-0.4,0.1-0.7,0-1
			c0,0.3,0.2,0.6,0.5,0.8c0.4,0.3,0.7,0.5,0.7,0.6c0.4,0.5,0.4,1.1-0.1,1.9c0.1-0.3,0.1-0.7-0.1-1c-0.1-0.4-0.3-0.7-0.6-0.9
			c0.2,0.4,0.4,0.8,0.4,1.2c0.1,0.4,0,0.8-0.1,1.2L591.5,25.3z M592.2,25.2c0-0.1,0.1-0.3,0.1-0.4c0-0.2,0-0.4,0-0.4
			c0.1-0.3,0.2-0.6,0.4-0.8c0.1-0.1,0.4-0.3,0.7-0.4c0.3-0.2,0.6-0.3,0.7-0.5c-0.2,0.2-0.2,0.5-0.2,0.8c0.1,0.5,0.1,0.8,0.1,0.9
			c-0.1,0.6-0.5,0.9-1.4,1c0.3-0.1,0.5-0.3,0.7-0.6c0.2-0.3,0.2-0.6,0.2-1c-0.1,0.4-0.3,0.7-0.5,1c-0.3,0.3-0.6,0.5-0.9,0.5
			L592.2,25.2z M592.8,26.3c0.1,0,0.2,0.1,0.4,0.2s0.3,0.2,0.4,0.2c0.3,0.2,0.6,0.2,0.8,0.2s0.4-0.1,0.8-0.3
			c0.3-0.2,0.6-0.3,0.8-0.3c-0.3,0-0.5-0.1-0.8-0.4c-0.3-0.4-0.6-0.6-0.6-0.7c-0.5-0.3-1-0.1-1.6,0.5c0.2-0.2,0.5-0.3,0.9-0.2
			c0.3,0.1,0.6,0.2,0.9,0.5c-0.4-0.2-0.7-0.2-1.1-0.2C593.3,25.8,593,26,592.8,26.3L592.8,26.3z"/>
		<path fill="#81BB41" d="M710.1,49.8c0-0.6,0.2-1.1,0.3-1.6c0.1-0.3,0.3-0.6,0.5-0.8s0.5-0.4,0.7-0.6c0.3-0.2,0.6-0.3,1-0.5
			c0.4-0.1,0.7-0.2,0.6-0.2c0.3-0.1,0.7-0.2,0.9-0.4c0.2-0.1,0.5-0.3,0.8-0.4c0.2-0.1,0.3-0.2,0.3-0.2s-0.1,0-0.3,0.2
			c-0.3,0.1-0.5,0.2-0.8,0.3c-0.3,0.1-0.6,0.2-0.9,0.2c-0.3,0.1-0.5,0.1-0.7,0.2c-0.5,0.2-0.8,0.3-1.1,0.5c-0.6,0.4-1.1,0.9-1.5,1.4
			c-0.2,0.3-0.3,0.7-0.4,1.1c-0.2-0.1-0.4-0.3-0.4-0.6c-0.1-0.4,0-0.9,0.1-1.4c0.3-0.7,0.7-1.3,1.5-1.6c0.7-0.4,1.5-0.6,2.5-0.7
			c1.2-0.2,1.9-0.2,1.9-0.3c0.6-0.2,1-0.5,1.2-0.8c-0.1,1-0.4,2-1,3.1c-0.5,0.9-1,1.6-1.7,2.2c-0.8,0.7-1.8,1.1-2.8,1.2
			C710.6,50.2,710.3,50,710.1,49.8z"/>
		<path fill="#81BB41" d="M615.2,41.2c-0.4-0.2-0.6-0.4-0.9-0.6c-0.2-0.2-0.3-0.4-0.3-0.6c-0.1-0.2-0.1-0.4-0.1-0.6s0-0.5,0-0.7
			c0-0.3,0-0.5,0-0.5c0-0.2,0-0.5,0-0.7c0-0.2,0-0.4,0-0.6s0-0.3,0-0.2c0,0,0,0.1,0,0.2c0,0.2,0,0.4,0,0.6s0,0.4-0.1,0.6
			c0,0.2-0.1,0.3-0.1,0.5c0,0.3,0,0.6,0,0.8c0,0.5,0.2,0.9,0.5,1.3c0.1,0.2,0.3,0.4,0.6,0.5c-0.1,0.1-0.3,0.2-0.5,0.1
			c-0.3-0.1-0.5-0.2-0.8-0.5c-0.4-0.4-0.6-0.8-0.6-1.4c0-0.5,0.1-1.1,0.3-1.7c0.3-0.8,0.4-1.2,0.4-1.2c0.1-0.4,0-0.7-0.2-1
			c0.6,0.4,1.1,0.8,1.6,1.4c0.4,0.5,0.7,1.1,0.9,1.6c0.2,0.7,0.2,1.4-0.1,2.1C615.6,41,615.4,41.1,615.2,41.2z"/>
		<path fill="#81BB41" d="M689.9,30.2c0-0.3-0.1-0.6-0.3-0.7c-0.2-0.2-0.5-0.4-1-0.6c1.1,0,2,0.5,2.8,1.5s1,2,0.9,3
			c0.1-0.1,0.2-0.3,0.3-0.6c0.1-0.3,0.2-0.5,0.3-0.6c0.2,0.7,0.3,1.4,0.2,2.1c-0.1,0.8-0.4,1.4-0.9,1.9c0.2,0,0.4,0,0.6-0.2
			c0.1-0.1,0.4-0.3,0.7-0.7c-0.6,1.3-1.6,2.6-3.1,3.7c0.6-1.6,0.9-2.6,0.9-2.9c0.1-1-0.1-1.9-0.7-3c0.4,0.9,0.5,2,0.3,3.2
			s-0.8,2.2-1.6,2.8c0-0.3-0.4-1.1-1-2.3c-0.5-0.9-0.6-1.8-0.4-2.6c0.2,0.1,0.5,0.5,1,1.2s0.8,1.1,1.1,1.1c-0.2-0.2-0.8-1.1-1.7-2.8
			c0,0,0.1-0.1,0.3-0.3c0.2-0.3,0.4-0.6,0.6-0.9C689.7,31.6,690,30.8,689.9,30.2z"/>
		<path fill="#81BB41" d="M628.2,22.1c-0.1-0.1-0.2-0.2-0.4-0.3c-0.2,0-0.4,0-0.7,0c0.6-0.4,1.2-0.4,1.9-0.2
			c0.7,0.2,1.2,0.6,1.4,1.2c0-0.1,0-0.2-0.1-0.4c0-0.2-0.1-0.3-0.1-0.4c0.4,0.3,0.6,0.6,0.8,1s0.3,0.9,0.2,1.3
			c0.1,0,0.2-0.1,0.2-0.3c0-0.1,0.1-0.3,0.1-0.6c0.2,0.9,0,1.9-0.3,3c-0.2-1-0.4-1.6-0.5-1.8c-0.3-0.5-0.7-1-1.4-1.3
			c0.5,0.3,0.9,0.8,1.2,1.5c0.3,0.7,0.3,1.4,0.2,2c-0.1-0.1-0.5-0.4-1.3-0.8c-0.6-0.3-0.9-0.7-1.1-1.2c0.1,0,0.4,0.1,0.9,0.3
			c0.5,0.2,0.8,0.3,0.9,0.2c-0.2,0-0.8-0.3-1.8-0.9c0,0,0-0.1,0-0.3c0-0.2,0-0.4,0-0.7C628.5,22.9,628.4,22.4,628.2,22.1z"/>
		<path fill="#81BB41" d="M770.4,44.8c0.2-0.2,0.3-0.5,0.4-0.7c0-0.3,0-0.6-0.2-1.1c0.7,0.8,1,1.8,0.8,3.1c-0.2,1.2-0.7,2.1-1.6,2.7
			c0.2,0,0.4-0.1,0.6-0.2c0.3-0.1,0.5-0.2,0.6-0.2c-0.4,0.7-0.8,1.2-1.4,1.6c-0.6,0.5-1.3,0.7-2,0.7c0.1,0.2,0.3,0.2,0.5,0.3
			c0.2,0,0.5,0,0.9,0c-1.4,0.5-3,0.6-4.9,0.3c1.6-0.7,2.5-1.1,2.7-1.3c0.8-0.6,1.3-1.4,1.6-2.6c-0.4,0.9-1,1.7-2.1,2.4
			c-1.1,0.7-2.1,0.9-3.1,0.8c0.2-0.2,0.5-1,1-2.3c0.4-1,0.9-1.7,1.6-2.1c0.1,0.2,0,0.7-0.2,1.5s-0.2,1.4-0.1,1.6
			c0-0.3,0.3-1.3,0.9-3.2c0,0,0.2,0,0.4,0c0.3,0,0.7-0.1,1-0.2C769.3,45.6,770,45.3,770.4,44.8z"/>
		<g>
			<path d="M778.2,26.5h-1.1v-0.4h2.7v0.4h-1.1v3.2h-0.5V26.5z"/>
			<path d="M783.3,28.2c0-0.5-0.1-1.1-0.1-1.6l0,0c-0.1,0.4-0.3,0.9-0.5,1.4l-0.6,1.8h-0.4l-0.6-1.7c-0.2-0.5-0.3-1-0.4-1.4l0,0
				c0,0.5,0,1.1-0.1,1.6l-0.1,1.6h-0.4l0.3-3.6h0.6l0.6,1.8c0.2,0.4,0.3,0.8,0.4,1.2l0,0c0.1-0.4,0.2-0.8,0.4-1.2l0.6-1.8h0.6
				l0.2,3.6h-0.5V28.2z"/>
		</g>
		<line fill="none" stroke="#999999" stroke-miterlimit="10" x1="1089.5" y1="498" x2="1089.5" y2="762"/>
		<line fill="none" stroke="#999999" stroke-miterlimit="10" x1="189.5" y1="498" x2="189.5" y2="762"/>
		<rect x="1165.6" fill="#4CAF50" width="58.5" height="61.1"/>
		<path fill="#4CAF50" d="M1140.3,34h-6v18h-9V40h-9v12h-9V34h-6l19.7-19.3L1140.3,34z"/>
		<path fill="#FFFFFF" d="M1187.3,19.2v6c0,0.4-0.1,0.8-0.4,1.1c-0.3,0.3-0.6,0.4-1.1,0.4h-6c-0.4,0-0.8-0.1-1.1-0.4
			c-0.3-0.3-0.4-0.6-0.4-1.1v-6c0-0.4,0.1-0.8,0.4-1.1c0.3-0.3,0.6-0.4,1.1-0.4h6c0.4,0,0.8,0.1,1.1,0.4
			C1187.2,18.4,1187.3,18.8,1187.3,19.2z M1187.3,31.2v6c0,0.4-0.1,0.8-0.4,1.1c-0.3,0.3-0.6,0.4-1.1,0.4h-6c-0.4,0-0.8-0.1-1.1-0.4
			c-0.3-0.3-0.4-0.6-0.4-1.1v-6c0-0.4,0.1-0.8,0.4-1.1c0.3-0.3,0.6-0.4,1.1-0.4h6c0.4,0,0.8,0.1,1.1,0.4
			C1187.2,30.4,1187.3,30.8,1187.3,31.2z M1187.3,43.2v6c0,0.4-0.1,0.8-0.4,1.1c-0.3,0.3-0.6,0.4-1.1,0.4h-6c-0.4,0-0.8-0.1-1.1-0.4
			c-0.3-0.3-0.4-0.6-0.4-1.1v-6c0-0.4,0.1-0.8,0.4-1.1c0.3-0.3,0.6-0.4,1.1-0.4h6c0.4,0,0.8,0.1,1.1,0.4
			C1187.2,42.4,1187.3,42.8,1187.3,43.2z M1199.3,19.2v6c0,0.4-0.1,0.8-0.4,1.1c-0.3,0.3-0.6,0.4-1.1,0.4h-6c-0.4,0-0.8-0.1-1.1-0.4
			c-0.3-0.3-0.4-0.6-0.4-1.1v-6c0-0.4,0.1-0.8,0.4-1.1c0.3-0.3,0.6-0.4,1.1-0.4h6c0.4,0,0.8,0.1,1.1,0.4
			C1199.2,18.4,1199.3,18.8,1199.3,19.2z M1199.3,31.2v6c0,0.4-0.1,0.8-0.4,1.1c-0.3,0.3-0.6,0.4-1.1,0.4h-6c-0.4,0-0.8-0.1-1.1-0.4
			c-0.3-0.3-0.4-0.6-0.4-1.1v-6c0-0.4,0.1-0.8,0.4-1.1c0.3-0.3,0.6-0.4,1.1-0.4h6c0.4,0,0.8,0.1,1.1,0.4
			C1199.2,30.4,1199.3,30.8,1199.3,31.2z M1199.3,43.2v6c0,0.4-0.1,0.8-0.4,1.1c-0.3,0.3-0.6,0.4-1.1,0.4h-6c-0.4,0-0.8-0.1-1.1-0.4
			c-0.3-0.3-0.4-0.6-0.4-1.1v-6c0-0.4,0.1-0.8,0.4-1.1c0.3-0.3,0.6-0.4,1.1-0.4h6c0.4,0,0.8,0.1,1.1,0.4
			C1199.2,42.4,1199.3,42.8,1199.3,43.2z M1211.3,19.2v6c0,0.4-0.1,0.8-0.4,1.1c-0.3,0.3-0.6,0.4-1.1,0.4h-6c-0.4,0-0.8-0.1-1.1-0.4
			c-0.3-0.3-0.4-0.6-0.4-1.1v-6c0-0.4,0.1-0.8,0.4-1.1c0.3-0.3,0.6-0.4,1.1-0.4h6c0.4,0,0.8,0.1,1.1,0.4
			C1211.2,18.4,1211.3,18.8,1211.3,19.2z M1211.3,31.2v6c0,0.4-0.1,0.8-0.4,1.1c-0.3,0.3-0.6,0.4-1.1,0.4h-6c-0.4,0-0.8-0.1-1.1-0.4
			c-0.3-0.3-0.4-0.6-0.4-1.1v-6c0-0.4,0.1-0.8,0.4-1.1c0.3-0.3,0.6-0.4,1.1-0.4h6c0.4,0,0.8,0.1,1.1,0.4
			C1211.2,30.4,1211.3,30.8,1211.3,31.2z M1211.3,43.2v6c0,0.4-0.1,0.8-0.4,1.1c-0.3,0.3-0.6,0.4-1.1,0.4h-6c-0.4,0-0.8-0.1-1.1-0.4
			c-0.3-0.3-0.4-0.6-0.4-1.1v-6c0-0.4,0.1-0.8,0.4-1.1c0.3-0.3,0.6-0.4,1.1-0.4h6c0.4,0,0.8,0.1,1.1,0.4
			C1211.2,42.4,1211.3,42.8,1211.3,43.2z"/>
		<rect y="761.7" fill="#727272" width="1280" height="38.3"/>
		<path fill="#4CAF50" d="M652.5,777.2v7.4c0,2.7-1,4.9-2.9,6.9c-1.9,1.9-4.2,2.9-6.9,2.9h-7.4c-2.7,0-5-1-6.9-2.9
			c-1.9-1.9-2.9-4.2-2.9-6.9v-7.4c0-2.7,1-5,2.9-6.9c1.9-1.9,4.2-2.9,6.9-2.9h7.4c2.7,0,5,1,6.9,2.9
			C651.5,772.1,652.5,774.5,652.5,777.2z M647.6,787v-12.3c0-0.7-0.2-1.2-0.7-1.7c-0.5-0.5-1.1-0.7-1.7-0.7h-12.3
			c-0.7,0-1.2,0.2-1.7,0.7c-0.5,0.5-0.7,1.1-0.7,1.7V787c0,0.7,0.2,1.2,0.7,1.7c0.5,0.5,1.1,0.7,1.7,0.7h12.3c0.7,0,1.2-0.2,1.7-0.7
			C647.3,788.2,647.6,787.6,647.6,787z M639,776.3l-6.1,8.2h12.3L639,776.3z"/>
		<line fill="none" stroke="#4CAF50" stroke-width="4" stroke-miterlimit="10" x1="0" y1="498" x2="1280" y2="498"/>
		<path fill="#4CAF50" d="M741.7,533.8H536c-5.6,0-10.1-4.5-10.1-10.1v-29.8c0-5.6,4.5-10.1,10.1-10.1h205.8
			c5.6,0,10.1,4.5,10.1,10.1v29.8C751.9,529.3,747.3,533.8,741.7,533.8z"/>
		<text transform="matrix(1 0 0 1 570.9537 518.084)" fill="#FFFFFF" font-family="'HelveticaNeue-Medium'" font-size="26">WELCOME</text>
	</g>
	<g id="info_icons">
		<path fill="#4CAF50" d="M402.8,622.6c3.8-2.2,8-3.4,12.5-3.4c4.5,0,8.7,1.1,12.5,3.4c3.8,2.2,6.9,5.3,9.1,9.1
			c2.2,3.8,3.4,8,3.4,12.5c0,4.5-1.1,8.7-3.4,12.5c-2.2,3.8-5.3,6.9-9.1,9.1c-3.8,2.2-8,3.4-12.5,3.4c-4.5,0-8.7-1.1-12.5-3.4
			c-3.8-2.2-6.9-5.3-9.1-9.1c-2.2-3.8-3.4-8-3.4-12.5c0-4.5,1.1-8.7,3.4-12.5C396,627.8,399,624.8,402.8,622.6z M427.6,631.9
			c-3.4-3.4-7.5-5.1-12.3-5.1c-4.8,0-8.9,1.7-12.3,5.1c-3.4,3.4-5.1,7.5-5.1,12.3c0,4.8,1.7,8.9,5.1,12.3c3.4,3.4,7.5,5.1,12.3,5.1
			c4.8,0,8.9-1.7,12.3-5.1c3.4-3.4,5.1-7.5,5.1-12.3C432.7,639.4,431,635.3,427.6,631.9z M403.2,640.1c0.4-0.4,1-0.6,1.6-0.6
			c0.6,0,1.2,0.2,1.6,0.7c0.4,0.4,0.7,1,0.7,1.6c0,0.6-0.2,1.2-0.7,1.6c-0.4,0.4-1,0.7-1.6,0.7c-0.6,0-1.1-0.2-1.6-0.7
			c-0.4-0.4-0.7-1-0.7-1.6C402.6,641.1,402.8,640.5,403.2,640.1z M409.5,631.2c0.6,0,1.1,0.2,1.6,0.7c0.4,0.4,0.7,1,0.7,1.6
			c0,0.6-0.2,1.2-0.7,1.6c-0.4,0.4-1,0.7-1.6,0.7c-0.6,0-1.2-0.2-1.6-0.7c-0.4-0.5-0.7-1-0.7-1.6c0-0.6,0.2-1.2,0.7-1.6
			C408.3,631.5,408.8,631.2,409.5,631.2z M420.1,634.8L420.1,634.8c-0.2-0.4-0.3-0.8-0.3-1.2c0-0.6,0.2-1.2,0.7-1.6
			c0.4-0.5,1-0.7,1.6-0.7c0.6,0,1.1,0.2,1.6,0.7c0.4,0.4,0.7,1,0.7,1.6c0,0.6-0.2,1.2-0.7,1.6c-0.4,0.4-1,0.7-1.6,0.7
			c-0.4,0-0.8-0.1-1.2-0.4l-2.3,6.1c0.5,0.6,0.7,1.3,0.7,2.1c0,1-0.4,1.9-1.1,2.6c-0.7,0.7-1.6,1.1-2.6,1.1c-1,0-1.9-0.4-2.6-1.1
			c-0.7-0.7-1.1-1.6-1.1-2.6c0-0.9,0.3-1.7,0.9-2.4c0.6-0.7,1.3-1.1,2.2-1.2L420.1,634.8z M424.6,640.1c0.4-0.4,1-0.7,1.6-0.7
			c0.6,0,1.2,0.2,1.6,0.6c0.4,0.4,0.7,1,0.7,1.6c0,0.6-0.2,1.2-0.7,1.6c-0.4,0.4-1,0.7-1.6,0.7c-0.6,0-1.2-0.2-1.6-0.7
			c-0.4-0.4-0.7-1-0.7-1.6C423.9,641.1,424.2,640.6,424.6,640.1z"/>
		<text transform="matrix(1 0 0 1 345.6827 608.082)" fill="#727272" font-family="'HelveticaNeue-CondensedBold'" font-size="32">Dashboard</text>
		<text transform="matrix(1 0 0 1 813.6827 608.082)" fill="#727272" font-family="'HelveticaNeue-CondensedBold'" font-size="32">Contact</text>
		<path fill="#4CAF50" d="M863.6,645.5l-25-25.1h50L863.6,645.5z M838.6,628.7v25l12.5-12.5L838.6,628.7z M863.6,653.7l-8.3-8.3
			L838.6,662h50l-16.7-16.7L863.6,653.7z M876.1,641.2l12.5,12.5v-25L876.1,641.2z"/>
		<text transform="matrix(1 0 0 1 379.6017 160.6026)" fill="#727272" font-family="'HelveticaNeue-UltraLight'" font-size="49">PRE-DESIGNED MODELS</text>
		<text transform="matrix(1 0 0 1 566.8537 123.1042)" fill="#4CAF50" font-family="'HelveticaNeue-CondensedBold'" font-size="28">INTERACTIVE</text>
	</g>
</g>
<g id="nav-Modal" display="none">
	<rect display="inline" opacity="0.85" width="1280" height="800"/>
	<g id="p1" display="inline" opacity="0.85">
		
			<image overflow="visible" opacity="0.82" width="329" height="174" xlink:href="8272ABA1B130BD75.png"  transform="matrix(1 0 0 1 131 44)">
		</image>
		<g>
			<g>
				<defs>
					<rect id="home-img_17_" x="193.2" y="83.9" width="219" height="91.8"/>
				</defs>
				<use xlink:href="#home_x002D_img_17_"  overflow="visible"/>
				<clipPath id="home-img_12_">
					<use xlink:href="#home_x002D_img_17_"  overflow="visible"/>
				</clipPath>
				<g clip-path="url(#home-img_12_)">
					
						<image overflow="visible" width="2000" height="1000" xlink:href="../../../../Dropbox/Client Account Files/Sollars Home/Product Images_Rev2/Single Family Home_1.jpg"  transform="matrix(0.155 0 0 0.155 140.6249 52.2931)">
					</image>
				</g>
			</g>
		</g>
	</g>
	<g id="p2" display="inline">
		
			<image overflow="visible" opacity="0.82" width="348" height="183" xlink:href="8272ABA1B130BD76.png"  transform="matrix(1 0 0 1 469 30)">
		</image>
		<g>
			<g>
				<defs>
					<rect id="home-img_18_" x="531.5" y="83.9" width="219" height="91.8"/>
				</defs>
				<clipPath id="home-img_13_">
					<use xlink:href="#home_x002D_img_18_"  overflow="visible"/>
				</clipPath>
				<g clip-path="url(#home-img_13_)">
					
						<image overflow="visible" width="2000" height="1000" xlink:href="../../../../Dropbox/Client Account Files/Sollars Home/Product Images_Rev2/Guest House Gable Roof_After2.jpg"  transform="matrix(0.1645 0 0 0.1645 478.6307 38.4541)">
					</image>
				</g>
			</g>
		</g>
	</g>
	<g id="p3" display="inline">
		
			<image overflow="visible" opacity="0.82" width="338" height="179" xlink:href="8272ABA1B130BD7D.png"  transform="matrix(1 0 0 1 805 38)">
		</image>
		<g>
			<g>
				<defs>
					<rect id="home-img_19_" x="866.2" y="83.9" width="219" height="91.8"/>
				</defs>
				<clipPath id="home-img_14_">
					<use xlink:href="#home_x002D_img_19_"  overflow="visible"/>
				</clipPath>
				<g transform="matrix(1 0 0 1 0 -3.814697e-06)" clip-path="url(#home-img_14_)">
					
						<image overflow="visible" width="2000" height="1000" xlink:href="../../../../Dropbox/Client Account Files/Sollars Home/Product Images_Rev2/Office_Workshop_Studio_1.jpg"  transform="matrix(0.1595 0 0 0.1595 814.5215 46.6866)">
					</image>
				</g>
			</g>
		</g>
	</g>
	<g id="p4" display="inline">
		
			<image overflow="visible" opacity="0.82" width="293" height="156" xlink:href="8272ABA1B130BD7E.png"  transform="matrix(1 0 0 1 166 367)">
		</image>
		<g>
			<g>
				<defs>
					<rect id="home-img_16_" x="189.5" y="412.3" width="219" height="91.8"/>
				</defs>
				<clipPath id="home-img_15_">
					<use xlink:href="#home_x002D_img_16_"  overflow="visible"/>
				</clipPath>
				<g transform="matrix(1 0 0 1 0 -3.051758e-05)" clip-path="url(#home-img_15_)">
					
						<image overflow="visible" width="2000" height="1000" xlink:href="../../../../Dropbox/Client Account Files/Sollars Home/Product Images_Rev2/Rental Studio 16x26_1.jpg"  transform="matrix(0.1369 0 0 0.1369 175.4051 375.5319)">
					</image>
				</g>
			</g>
		</g>
	</g>
	<g id="p5" display="inline">
		
			<image overflow="visible" opacity="0.82" width="303" height="161" xlink:href="DA92CE5E9C0B6137.png"  transform="matrix(1 0 0 1 474.4059 372.4667)">
		</image>
		<g>
			<g>
				<defs>
					<rect id="home-img_21_" x="530.4" y="412.3" width="219" height="91.8"/>
				</defs>
				<clipPath id="home-img_20_">
					<use xlink:href="#home_x002D_img_21_"  overflow="visible"/>
				</clipPath>
				<g clip-path="url(#home-img_20_)">
					
						<image overflow="visible" width="2000" height="1000" xlink:href="../../../../Dropbox/Client Account Files/Sollars Home/Product Images_Rev2/3car_garage_1.jpg"  transform="matrix(0.142 0 0 0.142 483.9595 380.5055)">
					</image>
				</g>
			</g>
		</g>
	</g>
	<g id="p6" display="inline">
		
			<image overflow="visible" opacity="0.82" width="295" height="164" xlink:href="DA92CE5E9C0B6133.png"  transform="matrix(1 0 0 1 824.6166 361.9495)">
		</image>
		<g>
			<g>
				<defs>
					<rect id="home-img_23_" x="865.2" y="412.3" width="219" height="91.8"/>
				</defs>
				<clipPath id="home-img_22_">
					<use xlink:href="#home_x002D_img_23_"  overflow="visible"/>
				</clipPath>
				<g transform="matrix(1 0 0 1 0 0)" clip-path="url(#home-img_22_)">
					
						<image overflow="visible" width="4096" height="2160" xlink:href="../../../../Dropbox/Client Account Files/Sollars Home/Product Families/Pool House Product Images_rev1/Pool House Product 1/736 SF beach villa.jpg"  transform="matrix(6.723011e-02 0 0 6.723010e-02 834.5894 370.5044)">
					</image>
				</g>
			</g>
		</g>
	</g>
	<g id="Main" display="inline">
		<text transform="matrix(1 0 0 1 537.6537 37.1074)" fill="#FFFFFF" font-family="'HelveticaNeue-CondensedBold'" font-size="33">CHOSE A MODEL</text>
		<line fill="none" stroke="#FFFFFF" stroke-width="3" stroke-miterlimit="10" x1="189" y1="51.5" x2="1092" y2="51.5"/>
		<rect id="home-img" x="532.3" y="83.9" fill="none" stroke="#4CAF50" stroke-miterlimit="10" width="219" height="91.8"/>
		<rect id="home-img_1_" x="866.6" y="83.9" fill="none" stroke="#4CAF50" stroke-miterlimit="10" width="219" height="91.8"/>
		<rect id="home-img_2_" x="193.2" y="83.9" fill="none" stroke="#4CAF50" stroke-miterlimit="10" width="219" height="91.8"/>
		<g>
			
				<text transform="matrix(1 0 0 1 211.1712 220.5425)" fill="#FFFFFF" font-family="'HelveticaNeue-Medium'" font-size="28" letter-spacing="5">Product 1</text>
		</g>
		<rect x="188.3" y="236.4" fill="none" width="222.7" height="208.2"/>
		<text transform="matrix(1 0 0 1 208.0128 248.5562)"><tspan x="0" y="0" fill="#FFFFFF" font-family="'HelveticaNeue-ThinItalic'" font-size="17" letter-spacing="3">Temporibus autem </tspan><tspan x="-14.2" y="20.4" fill="#FFFFFF" font-family="'HelveticaNeue-ThinItalic'" font-size="17" letter-spacing="3">quibusdam et aut of</tspan><tspan x="191.5" y="20.4" fill="#FFFFFF" font-family="'HelveticaNeue-ThinItalic'" font-size="17" letter-spacing="3">-</tspan><tspan x="9.7" y="40.8" fill="#FFFFFF" font-family="'HelveticaNeue-ThinItalic'" font-size="17" letter-spacing="3">ficiis debitis aut </tspan><tspan x="-13.4" y="61.2" fill="#FFFFFF" font-family="'HelveticaNeue-ThinItalic'" font-size="17" letter-spacing="3">rerum necessitatibus </tspan><tspan x="-5.9" y="81.6" fill="#FFFFFF" font-family="'HelveticaNeue-ThinItalic'" font-size="17" letter-spacing="3">saepe eveniet ut et </tspan><tspan x="36.5" y="102" fill="#FFFFFF" font-family="'HelveticaNeue-ThinItalic'" font-size="17" letter-spacing="3">voluptates.</tspan><tspan x="-19.7" y="142.8" fill="#FFFFFF" font-family="'HelveticaNeue'" font-size="17" letter-spacing="3">Go to</tspan></text>
		<path fill="#4CAF50" d="M392.3,373.4c2.3,0,4.3,0.6,6.3,1.7c1.9,1.1,3.4,2.6,4.5,4.6c1.1,1.9,1.7,4,1.7,6.3c0,2.3-0.6,4.3-1.7,6.3
			c-1.1,1.9-2.6,3.4-4.5,4.5c-1.9,1.1-4,1.7-6.3,1.7c-2.3,0-4.4-0.6-6.3-1.7c-1.9-1.1-3.4-2.6-4.6-4.5c-1.1-1.9-1.7-4-1.7-6.3
			c0-1.7,0.3-3.3,1-4.9c0.7-1.5,1.6-2.9,2.7-4c1.1-1.1,2.4-2,4-2.7C389,373.7,390.6,373.4,392.3,373.4z M392.2,383.7h-6.2v4.2h6.3
			l0,4.1l8.4-6.2l-8.4-6.2V383.7z"/>
		<rect id="home-img_3_" x="189.5" y="412.3" fill="none" stroke="#4CAF50" stroke-miterlimit="10" width="219" height="91.8"/>
		<g>
			
				<text transform="matrix(1 0 0 1 212.1518 554.0092)" fill="#FFFFFF" font-family="'HelveticaNeue-Medium'" font-size="28" letter-spacing="5">Product 4</text>
		</g>
		<g>
			<rect x="189" y="569.9" fill="none" width="222.7" height="208.2"/>
			<text transform="matrix(1 0 0 1 208.7187 582.0228)"><tspan x="0" y="0" fill="#FFFFFF" font-family="'HelveticaNeue-ThinItalic'" font-size="17" letter-spacing="3">Temporibus autem </tspan><tspan x="-14.2" y="20.4" fill="#FFFFFF" font-family="'HelveticaNeue-ThinItalic'" font-size="17" letter-spacing="3">quibusdam et aut of</tspan><tspan x="191.5" y="20.4" fill="#FFFFFF" font-family="'HelveticaNeue-ThinItalic'" font-size="17" letter-spacing="3">-</tspan><tspan x="9.7" y="40.8" fill="#FFFFFF" font-family="'HelveticaNeue-ThinItalic'" font-size="17" letter-spacing="3">ficiis debitis aut </tspan><tspan x="-13.4" y="61.2" fill="#FFFFFF" font-family="'HelveticaNeue-ThinItalic'" font-size="17" letter-spacing="3">rerum necessitatibus </tspan><tspan x="-5.9" y="81.6" fill="#FFFFFF" font-family="'HelveticaNeue-ThinItalic'" font-size="17" letter-spacing="3">saepe eveniet ut et </tspan><tspan x="36.5" y="102" fill="#FFFFFF" font-family="'HelveticaNeue-ThinItalic'" font-size="17" letter-spacing="3">voluptates.</tspan><tspan x="-19.7" y="142.8" fill="#FFFFFF" font-family="'HelveticaNeue-ThinItalic'" font-size="17" letter-spacing="3">Go to</tspan></text>
		</g>
		<path fill="#4CAF50" d="M392.3,707.9c2.3,0,4.3,0.6,6.3,1.7c1.9,1.1,3.4,2.6,4.5,4.6c1.1,1.9,1.7,4,1.7,6.3c0,2.3-0.6,4.3-1.7,6.3
			c-1.1,1.9-2.6,3.4-4.5,4.5c-1.9,1.1-4,1.7-6.3,1.7c-2.3,0-4.4-0.6-6.3-1.7c-1.9-1.1-3.4-2.6-4.6-4.5c-1.1-1.9-1.7-4-1.7-6.3
			c0-1.7,0.3-3.3,1-4.9c0.7-1.5,1.6-2.9,2.7-4c1.1-1.1,2.4-2,4-2.7C389,708.2,390.6,707.9,392.3,707.9z M392.2,718.2h-6.2v4.2h6.3
			l0,4.1l8.4-6.2l-8.4-6.2V718.2z"/>
		<rect id="home-img_4_" x="529.7" y="412.3" fill="none" stroke="#4CAF50" stroke-miterlimit="10" width="219" height="91.8"/>
		<g>
			
				<text transform="matrix(1 0 0 1 552.3295 554.0092)" fill="#FFFFFF" font-family="'HelveticaNeue-Medium'" font-size="28" letter-spacing="5">Product 5</text>
		</g>
		<g>
			<rect x="529.2" y="569.9" fill="none" width="222.7" height="208.2"/>
			<text transform="matrix(1 0 0 1 548.8964 582.0228)"><tspan x="0" y="0" fill="#FFFFFF" font-family="'HelveticaNeue-ThinItalic'" font-size="17" letter-spacing="3">Temporibus autem </tspan><tspan x="-14.2" y="20.4" fill="#FFFFFF" font-family="'HelveticaNeue-ThinItalic'" font-size="17" letter-spacing="3">quibusdam et aut of</tspan><tspan x="191.5" y="20.4" fill="#FFFFFF" font-family="'HelveticaNeue-ThinItalic'" font-size="17" letter-spacing="3">-</tspan><tspan x="9.7" y="40.8" fill="#FFFFFF" font-family="'HelveticaNeue-ThinItalic'" font-size="17" letter-spacing="3">ficiis debitis aut </tspan><tspan x="-13.4" y="61.2" fill="#FFFFFF" font-family="'HelveticaNeue-ThinItalic'" font-size="17" letter-spacing="3">rerum necessitatibus </tspan><tspan x="-5.9" y="81.6" fill="#FFFFFF" font-family="'HelveticaNeue-ThinItalic'" font-size="17" letter-spacing="3">saepe eveniet ut et </tspan><tspan x="36.5" y="102" fill="#FFFFFF" font-family="'HelveticaNeue-ThinItalic'" font-size="17" letter-spacing="3">voluptates.</tspan><tspan x="-19.7" y="142.8" fill="#FFFFFF" font-family="'HelveticaNeue-ThinItalic'" font-size="17" letter-spacing="3">Go to</tspan></text>
		</g>
		<path fill="#4CAF50" d="M732.9,707.9c2.3,0,4.3,0.6,6.3,1.7c1.9,1.1,3.4,2.6,4.5,4.6c1.1,1.9,1.7,4,1.7,6.3c0,2.3-0.6,4.3-1.7,6.3
			c-1.1,1.9-2.6,3.4-4.5,4.5c-1.9,1.1-4,1.7-6.3,1.7c-2.3,0-4.4-0.6-6.3-1.7c-1.9-1.1-3.4-2.6-4.6-4.5s-1.7-4-1.7-6.3
			c0-1.7,0.3-3.3,1-4.9c0.7-1.5,1.6-2.9,2.7-4c1.1-1.1,2.4-2,4-2.7C729.6,708.2,731.2,707.9,732.9,707.9z M732.8,718.2h-6.2v4.2h6.3
			l0,4.1l8.4-6.2l-8.4-6.2V718.2z"/>
		<rect id="home-img_5_" x="865.2" y="412.3" fill="none" stroke="#4CAF50" stroke-miterlimit="10" width="219" height="91.8"/>
		<g>
			
				<text transform="matrix(1 0 0 1 887.616 554.0092)" fill="#FFFFFF" font-family="'HelveticaNeue-Medium'" font-size="28" letter-spacing="5">Product 6</text>
		</g>
		<g>
			<rect x="864.9" y="569.9" fill="none" width="222.7" height="208.2"/>
			<text transform="matrix(1 0 0 1 884.665 582.0228)"><tspan x="0" y="0" fill="#FFFFFF" font-family="'HelveticaNeue-ThinItalic'" font-size="17" letter-spacing="3">Temporibus autem </tspan><tspan x="-14.2" y="20.4" fill="#FFFFFF" font-family="'HelveticaNeue-ThinItalic'" font-size="17" letter-spacing="3">quibusdam et aut of</tspan><tspan x="191.5" y="20.4" fill="#FFFFFF" font-family="'HelveticaNeue-ThinItalic'" font-size="17" letter-spacing="3">-</tspan><tspan x="9.7" y="40.8" fill="#FFFFFF" font-family="'HelveticaNeue-ThinItalic'" font-size="17" letter-spacing="3">ficiis debitis aut </tspan><tspan x="-13.4" y="61.2" fill="#FFFFFF" font-family="'HelveticaNeue-ThinItalic'" font-size="17" letter-spacing="3">rerum necessitatibus </tspan><tspan x="-5.9" y="81.6" fill="#FFFFFF" font-family="'HelveticaNeue-ThinItalic'" font-size="17" letter-spacing="3">saepe eveniet ut et </tspan><tspan x="36.5" y="102" fill="#FFFFFF" font-family="'HelveticaNeue-ThinItalic'" font-size="17" letter-spacing="3">voluptates.</tspan><tspan x="-19.7" y="142.8" fill="#FFFFFF" font-family="'HelveticaNeue-ThinItalic'" font-size="17" letter-spacing="3">Go to</tspan></text>
		</g>
		<path fill="#4CAF50" d="M1064,707.9c2.3,0,4.3,0.6,6.3,1.7c1.9,1.1,3.4,2.6,4.5,4.6c1.1,1.9,1.7,4,1.7,6.3c0,2.3-0.6,4.3-1.7,6.3
			c-1.1,1.9-2.6,3.4-4.5,4.5c-1.9,1.1-4,1.7-6.3,1.7c-2.3,0-4.4-0.6-6.3-1.7c-1.9-1.1-3.4-2.6-4.6-4.5c-1.1-1.9-1.7-4-1.7-6.3
			c0-1.7,0.3-3.3,1-4.9c0.7-1.5,1.6-2.9,2.7-4c1.1-1.1,2.4-2,4-2.7C1060.7,708.2,1062.3,707.9,1064,707.9z M1063.9,718.2h-6.2v4.2
			h6.3l0,4.1l8.4-6.2l-8.4-6.2V718.2z"/>
		<g>
			
				<text transform="matrix(1 0 0 1 550.6581 217.3953)" fill="#FFFFFF" font-family="'HelveticaNeue-Medium'" font-size="28" letter-spacing="5">Product 2</text>
		</g>
		<g>
			<rect x="528" y="233.3" fill="none" width="222.7" height="208.2"/>
			<text transform="matrix(1 0 0 1 547.7069 245.4089)"><tspan x="0" y="0" fill="#FFFFFF" font-family="'HelveticaNeue-ThinItalic'" font-size="17" letter-spacing="3">Temporibus autem </tspan><tspan x="-14.2" y="20.4" fill="#FFFFFF" font-family="'HelveticaNeue-ThinItalic'" font-size="17" letter-spacing="3">quibusdam et aut of</tspan><tspan x="191.5" y="20.4" fill="#FFFFFF" font-family="'HelveticaNeue-ThinItalic'" font-size="17" letter-spacing="3">-</tspan><tspan x="9.7" y="40.8" fill="#FFFFFF" font-family="'HelveticaNeue-ThinItalic'" font-size="17" letter-spacing="3">ficiis debitis aut </tspan><tspan x="-13.4" y="61.2" fill="#FFFFFF" font-family="'HelveticaNeue-ThinItalic'" font-size="17" letter-spacing="3">rerum necessitatibus </tspan><tspan x="-5.9" y="81.6" fill="#FFFFFF" font-family="'HelveticaNeue-ThinItalic'" font-size="17" letter-spacing="3">saepe eveniet ut et </tspan><tspan x="36.5" y="102" fill="#FFFFFF" font-family="'HelveticaNeue-ThinItalic'" font-size="17" letter-spacing="3">voluptates.</tspan><tspan x="-19.7" y="142.8" fill="#FFFFFF" font-family="'HelveticaNeue-ThinItalic'" font-size="17" letter-spacing="3">Go to</tspan></text>
		</g>
		<path fill="#4CAF50" d="M732.9,371.3c2.3,0,4.3,0.6,6.3,1.7c1.9,1.1,3.4,2.6,4.5,4.6c1.1,1.9,1.7,4,1.7,6.3c0,2.3-0.6,4.3-1.7,6.3
			c-1.1,1.9-2.6,3.4-4.5,4.5c-1.9,1.1-4,1.7-6.3,1.7c-2.3,0-4.4-0.6-6.3-1.7c-1.9-1.1-3.4-2.6-4.6-4.5s-1.7-4-1.7-6.3
			c0-1.7,0.3-3.3,1-4.9c0.7-1.5,1.6-2.9,2.7-4c1.1-1.1,2.4-2,4-2.7C729.6,371.6,731.2,371.3,732.9,371.3z M732.8,381.6h-6.2v4.2h6.3
			l0,4.1l8.4-6.2l-8.4-6.2V381.6z"/>
		<g>
			
				<text transform="matrix(1 0 0 1 890.3289 216.4573)" fill="#FFFFFF" font-family="'HelveticaNeue-Medium'" font-size="28" letter-spacing="5">Product 3</text>
		</g>
		<g>
			<rect x="867.7" y="232.3" fill="none" width="222.7" height="208.2"/>
			<text transform="matrix(1 0 0 1 887.3776 244.4709)"><tspan x="0" y="0" fill="#FFFFFF" font-family="'HelveticaNeue-ThinItalic'" font-size="17" letter-spacing="3">Temporibus autem </tspan><tspan x="-14.2" y="20.4" fill="#FFFFFF" font-family="'HelveticaNeue-ThinItalic'" font-size="17" letter-spacing="3">quibusdam et aut of</tspan><tspan x="191.5" y="20.4" fill="#FFFFFF" font-family="'HelveticaNeue-ThinItalic'" font-size="17" letter-spacing="3">-</tspan><tspan x="9.7" y="40.8" fill="#FFFFFF" font-family="'HelveticaNeue-ThinItalic'" font-size="17" letter-spacing="3">ficiis debitis aut </tspan><tspan x="-13.4" y="61.2" fill="#FFFFFF" font-family="'HelveticaNeue-ThinItalic'" font-size="17" letter-spacing="3">rerum necessitatibus </tspan><tspan x="-5.9" y="81.6" fill="#FFFFFF" font-family="'HelveticaNeue-ThinItalic'" font-size="17" letter-spacing="3">saepe eveniet ut et </tspan><tspan x="36.5" y="102" fill="#FFFFFF" font-family="'HelveticaNeue-ThinItalic'" font-size="17" letter-spacing="3">voluptates.</tspan><tspan x="-19.7" y="142.8" fill="#FFFFFF" font-family="'HelveticaNeue-ThinItalic'" font-size="17" letter-spacing="3">Go to</tspan></text>
		</g>
		<path fill="#4CAF50" d="M1064,370.3c2.3,0,4.3,0.6,6.3,1.7c1.9,1.1,3.4,2.6,4.5,4.6c1.1,1.9,1.7,4,1.7,6.3c0,2.3-0.6,4.3-1.7,6.3
			c-1.1,1.9-2.6,3.4-4.5,4.5c-1.9,1.1-4,1.7-6.3,1.7c-2.3,0-4.4-0.6-6.3-1.7c-1.9-1.1-3.4-2.6-4.6-4.5c-1.1-1.9-1.7-4-1.7-6.3
			c0-1.7,0.3-3.3,1-4.9c0.7-1.5,1.6-2.9,2.7-4c1.1-1.1,2.4-2,4-2.7C1060.7,370.6,1062.3,370.3,1064,370.3z M1063.9,380.6h-6.2v4.2
			h6.3l0,4.1l8.4-6.2l-8.4-6.2V380.6z"/>
		<linearGradient id="SVGID_4_" gradientUnits="userSpaceOnUse" x1="1047.3956" y1="35.9544" x2="1070.676" y2="12.674">
			<stop  offset="0" style="stop-color:#CCCCCC"/>
			<stop  offset="1" style="stop-color:#FFFFFF"/>
		</linearGradient>
		<path fill="url(#SVGID_4_)" d="M1067.5,39.1l-8.5-8.5l-8.5,8.5l-6.4-6.4l8.5-8.5l-8.5-8.5l6.4-6.4l8.5,8.5l8.5-8.5l6.4,6.4
			l-8.5,8.5l8.5,8.5L1067.5,39.1z"/>
	</g>
</g>
<g id="Dashboard">
	<linearGradient id="SVGID_5_" gradientUnits="userSpaceOnUse" x1="120.5" y1="918" x2="1160.5" y2="-122">
		<stop  offset="0" style="stop-color:#000000"/>
		<stop  offset="1" style="stop-color:#1E1E1E"/>
	</linearGradient>
	<rect x="0.5" y="-2" opacity="0.92" fill="url(#SVGID_5_)" width="1280" height="800"/>
	<rect x="2" fill="none" stroke="#298EFD" stroke-miterlimit="10" width="244.2" height="797"/>
	<rect x="248.2" y="691.3" fill="none" stroke="#298EFD" stroke-miterlimit="10" width="451" height="106.7"/>
	<rect x="701" y="691.3" fill="none" stroke="#298EFD" stroke-miterlimit="10" width="576.5" height="106.7"/>
	<text transform="matrix(1 0 0 1 31 71)" fill="#F2F2F2" font-family="'HelveticaNeue-Medium'" font-size="19">BASE HOME PRICE</text>
	<g>
		<path fill="#F2F2F2" d="M282.7,730.2l2.6,12.6h0l2.6-12.6h5.3V748h-3.3v-14.2h0l-3.2,14.2h-2.8l-3.2-14.2h0V748h-3.3v-17.8H282.7z
			"/>
		<path fill="#F2F2F2" d="M295.6,735.3c0.1-1.1,0.4-2.1,0.8-2.9c0.4-0.8,1-1.5,1.8-1.9c0.8-0.5,1.9-0.7,3.2-0.7
			c1.3,0,2.4,0.2,3.2,0.7c0.8,0.5,1.4,1.1,1.8,1.9c0.4,0.8,0.7,1.8,0.8,2.9s0.2,2.4,0.2,3.7c0,1.4-0.1,2.6-0.2,3.8s-0.4,2.1-0.8,2.9
			c-0.4,0.8-1,1.4-1.8,1.9c-0.8,0.4-1.9,0.7-3.2,0.7c-1.4,0-2.4-0.2-3.2-0.7c-0.8-0.4-1.4-1.1-1.8-1.9c-0.4-0.8-0.7-1.8-0.8-2.9
			s-0.2-2.4-0.2-3.8C295.4,737.7,295.4,736.5,295.6,735.3z M299.1,742.1c0.1,0.8,0.2,1.5,0.4,2c0.2,0.5,0.4,0.9,0.8,1.2
			c0.3,0.2,0.8,0.4,1.3,0.4c0.5,0,1-0.1,1.3-0.4c0.3-0.2,0.6-0.6,0.8-1.2c0.2-0.5,0.3-1.2,0.4-2c0.1-0.8,0.1-1.9,0.1-3.1
			s0-2.2-0.1-3c-0.1-0.8-0.2-1.5-0.4-2.1c-0.2-0.5-0.4-0.9-0.8-1.2c-0.3-0.2-0.8-0.4-1.3-0.4c-0.5,0-1,0.1-1.3,0.4
			c-0.3,0.2-0.6,0.6-0.8,1.2c-0.2,0.5-0.3,1.2-0.4,2.1c-0.1,0.8-0.1,1.8-0.1,3S299,741.3,299.1,742.1z"/>
		<path fill="#F2F2F2" d="M315.7,730.2c1.2,0,2.3,0.2,3,0.6c0.8,0.4,1.4,1,1.8,1.8c0.4,0.8,0.7,1.7,0.9,2.7s0.2,2.3,0.2,3.6
			c0,1.6-0.1,2.9-0.3,4.1c-0.2,1.2-0.5,2.1-1,2.9c-0.5,0.8-1.1,1.3-1.9,1.7c-0.8,0.4-1.8,0.5-3,0.5h-5.7v-17.8H315.7z M315,745.3
			c0.6,0,1.1-0.1,1.5-0.3s0.7-0.6,0.9-1.1s0.4-1.2,0.5-2c0.1-0.8,0.1-1.8,0.1-3c0-1,0-1.9-0.1-2.7c-0.1-0.8-0.2-1.4-0.4-1.9
			c-0.2-0.5-0.5-0.9-0.9-1.2c-0.4-0.3-1-0.4-1.6-0.4h-1.5v12.5H315z"/>
		<path fill="#F2F2F2" d="M334,733.1h-6.4v4.2h6v3h-6v4.8h6.6v3H324v-17.8h10V733.1z"/>
		<path fill="#F2F2F2" d="M336,730.2h3.6V745h6.4v3h-10V730.2z"/>
	</g>
	<g>
		<path fill="#FFFFFF" d="M288.2,755.2c0-0.8-0.2-1.4-0.5-2s-0.7-1-1.2-1.4s-1.1-0.7-1.8-0.9c-0.7-0.2-1.4-0.3-2.3-0.3
			c-0.5,0-1,0.1-1.6,0.2c-0.6,0.1-1.1,0.3-1.6,0.6c-0.5,0.3-0.9,0.7-1.2,1.2c-0.3,0.5-0.5,1.1-0.5,1.8c0,0.7,0.2,1.3,0.5,1.8
			c0.4,0.5,0.8,0.8,1.4,1.1c0.6,0.3,1.2,0.5,2,0.7c0.7,0.2,1.5,0.3,2.2,0.5c0.8,0.1,1.5,0.3,2.2,0.5c0.7,0.2,1.4,0.5,1.9,0.9
			c0.6,0.4,1,0.8,1.4,1.4s0.5,1.3,0.5,2.2c0,0.9-0.2,1.7-0.6,2.3c-0.4,0.6-0.9,1.2-1.5,1.5c-0.6,0.4-1.3,0.7-2,0.9
			c-0.7,0.2-1.5,0.3-2.1,0.3c-1,0-2-0.1-3-0.3c-0.9-0.2-1.7-0.6-2.4-1.1c-0.7-0.5-1.2-1.2-1.6-2c-0.4-0.8-0.6-1.8-0.6-2.9h1.1
			c-0.1,1,0.1,1.8,0.4,2.5c0.3,0.7,0.8,1.2,1.4,1.7c0.6,0.4,1.3,0.7,2.1,0.9c0.8,0.2,1.6,0.3,2.5,0.3c0.5,0,1.1-0.1,1.7-0.2
			c0.6-0.1,1.2-0.4,1.7-0.7c0.5-0.3,0.9-0.7,1.3-1.2c0.3-0.5,0.5-1.2,0.5-1.9c0-0.8-0.2-1.4-0.5-1.8s-0.8-0.9-1.4-1.2
			c-0.6-0.3-1.2-0.5-2-0.7c-0.7-0.2-1.5-0.3-2.2-0.5c-0.8-0.1-1.5-0.3-2.2-0.5c-0.7-0.2-1.4-0.5-2-0.8c-0.6-0.3-1-0.8-1.4-1.3
			c-0.4-0.5-0.5-1.2-0.5-2.1c0-0.8,0.2-1.6,0.5-2.2c0.4-0.6,0.8-1.1,1.4-1.5s1.2-0.7,1.9-0.8c0.7-0.2,1.4-0.3,2.1-0.3
			c0.9,0,1.8,0.1,2.6,0.3c0.8,0.2,1.5,0.5,2.1,1s1.1,1,1.5,1.7c0.4,0.7,0.6,1.5,0.6,2.5H288.2z"/>
		<path fill="#FFFFFF" d="M292.3,750.2h1.1V768h-1.1V750.2z"/>
		<path fill="#FFFFFF" d="M296.6,750.2h1.4l11.3,16.4h0v-16.4h1.1V768h-1.3l-11.4-16.5h-0.1V768h-1.1V750.2z"/>
		<path fill="#FFFFFF" d="M312.9,759.2c0-1.3,0.2-2.5,0.6-3.6s0.9-2.1,1.6-3c0.7-0.9,1.6-1.6,2.6-2.1c1-0.5,2.2-0.8,3.6-0.8
			c0.9,0,1.8,0.1,2.6,0.4c0.8,0.3,1.6,0.7,2.2,1.2c0.7,0.5,1.2,1.1,1.7,1.9s0.8,1.6,0.9,2.5h-1c-0.4-1.6-1.2-2.8-2.2-3.7
			c-1.1-0.9-2.5-1.3-4.1-1.3c-1.2,0-2.3,0.2-3.2,0.7c-0.9,0.5-1.7,1.1-2.3,1.9s-1.1,1.7-1.4,2.7c-0.3,1-0.5,2.1-0.5,3.2
			c0,1.1,0.2,2.2,0.5,3.2s0.8,1.9,1.4,2.6s1.4,1.3,2.3,1.8s2,0.7,3.2,0.7c1.1,0,2-0.2,2.9-0.5c0.9-0.4,1.6-0.8,2.2-1.5
			c0.6-0.6,1-1.4,1.3-2.3s0.4-1.9,0.4-3h-6.6v-1h7.5v8.8h-1v-3.8h0c-0.2,0.6-0.5,1.2-1,1.8c-0.4,0.5-0.9,1-1.5,1.3
			c-0.6,0.4-1.2,0.6-2,0.8s-1.5,0.3-2.3,0.3c-1.4,0-2.5-0.2-3.6-0.7s-1.9-1.1-2.6-2c-0.7-0.8-1.3-1.8-1.6-2.9
			C313.1,761.7,312.9,760.5,312.9,759.2z"/>
		<path fill="#FFFFFF" d="M332,750.2h1.1V767h10.1v1H332V750.2z"/>
		<path fill="#FFFFFF" d="M344.5,750.2h12v0.9h-10.9v7.2h10.2v1h-10.2v7.8h11v1h-12.1V750.2z"/>
		<path fill="#FFFFFF" d="M365.5,750.2h11.2v0.9h-10.1v7.2h9.1v1h-9.1v8.8h-1.1V750.2z"/>
		<path fill="#FFFFFF" d="M382.3,750.2h1.2l7,17.8h-1.2l-2.2-5.7h-8.6l-2.3,5.7h-1.2L382.3,750.2z M386.8,761.3l-3.8-10.1h0l-4,10.1
			H386.8z"/>
		<path fill="#FFFFFF" d="M391.8,750.2h1.6l7,16.6h0l6.9-16.6h1.6V768h-1.1v-16.5h0l-6.8,16.5h-1.1l-6.9-16.5h-0.1V768h-1.1V750.2z"
			/>
		<path fill="#FFFFFF" d="M412,750.2h1.1V768H412V750.2z"/>
		<path fill="#FFFFFF" d="M416.3,750.2h1.1V767h10.1v1h-11.2V750.2z"/>
		<path fill="#FFFFFF" d="M438.4,750.2h1.2l-7.2,10.4v7.5h-1.1v-7.5l-7.1-10.4h1.2l6.4,9.4L438.4,750.2z"/>
		<path fill="#FFFFFF" d="M447.6,750.2h1.1v8.1h11.4v-8.1h1.1V768h-1.1v-8.8h-11.4v8.8h-1.1V750.2z"/>
		<path fill="#FFFFFF" d="M480.5,759.1c0,1.3-0.2,2.5-0.6,3.7s-0.9,2.1-1.7,3c-0.7,0.8-1.6,1.5-2.7,2c-1.1,0.5-2.2,0.7-3.6,0.7
			s-2.5-0.2-3.6-0.7c-1.1-0.5-2-1.1-2.7-2c-0.7-0.8-1.3-1.8-1.7-3c-0.4-1.1-0.6-2.4-0.6-3.7s0.2-2.5,0.6-3.7c0.4-1.1,0.9-2.1,1.7-3
			c0.7-0.8,1.6-1.5,2.7-2c1.1-0.5,2.3-0.7,3.6-0.7s2.5,0.2,3.6,0.7c1,0.5,1.9,1.1,2.7,2c0.7,0.8,1.3,1.8,1.7,3
			C480.3,756.6,480.5,757.8,480.5,759.1z M464.6,759.1c0,1.1,0.2,2.2,0.5,3.2c0.3,1,0.8,1.9,1.5,2.7c0.6,0.8,1.4,1.4,2.3,1.8
			s2,0.7,3.1,0.7s2.2-0.2,3.1-0.7c0.9-0.5,1.7-1.1,2.3-1.8c0.6-0.8,1.1-1.6,1.4-2.7s0.5-2.1,0.5-3.2c0-1.2-0.2-2.2-0.5-3.2
			s-0.8-1.9-1.4-2.7c-0.6-0.8-1.4-1.4-2.3-1.8c-0.9-0.4-1.9-0.7-3.1-0.7s-2.2,0.2-3.1,0.7c-0.9,0.5-1.7,1.1-2.3,1.8
			c-0.6,0.8-1.1,1.6-1.5,2.7C464.8,756.8,464.6,757.9,464.6,759.1z"/>
		<path fill="#FFFFFF" d="M482.9,750.2h1.6l7,16.6h0l6.9-16.6h1.6V768h-1.1v-16.5h0L492,768h-1.1l-6.9-16.5H484V768h-1.1V750.2z"/>
		<path fill="#FFFFFF" d="M503.1,750.2h12v0.9h-10.9v7.2h10.2v1h-10.2v7.8h11v1h-12.1V750.2z"/>
		<path fill="#FFFFFF" d="M528.7,755.2c0-0.8-0.2-1.4-0.5-2s-0.7-1-1.2-1.4s-1.1-0.7-1.8-0.9c-0.7-0.2-1.4-0.3-2.3-0.3
			c-0.5,0-1,0.1-1.6,0.2c-0.6,0.1-1.1,0.3-1.6,0.6c-0.5,0.3-0.9,0.7-1.2,1.2c-0.3,0.5-0.5,1.1-0.5,1.8c0,0.7,0.2,1.3,0.5,1.8
			c0.4,0.5,0.8,0.8,1.4,1.1c0.6,0.3,1.2,0.5,2,0.7c0.7,0.2,1.5,0.3,2.2,0.5c0.8,0.1,1.5,0.3,2.2,0.5c0.7,0.2,1.4,0.5,1.9,0.9
			c0.6,0.4,1,0.8,1.4,1.4s0.5,1.3,0.5,2.2c0,0.9-0.2,1.7-0.6,2.3c-0.4,0.6-0.9,1.2-1.5,1.5c-0.6,0.4-1.3,0.7-2,0.9
			c-0.7,0.2-1.5,0.3-2.1,0.3c-1,0-2-0.1-3-0.3c-0.9-0.2-1.7-0.6-2.4-1.1c-0.7-0.5-1.2-1.2-1.6-2c-0.4-0.8-0.6-1.8-0.6-2.9h1.1
			c-0.1,1,0.1,1.8,0.4,2.5c0.3,0.7,0.8,1.2,1.4,1.7c0.6,0.4,1.3,0.7,2.1,0.9c0.8,0.2,1.6,0.3,2.5,0.3c0.5,0,1.1-0.1,1.7-0.2
			c0.6-0.1,1.2-0.4,1.7-0.7c0.5-0.3,0.9-0.7,1.3-1.2c0.3-0.5,0.5-1.2,0.5-1.9c0-0.8-0.2-1.4-0.5-1.8s-0.8-0.9-1.4-1.2
			c-0.6-0.3-1.2-0.5-2-0.7c-0.7-0.2-1.5-0.3-2.2-0.5c-0.8-0.1-1.5-0.3-2.2-0.5c-0.7-0.2-1.4-0.5-2-0.8c-0.6-0.3-1-0.8-1.4-1.3
			c-0.4-0.5-0.5-1.2-0.5-2.1c0-0.8,0.2-1.6,0.5-2.2c0.4-0.6,0.8-1.1,1.4-1.5s1.2-0.7,1.9-0.8c0.7-0.2,1.4-0.3,2.1-0.3
			c0.9,0,1.8,0.1,2.6,0.3c0.8,0.2,1.5,0.5,2.1,1s1.1,1,1.5,1.7c0.4,0.7,0.6,1.5,0.6,2.5H528.7z"/>
	</g>
	<text transform="matrix(1 0 0 1 277 95)"><tspan x="0" y="0" fill="#F2F2F2" font-family="'HelveticaNeue-CondensedBold'" font-size="42">DESIGN &amp; </tspan><tspan x="0" y="36" fill="#F2F2F2" font-family="'HelveticaNeue-CondensedBold'" font-size="42">ENGINEERING</tspan></text>
	<line fill="none" stroke="#298EFD" stroke-width="2" stroke-miterlimit="10" x1="277" y1="138" x2="499" y2="138"/>
	<linearGradient id="SVGID_6_" gradientUnits="userSpaceOnUse" x1="1183.1893" y1="47.1544" x2="1206.4697" y2="23.874">
		<stop  offset="0" style="stop-color:#CCCCCC"/>
		<stop  offset="1" style="stop-color:#FFFFFF"/>
	</linearGradient>
	<path fill="url(#SVGID_6_)" d="M1203.3,50.3l-8.5-8.5l-8.5,8.5L1180,44l8.5-8.5l-8.5-8.5l6.4-6.4l8.5,8.5l8.5-8.5l6.4,6.4l-8.5,8.5
		l8.5,8.5L1203.3,50.3z"/>
	<text transform="matrix(1 0 0 1 389 226)" fill="#FFFFFF" font-family="'HelveticaNeue-Medium'" font-size="33">Plans</text>
	<rect x="389" y="244" fill="none" width="583" height="66"/>
	<text transform="matrix(1 0 0 1 389 261.1357)"><tspan x="0" y="0" fill="#F2F2F2" font-family="'HelveticaNeue'" font-size="24">The base plans allows you to receive one of our </tspan><tspan x="0" y="26" fill="#F2F2F2" font-family="'HelveticaNeue'" font-size="24">pre-designed models designed to your site. </tspan></text>
	<path fill="none" stroke="#F2F2F2" stroke-miterlimit="10" d="M456.4,367.5h-39.8c-0.6,0-1.1-0.5-1.1-1.1v-39.8
		c0-0.6,0.5-1.1,1.1-1.1h39.8c0.6,0,1.1,0.5,1.1,1.1v39.8C457.5,367,457,367.5,456.4,367.5z"/>
	<text transform="matrix(1 0 0 1 481 354.9561)" fill="#F2F2F2" font-family="'HelveticaNeue'" font-size="24">BASE</text>
	<path fill="none" stroke="#F2F2F2" stroke-miterlimit="10" d="M456.4,451.8h-39.8c-0.6,0-1.1-0.5-1.1-1.1v-39.8
		c0-0.6,0.5-1.1,1.1-1.1h39.8c0.6,0,1.1,0.5,1.1,1.1v39.8C457.5,451.3,457,451.8,456.4,451.8z"/>
	<text transform="matrix(1 0 0 1 481 438.4121)" fill="#F2F2F2" font-family="'HelveticaNeue'" font-size="24">CUSTOM</text>
	<path fill="none" stroke="#F2F2F2" stroke-miterlimit="10" d="M456.3,536.1h-39.8c-0.6,0-1.1-0.5-1.1-1.1v-39.8
		c0-0.6,0.5-1.1,1.1-1.1h39.8c0.6,0,1.1,0.5,1.1,1.1V535C457.4,535.6,456.9,536.1,456.3,536.1z"/>
	<text transform="matrix(1 0 0 1 480.9999 527.4561)" fill="#F2F2F2" font-family="'HelveticaNeue-Medium'" font-size="24">SURVEYOR</text>
	<path fill="none" stroke="#F2F2F2" stroke-miterlimit="10" d="M457.9,620.4h-39.8c-0.6,0-1.1-0.5-1.1-1.1v-39.8
		c0-0.6,0.5-1.1,1.1-1.1h39.8c0.6,0,1.1,0.5,1.1,1.1v39.8C459,619.9,458.5,620.4,457.9,620.4z"/>
	<text transform="matrix(1 0 0 1 481 612.8207)" fill="#F2F2F2" font-family="'HelveticaNeue-Medium'" font-size="24">GEO TECHNICAL ENGINEERING</text>
	<path fill="#29E918" d="M417.8,433.7l6.4-6.4l6.2,6.2l18.2-18.2l6.4,6.4l-24.5,24.6L417.8,433.7z"/>
	<path fill="#15477F" stroke="#1F6BBE" stroke-miterlimit="10" d="M757.6,717.7l-6.8,6.8l-10.5-10.6l-10.6,10.6l-6.8-6.8l17.4-17.3
		L757.6,717.7z"/>
	<text transform="matrix(1 0 0 1 864.9996 766.6667)" fill="#F2F2F2" font-family="'HelveticaNeue-Medium'" font-size="24">Total</text>
	<text transform="matrix(1 0 0 1 1028 766)" fill="#F2F2F2" font-family="'HelveticaNeue-Medium'" font-size="35">$133,424.07</text>
	<linearGradient id="SVGID_7_" gradientUnits="userSpaceOnUse" x1="1107.3387" y1="35.5142" x2="1140.3387" y2="35.5142">
		<stop  offset="0" style="stop-color:#CCCCCC"/>
		<stop  offset="1" style="stop-color:#FFFFFF"/>
	</linearGradient>
	<path fill="url(#SVGID_7_)" d="M1140.3,25v25.5c0,0.4-0.2,0.8-0.5,1.1c-0.3,0.3-0.6,0.4-1,0.4h-4.5V40h-21v12h-4.5
		c-0.4,0-0.8-0.1-1.1-0.4c-0.3-0.3-0.4-0.6-0.4-1.1v-30c0-0.4,0.1-0.8,0.4-1.1c0.3-0.3,0.6-0.4,1.1-0.4h7.5v9h15v-9h3L1140.3,25z
		 M1128.3,19h-3v6h3V19z"/>
	<text transform="matrix(1 0 0 1 1046.3387 42.9537)" fill="#F2F2F2" font-family="'HelveticaNeue-Medium'" font-size="24">save</text>
	<text transform="matrix(1 0 0 1 30.5029 96.6919)" fill="#FFFFFF" font-family="'HelveticaNeue-Medium'" font-size="10.6972">Plans</text>
	<rect x="30.5" y="102.5" fill="none" width="189" height="21.4"/>
	<text transform="matrix(1 0 0 1 30.5 108.0776)"><tspan x="0" y="0" fill="#F2F2F2" font-family="'HelveticaNeue'" font-size="7.7798">The base plans allows you to receive one of our </tspan><tspan x="0" y="8.4" fill="#F2F2F2" font-family="'HelveticaNeue'" font-size="7.7798">pre-designed models designed to your site. </tspan></text>
	<path fill="none" stroke="#F2F2F2" stroke-miterlimit="10" d="M52.4,142.6H39.4c-0.2,0-0.4-0.2-0.4-0.4v-12.9
		c0-0.2,0.2-0.4,0.4-0.4h12.9c0.2,0,0.4,0.2,0.4,0.4v12.9C52.7,142.4,52.5,142.6,52.4,142.6z"/>
	<text transform="matrix(1 0 0 1 60.3271 138.4917)" fill="#F2F2F2" font-family="'HelveticaNeue'" font-size="7.7798">BASE</text>
	<text transform="matrix(1 0 0 1 60.3271 165.5454)" fill="#F2F2F2" font-family="'HelveticaNeue'" font-size="7.7798">CUSTOM</text>
	<path fill="none" stroke="#F2F2F2" stroke-miterlimit="10" d="M52.3,197.2H39.4c-0.2,0-0.4-0.2-0.4-0.4v-12.9
		c0-0.2,0.2-0.4,0.4-0.4h12.9c0.2,0,0.4,0.2,0.4,0.4v12.9C52.7,197,52.5,197.2,52.3,197.2z"/>
	<text transform="matrix(1 0 0 1 60.3271 194.4087)" fill="#F2F2F2" font-family="'HelveticaNeue-Medium'" font-size="7.7798">SURVEYOR</text>
	<path fill="none" stroke="#F2F2F2" stroke-miterlimit="10" d="M52.8,224.5H39.9c-0.2,0-0.4-0.2-0.4-0.4v-12.9
		c0-0.2,0.2-0.4,0.4-0.4h12.9c0.2,0,0.4,0.2,0.4,0.4v12.9C53.2,224.4,53,224.5,52.8,224.5z"/>
	<text transform="matrix(1 0 0 1 60.3271 222.083)" fill="#F2F2F2" font-family="'HelveticaNeue-Medium'" font-size="7.7798">GEO TECHNICAL ENGINEERING</text>
	<path fill="#29E918" d="M170.9,168.4l6.4-6.4l6.2,6.2l18.2-18.2l6.4,6.4L183.5,181L170.9,168.4z"/>
	<rect x="39.1" y="155.9" fill="none" stroke="#F2F2F2" stroke-miterlimit="10" width="13.6" height="13.6"/>
	<text transform="matrix(1 0 0 1 30.5029 256.6674)" fill="#FFFFFF" font-family="'HelveticaNeue-Medium'" font-size="10.6972">SITE WORK</text>
	<rect x="30.5" y="262.5" fill="none" width="189" height="21.4"/>
	<text transform="matrix(1 0 0 1 30.5 268.0532)"><tspan x="0" y="0" fill="#F2F2F2" font-family="'HelveticaNeue'" font-size="7.7798">The base plans allows you to receive one of our </tspan><tspan x="0" y="8.4" fill="#F2F2F2" font-family="'HelveticaNeue'" font-size="7.7798">pre-designed models designed to your site. </tspan></text>
	<path fill="none" stroke="#F2F2F2" stroke-miterlimit="10" d="M52.4,302.5H39.4c-0.2,0-0.4-0.2-0.4-0.4v-12.9
		c0-0.2,0.2-0.4,0.4-0.4h12.9c0.2,0,0.4,0.2,0.4,0.4v12.9C52.7,302.4,52.5,302.5,52.4,302.5z"/>
	<text transform="matrix(1 0 0 1 60.3271 298.4672)" fill="#F2F2F2" font-family="'HelveticaNeue'" font-size="7.7798">BASE</text>
	<text transform="matrix(1 0 0 1 60.3271 325.5209)" fill="#F2F2F2" font-family="'HelveticaNeue'" font-size="7.7798">CUSTOM</text>
	<path fill="none" stroke="#F2F2F2" stroke-miterlimit="10" d="M52.3,357.2H39.4c-0.2,0-0.4-0.2-0.4-0.4v-12.9
		c0-0.2,0.2-0.4,0.4-0.4h12.9c0.2,0,0.4,0.2,0.4,0.4v12.9C52.7,357,52.5,357.2,52.3,357.2z"/>
	<text transform="matrix(1 0 0 1 60.3271 354.3842)" fill="#F2F2F2" font-family="'HelveticaNeue-Medium'" font-size="7.7798">SURVEYOR</text>
	<path fill="none" stroke="#F2F2F2" stroke-miterlimit="10" d="M52.8,384.5H39.9c-0.2,0-0.4-0.2-0.4-0.4v-12.9
		c0-0.2,0.2-0.4,0.4-0.4h12.9c0.2,0,0.4,0.2,0.4,0.4v12.9C53.2,384.3,53,384.5,52.8,384.5z"/>
	<text transform="matrix(1 0 0 1 60.3271 382.0585)" fill="#F2F2F2" font-family="'HelveticaNeue-Medium'" font-size="7.7798">GEO TECHNICAL ENGINEERING</text>
	<rect x="39.1" y="315.9" fill="none" stroke="#F2F2F2" stroke-miterlimit="10" width="13.6" height="13.6"/>
	<text transform="matrix(1 0 0 1 30.6008 415.3082)" fill="#FFFFFF" font-family="'HelveticaNeue-Medium'" font-size="10.6972">BUILDING UPGRADES</text>
	<rect x="30.6" y="421.1" fill="none" width="189" height="21.4"/>
	<text transform="matrix(1 0 0 1 30.5979 426.6945)"><tspan x="0" y="0" fill="#F2F2F2" font-family="'HelveticaNeue'" font-size="7.7798">The base plans allows you to receive one of our </tspan><tspan x="0" y="8.4" fill="#F2F2F2" font-family="'HelveticaNeue'" font-size="7.7798">pre-designed models designed to your site. </tspan></text>
	<path fill="none" stroke="#F2F2F2" stroke-miterlimit="10" d="M52.4,461.2H39.5c-0.2,0-0.4-0.2-0.4-0.4v-12.9
		c0-0.2,0.2-0.4,0.4-0.4h12.9c0.2,0,0.4,0.2,0.4,0.4v12.9C52.8,461,52.6,461.2,52.4,461.2z"/>
	<text transform="matrix(1 0 0 1 60.425 457.108)" fill="#F2F2F2" font-family="'HelveticaNeue'" font-size="7.7798">BASE</text>
	<text transform="matrix(1 0 0 1 60.425 484.1617)" fill="#F2F2F2" font-family="'HelveticaNeue'" font-size="7.7798">CUSTOM</text>
	<path fill="none" stroke="#F2F2F2" stroke-miterlimit="10" d="M52.4,515.8H39.5c-0.2,0-0.4-0.2-0.4-0.4v-12.9
		c0-0.2,0.2-0.4,0.4-0.4h12.9c0.2,0,0.4,0.2,0.4,0.4v12.9C52.8,515.7,52.6,515.8,52.4,515.8z"/>
	<text transform="matrix(1 0 0 1 60.425 513.025)" fill="#F2F2F2" font-family="'HelveticaNeue-Medium'" font-size="7.7798">SURVEYOR</text>
	<path fill="none" stroke="#F2F2F2" stroke-miterlimit="10" d="M52.9,543.1H40c-0.2,0-0.4-0.2-0.4-0.4v-12.9c0-0.2,0.2-0.4,0.4-0.4
		h12.9c0.2,0,0.4,0.2,0.4,0.4v12.9C53.3,543,53.1,543.1,52.9,543.1z"/>
	<text transform="matrix(1 0 0 1 60.425 540.6993)" fill="#F2F2F2" font-family="'HelveticaNeue-Medium'" font-size="7.7798">GEO TECHNICAL ENGINEERING</text>
	<rect x="39.2" y="474.5" fill="none" stroke="#F2F2F2" stroke-miterlimit="10" width="13.6" height="13.6"/>
	<text transform="matrix(1 0 0 1 30.6008 584.025)" fill="#FFFFFF" font-family="'HelveticaNeue-Medium'" font-size="10.6972">SITE AMENITIES</text>
	<rect x="30.6" y="589.9" fill="none" width="189" height="21.4"/>
	<text transform="matrix(1 0 0 1 30.5978 595.4112)"><tspan x="0" y="0" fill="#F2F2F2" font-family="'HelveticaNeue'" font-size="7.7798">The base plans allows you to receive one of our </tspan><tspan x="0" y="8.4" fill="#F2F2F2" font-family="'HelveticaNeue'" font-size="7.7798">pre-designed models designed to your site. </tspan></text>
	<path fill="none" stroke="#F2F2F2" stroke-miterlimit="10" d="M52.4,629.9H39.5c-0.2,0-0.4-0.2-0.4-0.4v-12.9
		c0-0.2,0.2-0.4,0.4-0.4h12.9c0.2,0,0.4,0.2,0.4,0.4v12.9C52.8,629.7,52.6,629.9,52.4,629.9z"/>
	<text transform="matrix(1 0 0 1 60.425 625.8248)" fill="#F2F2F2" font-family="'HelveticaNeue'" font-size="7.7798">BASE</text>
	<text transform="matrix(1 0 0 1 60.425 652.8785)" fill="#F2F2F2" font-family="'HelveticaNeue'" font-size="7.7798">CUSTOM</text>
	<path fill="none" stroke="#F2F2F2" stroke-miterlimit="10" d="M52.4,684.5H39.5c-0.2,0-0.4-0.2-0.4-0.4v-12.9
		c0-0.2,0.2-0.4,0.4-0.4h12.9c0.2,0,0.4,0.2,0.4,0.4v12.9C52.8,684.4,52.6,684.5,52.4,684.5z"/>
	<text transform="matrix(1 0 0 1 60.425 681.7418)" fill="#F2F2F2" font-family="'HelveticaNeue-Medium'" font-size="7.7798">SURVEYOR</text>
	<path fill="none" stroke="#F2F2F2" stroke-miterlimit="10" d="M52.9,711.9H40c-0.2,0-0.4-0.2-0.4-0.4v-12.9c0-0.2,0.2-0.4,0.4-0.4
		h12.9c0.2,0,0.4,0.2,0.4,0.4v12.9C53.3,711.7,53.1,711.9,52.9,711.9z"/>
	<text transform="matrix(1 0 0 1 60.425 709.4161)" fill="#F2F2F2" font-family="'HelveticaNeue-Medium'" font-size="7.7798">GEO TECHNICAL ENGINEERING</text>
	<rect x="39.2" y="643.2" fill="none" stroke="#F2F2F2" stroke-miterlimit="10" width="13.6" height="13.6"/>
	<g id="local_guides" display="none">
	</g>
	<text transform="matrix(1 0 0 1 767.3179 722.4489)" fill="#F2F2F2" font-family="'HelveticaNeue-Medium'" font-size="24">Summary</text>
</g>
<g id="Tree_Headers">
</g>
<g id="Dashboard_2" display="none">
	<linearGradient id="SVGID_8_" gradientUnits="userSpaceOnUse" x1="1159.5" y1="-121" x2="119.5" y2="919">
		<stop  offset="0" style="stop-color:#F2F2F2"/>
		<stop  offset="1" style="stop-color:#4CAF50"/>
	</linearGradient>
	<rect x="-0.5" y="-1" display="inline" opacity="0.92" fill="url(#SVGID_8_)" width="1280" height="800"/>
	<rect id="back_v2" x="1" opacity="0.92" fill="#F2F2F2" stroke="#4CAF50" stroke-miterlimit="10" width="1280" height="800"/>
	<rect x="1" y="1" display="inline" fill="none" stroke="#F2F2F2" stroke-miterlimit="10" width="244.2" height="797"/>
	<rect x="247.2" y="692.3" display="inline" fill="none" stroke="#F2F2F2" stroke-miterlimit="10" width="451" height="106.7"/>
	<rect x="700" y="692.3" display="inline" fill="none" stroke="#F2F2F2" stroke-miterlimit="10" width="576.5" height="106.7"/>
	<text transform="matrix(1 0 0 1 30 72)" display="inline" fill="#020202" font-family="'HelveticaNeue-Medium'" font-size="19">BASE HOME PRICE</text>
	
		<text transform="matrix(1 0 0 1 275 749)" display="inline" fill="#F2F2F2" font-family="'HelveticaNeue-CondensedBold'" font-size="25">MODEL</text>
	<text transform="matrix(1 0 0 1 274 769)" display="inline" fill="#FFFFFF" font-family="'HelveticaNeue-Thin'" font-size="25">SINGLE FAMILY HOMES</text>
	<text transform="matrix(1 0 0 1 276 96)" display="inline"><tspan x="0" y="0" fill="#020202" font-family="'HelveticaNeue-CondensedBold'" font-size="42">DESIGN &amp; </tspan><tspan x="0" y="36" fill="#020202" font-family="'HelveticaNeue-CondensedBold'" font-size="42">ENGINEERING</tspan></text>
	
		<line display="inline" fill="none" stroke="#F2F2F2" stroke-width="2" stroke-miterlimit="10" x1="276" y1="139" x2="498" y2="139"/>
	<path display="inline" fill="#727272" d="M1202.3,51.3l-8.5-8.5l-8.5,8.5L1179,45l8.5-8.5l-8.5-8.5l6.4-6.4l8.5,8.5l8.5-8.5
		l6.4,6.4l-8.5,8.5l8.5,8.5L1202.3,51.3z"/>
	<text transform="matrix(1 0 0 1 388 227)" display="inline" fill="#020202" font-family="'HelveticaNeue-Medium'" font-size="33">Plans</text>
	<rect x="388" y="245" display="inline" fill="none" width="583" height="66"/>
	<text transform="matrix(1 0 0 1 388 262.1357)" display="inline"><tspan x="0" y="0" fill="#020202" font-family="'HelveticaNeue'" font-size="24">The base plans allows you to receive one of our </tspan><tspan x="0" y="26" fill="#020202" font-family="'HelveticaNeue'" font-size="24">pre-designed models designed to your site. </tspan></text>
	<path display="inline" fill="#F2F2F2" stroke="#020202" stroke-miterlimit="10" d="M455.4,368.5h-39.8c-0.6,0-1.1-0.5-1.1-1.1
		v-39.8c0-0.6,0.5-1.1,1.1-1.1h39.8c0.6,0,1.1,0.5,1.1,1.1v39.8C456.5,368,456,368.5,455.4,368.5z"/>
	<text transform="matrix(1 0 0 1 480 355.9561)" display="inline" fill="#020202" font-family="'HelveticaNeue'" font-size="24">BASE</text>
	<path display="inline" fill="#F2F2F2" stroke="#020202" stroke-miterlimit="10" d="M455.4,452.8h-39.8c-0.6,0-1.1-0.5-1.1-1.1
		v-39.8c0-0.6,0.5-1.1,1.1-1.1h39.8c0.6,0,1.1,0.5,1.1,1.1v39.8C456.5,452.3,456,452.8,455.4,452.8z"/>
	<text transform="matrix(1 0 0 1 480 439.4121)" display="inline" fill="#020202" font-family="'HelveticaNeue'" font-size="24">CUSTOM</text>
	<path display="inline" fill="#F2F2F2" stroke="#020202" stroke-miterlimit="10" d="M455.3,537.1h-39.8c-0.6,0-1.1-0.5-1.1-1.1
		v-39.8c0-0.6,0.5-1.1,1.1-1.1h39.8c0.6,0,1.1,0.5,1.1,1.1V536C456.4,536.6,455.9,537.1,455.3,537.1z"/>
	
		<text transform="matrix(1 0 0 1 479.9999 528.4561)" display="inline" fill="#020202" font-family="'HelveticaNeue-Medium'" font-size="24">SURVEYOR</text>
	<path display="inline" fill="#F2F2F2" stroke="#020202" stroke-miterlimit="10" d="M456.9,621.4h-39.8c-0.6,0-1.1-0.5-1.1-1.1
		v-39.8c0-0.6,0.5-1.1,1.1-1.1h39.8c0.6,0,1.1,0.5,1.1,1.1v39.8C458,620.9,457.5,621.4,456.9,621.4z"/>
	
		<text transform="matrix(1 0 0 1 480 613.8207)" display="inline" fill="#020202" font-family="'HelveticaNeue-Medium'" font-size="24">GEO TECHNICAL ENGINEERING</text>
	<path display="inline" fill="#29E918" d="M416.8,434.7l6.4-6.4l6.2,6.2l18.2-18.2l6.4,6.4l-24.5,24.6L416.8,434.7z"/>
	<path display="inline" fill="#727272" d="M622.1,655.8l6.8-6.8l10.6,10.6l10.6-10.6l6.8,6.8l-17.3,17.4L622.1,655.8z"/>
	
		<text transform="matrix(1 0 0 1 863.9996 767.6667)" display="inline" fill="#020202" font-family="'HelveticaNeue-Medium'" font-size="24">Total</text>
	<text transform="matrix(1 0 0 1 1027 767)" display="inline" fill="#020202" font-family="'HelveticaNeue-Medium'" font-size="35">$133,424.07</text>
	<path display="inline" fill="#727272" d="M1139.3,26v25.5c0,0.4-0.2,0.8-0.5,1.1c-0.3,0.3-0.6,0.4-1,0.4h-4.5V41h-21v12h-4.5
		c-0.4,0-0.8-0.1-1.1-0.4c-0.3-0.3-0.4-0.6-0.4-1.1v-30c0-0.4,0.1-0.8,0.4-1.1c0.3-0.3,0.6-0.4,1.1-0.4h7.5v9h15v-9h3L1139.3,26z
		 M1127.3,20h-3v6h3V20z"/>
	
		<text transform="matrix(1 0 0 1 1045.3387 43.9537)" display="inline" fill="#727272" font-family="'HelveticaNeue-Medium'" font-size="24">save</text>
	
		<text transform="matrix(1 0 0 1 29.5029 97.6919)" display="inline" fill="#020202" font-family="'HelveticaNeue-Medium'" font-size="10.6972">Plans</text>
	<rect x="29.5" y="103.5" display="inline" fill="none" width="189" height="21.4"/>
	<text transform="matrix(1 0 0 1 29.5 109.0776)" display="inline"><tspan x="0" y="0" fill="#020202" font-family="'HelveticaNeue'" font-size="7.7798">The base plans allows you to receive one of our </tspan><tspan x="0" y="8.4" fill="#020202" font-family="'HelveticaNeue'" font-size="7.7798">pre-designed models designed to your site. </tspan></text>
	<path display="inline" fill="#F2F2F2" stroke="#020202" stroke-miterlimit="10" d="M51.4,143.6H38.4c-0.2,0-0.4-0.2-0.4-0.4v-12.9
		c0-0.2,0.2-0.4,0.4-0.4h12.9c0.2,0,0.4,0.2,0.4,0.4v12.9C51.7,143.4,51.5,143.6,51.4,143.6z"/>
	
		<text transform="matrix(1 0 0 1 59.3271 139.4917)" display="inline" fill="#020202" font-family="'HelveticaNeue'" font-size="7.7798">BASE</text>
	
		<text transform="matrix(1 0 0 1 59.3271 166.5454)" display="inline" fill="#020202" font-family="'HelveticaNeue'" font-size="7.7798">CUSTOM</text>
	<path display="inline" fill="#F2F2F2" stroke="#020202" stroke-miterlimit="10" d="M51.3,198.2H38.4c-0.2,0-0.4-0.2-0.4-0.4v-12.9
		c0-0.2,0.2-0.4,0.4-0.4h12.9c0.2,0,0.4,0.2,0.4,0.4v12.9C51.7,198,51.5,198.2,51.3,198.2z"/>
	
		<text transform="matrix(1 0 0 1 59.3271 195.4087)" display="inline" fill="#020202" font-family="'HelveticaNeue-Medium'" font-size="7.7798">SURVEYOR</text>
	<path display="inline" fill="#F2F2F2" stroke="#020202" stroke-miterlimit="10" d="M51.8,225.5H38.9c-0.2,0-0.4-0.2-0.4-0.4v-12.9
		c0-0.2,0.2-0.4,0.4-0.4h12.9c0.2,0,0.4,0.2,0.4,0.4v12.9C52.2,225.4,52,225.5,51.8,225.5z"/>
	
		<text transform="matrix(1 0 0 1 59.3271 223.083)" display="inline" fill="#020202" font-family="'HelveticaNeue-Medium'" font-size="7.7798">GEO TECHNICAL ENGINEERING</text>
	<path display="inline" fill="#29E918" d="M169.9,169.4l6.4-6.4l6.2,6.2l18.2-18.2l6.4,6.4L182.5,182L169.9,169.4z"/>
	<rect x="38.1" y="156.9" display="inline" fill="#F2F2F2" stroke="#020202" stroke-miterlimit="10" width="13.6" height="13.6"/>
	
		<text transform="matrix(1 0 0 1 29.5029 257.6674)" display="inline" fill="#020202" font-family="'HelveticaNeue-Medium'" font-size="10.6972">SITE WORK</text>
	<rect x="29.5" y="263.5" display="inline" fill="none" width="189" height="21.4"/>
	<text transform="matrix(1 0 0 1 29.5 269.0532)" display="inline"><tspan x="0" y="0" fill="#020202" font-family="'HelveticaNeue'" font-size="7.7798">The base plans allows you to receive one of our </tspan><tspan x="0" y="8.4" fill="#020202" font-family="'HelveticaNeue'" font-size="7.7798">pre-designed models designed to your site. </tspan></text>
	<path display="inline" fill="#F2F2F2" stroke="#020202" stroke-miterlimit="10" d="M51.4,303.5H38.4c-0.2,0-0.4-0.2-0.4-0.4v-12.9
		c0-0.2,0.2-0.4,0.4-0.4h12.9c0.2,0,0.4,0.2,0.4,0.4v12.9C51.7,303.4,51.5,303.5,51.4,303.5z"/>
	
		<text transform="matrix(1 0 0 1 59.3271 299.4672)" display="inline" fill="#020202" font-family="'HelveticaNeue'" font-size="7.7798">BASE</text>
	
		<text transform="matrix(1 0 0 1 59.3271 326.5209)" display="inline" fill="#020202" font-family="'HelveticaNeue'" font-size="7.7798">CUSTOM</text>
	<path display="inline" fill="#F2F2F2" stroke="#020202" stroke-miterlimit="10" d="M51.3,358.2H38.4c-0.2,0-0.4-0.2-0.4-0.4v-12.9
		c0-0.2,0.2-0.4,0.4-0.4h12.9c0.2,0,0.4,0.2,0.4,0.4v12.9C51.7,358,51.5,358.2,51.3,358.2z"/>
	
		<text transform="matrix(1 0 0 1 59.3271 355.3842)" display="inline" fill="#020202" font-family="'HelveticaNeue-Medium'" font-size="7.7798">SURVEYOR</text>
	<path display="inline" fill="#F2F2F2" stroke="#020202" stroke-miterlimit="10" d="M51.8,385.5H38.9c-0.2,0-0.4-0.2-0.4-0.4v-12.9
		c0-0.2,0.2-0.4,0.4-0.4h12.9c0.2,0,0.4,0.2,0.4,0.4v12.9C52.2,385.3,52,385.5,51.8,385.5z"/>
	
		<text transform="matrix(1 0 0 1 59.3271 383.0585)" display="inline" fill="#020202" font-family="'HelveticaNeue-Medium'" font-size="7.7798">GEO TECHNICAL ENGINEERING</text>
	<rect x="38.1" y="316.9" display="inline" fill="#F2F2F2" stroke="#020202" stroke-miterlimit="10" width="13.6" height="13.6"/>
	
		<text transform="matrix(1 0 0 1 29.6008 416.3082)" display="inline" fill="#020202" font-family="'HelveticaNeue-Medium'" font-size="10.6972">BUILDING UPGRADES</text>
	<rect x="29.6" y="422.1" display="inline" fill="none" width="189" height="21.4"/>
	<text transform="matrix(1 0 0 1 29.5979 427.694)" display="inline"><tspan x="0" y="0" fill="#020202" font-family="'HelveticaNeue'" font-size="7.7798">The base plans allows you to receive one of our </tspan><tspan x="0" y="8.4" fill="#020202" font-family="'HelveticaNeue'" font-size="7.7798">pre-designed models designed to your site. </tspan></text>
	<path display="inline" fill="#F2F2F2" stroke="#020202" stroke-miterlimit="10" d="M51.4,462.2H38.5c-0.2,0-0.4-0.2-0.4-0.4v-12.9
		c0-0.2,0.2-0.4,0.4-0.4h12.9c0.2,0,0.4,0.2,0.4,0.4v12.9C51.8,462,51.6,462.2,51.4,462.2z"/>
	
		<text transform="matrix(1 0 0 1 59.425 458.108)" display="inline" fill="#020202" font-family="'HelveticaNeue'" font-size="7.7798">BASE</text>
	
		<text transform="matrix(1 0 0 1 59.425 485.1617)" display="inline" fill="#020202" font-family="'HelveticaNeue'" font-size="7.7798">CUSTOM</text>
	<path display="inline" fill="#F2F2F2" stroke="#020202" stroke-miterlimit="10" d="M51.4,516.8H38.5c-0.2,0-0.4-0.2-0.4-0.4v-12.9
		c0-0.2,0.2-0.4,0.4-0.4h12.9c0.2,0,0.4,0.2,0.4,0.4v12.9C51.8,516.7,51.6,516.8,51.4,516.8z"/>
	
		<text transform="matrix(1 0 0 1 59.425 514.025)" display="inline" fill="#020202" font-family="'HelveticaNeue-Medium'" font-size="7.7798">SURVEYOR</text>
	<path display="inline" fill="#F2F2F2" stroke="#020202" stroke-miterlimit="10" d="M51.9,544.1H39c-0.2,0-0.4-0.2-0.4-0.4v-12.9
		c0-0.2,0.2-0.4,0.4-0.4h12.9c0.2,0,0.4,0.2,0.4,0.4v12.9C52.3,544,52.1,544.1,51.9,544.1z"/>
	
		<text transform="matrix(1 0 0 1 59.425 541.6993)" display="inline" fill="#020202" font-family="'HelveticaNeue-Medium'" font-size="7.7798">GEO TECHNICAL ENGINEERING</text>
	<rect x="38.2" y="475.5" display="inline" fill="#F2F2F2" stroke="#020202" stroke-miterlimit="10" width="13.6" height="13.6"/>
	
		<text transform="matrix(1 0 0 1 29.6008 585.025)" display="inline" fill="#020202" font-family="'HelveticaNeue-Medium'" font-size="10.6972">SITE AMENITIES</text>
	<rect x="29.6" y="590.9" display="inline" fill="none" width="189" height="21.4"/>
	<text transform="matrix(1 0 0 1 29.5978 596.4107)" display="inline"><tspan x="0" y="0" fill="#020202" font-family="'HelveticaNeue'" font-size="7.7798">The base plans allows you to receive one of our </tspan><tspan x="0" y="8.4" fill="#020202" font-family="'HelveticaNeue'" font-size="7.7798">pre-designed models designed to your site. </tspan></text>
	<path display="inline" fill="#F2F2F2" stroke="#020202" stroke-miterlimit="10" d="M51.4,630.9H38.5c-0.2,0-0.4-0.2-0.4-0.4v-12.9
		c0-0.2,0.2-0.4,0.4-0.4h12.9c0.2,0,0.4,0.2,0.4,0.4v12.9C51.8,630.7,51.6,630.9,51.4,630.9z"/>
	
		<text transform="matrix(1 0 0 1 59.425 626.8248)" display="inline" fill="#020202" font-family="'HelveticaNeue'" font-size="7.7798">BASE</text>
	
		<text transform="matrix(1 0 0 1 59.425 653.8785)" display="inline" fill="#020202" font-family="'HelveticaNeue'" font-size="7.7798">CUSTOM</text>
	<path display="inline" fill="#F2F2F2" stroke="#020202" stroke-miterlimit="10" d="M51.4,685.5H38.5c-0.2,0-0.4-0.2-0.4-0.4v-12.9
		c0-0.2,0.2-0.4,0.4-0.4h12.9c0.2,0,0.4,0.2,0.4,0.4v12.9C51.8,685.4,51.6,685.5,51.4,685.5z"/>
	
		<text transform="matrix(1 0 0 1 59.425 682.7418)" display="inline" fill="#020202" font-family="'HelveticaNeue-Medium'" font-size="7.7798">SURVEYOR</text>
	<path display="inline" fill="#F2F2F2" stroke="#020202" stroke-miterlimit="10" d="M51.9,712.9H39c-0.2,0-0.4-0.2-0.4-0.4v-12.9
		c0-0.2,0.2-0.4,0.4-0.4h12.9c0.2,0,0.4,0.2,0.4,0.4v12.9C52.3,712.7,52.1,712.9,51.9,712.9z"/>
	
		<text transform="matrix(1 0 0 1 59.425 710.4161)" display="inline" fill="#020202" font-family="'HelveticaNeue-Medium'" font-size="7.7798">GEO TECHNICAL ENGINEERING</text>
	<rect x="38.2" y="644.2" display="inline" fill="#F2F2F2" stroke="#020202" stroke-miterlimit="10" width="13.6" height="13.6"/>
</g>
<g id="Layer_2" display="none">
</g>
</svg>
